<svg version="1.2" xmlns="http://www.w3.org/2000/svg" viewBox="0 0 20 20" width="20" height="20">
	<title>cloud-svg</title>
	<defs>
		<clipPath clipPathUnits="userSpaceOnUse" id="cp1">
			<path d="m10.58 5.12c0.41 0.35 0.78 0.71 1.06 1.17q0 0.04 0 0.08 0.07-0.03 0.13-0.07c0.91-0.42 1.89-0.59 2.87-0.27q0.66 0.23 1.18 0.69 0.04 0.03 0.08 0.06c0.57 0.46 0.95 1.18 1.09 1.89 0.01 0.11 0.01 0.11 0 0.2 0.07 0 0.07 0 0.14 0 0.82 0.1 1.56 0.6 2.09 1.21 0.68 0.86 0.89 1.82 0.77 2.91-0.14 0.88-0.71 1.7-1.42 2.23q-0.64 0.43-1.38 0.6-0.05 0.01-0.09 0.02-0.17 0.03-0.35 0.02-0.07 0-0.15 0.01-0.08 0-0.16 0-0.08 0-0.17 0-0.24 0-0.47 0-0.26 0-0.51 0-0.62 0-1.24 0-0.29 0-0.58 0-0.97 0-1.93 0-0.25 0-0.5 0c-0.07 0-0.07 0-0.13 0q-1.01 0-2.02 0-1.03 0.01-2.07 0.01-0.58 0-1.16 0-0.5 0-0.99 0-0.26 0-0.51 0-0.23 0-0.46 0-0.09 0-0.17 0c-0.98 0.01-1.84-0.38-2.55-1.05-0.71-0.75-1.01-1.61-1-2.63 0.03-0.98 0.45-1.81 1.15-2.49 0.48-0.43 1.18-0.84 1.84-0.84q0-0.06-0.01-0.12c-0.03-1.2 0.46-2.29 1.26-3.16q0.04-0.05 0.08-0.1c0.42-0.44 0.93-0.75 1.48-1q0.06-0.03 0.13-0.05c1.52-0.65 3.39-0.35 4.67 0.68zm-5.42 1.25c-0.63 0.65-1 1.47-0.99 2.38q0 0.05 0 0.11 0.01 0.58 0.13 1.14-0.08 0-0.15 0c-0.86-0.01-1.64 0.08-2.28 0.69-0.5 0.53-0.68 1.14-0.67 1.85q0.01 0.36 0.17 0.7 0.02 0.06 0.04 0.11c0.3 0.6 0.8 1 1.42 1.22 0.4 0.12 0.82 0.13 1.24 0.13q0.08 0 0.16 0 0.22 0 0.44 0 0.23 0 0.47 0 0.46 0 0.92 0 0.38 0 0.76 0 0.05 0 0.11 0 0.1 0 0.21 0 1.02 0 2.04 0 0.88 0 1.75 0 1.02 0 2.04 0 0.1 0 0.21 0 0.06 0 0.11 0 0.38 0 0.75 0 0.46 0 0.92 0 0.23 0 0.46 0 0.22 0 0.43 0 0.11 0 0.23 0c0.77-0.01 1.48-0.16 2.05-0.71 0.5-0.53 0.68-1.13 0.67-1.84q-0.01-0.37-0.17-0.7-0.02-0.06-0.04-0.11c-0.3-0.6-0.81-1-1.43-1.22-0.43-0.13-0.86-0.13-1.3-0.12 0-0.05 0-0.05 0-0.11 0.01-0.85-0.14-1.52-0.73-2.16-0.44-0.42-1.01-0.67-1.61-0.66-0.78 0.05-1.32 0.35-1.85 0.91q-0.2 0.2-0.42 0.38c-0.02-0.04-0.02-0.04-0.03-0.09-0.49-1.18-1.01-2.16-2.24-2.69-1.33-0.55-2.81-0.2-3.82 0.79z"/>
		</clipPath>
		<linearGradient id="g1" x2="1" gradientUnits="userSpaceOnUse" gradientTransform="matrix(20,0,0,20,0,10)">
			<stop offset="0" stop-color="#ab18ff"/>
			<stop offset="1" stop-color="#0585ff"/>
		</linearGradient>
	</defs>
	<style>
		.s0 { fill: #000000 } 
	</style>
	<g clip-path="url(#cp1)">
		<path fill-rule="evenodd" class="s0" d="m10.6 5.1c0.4 0.4 0.8 0.7 1 1.2q0 0 0 0.1 0.1-0.1 0.2-0.1c0.9-0.4 1.9-0.6 2.8-0.3q0.7 0.3 1.2 0.7 0.1 0 0.1 0.1c0.6 0.4 1 1.2 1.1 1.9 0 0.1 0 0.1 0 0.2 0.1 0 0.1 0 0.1 0 0.8 0.1 1.6 0.6 2.1 1.2 0.7 0.8 0.9 1.8 0.8 2.9-0.1 0.9-0.7 1.7-1.4 2.2q-0.7 0.4-1.4 0.6-0.1 0-0.1 0-0.2 0.1-0.3 0.1-0.1 0-0.2 0-0.1 0-0.2 0 0 0-0.1 0-0.3 0-0.5 0-0.3 0-0.5 0-0.6 0-1.2 0-0.3 0-0.6 0-1 0-2 0-0.2 0-0.5 0c0 0 0 0-0.1 0q-1 0-2 0-1 0-2.1 0-0.6 0-1.1 0-0.5 0-1 0-0.3 0-0.5 0-0.3 0-0.5 0-0.1 0-0.2 0c-0.9 0-1.8-0.4-2.5-1.1-0.7-0.7-1-1.6-1-2.6 0-1 0.4-1.8 1.1-2.5 0.5-0.4 1.2-0.8 1.9-0.8q0-0.1 0-0.2c-0.1-1.1 0.4-2.2 1.2-3.1q0.1-0.1 0.1-0.1c0.4-0.5 0.9-0.8 1.5-1q0 0 0.1-0.1c1.5-0.6 3.4-0.3 4.7 0.7zm-5.4 1.3c-0.7 0.6-1 1.4-1 2.3q0 0.1 0 0.2 0 0.5 0.1 1.1-0.1 0-0.2 0c-0.8 0-1.6 0.1-2.2 0.7-0.5 0.5-0.7 1.1-0.7 1.8q0 0.4 0.2 0.7 0 0.1 0 0.2c0.3 0.5 0.8 0.9 1.4 1.2 0.4 0.1 0.9 0.1 1.3 0.1q0.1 0 0.1 0 0.2 0 0.5 0 0.2 0 0.4 0 0.5 0 1 0 0.3 0 0.7 0 0.1 0 0.1 0 0.1 0 0.2 0 1.1 0 2.1 0 0.9 0 1.7 0 1 0 2.1 0 0.1 0 0.2 0 0 0 0.1 0 0.4 0 0.7 0 0.5 0 1 0 0.2 0 0.4 0 0.2 0 0.5 0 0.1 0 0.2 0c0.7 0 1.5-0.2 2-0.7 0.5-0.5 0.7-1.1 0.7-1.8q0-0.4-0.2-0.8 0 0 0-0.1c-0.3-0.6-0.8-1-1.4-1.2-0.5-0.1-0.9-0.1-1.3-0.1 0-0.1 0-0.1 0-0.1 0-0.9-0.2-1.5-0.8-2.2-0.4-0.4-1-0.6-1.6-0.6-0.8 0-1.3 0.3-1.8 0.9q-0.2 0.2-0.4 0.4c-0.1-0.1-0.1-0.1-0.1-0.1-0.5-1.2-1-2.2-2.2-2.7-1.3-0.6-2.8-0.2-3.8 0.8z"/>
		<rect width="20" height="20" id="Layer 1" style="fill: url(#g1)"/>
	</g>
</svg>