<?xml version="1.0" encoding="UTF-8"?>
<svg version="1.1" xmlns="http://www.w3.org/2000/svg" width="512" height="512">
<path d="M0 0 C0.79680176 0.28713867 1.59360352 0.57427734 2.41455078 0.87011719 C26.58371706 9.72943116 49.36821795 22.26521561 69 39 C70.13128841 39.94687989 71.26281729 40.89347252 72.39453125 41.83984375 C90.56567857 57.13135714 90.56567857 57.13135714 93 62 C94.11629084 58.65112749 94.27349411 55.83876703 94.46484375 52.3125 C94.54348443 50.95962754 94.62226521 49.60676322 94.70117188 48.25390625 C94.81973301 46.13928191 94.93618247 44.02457665 95.04956055 41.90966797 C96.39739481 17.12238189 96.39739481 17.12238189 102 12 C107.47537543 8.13891629 112.49534375 8.20567291 119 9 C123.46279226 11.15170341 126.2358803 13.90500786 129 18 C129.95185631 20.92969524 130.08347839 23.45502081 129.94702148 26.52001953 C129.90875748 27.42509247 129.87049347 28.33016541 129.83106995 29.26266479 C129.7824028 30.25106354 129.73373566 31.23946228 129.68359375 32.2578125 C129.61162025 33.83116867 129.61162025 33.83116867 129.53819275 35.43630981 C128.93081508 48.21508125 128.1450979 60.9838715 127.32543945 73.75048828 C127.10277911 77.22353578 126.88897673 80.69707264 126.67705631 84.17078972 C126.46909862 87.54914289 126.25148514 90.92686018 126.03515625 94.3046875 C125.96112076 95.53395966 125.88708527 96.76323181 125.81080627 98.02975464 C124.55439708 117.08068906 124.55439708 117.08068906 118.828125 123.625 C114.00806312 127.25034569 108.44368363 127.29743901 102.64306641 127.29052734 C101.82598709 127.29724457 101.00890778 127.30396179 100.16706848 127.31088257 C97.47850384 127.32980779 94.79018952 127.33378388 92.1015625 127.3359375 C90.22358092 127.34236886 88.34560035 127.34909748 86.46762085 127.35610962 C82.53535642 127.36806842 78.60317976 127.37179184 74.67089844 127.37060547 C69.64504899 127.37040228 64.61976496 127.39771098 59.59404945 127.43214989 C55.71629273 127.45444285 51.83867162 127.45844229 47.96085739 127.45738602 C46.10858587 127.45973811 44.25631039 127.46853946 42.40410233 127.48405075 C39.80757852 127.50376105 37.21226817 127.49785359 34.61572266 127.48583984 C33.85909836 127.49707886 33.10247406 127.50831787 32.32292175 127.51989746 C26.860912 127.45603851 22.53266998 126.1120624 18 123 C13.83085343 117.76184149 12.45272576 113.67674578 13 107 C14.80992612 101.72760653 17.23452382 98.05479243 22 95 C24.91725834 94.02758055 26.88803439 93.84832181 29.93041992 93.79467773 C30.93123093 93.77473251 31.93204193 93.75478729 32.96318054 93.73423767 C34.5804882 93.70916893 34.5804882 93.70916893 36.23046875 93.68359375 C37.33602615 93.66281265 38.44158356 93.64203156 39.5806427 93.62062073 C43.1161979 93.55517668 46.65182806 93.49626397 50.1875 93.4375 C52.58269008 93.3943099 54.97787255 93.35069546 57.37304688 93.30664062 C63.24861842 93.19950052 69.12426472 93.09772443 75 93 C73.13810634 90.79339545 71.27159518 88.59098354 69.40234375 86.390625 C68.88393921 85.77525879 68.36553467 85.15989258 67.8314209 84.52587891 C54.69203628 69.09409101 38.39950636 57.19231747 21 47 C20.34580078 46.61457031 19.69160156 46.22914062 19.01757812 45.83203125 C-25.57961278 19.93118499 -79.39977057 14.7473353 -128.91015625 27.5625 C-179.17887945 41.33213314 -221.83874168 74.95522512 -247.78125 119.984375 C-259.26783113 140.50192539 -267.24325028 162.76854637 -271 186 C-271.11569336 186.70688965 -271.23138672 187.4137793 -271.35058594 188.14208984 C-279.14700165 238.35609666 -265.672885 289.78143156 -236.7890625 331.16796875 C-205.3746889 374.09338538 -159.5957644 402.45730223 -106.953125 411.03515625 C-56.58218664 418.4503333 -3.94718514 406.59191386 37.3684082 376.48022461 C43.4795637 371.92371823 49.31678149 367.14818597 54.8984375 361.94921875 C56.77927667 360.20472294 58.70618031 358.56532432 60.6875 356.9375 C64.55091049 353.62856046 67.76079063 349.91276897 71 346 C71.64412842 345.24033936 71.64412842 345.24033936 72.30126953 344.46533203 C102.40540351 308.88019804 117.48538379 265.17434375 119.4375 218.875 C119.84414183 211.38340634 121.07288753 207.85393466 126.5 202.5625 C131.6706078 200.25419295 136.42683665 200.24211103 142 201 C146.47870656 203.15937638 149.18198188 205.92952939 152 210 C162.57996957 241.73990872 143.22527036 291.52657056 129.31787109 319.85205078 C119.40753726 339.26137219 107.31102065 356.52446291 92.4296875 372.3828125 C90.48217645 374.48061379 88.62911965 376.60309773 86.8125 378.8125 C83.56553483 382.6373149 79.8272147 385.77177277 76 389 C74.59427734 390.2375 74.59427734 390.2375 73.16015625 391.5 C42.09465068 418.68906435 2.78205192 437.39671444 -38 444 C-39.25554687 444.21011719 -40.51109375 444.42023438 -41.8046875 444.63671875 C-45.198861 445.16032757 -48.58840653 445.60714984 -52 446 C-52.97066406 446.11214844 -53.94132813 446.22429687 -54.94140625 446.33984375 C-112.67525344 451.83472099 -172.52903522 435.23262755 -218 399 C-218.87398438 398.31808594 -219.74796875 397.63617188 -220.6484375 396.93359375 C-243.76216041 378.53073225 -262.40320681 356.65876595 -277 331 C-277.65162109 329.85942139 -277.65162109 329.85942139 -278.31640625 328.69580078 C-307.42897474 277.15134649 -315.03285703 213.63819764 -299.27734375 156.5703125 C-281.79317795 96.24659955 -243.05314115 45.73181824 -188 15 C-130.55179937 -15.6940617 -61.56271376 -22.28972439 0 0 Z " fill="#0585ff" transform="translate(333,39)"/>
<path d="M0 0 C4.05691886 3.08325833 6.55727114 5.94281888 7.73158264 10.97363281 C8.23447299 15.32147028 8.1562491 19.55203388 8.04467773 23.921875 C8.00528129 25.87783122 7.96678452 27.83380571 7.92906189 29.78979492 C7.90816938 30.8213974 7.88727688 31.85299988 7.86575127 32.91586304 C7.74731684 39.56542223 7.71143838 46.21601965 7.66566372 52.8664093 C7.62097532 58.69652875 7.54380624 64.52261895 7.39477539 70.35107422 C7.25182437 76.00666676 7.19837759 81.65700757 7.20396614 87.31433105 C7.19052163 89.4579213 7.14558622 91.60157462 7.06722832 93.74377441 C6.43256343 105.34132897 6.43256343 105.34132897 10.90181923 115.64770889 C15.17967447 119.80343768 19.94908463 123.05568429 25.04985809 126.11693192 C27.59883548 127.6622658 29.9483997 129.41442167 32.30078125 131.2421875 C33.67812889 132.24693177 35.0569962 133.24959667 36.4375 134.25 C44.12125054 139.86504847 51.70593455 145.59963781 59.25537109 151.39379883 C63.6205249 154.73570469 68.00781172 158.03525676 72.46484375 161.25390625 C73.32207031 161.87458984 74.17929687 162.49527344 75.0625 163.13476562 C76.67291963 164.29602916 78.28844961 165.45025476 79.91015625 166.59570312 C85.38848982 170.54958875 90.92779341 174.78338024 93.125 181.375 C93.49326224 186.99099916 93.34056007 190.55165989 90.125 195.375 C86.01936932 199.42588893 82.64398803 201.5920344 76.875 202.0625 C68.87382169 201.93940495 64.14594178 197.85022523 58.21679688 193.05273438 C55.06588161 190.5255297 51.83995679 188.09952079 48.62084961 185.66015625 C45.90365474 183.59933044 43.19577084 181.5266788 40.48828125 179.453125 C35.57503302 175.70314628 30.61193995 172.02615246 25.625 168.375 C17.94205677 162.74653509 10.34438544 157.01367832 2.78735352 151.21728516 C-1.31790558 148.07098323 -5.4343665 144.94894046 -9.6171875 141.90625 C-10.34977783 141.37016113 -11.08236816 140.83407227 -11.8371582 140.28173828 C-13.18639047 139.29776952 -14.54127796 138.32148338 -15.90307617 137.35498047 C-16.5035376 136.91557129 -17.10399902 136.47616211 -17.72265625 136.0234375 C-18.4962146 135.46922119 -18.4962146 135.46922119 -19.28540039 134.90380859 C-23.4318661 130.91591606 -25.10375756 127.92357598 -25.3896637 122.18287659 C-25.41640614 120.08244647 -25.42113789 117.98166554 -25.40844727 115.88110352 C-25.42137062 114.15564301 -25.42137062 114.15564301 -25.43455505 112.39532471 C-25.45723271 108.59795545 -25.45047213 104.8013231 -25.44140625 101.00390625 C-25.44664109 98.36123943 -25.45291706 95.71857448 -25.46018982 93.07591248 C-25.47202738 87.53873419 -25.46635699 82.00176528 -25.45141602 76.46459961 C-25.43449742 70.07507826 -25.45032929 63.68624024 -25.4826389 57.29679352 C-25.5126046 51.13616822 -25.51450928 44.9758545 -25.5051403 38.81516838 C-25.50432046 36.20011443 -25.51119006 33.58504629 -25.52591133 30.97003365 C-25.54334542 27.3122807 -25.52882102 23.65598553 -25.50610352 19.99829102 C-25.51779572 18.92014633 -25.52948792 17.84200165 -25.54153442 16.73118591 C-25.45579285 9.94016678 -24.47692396 6.44282525 -19.875 1.375 C-14.10974149 -2.78134916 -6.35182078 -3.26469928 0 0 Z " fill="#0585ff" transform="translate(264.875,134.625)"/>
</svg>
