<?xml version="1.0" encoding="UTF-8"?>
<svg version="1.1" xmlns="http://www.w3.org/2000/svg" width="512" height="512">
<path d="M0 0 C2.31767713 2.43388379 3.12698778 4.27378586 3.55078125 7.59765625 C3.02590608 12.70232454 1.08601819 16.09005444 -1.47265625 20.47265625 C-1.95613525 21.32335693 -2.43961426 22.17405762 -2.93774414 23.05053711 C-4.55347934 25.87061353 -6.19709871 28.67282853 -7.84765625 31.47265625 C-8.45174316 32.50406738 -9.05583008 33.53547852 -9.67822266 34.59814453 C-11.53314518 37.75242991 -13.40474169 40.89600914 -15.28515625 44.03515625 C-15.87570801 45.02837891 -16.46625977 46.02160156 -17.07470703 47.04492188 C-17.63786621 47.97111328 -18.20102539 48.89730469 -18.78125 49.8515625 C-19.27681396 50.67213135 -19.77237793 51.4927002 -20.28295898 52.33813477 C-21.99863813 54.67862201 -23.30541286 56.06238347 -25.84765625 57.47265625 C-30.22811027 57.9610756 -33.05400981 57.23348122 -36.9375 55.2421875 C-37.87891846 54.77111572 -38.82033691 54.30004395 -39.7902832 53.81469727 C-40.77859131 53.30994873 -41.76689941 52.8052002 -42.78515625 52.28515625 C-51.67936061 47.89976611 -60.24755946 44.06839057 -69.84765625 41.47265625 C-70.51474609 41.29154297 -71.18183594 41.11042969 -71.86914062 40.92382812 C-96.31820533 34.45665617 -120.99755537 34.54091986 -145.84765625 38.47265625 C-145.52152344 39.46523437 -145.19539062 40.4578125 -144.859375 41.48046875 C-141.97190006 50.4092087 -139.62079728 59.24655658 -137.84765625 68.47265625 C-136.67847656 68.15039062 -135.50929687 67.828125 -134.3046875 67.49609375 C-127.44679766 65.98342236 -120.52694669 66.0766306 -113.53515625 66.09765625 C-112.82589996 66.09853241 -112.11664368 66.09940857 -111.38589478 66.10031128 C-80.13034688 66.2274683 -52.9315025 76.71895359 -28.84765625 96.47265625 C-22.32619871 91.11867643 -16.45344554 85.15963716 -10.53515625 79.16015625 C-8.56277123 77.16119008 -6.58709228 75.16556405 -4.609375 73.171875 C-3.30939575 71.85449341 -3.30939575 71.85449341 -1.9831543 70.51049805 C1.00479808 67.65918463 3.54879806 66.67493396 7.76171875 66.7734375 C18.50466729 69.91557441 28.04800666 86.77680564 34.15234375 95.47265625 C34.48234375 96.13265625 34.81234375 96.79265625 35.15234375 97.47265625 C40.14159328 95.68501016 44.66003069 93.10321239 49.27734375 90.53515625 C50.08816406 90.09236328 50.89898437 89.64957031 51.734375 89.19335938 C52.51425781 88.76087891 53.29414063 88.32839844 54.09765625 87.8828125 C54.80422363 87.49230713 55.51079102 87.10180176 56.23876953 86.69946289 C58.1583217 85.46882374 59.60933751 84.14288647 61.15234375 82.47265625 C52.87865846 70.64076811 44.32699487 59.44468176 34.12109375 49.17578125 C31.71145579 45.86731008 31.31786086 43.53019005 31.15234375 39.47265625 C32.49796774 36.52509893 33.23788919 34.92988353 36.15234375 33.47265625 C39.55784602 32.92777589 42.03723368 32.77773258 45.0390625 34.6484375 C47.20377719 36.48822544 49.17758272 38.42980001 51.15234375 40.47265625 C52.29509766 41.63667969 52.29509766 41.63667969 53.4609375 42.82421875 C91.82418326 83.45856866 111.6969197 138.67866521 111.46484375 194.09765625 C111.4626886 195.02463318 111.46053345 195.95161011 111.45831299 196.90667725 C111.40714841 210.62499435 111.03876684 224.01313989 108.15234375 237.47265625 C107.95898438 238.40529297 107.765625 239.33792969 107.56640625 240.29882812 C99.62910105 277.56006643 83.04370899 311.6546007 58.15234375 340.47265625 C57.37246094 341.38273437 56.59257812 342.2928125 55.7890625 343.23046875 C53.62318099 345.69331757 51.40889681 348.09261024 49.15234375 350.47265625 C48.68393066 350.96830078 48.21551758 351.46394531 47.73291016 351.97460938 C39.79060448 360.3199877 31.39129177 367.60472003 22.15234375 374.47265625 C21.59466309 374.89643555 21.03698242 375.32021484 20.46240234 375.75683594 C10.90211542 383.01562396 0.79112251 388.93405486 -9.84765625 394.47265625 C-10.84974121 395.00221924 -10.84974121 395.00221924 -11.87207031 395.54248047 C-21.26787595 400.45189467 -30.99860315 404.07814608 -41.03515625 407.47265625 C-42.20618896 407.87105713 -43.37722168 408.26945801 -44.58374023 408.67993164 C-45.69563721 409.04465576 -46.80753418 409.40937988 -47.953125 409.78515625 C-48.94465576 410.11128906 -49.93618652 410.43742187 -50.95776367 410.7734375 C-55.46011751 411.86279641 -58.42603426 412.26338393 -62.56201172 409.96289062 C-65.45678367 406.80900535 -66.39804784 403.68127707 -67.41796875 399.62890625 C-67.62573944 398.86396851 -67.83351013 398.09903076 -68.0475769 397.31091309 C-68.7064066 394.86903725 -69.3397213 392.42135654 -69.97265625 389.97265625 C-70.404604 388.35763179 -70.83818312 386.74304271 -71.2734375 385.12890625 C-72.30799666 381.27435335 -73.31514281 377.41338965 -74.30969238 373.54833984 C-74.80254875 371.64669935 -75.31020404 369.7489103 -75.81933594 367.8515625 C-76.2316748 366.28728516 -76.2316748 366.28728516 -76.65234375 364.69140625 C-76.88679199 363.81419922 -77.12124023 362.93699219 -77.36279297 362.03320312 C-78.17465411 357.74579141 -78.38000423 354.53735221 -76.41015625 350.59765625 C-73.16661765 347.90789253 -71.16315251 347.87874351 -67.06640625 347.80859375 C-63.71661687 348.81117156 -62.78886427 350.58498043 -60.84765625 353.47265625 C-59.74348153 356.34811888 -59.00454669 359.2850411 -58.26953125 362.2734375 C-58.05323059 363.10981247 -57.83692993 363.94618744 -57.61407471 364.8079071 C-56.93002703 367.46410813 -56.26363386 370.12437361 -55.59765625 372.78515625 C-55.13527527 374.59339615 -54.67174584 376.4013428 -54.20703125 378.20898438 C-53.07391465 382.62692376 -51.95660334 387.04859106 -50.84765625 391.47265625 C-38.74636716 387.56753503 -38.74636716 387.56753503 -26.97265625 382.78515625 C-26.22854492 382.4504834 -25.48443359 382.11581055 -24.71777344 381.77099609 C-5.88190892 373.08393669 10.59836161 361.06301274 26.15234375 347.47265625 C22.59539115 343.10978424 18.8413678 339.13261547 14.7890625 335.22265625 C14.30865509 334.75722412 13.82824768 334.29179199 13.33328247 333.81225586 C11.32948398 331.8713124 9.32547319 329.93145575 7.29760742 328.015625 C5.80148064 326.59851816 4.32552939 325.16275311 2.8515625 323.72265625 C1.97330811 322.8821875 1.09505371 322.04171875 0.19018555 321.17578125 C-2.29484017 317.87948261 -2.65983916 315.55767807 -2.84765625 311.47265625 C-1.984375 309.20703125 -1.984375 309.20703125 -0.53515625 307.22265625 C0.02171875 306.45953125 0.57859375 305.69640625 1.15234375 304.91015625 C3.33255052 302.25302925 5.6238863 299.73918551 7.96484375 297.22265625 C22.0919848 281.97464921 32.24392305 263.06014968 38.48828125 243.3046875 C38.70581055 242.62156494 38.92333984 241.93844238 39.14746094 241.23461914 C39.7421726 239.33499945 40.31136258 237.42744402 40.87890625 235.51953125 C42.23074721 232.28506514 43.10879733 231.1258686 46.15234375 229.47265625 C49.89328544 228.91549472 51.64593977 229.19132071 54.96484375 231.03515625 C57.88499342 234.28903731 57.94987673 236.10884586 58.15234375 240.47265625 C57.49364193 243.83310213 56.4191105 246.99821132 55.27734375 250.22265625 C54.95926758 251.14079102 54.64119141 252.05892578 54.31347656 253.00488281 C47.20974991 272.9460094 37.07339201 290.84452214 23.50439453 307.09692383 C20.7232204 310.33553157 20.7232204 310.33553157 20.15234375 314.47265625 C21.9342127 316.67202453 21.9342127 316.67202453 24.30859375 318.921875 C25.16582031 319.76943359 26.02304687 320.61699219 26.90625 321.49023438 C27.81246094 322.37130859 28.71867187 323.25238281 29.65234375 324.16015625 C30.55855469 325.05283203 31.46476562 325.94550781 32.3984375 326.86523438 C34.64319543 329.07454876 36.89464373 331.27658158 39.15234375 333.47265625 C43.82844359 329.84643407 47.34106332 326.04274471 50.83984375 321.28515625 C51.35385742 320.59099609 51.86787109 319.89683594 52.39746094 319.18164062 C84.99079837 274.43316388 99.98580297 219.2003573 91.95214844 164.17773438 C88.29953645 141.55935556 81.09917271 120.07176302 71.15234375 99.47265625 C62.8349799 103.448216 55.01833354 108.06739022 47.1875 112.91992188 C41.90991913 116.11230471 37.33641735 118.76115531 31.15234375 119.47265625 C25.53543708 117.74372852 22.81465207 111.98080626 19.77734375 107.28515625 C15.62544721 100.92321909 11.3140256 95.05849285 6.15234375 89.47265625 C1.08610607 93.71082162 -3.64803694 98.14674588 -8.28515625 102.84765625 C-8.92130859 103.48832031 -9.55746094 104.12898437 -10.21289062 104.7890625 C-11.76015957 106.34796504 -13.30502117 107.90917041 -14.84765625 109.47265625 C-11.10964267 115.17267071 -11.10964267 115.17267071 -7.171875 120.734375 C-1.24869947 128.75449084 8.15234375 142.14472177 8.15234375 152.47265625 C9.26681885 152.16972656 10.38129395 151.86679688 11.52954102 151.5546875 C15.6850599 150.42765951 19.84362095 149.31223364 24.00317383 148.20019531 C25.79926553 147.71830522 27.59452957 147.23331874 29.38891602 146.74511719 C31.97588426 146.04186368 34.5656747 145.34998728 37.15625 144.66015625 C37.95132462 144.44141846 38.74639923 144.22268066 39.56556702 143.99731445 C44.18985564 142.7795501 48.32570484 142.10481765 53.15234375 142.47265625 C59.77571156 146.9855272 60.2834239 157.36237248 61.84765625 164.76171875 C63.15808303 172.34742868 63.41031508 179.91197774 63.52734375 187.59765625 C63.55344727 188.60634766 63.57955078 189.61503906 63.60644531 190.65429688 C63.62328285 197.76935953 63.62328285 197.76935953 61.37890625 201.12109375 C57.91163501 203.22578822 55.08160582 203.27948624 51.15234375 202.47265625 C47.89509997 200.13412225 46.90080455 198.30730008 46.15234375 194.47265625 C45.96441304 192.604587 45.81308308 190.73266878 45.6875 188.859375 C45.57051758 187.23418945 45.57051758 187.23418945 45.45117188 185.57617188 C45.29444512 183.31075792 45.14076639 181.04513089 44.99023438 178.77929688 C44.91095703 177.69197266 44.83167969 176.60464844 44.75 175.484375 C44.64957397 174.00650513 44.64957397 174.00650513 44.54711914 172.4987793 C44.08919749 168.98861302 43.19398152 165.85328993 42.15234375 162.47265625 C40.67809937 162.88161133 40.67809937 162.88161133 39.17407227 163.29882812 C35.49262108 164.31677078 31.80715858 165.31948142 28.12036133 166.31787109 C26.53167944 166.75031246 24.94408227 167.1867611 23.35766602 167.62744141 C21.06416771 168.26376274 18.76702685 168.88509681 16.46875 169.50390625 C15.42286461 169.79920227 15.42286461 169.79920227 14.35585022 170.10046387 C9.31728901 171.43553391 4.36306529 172.05595498 -0.84765625 171.47265625 C-5.36731755 168.67371567 -6.1947373 164.00493699 -7.59765625 159.16015625 C-14.81376451 136.11238614 -30.04302563 115.120926 -50.84765625 102.47265625 C-51.39164062 102.12783203 -51.935625 101.78300781 -52.49609375 101.42773438 C-66.26880371 92.75212996 -82.5265029 86.04415657 -98.84765625 84.47265625 C-99.48171387 84.40852539 -100.11577148 84.34439453 -100.76904297 84.27832031 C-130.97346277 81.39382237 -159.80454627 89.93506854 -183.59765625 108.91015625 C-185.36194458 110.41439052 -187.11273528 111.93464349 -188.84765625 113.47265625 C-189.605625 114.13523438 -190.36359375 114.7978125 -191.14453125 115.48046875 C-211.47163191 134.43801298 -221.84398019 162.25198398 -223.84765625 189.47265625 C-224.5162406 208.68906446 -220.30973643 226.3222628 -211.84765625 243.47265625 C-211.38617188 244.44589844 -210.9246875 245.41914063 -210.44921875 246.421875 C-197.38746253 272.28113226 -171.96244345 291.32814469 -144.84765625 300.47265625 C-117.05640328 309.38683173 -86.53162085 305.6327368 -60.79589844 292.51660156 C-55.86259514 289.8731423 -51.31573014 286.83331355 -46.84765625 283.47265625 C-45.92726563 282.78558594 -45.006875 282.09851563 -44.05859375 281.390625 C-24.20263928 265.86942115 -12.49167072 245.30988812 -4.8046875 221.58203125 C-3.84765625 219.47265625 -3.84765625 219.47265625 -0.84765625 217.47265625 C6.01557643 216.81901504 6.01557643 216.81901504 9.65234375 218.91015625 C11.97080853 222.87086692 11.93388253 226.08768674 11.15234375 230.47265625 C4.74218595 251.65109281 -6.53847508 269.65390755 -21.84765625 285.47265625 C-22.64558594 286.31054688 -23.44351562 287.1484375 -24.265625 288.01171875 C-28.73512307 292.61199387 -33.34650259 297.10864142 -38.84765625 300.47265625 C-39.50765625 300.47265625 -40.16765625 300.47265625 -40.84765625 300.47265625 C-38.80580646 304.17295676 -36.76100864 307.87160851 -34.71362305 311.56884766 C-34.01947783 312.82329595 -33.32609947 314.07816893 -32.63354492 315.33349609 C-31.63017469 317.15187825 -30.62440043 318.9689 -29.6171875 320.78515625 C-29.29109497 321.3741571 -28.96500244 321.96315796 -28.62902832 322.57000732 C-26.82329442 325.80696522 -24.93059058 328.9517478 -22.8984375 332.05078125 C-20.28076295 336.41855821 -19.64533057 339.53730327 -20.84765625 344.47265625 C-23.39236847 347.54127981 -24.93707606 348.32089288 -28.84765625 348.97265625 C-32.60542059 348.34636219 -34.04810549 347.02444227 -36.84765625 344.47265625 C-38.51342773 342.06591797 -38.51342773 342.06591797 -39.96875 339.40234375 C-40.78375977 337.9328125 -40.78375977 337.9328125 -41.61523438 336.43359375 C-42.4418457 334.90605469 -42.4418457 334.90605469 -43.28515625 333.34765625 C-44.38672212 331.34433741 -45.48957793 329.34172731 -46.59375 327.33984375 C-47.1285498 326.3662793 -47.66334961 325.39271484 -48.21435547 324.38964844 C-50.65908684 320.02348245 -53.23834829 315.74200464 -55.84765625 311.47265625 C-59.42682208 312.12877953 -62.58440415 313.10531536 -65.95507812 314.49169922 C-81.58329871 320.83432121 -96.75039456 322.83476839 -113.53515625 322.84765625 C-114.22810791 322.84965027 -114.92105957 322.85164429 -115.63500977 322.85369873 C-123.32435551 322.85119064 -130.42019828 322.51991589 -137.84765625 320.47265625 C-138.21117187 322.08720703 -138.21117187 322.08720703 -138.58203125 323.734375 C-140.64870758 332.78388077 -142.96107467 341.64401578 -145.84765625 350.47265625 C-136.38388058 351.76889148 -127.01575368 352.73803609 -117.46875 353.12890625 C-113.67654873 353.48889947 -110.42515808 354.16370626 -106.84765625 355.47265625 C-104.61105091 358.82756426 -104.58777978 359.9659148 -104.55712891 363.89038086 C-104.5443692 364.99840561 -104.5316095 366.10643036 -104.51846313 367.24803162 C-104.51623749 368.44493118 -104.51401184 369.64183075 -104.51171875 370.875 C-104.50173355 372.71887047 -104.50173355 372.71887047 -104.49154663 374.59999084 C-104.48141383 377.20165508 -104.4767298 379.80334535 -104.47705078 382.4050293 C-104.47729406 386.39076734 -104.43636 390.37577175 -104.3984375 394.36132812 C-104.39256965 396.88671495 -104.38860005 399.41210705 -104.38671875 401.9375 C-104.3651622 403.729813 -104.3651622 403.729813 -104.34317017 405.55833435 C-104.34932343 406.66951126 -104.35547668 407.78068817 -104.36181641 408.92553711 C-104.35896637 409.90244003 -104.35611633 410.87934296 -104.35317993 411.885849 C-104.98829329 415.20838596 -106.23249815 416.39512439 -108.84765625 418.47265625 C-111.26342773 418.97436523 -111.26342773 418.97436523 -113.96875 418.96875 C-115.47937012 418.97322144 -115.47937012 418.97322144 -117.02050781 418.9777832 C-118.0978418 418.95546631 -119.17517578 418.93314941 -120.28515625 418.91015625 C-121.40245117 418.89621826 -122.51974609 418.88228027 -123.67089844 418.86791992 C-181.87397712 417.59922174 -236.74457532 389.90989103 -276.8828125 348.62890625 C-281.15928067 344.13512954 -285.0538933 339.377652 -288.84765625 334.47265625 C-289.53859375 333.61027344 -290.22953125 332.74789063 -290.94140625 331.859375 C-306.45607406 311.98823345 -317.91940077 289.85963647 -325.97265625 266.03515625 C-326.36356445 264.87935059 -326.75447266 263.72354492 -327.15722656 262.53271484 C-328.84368068 257.33754613 -330.21853961 252.99176527 -329.84765625 247.47265625 C-327.80008164 243.54861355 -325.60567854 242.16955532 -321.53125 240.84765625 C-319.78753625 240.37071158 -318.03837669 239.91337376 -316.28515625 239.47265625 C-315.36581299 239.22628418 -314.44646973 238.97991211 -313.49926758 238.72607422 C-310.61952432 237.95817552 -307.73403443 237.21517363 -304.84765625 236.47265625 C-302.97736915 235.97712658 -301.10756254 235.47977924 -299.23828125 234.98046875 C-294.77941987 233.79264219 -290.31539844 232.62661023 -285.84765625 231.47265625 C-286.06421875 230.32796875 -286.28078125 229.18328125 -286.50390625 228.00390625 C-293.63040071 186.95259298 -287.93334003 142.71610696 -266.390625 106.58984375 C-264.84765625 104.47265625 -264.84765625 104.47265625 -261.84765625 102.47265625 C-257.44580627 101.90204607 -255.54928417 101.96509563 -251.91015625 104.59765625 C-249.4442067 108.03504047 -249.48065831 109.33160012 -249.84765625 113.47265625 C-250.85400391 116.1472168 -250.85400391 116.1472168 -252.26171875 118.859375 C-252.7729126 119.87064453 -253.28410645 120.88191406 -253.81079102 121.92382812 C-254.63341431 123.52581055 -254.63341431 123.52581055 -255.47265625 125.16015625 C-260.70960047 135.72757525 -264.96306263 146.0390808 -267.84765625 157.47265625 C-268.18410156 158.74625 -268.52054687 160.01984375 -268.8671875 161.33203125 C-273.52410365 182.5114307 -271.50067567 205.088897 -268.09545898 226.32080078 C-266.17187512 238.77821752 -266.17187512 238.77821752 -268.84765625 244.47265625 C-273.71038884 246.93649199 -278.70503406 248.38507979 -283.96875 249.734375 C-284.71351089 249.92989456 -285.45827179 250.12541412 -286.2256012 250.32685852 C-288.57748941 250.94305617 -290.93124864 251.55172383 -293.28515625 252.16015625 C-294.89140633 252.57957949 -296.4975275 252.99949672 -298.10351562 253.41992188 C-302.01676298 254.44321364 -305.93170523 255.45976244 -309.84765625 256.47265625 C-300.82686827 285.57280116 -286.58570141 311.05471358 -265.84765625 333.47265625 C-259.71833321 328.4151274 -254.17277891 322.87928655 -248.59765625 317.22265625 C-246.8239551 315.42347088 -245.0480149 313.6264893 -243.26953125 311.83203125 C-242.4919043 311.04280273 -241.71427734 310.25357422 -240.91308594 309.44042969 C-237.96055574 306.62749903 -236.24264352 305.53290855 -232.16015625 304.91015625 C-227.53328335 305.06883962 -225.52187785 307.02707803 -222.2890625 310.15234375 C-219.23132595 313.05841656 -216.00938724 315.70608602 -212.72265625 318.34765625 C-212.08424805 318.86150879 -211.44583984 319.37536133 -210.78808594 319.90478516 C-205.29410129 324.25590055 -199.53962035 328.05687024 -193.578125 331.73046875 C-189.08027319 334.60034272 -189.08027319 334.60034272 -188.09765625 338.28515625 C-187.82544287 341.75587686 -188.16954712 343.45205981 -189.84765625 346.47265625 C-192.7609615 348.41485975 -194.26148652 349.03557321 -197.71875 348.8984375 C-206.81569727 347.07904805 -214.4778712 339.86325291 -221.48828125 334.15625 C-224.84735924 331.47289351 -228.34918835 328.97156189 -231.84765625 326.47265625 C-238.44765625 333.07265625 -245.04765625 339.67265625 -251.84765625 346.47265625 C-247.51619017 351.52603334 -243.83274856 355.39184518 -238.59765625 359.22265625 C-237.90438232 359.7336084 -237.2111084 360.24456055 -236.49682617 360.77099609 C-201.95749964 385.82522982 -163.19937028 398.40772958 -120.84765625 401.47265625 C-120.84765625 391.24265625 -120.84765625 381.01265625 -120.84765625 370.47265625 C-124.80765625 370.47265625 -128.76765625 370.47265625 -132.84765625 370.47265625 C-136.67386735 369.95954285 -140.38141855 369.39041125 -144.16015625 368.66015625 C-145.09666016 368.49451172 -146.03316406 368.32886719 -146.99804688 368.15820312 C-153.0690192 367.02603728 -158.5369665 365.60858512 -163.78515625 362.22265625 C-166.1446538 358.336425 -164.94377388 353.41283949 -163.9296875 349.18969727 C-163.51534729 347.61629866 -163.09174586 346.04531723 -162.66015625 344.4765625 C-162.32721558 343.22624489 -162.32721558 343.22624489 -161.98754883 341.95066833 C-161.28236721 339.30990882 -160.56522273 336.67257424 -159.84765625 334.03515625 C-159.36508924 332.23654155 -158.88331015 330.43771525 -158.40234375 328.63867188 C-157.22654967 324.24749945 -156.04002183 319.85935653 -154.84765625 315.47265625 C-156.21821167 315.27470459 -156.21821167 315.27470459 -157.61645508 315.07275391 C-160.2860979 314.57694869 -162.16079892 314.06801791 -164.546875 312.87109375 C-165.19317871 312.54947266 -165.83948242 312.22785156 -166.50537109 311.89648438 C-167.1752002 311.55037109 -167.8450293 311.20425781 -168.53515625 310.84765625 C-169.23850098 310.48865234 -169.9418457 310.12964844 -170.66650391 309.75976562 C-183.88750055 302.91226154 -195.03744365 294.42453253 -205.59765625 283.97265625 C-206.22381836 283.35583984 -206.84998047 282.73902344 -207.49511719 282.10351562 C-218.84765625 270.6725167 -218.84765625 270.6725167 -218.84765625 266.47265625 C-222.54795676 268.51450604 -226.24660851 270.55930386 -229.94384766 272.60668945 C-231.19829595 273.30083467 -232.45316893 273.99421303 -233.70849609 274.68676758 C-235.52687825 275.69013781 -237.3439 276.69591207 -239.16015625 277.703125 C-239.7491571 278.02921753 -240.33815796 278.35531006 -240.94500732 278.69128418 C-244.18196522 280.49701808 -247.3267478 282.38972192 -250.42578125 284.421875 C-254.79355821 287.03954955 -257.91230327 287.67498193 -262.84765625 286.47265625 C-265.91627981 283.92794403 -266.69589288 282.38323644 -267.34765625 278.47265625 C-266.72136219 274.71489191 -265.39944227 273.27220701 -262.84765625 270.47265625 C-260.44091797 268.80688477 -260.44091797 268.80688477 -257.77734375 267.3515625 C-256.79765625 266.80822266 -255.81796875 266.26488281 -254.80859375 265.70507812 C-253.28105469 264.8784668 -253.28105469 264.8784668 -251.72265625 264.03515625 C-249.71933741 262.93359038 -247.71672731 261.83073457 -245.71484375 260.7265625 C-244.7412793 260.1917627 -243.76771484 259.65696289 -242.76464844 259.10595703 C-238.39848245 256.66122566 -234.11700464 254.08196421 -229.84765625 251.47265625 C-230.50377953 247.89349042 -231.48031536 244.73590835 -232.86669922 241.36523438 C-244.9461859 211.6013792 -244.71373484 175.90583892 -232.47265625 146.2109375 C-227.6791714 135.04061259 -221.91515542 125.29661073 -214.84765625 115.47265625 C-213.51011989 113.47546466 -212.17621722 111.47582961 -210.84765625 109.47265625 C-217.85090433 102.44626864 -224.85682801 95.42256115 -231.86620903 88.4022913 C-235.12063077 85.14264427 -238.37411301 81.88207076 -241.62548828 78.61938477 C-244.76150291 75.47252874 -247.89993262 72.32810037 -251.04007339 69.18536186 C-252.23947152 67.98411176 -253.43798713 66.78197986 -254.6356163 65.57896614 C-256.30929563 63.89805981 -257.98604572 62.22027655 -259.66357422 60.54321289 C-260.41019821 59.79119598 -260.41019821 59.79119598 -261.17190552 59.02398682 C-263.76208784 56.4198454 -263.76208784 56.4198454 -266.84765625 54.47265625 C-267.08484375 55.02308594 -267.32203125 55.57351562 -267.56640625 56.140625 C-269.16253374 59.04577168 -271.1655155 61.28881486 -273.34765625 63.78515625 C-301.48731549 96.83988282 -316.94081167 140.37256249 -319.21582031 183.38867188 C-320.03994729 198.66494729 -320.03994729 198.66494729 -323.84765625 202.47265625 C-325.87109375 202.80859375 -325.87109375 202.80859375 -328.22265625 202.84765625 C-328.99351562 202.87601563 -329.764375 202.904375 -330.55859375 202.93359375 C-333.72896244 202.29519186 -334.81042511 200.94510087 -336.84765625 198.47265625 C-337.34936523 196.05688477 -337.34936523 196.05688477 -337.34375 193.3515625 C-337.34681152 192.34480469 -337.34987305 191.33804688 -337.35302734 190.30078125 C-337.31943115 188.68429688 -337.31943115 188.68429688 -337.28515625 187.03515625 C-337.26316162 185.35486328 -337.26316162 185.35486328 -337.24072266 183.640625 C-336.13809182 134.08544562 -316.07367782 85.77247173 -283.84765625 48.47265625 C-283.40228516 47.9528418 -282.95691406 47.43302734 -282.49804688 46.89746094 C-280.01943879 44.01727991 -277.48031412 41.21255069 -274.84765625 38.47265625 C-274.30753906 37.90675781 -273.76742187 37.34085937 -273.2109375 36.7578125 C-270.71459546 34.39251204 -268.83959566 33.47086501 -265.47265625 32.72265625 C-255.97820324 34.68702584 -247.53715885 46.65559169 -240.81640625 53.40625 C-239.57252612 54.65199869 -238.32842244 55.8975242 -237.08410645 57.14283752 C-233.8334661 60.39726861 -230.58584197 63.65469306 -227.33886719 66.91278076 C-224.01551173 70.24642493 -220.68927045 73.57718702 -217.36328125 76.90820312 C-210.85526816 83.42689271 -204.35044242 89.94875278 -197.84765625 96.47265625 C-197.31370743 96.06885239 -196.77975861 95.66504852 -196.22962952 95.24900818 C-195.16668922 94.44790367 -195.16668922 94.44790367 -194.08227539 93.63061523 C-193.38332657 93.10306137 -192.68437775 92.57550751 -191.96424866 92.03196716 C-188.82684912 89.7206193 -185.58694621 87.60258538 -182.28515625 85.53515625 C-181.60622314 85.10984619 -180.92729004 84.68453613 -180.2277832 84.24633789 C-172.55944743 79.54227739 -164.39899132 75.32310127 -155.84765625 72.47265625 C-156.45286767 67.6559419 -157.39066523 63.11160991 -158.6953125 58.4375 C-159.05681888 57.12049163 -159.41814154 55.80343281 -159.77929688 54.48632812 C-160.34493448 52.44280555 -160.91299642 50.40001106 -161.48461914 48.3581543 C-162.04065934 46.36553754 -162.58722791 44.37050078 -163.1328125 42.375 C-163.62599976 40.60370728 -163.62599976 40.60370728 -164.12915039 38.79663086 C-164.83486303 35.53184063 -165.1206855 32.79802775 -164.84765625 29.47265625 C-159.68947946 22.25120875 -150.52816654 20.31253498 -142.21582031 18.8762207 C-135.18190777 18.03343602 -128.11031559 18.12689863 -121.03515625 18.16015625 C-120.21374146 18.1623114 -119.39232666 18.16446655 -118.54602051 18.16668701 C-105.44059059 18.22182147 -92.72136788 18.84165349 -79.84765625 21.47265625 C-78.85411133 21.67133301 -77.86056641 21.87000977 -76.83691406 22.07470703 C-62.80710431 24.96065403 -49.703165 28.97722426 -36.62744141 34.83349609 C-34.69226003 35.64165021 -34.69226003 35.64165021 -31.84765625 35.47265625 C-30.56059614 34.01371143 -30.56059614 34.01371143 -29.5078125 32.03515625 C-29.08435547 31.30425781 -28.66089844 30.57335937 -28.22460938 29.8203125 C-27.79083984 29.04558594 -27.35707031 28.27085938 -26.91015625 27.47265625 C-26.48025391 26.72886719 -26.05035156 25.98507813 -25.60742188 25.21875 C-22.83879316 20.38730384 -20.29670481 15.47303381 -17.84765625 10.47265625 C-46.26933878 -3.12166262 -75.33915905 -10.84925963 -106.84765625 -12.52734375 C-107.935625 -12.58792969 -109.02359375 -12.64851563 -110.14453125 -12.7109375 C-144.22729781 -13.5482309 -177.28944907 -3.88525398 -207.84765625 10.47265625 C-203.61277225 19.63856957 -198.52342643 28.21390817 -193.25512695 36.81689453 C-192.70171631 37.73325684 -192.14830566 38.64961914 -191.578125 39.59375 C-191.07692139 40.41286865 -190.57571777 41.2319873 -190.05932617 42.07592773 C-188.28053967 45.59443409 -187.52848586 48.25400565 -188.53515625 52.09765625 C-190.06403981 54.86420746 -191.03016567 56.02583676 -193.84765625 57.47265625 C-197.16015625 58.22265625 -197.16015625 58.22265625 -200.84765625 57.47265625 C-206.59276111 51.78399157 -210.43602435 44.31036381 -214.28515625 37.28515625 C-215.41196238 35.24825624 -216.53956489 33.21179658 -217.66796875 31.17578125 C-218.2084082 30.19802734 -218.74884766 29.22027344 -219.30566406 28.21289062 C-220.64878821 25.82605949 -222.03309024 23.47883885 -223.46484375 21.14453125 C-223.8419751 20.52215576 -224.21910645 19.89978027 -224.60766602 19.25854492 C-225.57893423 17.66815236 -226.56610742 16.08750231 -227.5546875 14.5078125 C-229.32876893 10.34327694 -229.43576421 7.99345559 -228.84765625 3.47265625 C-225.04114351 -2.16600219 -218.27442649 -4.5956602 -212.28515625 -7.40234375 C-211.16689453 -7.92973145 -210.04863281 -8.45711914 -208.89648438 -9.00048828 C-150.5666347 -36.04659379 -53.5233232 -44.24443841 0 0 Z " fill="#ffffff" transform="translate(368.84765625,61.52734375)"/>
<path d="M0 0 C11.33010567 10.54664092 17.34648058 24.14566912 17.95532227 39.49194336 C18.2041509 55.54886866 13.97545038 66.94438067 4.8125 79.9921875 C-3.9223174 92.58100349 -4.9207884 105.56354351 -5.59765625 120.46289062 C-6.22545318 130.9873731 -8.48283332 140.23571253 -16.5625 147.5 C-25.76095019 154.41723455 -35.34617245 155.64306523 -46.5625 154.5 C-55.13744559 152.54761912 -61.58125412 147.80210128 -66.375 140.5 C-69.51796976 135.35110757 -70.78370002 130.24203384 -71.0546875 124.24609375 C-71.12042969 123.06080078 -71.18617188 121.87550781 -71.25390625 120.65429688 C-71.37493611 118.20408597 -71.48966739 115.75355467 -71.59765625 113.30273438 C-72.23571126 102.14881052 -74.57122904 91.99673027 -80.375 82.375 C-80.71684326 81.79790283 -81.05868652 81.22080566 -81.41088867 80.6262207 C-83.62985469 76.91189794 -85.99649351 73.30061262 -88.375 69.6875 C-96.76950917 56.66549375 -96.73401923 42.26641258 -93.59765625 27.50390625 C-89.95069678 12.26780051 -79.54942486 0.68354169 -66.5625 -7.5 C-44.52119157 -19.34395342 -19.08887208 -15.42934738 0 0 Z M-70.375 18.75 C-76.89889473 27.69575821 -79.74020371 38.57080517 -78.109375 49.55078125 C-76.1017042 57.45352464 -72.1340986 63.65344779 -67.64160156 70.3293457 C-59.98460658 81.70784649 -56.26133075 92.90935402 -54.5625 106.5 C-44.0025 106.5 -33.4425 106.5 -22.5625 106.5 C-21.0775 99.075 -21.0775 99.075 -19.5625 91.5 C-17.05225572 83.05431831 -13.4375917 75.95587992 -8.4375 68.75 C-0.78099888 57.68085458 1.75283387 47.93810173 0.4375 34.5 C-1.82007909 23.71972586 -8.30706148 15.38890935 -17.13671875 9.0078125 C-35.36521309 -2.32262037 -56.94621464 2.81222714 -70.375 18.75 Z M-53.5625 122.5 C-52.49697307 129.95868849 -52.36981527 130.69268473 -47.5625 135.5 C-43.10760707 138.23644367 -38.64301521 138.14310319 -33.5625 137.5 C-28.71227814 135.16470799 -26.07790375 132.2405686 -23.5625 127.5 C-23.5625 125.85 -23.5625 124.2 -23.5625 122.5 C-33.4625 122.5 -43.3625 122.5 -53.5625 122.5 Z " fill="#ffffff" transform="translate(294.5625,181.5)"/>
</svg>
