<?xml version="1.0" standalone="no"?>
<!DOCTYPE svg PUBLIC "-//W3C//DTD SVG 20010904//EN"
 "http://www.w3.org/TR/2001/REC-SVG-20010904/DTD/svg10.dtd">
<svg version="1.0" xmlns="http://www.w3.org/2000/svg"
 width="900.000000pt" height="900.000000pt" viewBox="0 0 900.000000 900.000000"
 preserveAspectRatio="xMidYMid meet"> 
<g transform="translate(0.000000,900.000000) scale(0.100000,-0.100000)"
fill="#0585ff" stroke="none">
<path d="M4125 8228 c-3 -7 -6 -344 -8 -748 l-2 -735 -1555 -5 c-1411 -5
-1559 -7 -1600 -22 -139 -51 -217 -105 -292 -206 -45 -58 -56 -79 -92 -167
-20 -50 -20 -66 -23 -2155 -2 -1160 1 -2111 6 -2118 6 -10 48 -14 179 -14 94
0 176 3 182 7 7 4 10 668 10 2075 0 1999 1 2070 19 2112 19 46 68 90 111 101
14 4 704 7 1534 7 1205 0 1511 -2 1518 -12 4 -7 8 -468 8 -1024 0 -913 2
-1012 16 -1018 9 -3 172 -6 363 -6 257 0 350 -3 359 -12 9 -9 12 -174 12 -680
0 -525 3 -668 12 -668 7 0 319 306 693 680 l680 680 1373 0 1372 0 0 1970 0
1970 -2435 0 c-1939 0 -2437 -3 -2440 -12z m4474 -372 c8 -10 10 -433 9 -1592
l-3 -1579 -1255 -5 -1255 -5 -417 -418 c-230 -230 -422 -415 -428 -412 -6 4
-10 153 -10 416 0 225 -1 410 -2 411 -2 1 -169 5 -373 8 l-370 5 -3 1570 c-1
864 0 1580 3 1593 l5 22 2044 0 c1708 0 2045 -2 2055 -14z"/>
<path d="M5957 7093 c-4 -3 -7 -383 -7 -843 0 -696 2 -839 14 -849 10 -9 16
-8 26 4 7 8 16 15 21 15 5 0 44 20 87 46 42 25 84 49 92 54 8 5 64 37 124 72
60 35 130 75 155 90 25 15 53 31 61 35 8 4 58 32 110 63 52 31 102 59 110 63
8 4 29 16 45 27 17 11 37 23 45 27 8 4 58 32 110 63 52 31 102 59 110 63 8 4
24 13 35 20 11 7 63 37 115 67 52 30 102 60 112 65 9 6 37 21 62 34 25 14 46
30 46 36 0 12 -31 45 -42 45 -4 0 -51 26 -105 58 -54 32 -105 61 -113 65 -8 4
-24 13 -35 20 -11 7 -52 30 -90 52 -39 22 -79 45 -90 52 -11 7 -29 17 -40 23
-11 6 -33 19 -50 30 -16 11 -37 23 -45 27 -18 8 -159 89 -180 103 -8 6 -22 13
-30 17 -8 4 -59 33 -113 65 -54 32 -100 58 -102 58 -2 0 -59 33 -126 73 -68
40 -131 76 -139 80 -8 4 -24 13 -35 20 -119 71 -125 74 -138 60z m488 -697
c39 -23 77 -45 85 -49 8 -5 24 -13 35 -20 11 -7 42 -25 68 -40 26 -15 47 -34
47 -40 0 -7 -35 -33 -77 -57 -43 -25 -87 -50 -98 -57 -11 -7 -27 -15 -35 -19
-8 -4 -36 -20 -61 -36 -48 -29 -75 -35 -81 -18 -1 5 -2 96 0 200 l3 191 22 -7
c12 -3 54 -25 92 -48z"/>
<path d="M2540 5223 c-261 -61 -471 -225 -585 -458 -128 -264 -108 -591 51
-831 81 -122 206 -234 324 -290 109 -53 184 -74 290 -83 236 -21 418 29 600
165 160 119 284 323 318 519 22 126 23 162 7 260 -39 249 -141 422 -335 569
-183 139 -454 199 -670 149z m361 -402 c154 -73 257 -215 274 -376 14 -140
-28 -265 -126 -369 -72 -78 -148 -119 -259 -142 -82 -17 -88 -17 -165 1 -107
25 -184 66 -249 134 -59 63 -88 112 -117 203 -64 201 47 444 247 542 77 38
124 46 235 41 82 -3 107 -9 160 -34z"/>
<path d="M8065 3918 c-3 -7 -4 -429 -3 -938 l3 -925 170 -3 c151 -2 171 -1
182 15 18 24 19 1833 1 1851 -17 17 -347 17 -353 0z"/>
<path d="M1935 3355 c-108 -14 -184 -37 -290 -85 -71 -33 -195 -123 -256 -186
-116 -121 -192 -254 -245 -429 -25 -83 -35 -572 -12 -589 10 -7 76 -10 186 -8
l172 3 0 213 c0 234 10 296 66 411 57 117 212 246 334 277 19 5 51 13 70 18
20 5 348 10 751 10 668 0 720 -1 785 -19 208 -56 328 -168 410 -381 14 -36 18
-90 22 -283 4 -218 6 -239 23 -245 9 -4 93 -5 186 -2 l168 5 3 215 c3 225 -7
318 -48 440 -78 236 -250 433 -475 545 -201 99 -250 104 -1085 103 -485 0
-692 -4 -765 -13z"/>
<path d="M0 1535 c0 -363 3 -392 56 -495 16 -30 62 -88 104 -130 79 -79 139
-115 252 -150 62 -19 115 -20 4073 -20 3885 0 4012 1 4075 19 119 34 180 69
260 150 78 79 131 166 144 234 4 22 13 37 21 37 13 0 15 50 15 345 l0 345
-4500 0 -4500 0 0 -335z m8618 -145 c4 -119 -10 -169 -59 -219 -30 -30 -51
-41 -96 -50 -44 -9 -990 -11 -4003 -9 -3613 3 -3948 4 -3981 19 -19 9 -51 36
-70 60 -33 43 -34 45 -38 156 -2 62 -1 120 3 128 5 13 466 15 4123 13 l4118
-3 3 -95z"/>
</g>
</svg>
