<?xml version="1.0" encoding="UTF-8"?>
<svg version="1.1" xmlns="http://www.w3.org/2000/svg" width="512" height="512">
<path d="M0 0 C5.61099812 1.71765249 10.10940802 0.23589566 15.31640625 -2.06640625 C22.43754345 -4.74418925 30.12798061 -5.40826944 37.53515625 -3.37890625 C40.62882297 -1.95886251 42.98646373 -0.24636279 45.51171875 2.04296875 C53.15546182 8.63482057 58.98419249 8.68016212 68.60546875 8.08203125 C76.67212892 7.69652981 82.78685668 9.59064891 88.98828125 14.71875 C92.52448958 18.27324906 95.31034133 22.2849433 98.11328125 26.421875 C101.76911745 30.81821817 106.01732815 31.21545284 111.44140625 32.24609375 C120.01363762 34.21460389 126.78069283 37.06669985 131.62890625 44.68359375 C138.25390625 57.08664773 138.25390625 57.08664773 138.25390625 62.99609375 C139.04667969 63.39248047 139.04667969 63.39248047 139.85546875 63.796875 C140.64695312 64.19261719 141.4384375 64.58835937 142.25390625 64.99609375 C143.75050781 65.72892578 143.75050781 65.72892578 145.27734375 66.4765625 C154.48904337 71.16830228 160.07246519 75.02427765 163.61132812 84.80004883 C164.85535889 89.05159013 165.04422883 93.41539474 165.33789062 97.81640625 C165.85746637 103.61046309 167.56218581 107.55728664 172 111.578125 C172.83724609 112.18720703 172.83724609 112.18720703 173.69140625 112.80859375 C178.69566143 116.88733077 182.04223188 122.63792617 183.25390625 128.99609375 C183.63764839 133.66346909 183.3636474 138.00944207 182.25390625 142.55859375 C180.02736972 152.15744012 182.06504992 157.46445151 186.625 165.921875 C189.93429151 172.16746833 190.28504816 178.04833066 189.25390625 184.99609375 C187.8515177 188.59789935 185.97410213 191.92979871 184.12182617 195.31518555 C180.09363813 202.81642098 180.60474528 207.89862065 182.79296875 215.90625 C184.51349048 223.70692055 183.4815457 231.1991141 179.25390625 237.99609375 C176.52161605 241.06336193 173.71986748 243.84885105 170.71484375 246.6484375 C166.14292093 251.00990673 165.85632417 254.61606204 165.37890625 260.62109375 C164.59085246 268.80435463 163.36343653 275.17581369 158.06640625 281.68359375 C153.84798339 285.15207476 149.33248041 288.66531568 144.29296875 290.84375 C139.74598298 292.81940539 138.45488529 295.16552758 136.56640625 299.74609375 C135.78338894 301.82487842 135.01174748 303.90799929 134.25390625 305.99609375 C131.67449894 312.53279689 128.31429355 317.23711935 122.25390625 320.99609375 C117.21683835 322.98039323 112.03546744 324.42253152 106.734375 325.515625 C100.21525443 327.1025913 97.32844162 330.9181073 93.39453125 336.20703125 C89.18360497 341.69353008 84.9238395 345.87913368 78.25390625 347.99609375 C74.70831125 348.36847484 71.24704282 348.24386246 67.69140625 348.05859375 C58.16307496 347.60486369 52.35773922 349.10048764 44.62890625 355.05859375 C37.60950296 360.45890831 32.06203895 362.10242926 23.25390625 360.99609375 C20.67195086 360.19665986 18.16109077 359.36345446 15.62890625 358.43359375 C6.46661311 355.08985034 0.89434901 356.00819709 -7.74609375 359.99609375 C-15.41327361 362.2755256 -23.0453998 361.52310808 -30.29296875 358.34375 C-33.73071474 356.45517935 -36.67120405 354.13361623 -39.640625 351.58203125 C-45.88926182 346.87526585 -52.36856551 347.90233625 -59.82226562 348.25 C-68.45172766 348.46032381 -74.40374454 345.90901306 -80.74609375 339.99609375 C-82.84809464 337.25314184 -84.75454624 334.4210343 -86.68359375 331.5546875 C-91.20447908 325.94639225 -97.0464576 325.02412257 -103.77539062 323.62304688 C-110.60399632 322.0760926 -115.75132072 318.7741855 -120.23828125 313.39453125 C-122.60405191 309.63136238 -124.0999608 305.50637681 -125.56640625 301.3269043 C-127.93526167 294.76292032 -131.08793456 292.10733173 -137.18359375 288.99609375 C-144.55873743 285.07314498 -149.57604507 281.32686551 -152.82421875 273.34765625 C-153.7501047 269.98151156 -154.00181029 267.03695986 -154.17504883 263.57519531 C-154.66724141 254.99106877 -156.01014173 250.05410801 -162.4921875 243.95703125 C-163.23597656 243.30992187 -163.97976562 242.6628125 -164.74609375 241.99609375 C-170.18595715 236.38332515 -172.86642099 230.82713359 -173.05859375 222.99609375 C-172.96647079 219.82027578 -172.59135268 216.99233649 -171.74609375 213.93359375 C-169.52063534 205.54660498 -170.63168355 200.77704484 -174.74609375 193.24609375 C-179.1269637 185.12374456 -180.52717816 178.33675423 -177.96484375 169.21484375 C-176.51425173 165.3310006 -174.70268926 161.87012377 -172.49609375 158.37109375 C-169.75728214 153.08909994 -170.21332602 148.64127899 -171.74609375 143.12109375 C-174.07200217 134.49163642 -173.11626333 126.80361893 -168.74609375 118.99609375 C-165.84010368 115.06405506 -162.54214064 111.72138091 -158.93359375 108.43359375 C-155.04434391 104.09985821 -154.6087129 98.75495584 -154.11474609 93.09716797 C-153.39241755 84.96853815 -152.14258808 78.99901544 -145.95703125 73.3671875 C-140.53981417 69.06147114 -134.32551929 65.1892356 -127.74609375 62.99609375 C-126.89433938 61.00149221 -126.89433938 61.00149221 -126.37109375 58.55859375 C-123.96832765 49.82353782 -120.60004336 41.65343938 -112.6640625 36.6953125 C-107.84308388 34.05506734 -103.32074608 32.58206557 -97.93359375 31.49609375 C-92.654508 30.36750416 -90.06359602 29.45102536 -86.74609375 24.99609375 C-79.66021872 15.7463601 -74.62243963 9.64318685 -62.74609375 7.99609375 C-60.4489801 8.0000217 -58.19846896 8.15270145 -55.90869141 8.32861328 C-45.80276074 9.0488157 -40.24829446 6.93046606 -32.62890625 0.37890625 C-23.00242367 -7.57794249 -10.56731363 -4.6037057 0 0 Z M-28.70703125 18.85546875 C-36.04689102 24.0254471 -42.08724691 25.5638527 -50.99609375 25.12109375 C-58.64259803 24.59211464 -58.64259803 24.59211464 -65.74609375 26.99609375 C-67.34293994 28.40570747 -67.34293994 28.40570747 -68.62109375 30.12109375 C-69.12898438 30.73984375 -69.636875 31.35859375 -70.16015625 31.99609375 C-71.22762077 33.3422559 -72.28477815 34.69664883 -73.33203125 36.05859375 C-80.55825439 45.01503933 -89.487196 47.47605201 -100.42578125 49.7109375 C-104.65978087 51.34974441 -105.67285042 53.01128202 -107.74609375 56.99609375 C-108.59554281 59.11971639 -109.38767887 61.26715902 -110.12109375 63.43359375 C-113.85809054 73.27249275 -118.41712965 77.29816959 -127.72045898 82.06958008 C-131.76358691 84.18772526 -134.46803276 86.00948702 -136.74609375 89.99609375 C-137.49088408 93.38753642 -137.79647478 96.79272605 -138.12109375 100.24609375 C-139.47464329 111.49950842 -142.40083072 116.81350497 -150.55859375 124.62109375 C-153.43383335 127.41404535 -154.64443317 128.69111201 -155.93359375 132.55859375 C-155.75840753 135.77034109 -155.10981711 138.48873146 -154.2421875 141.5703125 C-151.97072017 152.67725115 -153.93841782 162.21839494 -160.05859375 171.55859375 C-162.33997465 176.20585115 -162.28955913 179.08903871 -160.74609375 183.99609375 C-159.59244339 186.24296516 -158.40136314 188.47081767 -157.18359375 190.68359375 C-152.21476276 199.81214539 -152.48106361 209.11525887 -155.30859375 219.03125 C-155.86749004 221.54129317 -156.07111729 223.427233 -155.74609375 225.99609375 C-153.96905722 228.5599325 -153.96905722 228.5599325 -151.55859375 230.93359375 C-150.73746094 231.80628906 -149.91632813 232.67898437 -149.0703125 233.578125 C-148.30332031 234.37605469 -147.53632813 235.17398438 -146.74609375 235.99609375 C-139.73247658 243.4192652 -138.30869886 251.10200034 -137.66210938 260.90429688 C-137.22291646 265.82414475 -136.3656877 268.59513299 -132.74609375 271.99609375 C-129.74866331 273.79600946 -129.74866331 273.79600946 -126.43359375 275.30859375 C-116.49479223 280.52257352 -112.47702627 286.35365082 -108.87329102 296.71679688 C-107.44861494 300.73184027 -106.24124342 303.49296676 -102.74609375 305.99609375 C-99.90243816 307.02540384 -97.00233841 307.69149073 -94.05859375 308.37109375 C-82.40451782 311.38256076 -76.29489717 315.35867632 -69.47265625 325.5078125 C-67.97178118 327.67083834 -66.76554244 329.33393213 -64.74609375 330.99609375 C-62.77076295 331.37520999 -62.77076295 331.37520999 -60.61328125 331.21875 C-59.80632812 331.20005859 -58.999375 331.18136719 -58.16796875 331.16210938 C-57.3275 331.12794922 -56.48703125 331.09378906 -55.62109375 331.05859375 C-46.55566638 330.72257239 -38.76019393 331.09854833 -31.05859375 336.37109375 C-30.13046875 336.98726563 -29.20234375 337.6034375 -28.24609375 338.23828125 C-26.80513319 339.25145664 -25.37819291 340.28680111 -23.99609375 341.37890625 C-21.00943599 343.70005875 -19.68234563 343.99508188 -15.80859375 343.93359375 C-11.86110392 343.20285613 -8.39744454 341.64953562 -4.74609375 339.99609375 C4.65147159 337.20222297 14.24908695 339.20315454 22.94140625 343.24609375 C26.36217364 344.35553182 28.75288513 343.76080954 32.25390625 342.99609375 C34.6499054 341.58391894 36.7464718 340.22236969 38.94140625 338.55859375 C44.48158934 334.48549747 48.20950682 331.83712906 55.19140625 331.37109375 C56.33738281 331.28730469 57.48335937 331.20351563 58.6640625 331.1171875 C62.25390625 330.99609375 62.25390625 330.99609375 65.75 331.21875 C71.93275696 331.77595077 71.93275696 331.77595077 77.44921875 329.46484375 C79.28146951 327.40257017 80.78449916 325.32913565 82.25390625 322.99609375 C88.63344068 313.1968089 95.73353282 310.48830076 106.90698242 307.87060547 C111.40036179 306.76502715 114.46521321 305.93503908 117.25390625 301.99609375 C118.2937282 299.57634722 119.20440192 297.22435619 120.06640625 294.74609375 C124.0878648 284.18976506 129.39492876 278.93551962 139.3671875 273.78344727 C142.86705402 271.95611311 145.46416633 270.57557359 147.25390625 266.99609375 C147.68472924 264.25138038 147.98390545 261.63034239 148.19140625 258.87109375 C149.45014562 246.57467802 152.67328488 239.83997023 161.79296875 231.34375 C164.37427934 229.05295304 164.37427934 229.05295304 166.25390625 225.99609375 C166.31654524 223.86907016 166.31654524 223.86907016 165.94140625 221.62109375 C165.84214844 220.87085938 165.74289062 220.120625 165.640625 219.34765625 C165.37917766 217.75784516 165.07982179 216.17387946 164.74609375 214.59765625 C162.69913867 203.77803655 164.27991183 196.35727318 169.40795898 186.85839844 C171.61368822 182.73291332 173.01972999 179.796972 172.25390625 174.99609375 C170.79437275 171.64197123 170.79437275 171.64197123 168.81640625 168.37109375 C163.87419192 159.80458891 162.78277513 151.43479706 164.73828125 141.546875 C164.9290625 140.89074219 165.11984375 140.23460937 165.31640625 139.55859375 C166.40239813 135.4318246 166.2713204 133.1326855 165.25390625 128.99609375 C162.92573548 126.05600809 162.92573548 126.05600809 159.94140625 123.49609375 C150.97833966 115.04954772 148.57031611 107.42708476 147.94140625 95.24609375 C147.57898736 91.27621294 147.08363618 88.36288479 144.171875 85.3828125 C141.52990877 83.47263325 138.71175944 82.05414107 135.81640625 80.55859375 C125.6402953 75.23588105 122.64415016 69.47632713 118.78759766 58.94970703 C116.79116615 53.44569571 116.79116615 53.44569571 112.25390625 49.99609375 C109.66177993 49.28353954 107.12802761 48.67239248 104.50390625 48.12109375 C92.96597373 45.43309601 86.81801603 40.42917374 79.73046875 30.9609375 C79.24320313 30.33316406 78.7559375 29.70539062 78.25390625 29.05859375 C77.63515625 28.20974609 77.63515625 28.20974609 77.00390625 27.34375 C72.86883058 24.15937253 67.15798657 24.96312384 62.20288086 25.21435547 C51.08974177 25.70454764 43.6555326 22.60569884 34.94140625 15.62109375 C32.30491132 13.56386978 31.29225596 13.00319555 27.87890625 12.37109375 C24.69714114 12.91967394 22.48936764 13.67024042 19.56640625 14.93359375 C11.02748875 18.58015274 2.05589727 18.95846597 -6.74609375 15.99609375 C-7.94234375 15.45984375 -9.13859375 14.92359375 -10.37109375 14.37109375 C-18.52319148 11.04986875 -22.28465298 13.61667076 -28.70703125 18.85546875 Z " fill="#000000" transform="translate(250.74609375,4.00390625)"/>
<path d="M0 0 C17.34320364 13.75495461 28.76276982 34.09675318 32 56 C33.70140858 83.93126193 28.56076965 107.62970967 10 129 C9.03126953 130.11955078 9.03126953 130.11955078 8.04296875 131.26171875 C-6.7710305 147.13608847 -29.38308447 157.01741293 -51 158 C-51.65226562 158.03996094 -52.30453125 158.07992187 -52.9765625 158.12109375 C-76.90101157 158.88273351 -99.41136598 149.98169902 -117 134 C-117.63164062 133.44957031 -118.26328125 132.89914063 -118.9140625 132.33203125 C-134.38143931 118.03000474 -143.38678316 96.49105831 -144.37890625 75.703125 C-144.71817228 63.23464466 -144.14024998 51.82150324 -140 40 C-139.649375 38.96359375 -139.29875 37.9271875 -138.9375 36.859375 C-130.53644562 14.57324464 -113.3936856 -2.36955185 -92.01171875 -12.30859375 C-61.30090416 -25.7617918 -26.15181904 -20.22047864 0 0 Z M-104 16 C-104.68320313 16.60328125 -105.36640625 17.2065625 -106.0703125 17.828125 C-118.49764506 29.4521699 -126.50697469 46.41974555 -127.3203125 63.3828125 C-127.93463021 84.93378988 -122.51416631 102.49787319 -107.625 118.5625 C-106.75875 119.366875 -105.8925 120.17125 -105 121 C-104.42378906 121.59296875 -103.84757812 122.1859375 -103.25390625 122.796875 C-90.82199614 134.92327503 -73.59666844 140.59571818 -56.5 141.25 C-38.97150199 140.98115801 -23.6381057 134.9058926 -10 124 C-8.96875 123.2575 -7.9375 122.515 -6.875 121.75 C6.67710087 108.7871209 14.90045267 91.26531568 15.47314453 72.57543945 C15.65176375 52.53598688 10.24643189 34.72234829 -3.80004883 20.07666016 C-18.44786113 5.41129956 -35.15392493 -2.17528409 -56 -2.375 C-74.02956007 -2.18563851 -90.53532226 3.77904752 -104 16 Z " fill="#000000" transform="translate(312,114)"/>
<path d="M0 0 C3.82990706 0.64743667 6.5283898 2.45311237 9.75 4.5625 C10.73484375 5.20316406 11.7196875 5.84382813 12.734375 6.50390625 C13.48203125 6.99761719 14.2296875 7.49132812 15 8 C13.42384619 13.63042227 10.72397178 18.35354753 7.8125 23.375 C7.28567627 24.28838135 6.75885254 25.2017627 6.21606445 26.14282227 C-12.03439744 57.53446694 -32.67685049 87.3800711 -55 116 C-51.31090368 115.61830378 -47.62395953 115.21886256 -43.9375 114.8125 C-42.21358032 114.62264526 -42.21358032 114.62264526 -40.45483398 114.42895508 C-33.84893921 113.66678743 -27.30711815 112.75948642 -20.7578125 111.6171875 C-20.07350662 111.49931381 -19.38920074 111.38144012 -18.68415833 111.25999451 C-15.34170803 110.68166894 -12.00658723 110.08213867 -8.67358398 109.45043945 C-0.45386983 108.00243198 7.41005902 106.94355142 15.01464844 111.1015625 C20.32010038 115.12778846 23.13004125 120.90857224 26.1875 126.6875 C27.30583239 128.73659793 28.42831221 130.78343716 29.5546875 132.828125 C30.12026367 133.85486328 30.68583984 134.88160156 31.26855469 135.93945312 C35.53452113 143.48008416 40.29207043 150.73027813 45 158 C48.68062202 152.00846769 52.34373675 146.00642459 56 140 C56.59393555 139.02595215 57.18787109 138.0519043 57.79980469 137.04833984 C66.61131201 122.57428701 75.05974359 107.96994514 83 93 C83.75192627 91.58871826 83.75192627 91.58871826 84.51904297 90.14892578 C90.61382579 78.68810519 96.47433614 67.14689324 101.96728516 55.38452148 C102.35319824 54.55895752 102.73911133 53.73339355 103.13671875 52.8828125 C103.47405029 52.15465332 103.81138184 51.42649414 104.15893555 50.67626953 C105 49 105 49 106 48 C108.78987144 47.43321559 111.5699787 46.91646197 114.375 46.4375 C115.54675781 46.22963867 115.54675781 46.22963867 116.7421875 46.01757812 C119.89410752 45.46977011 122.79119917 45 126 45 C124.55894765 49.62782399 122.72140661 53.97947807 120.65625 58.35546875 C120.33124008 59.0500116 120.00623016 59.74455444 119.67137146 60.46014404 C118.61869317 62.70471922 117.56009992 64.94642125 116.5 67.1875 C116.13730011 67.95587189 115.77460022 68.72424377 115.40090942 69.51589966 C109.89038212 81.17647536 104.21286355 92.69539113 98 104 C97.46616699 104.98387695 96.93233398 105.96775391 96.38232422 106.98144531 C87.13705098 124.01612397 77.38277028 140.63091373 67 157 C66.40960938 157.93424805 65.81921875 158.86849609 65.2109375 159.83105469 C63.59324156 162.37670977 61.95808432 164.90980564 60.3125 167.4375 C59.60927612 168.53783569 59.60927612 168.53783569 58.8918457 169.66040039 C56.37768148 173.45338764 54.32660169 176.18040116 50 178 C47.31640625 178.43359375 47.31640625 178.43359375 44.5625 178.4375 C43.65628906 178.45683594 42.75007813 178.47617187 41.81640625 178.49609375 C37.08140896 177.66205123 33.89791736 175.19841649 31.04052734 171.38476562 C30.19675537 169.91040039 30.19675537 169.91040039 29.3359375 168.40625 C28.69406494 167.30200684 28.05219238 166.19776367 27.39086914 165.06005859 C26.71877138 163.87345246 26.04681781 162.68676465 25.375 161.5 C24.67521949 160.28772289 23.97395203 159.07630297 23.27124023 157.86572266 C21.85457301 155.42301628 20.44390474 152.97700452 19.03759766 150.52832031 C16.10819665 145.44002126 13.0888078 140.40608498 10.0625 135.375 C9.56089355 134.53517578 9.05928711 133.69535156 8.54248047 132.83007812 C8.08631348 132.06888672 7.63014648 131.30769531 7.16015625 130.5234375 C6.76449463 129.86263184 6.36883301 129.20182617 5.96118164 128.52099609 C5.08612851 127.01279264 5.08612851 127.01279264 4 126 C1.40725789 126.30791104 -1.1408275 126.68263844 -3.71484375 127.109375 C-5.35594573 127.37100191 -6.9970595 127.63255485 -8.63818359 127.89404297 C-9.50368835 128.03404724 -10.36919312 128.17405151 -11.26092529 128.31829834 C-24.10457071 130.38983516 -36.94943649 132.38347765 -49.875 133.875 C-51.39275024 134.05434082 -51.39275024 134.05434082 -52.94116211 134.23730469 C-69.83531297 136.10979135 -69.83531297 136.10979135 -76 132 C-79.24210268 128.33501436 -79.83044049 125.62857913 -79.6484375 120.8125 C-78.43358477 115.54325926 -74.90997027 111.84998789 -71.48925781 107.78564453 C-68.66449771 104.39871086 -65.96334793 100.91383657 -63.25 97.4375 C-62.65606445 96.68009521 -62.06212891 95.92269043 -61.45019531 95.14233398 C-55.93932435 88.05386145 -50.89027952 80.68818316 -45.87890625 73.2421875 C-43.68840007 69.99075441 -41.42004654 66.82088457 -39.0625 63.6875 C-24.35906063 43.67105312 -12.2000113 21.59881154 0 0 Z " fill="#000000" transform="translate(123,334)"/>
<path d="M0 0 C0.66 0 1.32 0 2 0 C2.31001953 0.56058105 2.62003906 1.12116211 2.93945312 1.69873047 C14.601152 22.71779689 26.73874564 43.51766331 40.67138672 63.12695312 C42.0735905 65.1037461 43.46152148 67.0900358 44.84765625 69.078125 C54.93514657 83.51153641 65.22754834 97.80548439 76.35742188 111.45751953 C80.4711774 116.50867647 81.35564088 119.07542099 81.28125 125.51953125 C80.87903081 129.06688108 79.67419608 130.68718177 77 133 C70.44987569 136.93007458 61.27042585 134.9518083 54.0390625 134.01171875 C53.20901703 133.90785355 52.37897156 133.80398834 51.52377319 133.69697571 C49.77381512 133.47681427 48.02419244 133.25397178 46.27490234 133.02856445 C43.6671128 132.69292027 41.05832738 132.3662282 38.44921875 132.04101562 C29.04056632 130.85439785 19.66762533 129.54455192 10.32168579 127.93009949 C3.68817679 126.80443797 3.68817679 126.80443797 -3 127 C-5.21596521 129.12703053 -5.21596521 129.12703053 -6.7265625 132.16796875 C-7.35973389 133.27978516 -7.99290527 134.39160156 -8.64526367 135.53710938 C-8.96836517 136.13289795 -9.29146667 136.72868652 -9.62435913 137.3425293 C-10.63179904 139.200036 -11.6687345 141.037772 -12.71606445 142.87304688 C-14.13686805 145.3661516 -15.54691153 147.86482652 -16.94873047 150.36865234 C-19.91615315 155.64715514 -23.03049902 160.83311854 -26.1875 166 C-26.70328613 166.87035889 -27.21907227 167.74071777 -27.75048828 168.63745117 C-32.36148335 176.19288074 -32.36148335 176.19288074 -37 178 C-39.68359375 178.43359375 -39.68359375 178.43359375 -42.4375 178.4375 C-43.34371094 178.45683594 -44.24992187 178.47617187 -45.18359375 178.49609375 C-49.77861964 177.68670639 -52.67396783 175.70717469 -55.54418945 172.01196289 C-57.24933668 169.48578952 -58.85306299 166.91609073 -60.4375 164.3125 C-61.0365918 163.34860352 -61.63568359 162.38470703 -62.25292969 161.39160156 C-64.18446881 158.27049868 -66.09428911 155.13693129 -68 152 C-68.64275879 150.94796387 -69.28551758 149.89592773 -69.94775391 148.81201172 C-87.96639598 119.27806992 -103.97753138 88.7777394 -119 57.625 C-119.4937915 56.60664063 -119.98758301 55.58828125 -120.49633789 54.5390625 C-120.95129639 53.5903125 -121.40625488 52.6415625 -121.875 51.6640625 C-122.28492188 50.81279785 -122.69484375 49.9615332 -123.1171875 49.08447266 C-124 47 -124 47 -124 45 C-123.14277344 45.13277344 -122.28554688 45.26554687 -121.40234375 45.40234375 C-120.25894531 45.57894531 -119.11554688 45.75554687 -117.9375 45.9375 C-116.81214844 46.11152344 -115.68679688 46.28554688 -114.52734375 46.46484375 C-110.98183387 47.06536216 -110.98183387 47.06536216 -107.2890625 47.171875 C-104 48 -104 48 -102.05859375 50.61328125 C-101.49267439 51.83483681 -100.95460653 53.06949415 -100.4375 54.3125 C-99.76506366 55.77698138 -99.0904033 57.24044271 -98.4140625 58.703125 C-98.03926758 59.53392578 -97.66447266 60.36472656 -97.27832031 61.22070312 C-94.745635 66.72721374 -92.02086239 72.14083344 -89.3125 77.5625 C-89.01147369 78.16654663 -88.71044739 78.77059326 -88.40029907 79.39294434 C-82.35333439 91.50816794 -75.83871667 103.31380107 -69 115 C-68.02812744 116.66240723 -68.02812744 116.66240723 -67.03662109 118.35839844 C-59.22641315 131.69698375 -51.30564355 144.96253548 -43 158 C-38.33653051 150.69318145 -33.75570356 143.35290063 -29.4296875 135.83984375 C-28.82012207 134.78152344 -28.21055664 133.72320312 -27.58251953 132.6328125 C-26.38164979 130.53888988 -25.18707125 128.44134379 -23.99951172 126.33984375 C-14.93464776 110.5341733 -14.93464776 110.5341733 -6.77270508 108.29101562 C-3.29670865 107.92618444 -0.2255154 108.30812462 3.23828125 108.78125 C3.93414841 108.87458115 4.63001556 108.96791229 5.3469696 109.06407166 C7.5662558 109.36557438 9.78323906 109.6804868 12 110 C12.71462402 110.10265167 13.42924805 110.20530334 14.16552734 110.31106567 C19.95499994 111.14849977 25.73932437 112.0197941 31.52270508 112.89819336 C39.9976512 114.18233295 48.44501408 115.37441737 57 116 C56.03513672 114.79730469 56.03513672 114.79730469 55.05078125 113.5703125 C35.43420908 88.96566331 17.87885703 62.64273666 1.5625 35.75 C0.89573242 34.65187988 0.22896484 33.55375977 -0.45800781 32.42236328 C-13 11.52224409 -13 11.52224409 -13 8 C-12.22914063 7.59007812 -11.45828125 7.18015625 -10.6640625 6.7578125 C-9.66117187 6.21898437 -8.65828125 5.68015625 -7.625 5.125 C-6.62726563 4.59132813 -5.62953125 4.05765625 -4.6015625 3.5078125 C-1.94651605 2.1179862 -1.94651605 2.1179862 0 0 Z " fill="#000000" transform="translate(387,334)"/>
<path d="M0 0 C5.39546528 2.80149159 6.58195277 6.14494733 8.875 11.6875 C10.60028926 16.05892423 10.60028926 16.05892423 13.83984375 19.21875 C15.92535538 19.71431712 17.86012704 19.89495169 20 20 C25.65986356 20.93700082 29.7992906 21.7992906 34 26 C35.85926689 29.71853378 35.43349419 33.94148916 35 38 C33.4124356 41.30742583 31.85224878 43.37889619 28.8828125 45.54296875 C26.27001632 47.59071385 24.6335466 49.08599109 23 52 C22.6957174 56.40874158 23.63387874 60.67043865 24.4765625 64.9765625 C25.15118186 68.82370392 24.65446019 71.39942798 23 75 C20.41833377 78.41691119 18.59306065 79.78434158 14.5625 81.25 C9.50739683 81.68329456 5.2904644 78.89521665 1.09985352 76.36621094 C-2.01291276 74.57846466 -3.55014586 73.91115381 -7.125 74.6171875 C-9.77066278 75.88969378 -12.32737043 77.22992177 -14.875 78.6875 C-19.89962998 81.23381625 -22.58882563 81.65086676 -28 80 C-31.69078311 77.11156104 -33.78399442 74.51396009 -35 70 C-34.78617523 67.85141476 -34.37794022 65.78371038 -33.95605469 63.66650391 C-32.38330199 55.90527261 -32.38330199 55.90527261 -35.015625 48.73828125 C-37.68001926 46.10417878 -37.68001926 46.10417878 -40.546875 43.9453125 C-43.75286289 41.40298452 -44.7744626 39.61285465 -45.3359375 35.59765625 C-45.40068859 31.3953108 -45.40776461 28.72491486 -43.3125 25 C-38.46210062 20.80506 -32.90303355 20.4513871 -26.7421875 19.66015625 C-23.70327565 18.92856636 -22.81284412 18.49266066 -21 16 C-19.4617592 13.01177812 -18.08336083 9.97068904 -16.6953125 6.91015625 C-12.61163256 -0.09984733 -7.6217626 -1.32552393 0 0 Z M-6 25 C-8.2013866 28.80427492 -8.2013866 28.80427492 -9 33 C-13.29 33.99 -17.58 34.98 -22 36 C-20.27240233 39.91590192 -20.27240233 39.91590192 -17.890625 42.29296875 C-15.42334776 45.82566117 -15.59073089 48.05205143 -15.75 52.3125 C-15.78609375 53.56675781 -15.8221875 54.82101563 -15.859375 56.11328125 C-15.92898437 57.54220703 -15.92898437 57.54220703 -16 59 C-15.01 58.505 -14.02 58.01 -13 57.5 C-8.27181906 55.4981492 -3.86020155 55.05743358 1.0625 56.6796875 C2.73710027 57.38869164 4.37347661 58.1867383 6 59 C5.88140625 58.28714844 5.7628125 57.57429688 5.640625 56.83984375 C4.72449263 50.03298025 4.84829776 46.53560299 9 41 C9.98230498 39.9826127 10.97469597 38.97403883 12 38 C12 37.34 12 36.68 12 36 C11.31292969 35.86722656 10.62585938 35.73445313 9.91796875 35.59765625 C9.01691406 35.42105469 8.11585938 35.24445313 7.1875 35.0625 C6.29417969 34.88847656 5.40085937 34.71445313 4.48046875 34.53515625 C2 34 2 34 -1 33 C-2.125 30.0625 -2.125 30.0625 -3 27 C-3.33 26.34 -3.66 25.68 -4 25 C-4.66 25 -5.32 25 -6 25 Z " fill="#000000" transform="translate(261,143)"/>
<path d="M0 0 C2.75347464 0.58653898 4.10991447 2.04387189 5.6796875 4.3203125 C6.10894531 5.01382812 6.53820312 5.70734375 6.98046875 6.421875 C7.60566406 7.34226562 8.23085938 8.26265625 8.875 9.2109375 C14.57487928 18.0924062 14.57487928 18.0924062 14.16796875 22.984375 C12.98046875 26.421875 12.98046875 26.421875 11.35546875 28.421875 C7.95094872 29.85535712 5.63998768 29.93549169 1.98046875 29.421875 C-3.89370104 25.1631019 -9.11562293 17.2493618 -10.76953125 10.24609375 C-11.0591612 6.97418042 -10.60706178 5.27942996 -9.01953125 2.421875 C-5.83190631 0.29679171 -3.81035645 -0.1388108 0 0 Z " fill="#000000" transform="translate(338.01953125,400.578125)"/>
<path d="M0 0 C1.9375 0.34765625 1.9375 0.34765625 4.375 1.97265625 C6.29507296 4.89116715 6.6776514 6.86738889 6.9375 10.34765625 C5.8984375 13.09375 5.8984375 13.09375 4.3125 15.78515625 C3.75820312 16.73003906 3.20390625 17.67492187 2.6328125 18.6484375 C-3.18275316 27.90778283 -3.18275316 27.90778283 -6.0625 29.34765625 C-9.54218002 29.60541033 -12.19593059 29.71252758 -15.4375 28.34765625 C-17.88704128 25.33283622 -18.23089687 22.12527561 -18.0625 18.34765625 C-17.03329019 15.47103928 -15.50415584 13.0674982 -13.8125 10.53515625 C-13.40386719 9.88095703 -12.99523437 9.22675781 -12.57421875 8.55273438 C-6.95352105 -0.29399078 -6.95352105 -0.29399078 0 0 Z " fill="#000000" transform="translate(178.0625,400.65234375)"/>
<path d="M0 0 C2.9375 2.125 2.9375 2.125 5 5 C5.83775336 13.12062258 0.78995615 19.88211971 -3.875 26.1875 C-6.15744926 28.6861813 -7.7369536 29.48672688 -11.125 29.6875 C-15 29 -15 29 -17.4375 27.3125 C-19.24652666 24.63514055 -19.92463103 23.2408658 -20 20 C-16.92601901 10.39380939 -11.30913755 -1.36489591 0 0 Z " fill="#000000" transform="translate(151,386)"/>
<path d="M0 0 C5.89331816 4.27265566 11.05347906 12.17153469 12.78515625 19.17578125 C13.0573002 22.75323714 12.12193322 24.1707557 10 27 C8 29 8 29 4.25 29.5625 C1.74572223 29.48113357 0.40084343 29.28685952 -1.6484375 27.8203125 C-3.3158033 25.97650588 -4.65142367 24.08975099 -6 22 C-6.57363281 21.13117188 -7.14726562 20.26234375 -7.73828125 19.3671875 C-12.51906014 11.47615476 -12.51906014 11.47615476 -12.125 6.5 C-11 3 -11 3 -9.375 1 C-5.97047997 -0.43348212 -3.65951893 -0.51361669 0 0 Z " fill="#000000" transform="translate(368,386)"/>
<path d="M0 0 C4.4297642 0.79102932 5.89210172 1.98974785 8.5 5.625 C9.05348638 9.49940468 8.79968563 12.40544012 6.5 15.625 C3.84543069 17.68966502 2.4117824 17.62184937 -1 17.5 C-4.87659512 16.53085122 -6.31160682 15.95135764 -8.5 12.625 C-9.22125695 8.21731863 -9.02001338 6.36562512 -6.4375 2.6875 C-3.5 0.625 -3.5 0.625 0 0 Z " fill="#000000" transform="translate(148.5,112.375)"/>
<path d="M0 0 C2.9375 2.0625 2.9375 2.0625 5 5 C5.51361669 8.65951893 5.43348212 10.97047997 4 14.375 C0.95328478 16.85045612 -2.14171584 17.07015062 -6 17 C-8.66668154 16.22806587 -9.58874394 15.50917417 -11.3125 13.375 C-12.35431074 9.77601743 -12.03500809 6.58447654 -11 3 C-7.98260982 -0.71371099 -4.54917296 -0.63848041 0 0 Z " fill="#000000" transform="translate(227,55)"/>
<path d="M0 0 C3.63525215 2.60789828 4.83397068 4.0702358 5.625 8.5 C4.82883761 12.95850936 3.69186542 14.40783917 0 17 C-3.96476406 17.62601538 -5.99762021 17.65946039 -9.375 15.4375 C-11.50903182 12.23645227 -11.86339823 9.82484946 -12 6 C-11.20297288 3.31909059 -10.51275631 2.36625451 -8.25 0.75 C-5.2251326 -0.25828913 -3.17387527 -0.45341075 0 0 Z " fill="#000000" transform="translate(321,67)"/>
<path d="M0 0 C2.9375 2.0625 2.9375 2.0625 5 5 C5.51361669 8.65951893 5.43348212 10.97047997 4 14.375 C0.93447563 16.86573855 -2.09877868 17.3041888 -6 17 C-8.9375 15.5 -8.9375 15.5 -11 13 C-12.1659741 8.99196403 -12.43240501 6.94717289 -10.6875 3.125 C-7.63595781 -0.71768276 -4.73184339 -0.48120441 0 0 Z " fill="#000000" transform="translate(152,237)"/>
<path d="M0 0 C2.84610137 2.31245736 2.9706247 3.7980448 3.5 7.4375 C3 11 3 11 0.9375 13.9375 C-2.74062512 16.52001338 -4.59231863 16.72125695 -9 16 C-12.27522945 13.84524379 -12.90229594 12.3358577 -14 8.5625 C-14 5 -14 5 -12.1875 2.125 C-8.32944733 -1.62282259 -5.03595223 -1.30790579 0 0 Z " fill="#000000" transform="translate(381,143)"/>
<path d="M0 0 C2.9375 2.0625 2.9375 2.0625 5 5 C5.62601538 8.96476406 5.65946039 10.99762021 3.4375 14.375 C0.17160572 16.55226285 -2.07983866 17 -6 17 C-8.875 15.5 -8.875 15.5 -11 13 C-12.1659741 8.99196403 -12.43240501 6.94717289 -10.6875 3.125 C-7.63595781 -0.71768276 -4.73184339 -0.48120441 0 0 Z " fill="#000000" transform="translate(291,55)"/>
<path d="M0 0 C2.375 1.625 2.375 1.625 4 4 C4.59172793 8.06812955 4.37276489 10.27000208 2.5 13.9375 C-0.55589307 16.45861178 -2.23668182 16.63134586 -6.09765625 16.34375 C-8.95159775 15.82804804 -10.19219609 15.31398901 -12 13 C-12.89988447 10.28270181 -13.24495376 7.85593819 -13 5 C-9.59702063 -0.71214394 -6.3127196 -1.67480316 0 0 Z " fill="#000000" transform="translate(348,263)"/>
<path d="M0 0 C2.5 1.5 2.5 1.5 4 4 C4.79710231 8.05193677 4.68780769 10.96828847 2.375 14.4375 C-0.5659132 16.37231132 -2.47650456 16.92809193 -6 17 C-8.86332091 15.76356597 -10.49288133 14.66847461 -12.375 12.1875 C-13.26089715 9.08685996 -12.89945179 7.08383471 -12 4 C-8.94535569 -0.64305935 -5.16474221 -1.01601486 0 0 Z " fill="#000000" transform="translate(380,207)"/>
<path d="M0 0 C2.89479637 1.73687782 3.01335881 3.05152682 3.875 6.375 C4.01384714 10.40156711 3.47120257 11.88811528 1 15 C-2.20841035 16.60420518 -5.5193987 16.47462745 -9 16 C-11.5 14.5 -11.5 14.5 -13 12 C-13.54719708 9.21841484 -13.58180519 6.7778346 -13 4 C-9.03987453 -1.1481631 -6.20394385 -1.30609344 0 0 Z " fill="#000000" transform="translate(368,113)"/>
<path d="M0 0 C3.06458538 2.04305692 3.82153128 3.44079802 4.9375 6.9375 C5.01327396 10.65042412 4.3135507 12.12800603 2 15 C-0.54229606 16.92863839 -1.78345018 17.00902291 -5 16.875 C-8.57231176 15.83307574 -9.93095202 15.10357196 -12 12 C-12.80730018 7.98821239 -12.61584485 5.02640809 -10.5 1.5 C-6.97359191 -0.61584485 -4.01178761 -0.80730018 0 0 Z " fill="#000000" transform="translate(260,299)"/>
<path d="M0 0 C3.00342896 2.05497771 3.83287356 3.47633714 4.9375 6.9375 C5.0128328 10.62880732 4.24574926 12.1126081 2 15 C-1.62702989 17.41801993 -3.00610079 17.20120778 -7.125 16.52734375 C-9 16 -9 16 -11 14.4375 C-12.45360213 10.8943448 -12.80967808 7.76307528 -12 4 C-8.51708493 -0.22171524 -5.31642554 -0.77329826 0 0 Z " fill="#000000" transform="translate(140,143)"/>
<path d="M0 0 C2.8539415 0.51570196 4.09453984 1.02976099 5.90234375 3.34375 C6.8028619 6.06296166 7.13075289 8.48585027 6.90234375 11.34375 C5.00470876 14.91130378 3.81560093 16.05228494 -0.03515625 17.28125 C-3.35656824 17.34903392 -5.20484208 16.95086898 -8.09765625 15.34375 C-10.58924665 11.6063644 -10.5555891 9.77043417 -10.09765625 5.34375 C-7.61183995 0.47569309 -5.17987065 -0.38583767 0 0 Z " fill="#000000" transform="translate(345.09765625,86.65625)"/>
<path d="M0 0 C2.64764845 1.67684402 2.95477045 2.85138861 3.875 5.875 C4.02459154 9.61478838 3.21644734 11.04473688 1 14 C-1 16 -1 16 -4.875 16.375 C-7.80850708 16.27899431 -8.91241536 16.05255079 -11.5 14.5 C-13.61417965 10.97636725 -13.69200659 8.01199061 -13 4 C-9.9229572 -1.71450807 -5.87629932 -1.259207 0 0 Z " fill="#000000" transform="translate(173,88)"/>
<path d="M0 0 C3.2883921 2.71292348 3.90851499 4.34816929 4.5 8.5625 C4 12 4 12 2.375 14.375 C-0.56278062 16.38506043 -2.4396496 16.92733979 -6 17 C-9.52906067 15.39588152 -10.82772908 14.25840638 -13 11 C-13.22689928 7.24859854 -12.76726505 3.98209927 -10.4375 1 C-6.8943448 -0.45360213 -3.76307528 -0.80967808 0 0 Z " fill="#000000" transform="translate(260,51)"/>
<path d="M0 0 C2.52301046 2.83838677 3.0149768 4.26613701 2.9375 8.0625 C1.82153128 11.55920198 1.06458538 12.95694308 -2 15 C-6.01178761 15.80730018 -8.97359191 15.61584485 -12.5 13.5 C-14.60819617 9.98633972 -14.82934956 6.99894292 -14 3 C-9.8956192 -2.51968452 -6.14301922 -2.41332898 0 0 Z " fill="#000000" transform="translate(294,296)"/>
<path d="M0 0 C2.64764845 1.67684402 2.95477045 2.85138861 3.875 5.875 C4.02459154 9.61478838 3.21644734 11.04473688 1 14 C-1 16 -1 16 -4.3125 16.375 C-8.6553901 15.93335016 -10.22248662 15.36668288 -13 12 C-13.83388428 8.12442354 -13.56655981 5.0521825 -11.6875 1.5625 C-8.02890822 -1.82508498 -4.56441173 -0.97808823 0 0 Z " fill="#000000" transform="translate(199,283)"/>
<path d="M0 0 C3.48326597 0.85529699 4.97293913 2.60978164 6.97265625 5.484375 C7.69135398 9.31742954 7.29797049 10.92133112 5.34765625 14.296875 C2.44067845 16.97435456 0.90825016 17.484375 -3.02734375 17.484375 C-6.55640442 15.88025652 -7.85507283 14.74278138 -10.02734375 11.484375 C-10.50828665 7.79714609 -10.25651874 5.92362706 -8.52734375 2.609375 C-5.667774 0.17874072 -3.74624162 -0.25208355 0 0 Z " fill="#000000" transform="translate(365.02734375,236.515625)"/>
<path d="M0 0 C3.08364499 1.85018699 4.63905184 3.06153478 5.9375 6.4375 C6.01322099 9.54206051 5.50149761 11.28300432 4 14 C1.68814262 16.39442371 0.371104 16.94472919 -2.9375 17.4375 C-6.91302153 16.86956835 -8.42506202 16.10507227 -11 13 C-11.71534153 9.85595859 -11.71534153 7.14404141 -11 4 C-7.77123438 0.10648852 -4.96361941 -0.8272699 0 0 Z " fill="#000000" transform="translate(321,282)"/>
<path d="M0 0 C3.76991795 0.70685962 5.40418092 1.74418215 8 4.5625 C9.23674251 8.19543114 9.34458203 9.80441953 7.75 13.3125 C5.47164688 16.24181116 3.81463875 17.43853323 0.125 18 C-3 17.5625 -3 17.5625 -5.875 15.5 C-8 12.5625 -8 12.5625 -8.625 9.0625 C-7.67703424 3.75389177 -5.38444917 1.00958422 0 0 Z " fill="#000000" transform="translate(136,206.4375)"/>
<path d="M0 0 C1.88194717 3.13657862 1.73622004 6.3833177 1.125 9.875 C-0.375 12.375 -0.375 12.375 -2.875 13.875 C-6.64484163 14.54708242 -9.76903842 14.32872783 -13.3125 12.875 C-15.71607664 9.7984219 -16.19884791 6.73858093 -15.875 2.875 C-14.21084691 -0.02185909 -12.98855576 -1.56822212 -10 -3.0625 C-6.24203903 -3.17302826 -3.1876167 -1.91257002 0 0 Z " fill="#000000" transform="translate(200.875,70.125)"/>
<path d="M0 0 C2.0625 2.6875 2.0625 2.6875 3 6 C2.375 9.75 2.375 9.75 1 13 C-2.69330732 15.46220488 -5.7136488 15.67270703 -10 15 C-12.5 13.5 -12.5 13.5 -14 11 C-14.54734685 8.2176535 -14.57639658 5.77925877 -14 3 C-9.92249431 -2.48354214 -6.10153827 -2.50598893 0 0 Z " fill="#000000" transform="translate(230,296)"/>
<path d="M0 0 C2.12890625 0.484375 2.12890625 0.484375 4.69140625 2.609375 C6.38310394 5.99277038 6.75086556 7.75261914 6.12890625 11.484375 C4.69140625 14.359375 4.69140625 14.359375 2.12890625 16.484375 C-1.01513516 17.19971653 -3.72705234 17.19971653 -6.87109375 16.484375 C-9.93971731 13.93966278 -10.71933038 12.39495519 -11.37109375 8.484375 C-10.2071041 1.5004371 -6.65313004 -0.39458432 0 0 Z " fill="#000000" transform="translate(170.87109375,262.515625)"/>
<path d="M0 0 C2.875 1.4375 2.875 1.4375 5 4 C5.71534153 7.14404141 5.71534153 9.85595859 5 13 C2.45528778 16.06862356 0.91058019 16.84823663 -3 17.5 C-6.91058019 16.84823663 -8.45528778 16.06862356 -11 13 C-11.71534153 9.85595859 -11.71534153 7.14404141 -11 4 C-7.77123438 0.10648852 -4.96361941 -0.8272699 0 0 Z " fill="#000000" transform="translate(135,175)"/>
<path d="M0 0 C2.46220488 3.69330732 2.67270703 6.7136488 2 11 C0.5 13.5 0.5 13.5 -2 15 C-6.02098277 15.791013 -8.96411027 15.62153384 -12.5 13.5 C-14.60819617 9.98633972 -14.82934956 6.99894292 -14 3 C-9.85157448 -2.57891707 -6.21013744 -2.2582318 0 0 Z " fill="#000000" transform="translate(386,176)"/>
</svg>
