<?xml version="1.0" encoding="UTF-8"?>
<svg version="1.1" xmlns="http://www.w3.org/2000/svg" width="512" height="512">
<path d="M0 0 C7.9048583 5.32836012 11.38718199 11.61987645 13.58544922 20.76733398 C16.43113237 36.09346614 13.98318026 52.86668071 5.46484375 65.94921875 C4.00688446 67.99036176 2.51866266 70.0036571 1 72 C1.57105469 72.01417969 2.14210937 72.02835937 2.73046875 72.04296875 C13.5777581 72.68104459 23.11921259 76.90534197 32 83 C31.855625 82.2471875 31.71125 81.494375 31.5625 80.71875 C29.26445196 67.56880844 27.473032 51.76594051 34.32421875 39.66015625 C39.39163316 32.517895 45.5148529 27.72937256 54.109375 25.4375 C66.56135658 23.55287576 80.61868332 23.45981911 91.3125 30.6875 C99.11944302 37.14081984 101.59187089 45.16509828 103 55 C103.6577261 64.18761147 102.68011315 72.96939185 101 82 C101.64582031 81.62488281 102.29164063 81.24976563 102.95703125 80.86328125 C112.23580513 75.82405658 121.7779349 73.4165133 132 71 C131.5987793 70.5570459 131.19755859 70.1140918 130.78417969 69.65771484 C127.68448587 66.1553049 125.1448622 62.94684325 123.25 58.625 C122.86328125 57.77164063 122.4765625 56.91828125 122.078125 56.0390625 C117.42197077 42.91410601 116.32812845 25.43606615 121.67578125 12.4140625 C126.31906998 3.94930606 132.19937648 0.02109776 141.10546875 -3.08203125 C145.80068104 -4.38243625 150.47059739 -4.32987941 155.3125 -4.3125 C156.19873047 -4.32861328 157.08496094 -4.34472656 157.99804688 -4.36132812 C168.62478684 -4.36907921 176.15846426 -1.89499436 183.86328125 5.51953125 C193.08437257 16.22408882 191.64292892 30.76995148 191 44 C189.7335555 54.43206826 185.021535 64.16828789 178 72 C178.57105469 72.01417969 179.14210938 72.02835937 179.73046875 72.04296875 C190.5777581 72.68104459 200.11921259 76.90534197 209 83 C208.855625 82.2471875 208.71125 81.494375 208.5625 80.71875 C206.26445196 67.56880844 204.473032 51.76594051 211.32421875 39.66015625 C216.38837018 32.522494 222.51839109 27.71009239 231.1171875 25.44140625 C243.51682517 23.54281674 257.12315875 23.72009443 268.1015625 30.25 C275.04037392 35.44672685 278.36239109 43.90317592 279.71875 52.25 C281.37960019 68.48942413 278.99525489 84.63894777 268.80859375 97.83984375 C268.21175781 98.55269531 267.61492187 99.26554687 267 100 C267.8971875 100.1959375 268.794375 100.391875 269.71875 100.59375 C286.12713078 104.52633713 300.88842657 111.02638718 310.67578125 125.30078125 C315.13243909 134.38500122 315.46126722 143.23145596 315.43359375 153.2109375 C315.43816759 154.67005656 315.44347668 156.12917347 315.44947815 157.58828735 C315.45836257 160.63251548 315.45604055 163.67648064 315.44604492 166.72070312 C315.43456968 170.58928017 315.45476754 174.45694236 315.48396206 178.3253994 C315.50245969 181.33521123 315.50200478 184.34480934 315.49632454 187.35466385 C315.49617293 188.77937731 315.50208215 190.20410677 315.51461601 191.62876511 C315.6092677 204.14909987 314.18046702 214.86637775 305.1328125 224.09765625 C295.1359323 233.01428749 284.38927365 234.45903692 271.3359375 234.29296875 C270.06271637 234.28872391 268.78949524 234.28447906 267.47769165 234.28010559 C264.12710905 234.26624915 260.77716479 234.23939741 257.42675781 234.20599365 C253.99419708 234.17505404 250.5615679 234.16138418 247.12890625 234.14648438 C240.41891712 234.11611327 233.71002885 234.05736883 227 234 C227 243.57 227 253.14 227 263 C229.26875 262.9175 231.5375 262.835 233.875 262.75 C244.32888917 262.64609358 251.41943639 265.52783899 259.01953125 272.7109375 C265.5530662 280.26251833 267.14591967 288.13032988 267.17700195 297.81665039 C267.18357315 298.70664734 267.19014435 299.59664429 267.19691467 300.51361084 C267.21661886 303.45829356 267.22830614 306.40292526 267.23828125 309.34765625 C267.24235678 310.3562866 267.2464323 311.36491695 267.25063133 312.40411186 C267.27148344 317.74653798 267.28578684 323.0889385 267.29516602 328.43139648 C267.30620662 333.93002148 267.34058202 339.42823916 267.38033772 344.92672062 C267.40657961 349.17088027 267.41486475 353.41494415 267.41844749 357.65917778 C267.42329673 359.68481625 267.43486286 361.71045093 267.45348549 363.7360096 C267.67208653 389.09667404 267.67208653 389.09667404 257.92578125 399.28125 C251.45098206 405.05997545 244.56252234 408.24562991 235.7923317 408.25726891 C233.94442988 408.26694224 233.94442988 408.26694224 232.05919671 408.276811 C230.70029169 408.27386902 229.34138709 408.2707336 227.98248291 408.26742554 C226.53249937 408.27116335 225.08251785 408.27576539 223.63253951 408.28115618 C219.65202461 408.29338557 215.67159376 408.29312579 211.69106436 408.29076743 C207.39644673 408.29035925 203.10185605 408.3013986 198.80725098 408.31088257 C190.3945313 408.32749344 181.98183965 408.33299216 173.56910494 408.33410732 C166.73008436 408.3350578 159.89107302 408.33916808 153.05205536 408.34550858 C133.65934619 408.36312158 114.26665915 408.37234741 94.87394193 408.37084763 C93.30583774 408.37072776 93.30583774 408.37072776 91.70605469 408.37060547 C90.13603426 408.37048283 90.13603426 408.37048283 88.53429624 408.37035771 C71.57322976 408.36954489 54.61225209 408.38868128 37.65121129 408.4168822 C20.23295558 408.44561463 2.81474317 408.45942228 -14.60353684 408.45769465 C-24.3814381 408.45703085 -34.15924625 408.46251869 -43.93712616 408.48405075 C-52.26273608 408.5022673 -60.58821069 408.50660602 -68.91383192 408.4930319 C-73.16016595 408.48650452 -77.40624044 408.48637665 -81.65254974 408.5037384 C-85.54381495 408.51948458 -89.43461515 408.51659003 -93.32586911 408.49917014 C-94.72962899 408.49610361 -96.13342371 408.4997196 -97.53714249 408.51089029 C-108.91673481 408.59541277 -117.81283119 406.89514142 -126.24609375 398.921875 C-133.34150924 391.1469431 -135.3017834 383.11523797 -135.29052734 372.84277344 C-135.29724457 371.95233841 -135.30396179 371.06190338 -135.31088257 370.14448547 C-135.32979833 367.21605771 -135.3337837 364.28785997 -135.3359375 361.359375 C-135.34237049 359.31064767 -135.34909922 357.26192124 -135.35610962 355.2131958 C-135.36806679 350.92287061 -135.37179211 346.63262583 -135.37060547 342.34228516 C-135.37040251 336.86725654 -135.39768778 331.39274834 -135.43214989 325.91784286 C-135.45448073 321.68654044 -135.45844109 317.45536195 -135.45738602 313.22400665 C-135.45973331 311.20675109 -135.46850725 309.18949166 -135.48405075 307.17229462 C-135.58670715 292.47228847 -135.07800985 281.2060687 -124.37890625 270.1015625 C-117.69725737 264.19889075 -110.9232223 262.83092922 -102.25 262.9375 C-101.55261719 262.94201172 -100.85523437 262.94652344 -100.13671875 262.95117188 C-98.42444197 262.9628998 -96.71220967 262.98083347 -95 263 C-95.00523682 262.22809326 -95.01047363 261.45618652 -95.01586914 260.66088867 C-95.03663242 257.16976737 -95.04965811 253.67865905 -95.0625 250.1875 C-95.07087891 248.97255859 -95.07925781 247.75761719 -95.08789062 246.50585938 C-95.09111328 245.34248047 -95.09433594 244.17910156 -95.09765625 242.98046875 C-95.10289307 241.90692139 -95.10812988 240.83337402 -95.11352539 239.72729492 C-95 237 -95 237 -94 234 C-94.70886353 234.00444122 -95.41772705 234.00888245 -96.14807129 234.01345825 C-102.8561228 234.05367326 -109.56414024 234.08405432 -116.27228546 234.10362434 C-119.7203133 234.11402399 -123.16824082 234.12811258 -126.61621094 234.15087891 C-130.58787806 234.17693647 -134.55950575 234.18650437 -138.53125 234.1953125 C-139.75863892 234.20563507 -140.98602783 234.21595764 -142.25061035 234.22659302 C-154.09180596 234.22813425 -162.47183426 232.25086313 -171.20703125 223.88671875 C-181.59997823 212.72249555 -183.31249243 201.8676953 -183.265625 186.97265625 C-183.26697534 185.6155948 -183.26891894 184.25853381 -183.27142334 182.901474 C-183.27435825 180.06813923 -183.27013061 177.23493126 -183.26074219 174.40161133 C-183.2493595 170.79299579 -183.25590988 167.18467824 -183.26788712 163.57607365 C-183.27515946 160.77658395 -183.27279311 157.97716336 -183.26763153 155.17767143 C-183.26567215 153.20756204 -183.27168435 151.23744983 -183.27789307 149.26734924 C-183.21391096 136.93858014 -181.39166561 127.42741526 -173.16796875 117.87109375 C-162.50945626 107.45713604 -148.26707049 102.88376957 -134 100 C-134.37511719 99.56171875 -134.75023437 99.1234375 -135.13671875 98.671875 C-145.34675374 86.01863265 -148.09938537 70.914912 -147 55 C-145.65361386 44.86250439 -142.62349933 38.04091918 -135.0625 31.1875 C-124.12673539 23.37623956 -109.6275163 23.63619817 -96.74609375 25.4609375 C-89.512366 27.38540341 -83.52605856 31.44203346 -79.1875 37.5625 C-71.58774672 51.09314182 -73.27924274 67.37592971 -76 82 C-75.34257813 81.62488281 -74.68515625 81.24976563 -74.0078125 80.86328125 C-65.01947625 76.02809224 -55.85589492 73.47492473 -46 71 C-46.45890625 70.40574219 -46.9178125 69.81148438 -47.390625 69.19921875 C-57.29492035 55.82009708 -60.1821113 40.41596161 -58.4375 24 C-56.83142127 14.54534785 -53.68093209 7.47593788 -46.12109375 1.40234375 C-34.12723552 -6.52729733 -12.31037204 -7.32143179 0 0 Z M-38 17 C-40.9703098 22.47455226 -41.51601523 27.07944451 -41.4375 33.25 C-41.42920166 34.08829346 -41.42090332 34.92658691 -41.41235352 35.7902832 C-41.1437376 45.68127578 -38.7012985 53.26073749 -31.71484375 60.46875 C-28.11649911 63.68185046 -25.32945995 64.18277463 -20.625 64 C-15.43106594 63.24813267 -12.32244911 60.98866937 -9 57 C-2.54482306 47.21637245 -1.83467234 35.36777128 -3 24 C-4.09678725 19.57546052 -5.67763628 16.84025195 -9.625 14.33203125 C-13.70855911 12.72034878 -17.02912502 12.50145973 -21.375 12.5625 C-22.12797363 12.57079834 -22.88094727 12.57909668 -23.65673828 12.58764648 C-29.40950771 12.76308909 -33.34929412 13.37244941 -38 17 Z M138.6875 18.5 C133.87395728 25.6311744 135.15867549 37.36257878 136.6484375 45.57421875 C138.92481914 53.17188567 142.68306612 59.15991192 149.375 63.5625 C154.40631331 64.40105222 158.73746969 64.34238154 163.21875 61.68359375 C169.63526069 56.52404877 172.78666922 50.07375246 174 42 C174.18739142 39.04060914 174.23052719 36.08973552 174.25 33.125 C174.270625 32.34769531 174.29125 31.57039063 174.3125 30.76953125 C174.34849602 25.41512327 173.50880808 21.7496852 171 17 C166.44456778 12.72928229 161.65178776 12.79053891 155.6875 12.75 C154.94048828 12.729375 154.19347656 12.70875 153.42382812 12.6875 C147.27626902 12.64432136 143.00434808 13.83313722 138.6875 18.5 Z M-126 46 C-130.97586466 52.25995876 -130.49373577 60.37452531 -130 68 C-128.73527368 76.59585178 -126.1138227 84.66206764 -119.30078125 90.44140625 C-115.20024226 93.08602353 -111.76232745 93.75194644 -107 93 C-100.56491391 90.32999296 -97.00070694 86.17218583 -94 80 C-90.08621887 70.41123622 -89.32623215 58.64282572 -93.01171875 48.87890625 C-95.0675343 44.97041897 -97.9393411 43.35355297 -102 42 C-114.66634926 41.07831353 -114.66634926 41.07831353 -126 46 Z M49.625 47.875 C45.01213176 56.74590047 46.34515137 67.84159109 48.9609375 77.16796875 C51.10704493 83.01732171 54.11742163 88.13134833 59.4375 91.5625 C64.05037363 93.42383497 67.32941788 94.1080618 72.04296875 92.15234375 C78.5063898 88.57502816 81.73529786 83.94199496 83.96875 76.98046875 C86.51904493 67.02723438 87.97055159 56.44994195 83 47 C78.17722345 42.17722345 73.80073222 41.79781556 67.25 41.75 C66.5590625 41.729375 65.868125 41.70875 65.15625 41.6875 C58.81063898 41.63978864 53.83413923 42.77972619 49.625 47.875 Z M226.625 47.875 C221.97694194 56.8135732 223.40305454 67.84945385 226.01953125 77.234375 C228.23776718 83.49139109 231.38638584 88.30683279 237 92 C241.2154577 93.40515257 244.83310121 93.87991716 249.05859375 92.1640625 C255.62229128 88.46655425 258.86929588 83.86627859 260.96875 76.6875 C263.22520732 66.99309078 264.17327869 58.51983608 261 49 C258.46852141 44.9845512 256.488357 43.39378528 252 42 C249.32704994 41.78515955 246.79386602 41.67502866 244.125 41.6875 C243.44308594 41.67138672 242.76117188 41.65527344 242.05859375 41.63867188 C235.77282553 41.63268543 230.78478958 42.83946524 226.625 47.875 Z M-72 101 C-72.66 101.99 -73.32 102.98 -74 104 C-72.42412109 104.74443359 -72.42412109 104.74443359 -70.81640625 105.50390625 C-62.00713399 109.73965778 -53.98678081 114.01321919 -47 121 C-46.33613281 120.65066406 -45.67226562 120.30132812 -44.98828125 119.94140625 C-43.66376953 119.25884766 -43.66376953 119.25884766 -42.3125 118.5625 C-41.44238281 118.11003906 -40.57226562 117.65757812 -39.67578125 117.19140625 C-33.87107977 114.60683114 -28.06729012 114.78526309 -21.8125 114.75 C-20.46961914 114.7190625 -20.46961914 114.7190625 -19.09960938 114.6875 C-11.09442268 114.64126065 -4.10180658 116.27359985 3 120 C3.38027344 119.59910156 3.76054687 119.19820312 4.15234375 118.78515625 C11.0494784 112.12949677 19.51571366 108.25178441 28 104 C24.25873367 96.02360792 15.50348275 93.13862069 7.69921875 90.078125 C-1.64489398 87.35481443 -10.92996664 86.63707355 -20.625 86.6875 C-22.31906982 86.69487183 -22.31906982 86.69487183 -24.04736328 86.70239258 C-40.95724817 86.93661815 -59.08360643 88.87846142 -72 101 Z M106 100 C104.95884159 101.30144802 103.94622159 102.62797869 103 104 C104.57587891 104.74443359 104.57587891 104.74443359 106.18359375 105.50390625 C114.99286601 109.73965778 123.01321919 114.01321919 130 121 C131.485 120.071875 131.485 120.071875 133 119.125 C139.85651673 114.83967704 147.54561545 114.65913266 155.375 114.6875 C156.25671875 114.67138672 157.1384375 114.65527344 158.046875 114.63867188 C165.97006081 114.63286309 172.97370931 116.31064674 180 120 C180.391875 119.5875 180.78375 119.175 181.1875 118.75 C186.39351863 113.72349925 192.06169843 110.72347177 198.5390625 107.66601562 C202.57086077 105.78469145 202.57086077 105.78469145 206 103 C190.20411172 87.68946025 170.62338814 86.58792795 149.62890625 86.78125 C134.31427127 87.12975542 118.09374955 89.92187538 106 100 Z M-160.9765625 130.42578125 C-165.89445942 136.68233351 -166.46393699 143.28503657 -166.546875 150.94921875 C-166.56719788 151.88369339 -166.58752075 152.81816803 -166.60845947 153.78096008 C-166.64847682 155.74992657 -166.68170877 157.71904151 -166.70849609 159.68823242 C-166.74964452 162.66181116 -166.81241578 165.63431297 -166.87890625 168.60742188 C-168.26916147 190.73111598 -168.26916147 190.73111598 -160.375 210.5625 C-159.59125 211.366875 -158.8075 212.17125 -158 213 C-157.67 213 -157.34 213 -157 213 C-156.99191315 212.20708557 -156.98382629 211.41417114 -156.97549438 210.597229 C-156.89753394 203.12252853 -156.81023901 195.64802285 -156.71247292 188.17355728 C-156.66253995 184.33091081 -156.61620977 180.48829143 -156.578125 176.64550781 C-156.5412341 172.93658312 -156.49486404 169.22788671 -156.44193649 165.51915741 C-156.42341271 164.10463213 -156.40829728 162.69005795 -156.39665604 161.27545929 C-156.37975987 159.29324238 -156.34959077 157.31115208 -156.31884766 155.32910156 C-156.30552399 154.20103088 -156.29220032 153.07296021 -156.2784729 151.91070557 C-156.00257222 149.02688587 -155.65715764 147.35969977 -154 145 C-150.30305107 143.46541742 -148.03780522 142.7292682 -144.125 143.75 C-142 145 -142 145 -141 147 C-140.87904959 149.21536729 -140.82250828 151.43434004 -140.79467773 153.65283203 C-140.78477814 154.33587402 -140.77487854 155.01891602 -140.76467896 155.72265625 C-140.73304691 157.98433953 -140.70829989 160.24604382 -140.68359375 162.5078125 C-140.66302569 164.07437695 -140.64202925 165.64093583 -140.62062073 167.20748901 C-140.56538478 171.33383682 -140.51598225 175.46023483 -140.46777344 179.58666992 C-140.41756952 183.79610674 -140.36187767 188.0054705 -140.30664062 192.21484375 C-140.19904042 200.47650076 -140.09759961 208.73821882 -140 217 C-133.15063046 217.25420341 -126.30248124 217.4289275 -119.44946289 217.54931641 C-117.12022455 217.59951202 -114.79129987 217.66768752 -112.46313477 217.75439453 C-109.10875148 217.87616373 -105.75853864 217.93249799 -102.40234375 217.9765625 C-101.36665756 218.02817535 -100.33097137 218.07978821 -99.26390076 218.13296509 C-96.20234163 218.13532353 -93.89223335 218.01851011 -91 217 C-88.67806993 214.60807866 -87.07490292 212.23907468 -85.4233551 209.34848022 C-84 207 -84 207 -81 205 C-80.54298782 202.4789627 -80.54298782 202.4789627 -80.61523438 199.49633789 C-80.60512329 198.34496841 -80.59501221 197.19359894 -80.58459473 196.00733948 C-80.58761597 194.75839401 -80.59063721 193.50944855 -80.59375 192.22265625 C-80.57749573 190.30651772 -80.57749573 190.30651772 -80.56091309 188.35166931 C-80.52651845 184.25522121 -80.51041589 180.1590594 -80.5 176.0625 C-80.48629689 170.67812444 -80.45188929 165.29438305 -80.40625 159.91015625 C-80.41078186 158.0397744 -80.41078186 158.0397744 -80.41540527 156.13160706 C-80.40529419 154.97708542 -80.39518311 153.82256378 -80.38476562 152.63305664 C-80.38271118 151.61538712 -80.38065674 150.59771759 -80.37854004 149.54920959 C-80 147 -80 147 -78.62438965 145.19871521 C-76.39195548 143.55129472 -74.76375529 143.19741109 -72 143 C-69.3125 143.625 -69.3125 143.625 -67 145 C-64.3017588 149.71279449 -64.65098431 154.8389037 -64.5859375 160.11328125 C-64.56657135 161.08283249 -64.5472052 162.05238373 -64.5272522 163.05131531 C-64.46762564 166.13828828 -64.4211386 169.22529888 -64.375 172.3125 C-64.33680466 174.40952118 -64.29775202 176.50652694 -64.2578125 178.60351562 C-64.16032939 183.73559536 -64.08062602 188.86751709 -64 194 C-57.73 192.68 -51.46 191.36 -45 190 C-46.83209133 186.01126904 -46.83209133 186.01126904 -49.375 182.9375 C-57.39499607 171.67638457 -58.86564128 156.18113897 -57.375 142.75 C-56.97691451 138.8281207 -56.86183218 137.32439401 -58.4375 133.625 C-59.283125 132.75875 -60.12875 131.8925 -61 131 C-61.53753906 130.42894531 -62.07507813 129.85789063 -62.62890625 129.26953125 C-75.55242208 116.61581742 -95.20710591 115.52188407 -112.3269043 115.64648438 C-129.93283246 116.05602661 -147.43941407 118.26033723 -160.9765625 130.42578125 Z M15 131 C12.68703333 134.46945 12.80208466 135.60625968 12.9453125 139.671875 C12.97286621 140.80439697 13.00041992 141.93691895 13.02880859 143.10375977 C13.06055176 144.30701904 13.09229492 145.51027832 13.125 146.75 C13.30755233 161.65156986 11.74847433 173.50217953 3 186 C2.34 186.99 1.68 187.98 1 189 C4.71042736 190.26935673 8.44087453 191.46755055 12.1875 192.625 C13.02667969 192.88539063 13.86585938 193.14578125 14.73046875 193.4140625 C17.09346756 194.12498941 17.09346756 194.12498941 20 194 C20.00808685 193.44511902 20.01617371 192.89023804 20.02450562 192.31854248 C20.11056256 186.54334593 20.21006667 180.76849216 20.31738281 174.99365234 C20.35566602 172.83843747 20.39052004 170.68315884 20.421875 168.52783203 C20.4675395 165.42978124 20.52553212 162.33216909 20.5859375 159.234375 C20.60326431 157.78886261 20.60326431 157.78886261 20.62094116 156.31414795 C20.64081085 155.41351624 20.66068054 154.51288452 20.68115234 153.58496094 C20.69447601 152.79442322 20.70779968 152.0038855 20.7215271 151.18939209 C21.03943267 148.68997497 21.61263617 147.10292671 23 145 C26.69694893 143.46541742 28.96219478 142.7292682 32.875 143.75 C35 145 35 145 36 147 C36.08921791 148.84220021 36.11471202 150.68762881 36.11010742 152.53198242 C36.11068649 153.69046188 36.11126556 154.84894135 36.11186218 156.04252625 C36.10975235 157.30079727 36.10764252 158.5590683 36.10546875 159.85546875 C36.11892703 162.50588032 36.13384841 165.15624996 36.15039062 167.80664062 C36.17468181 171.99599409 36.19047539 176.18485369 36.17504883 180.37426758 C36.16562174 183.10201034 36.17201622 185.82881961 36.19612122 188.55647278 C36.2186052 191.12513064 36.21857594 193.69410815 36.19340515 196.26274109 C36.23527777 203.77296428 36.23527777 203.77296428 39.8605957 210.0949707 C40.90157783 211.0692089 41.94730259 212.03843253 43 213 C43.43731445 213.78979248 43.87462891 214.57958496 44.32519531 215.39331055 C47.2143502 218.1649619 50.9996674 217.67262616 54.796875 217.70703125 C55.66387024 217.72271652 56.53086548 217.73840179 57.4241333 217.75456238 C59.25985612 217.77919638 61.09575563 217.79277015 62.93164062 217.79614258 C65.72828801 217.81237399 68.51733286 217.89774541 71.3125 217.98632812 C80.53578391 218.40989426 80.53578391 218.40989426 88.75585938 215.00927734 C90.51389745 212.7379468 91.77154296 210.58549416 93 208 C93.66 207.34 94.32 206.68 95 206 C95.3175486 203.61685011 95.3175486 203.61685011 95.28710938 200.81933594 C95.30723083 199.19689972 95.30723083 199.19689972 95.32775879 197.54168701 C95.33303589 196.36777405 95.33831299 195.19386108 95.34375 193.984375 C95.3583728 192.78065247 95.37299561 191.57692993 95.38806152 190.33673096 C95.4347034 186.47452125 95.46880934 182.61236359 95.5 178.75 C95.54115096 173.68210138 95.59488289 168.61456457 95.65625 163.546875 C95.6615271 162.38105896 95.6668042 161.21524292 95.67224121 160.01409912 C95.80385208 149.2783277 95.80385208 149.2783277 98 145 C101.62111857 143.3602482 103.89844636 142.77968927 107.8125 143.5625 C110.73463581 145.48276068 111.01390437 146.6261017 112 150 C112.32766399 153.36891199 112.37234023 156.73019444 112.4140625 160.11328125 C112.43342865 161.08283249 112.4527948 162.05238373 112.4727478 163.05131531 C112.53237436 166.13828828 112.5788614 169.22529888 112.625 172.3125 C112.66319534 174.40952118 112.70224798 176.50652694 112.7421875 178.60351562 C112.83967061 183.73559536 112.91937398 188.86751709 113 194 C119.6 192.68 126.2 191.36 133 190 C131.02 187.36 129.04 184.72 127 182 C125.390625 178.875 125.390625 178.875 124.25 176 C123.86328125 175.05125 123.4765625 174.1025 123.078125 173.125 C119.86082849 163.79950288 119.87686346 155.82654995 120.25390625 146.0234375 C120.38124144 139.79150362 120.37875173 135.85066667 116 131 C115.14921875 130.03900391 115.14921875 130.03900391 114.28125 129.05859375 C99.45542104 115.56578889 77.81404924 115.06960497 58.82617188 115.83154297 C43.02856989 116.77317612 26.7925443 119.61223411 15 131 Z M192 131 C189.64880894 134.5267866 189.79644393 135.83893234 189.91015625 139.99609375 C189.93013672 141.19556641 189.95011719 142.39503906 189.97070312 143.63085938 C190.03105612 146.13358263 190.09602563 148.63619958 190.16601562 151.13867188 C190.32449227 161.40686552 189.27945164 170.98093678 184 180 C183.505 180.86625 183.01 181.7325 182.5 182.625 C181.09871361 184.84370345 179.61039446 186.92949284 178 189 C181.71042736 190.26935673 185.44087453 191.46755055 189.1875 192.625 C190.02667969 192.88539063 190.86585938 193.14578125 191.73046875 193.4140625 C194.09346756 194.12498941 194.09346756 194.12498941 197 194 C197.00808685 193.44511902 197.01617371 192.89023804 197.02450562 192.31854248 C197.11056256 186.54334593 197.21006667 180.76849216 197.31738281 174.99365234 C197.35566602 172.83843747 197.39052004 170.68315884 197.421875 168.52783203 C197.4675395 165.42978124 197.52553212 162.33216909 197.5859375 159.234375 C197.60326431 157.78886261 197.60326431 157.78886261 197.62094116 156.31414795 C197.64081085 155.41351624 197.66068054 154.51288452 197.68115234 153.58496094 C197.69447601 152.79442322 197.70779968 152.0038855 197.7215271 151.18939209 C198.03736776 148.70620958 198.65212722 147.10541963 200 145 C203.58287427 143.20856286 205.38051605 142.85973948 209.3125 143.75 C212 145 212 145 213 147 C213.08412072 148.83704775 213.10428319 150.67716798 213.09423828 152.51611328 C213.09026535 154.24899094 213.09026535 154.24899094 213.08621216 156.01687622 C213.08096527 157.27201019 213.07571838 158.52714417 213.0703125 159.8203125 C213.07889952 162.46617121 213.08915316 165.11197396 213.1015625 167.7578125 C213.1198109 171.93840695 213.12865893 176.11826673 213.09960938 180.29882812 C213.08137223 183.02067202 213.08169368 185.74127967 213.10275269 188.46310425 C213.12240076 191.02515347 213.11595516 193.58757079 213.08010864 196.14944458 C213.16305298 202.13740921 213.38592404 206.05423789 217.42919922 210.66357422 C218.61298504 211.78261227 219.80253409 212.89561311 221 214 C221.99 215.485 221.99 215.485 223 217 C225.17659601 217.43752893 225.17659601 217.43752893 227.72509766 217.34057617 C229.19639633 217.34023628 229.19639633 217.34023628 230.69741821 217.33988953 C231.75891083 217.32440567 232.82040344 217.30892181 233.9140625 217.29296875 C235.54122696 217.28660149 235.54122696 217.28660149 237.20126343 217.28010559 C240.67609167 217.263273 244.15034618 217.22561189 247.625 217.1875 C249.97655414 217.17245911 252.32811735 217.15876967 254.6796875 217.14648438 C260.45332173 217.11335454 266.22661989 217.06310982 272 217 C272.00808685 216.17172195 272.01617371 215.34344391 272.02450562 214.49006653 C272.10250655 206.67721884 272.18981386 198.86454217 272.28752708 191.05191517 C272.33743325 187.03554031 272.38376367 183.01919102 272.421875 179.00268555 C272.45879974 175.12518294 272.50517897 171.2478973 272.55806351 167.37058067 C272.57656932 165.89268494 272.59169133 164.41474277 272.60334396 162.93677711 C272.62027209 160.86363217 272.64932174 158.79097998 272.68115234 156.71801758 C272.69447601 155.53887283 272.70779968 154.35972809 272.7215271 153.14485168 C273.00183641 149.97926102 273.47682163 147.78429675 275 145 C278.60662477 143.43486095 280.93427742 142.78685548 284.8125 143.5625 C287.64848042 145.42614428 287.98832027 146.7846021 289 150 C289.2784729 152.99299622 289.2784729 152.99299622 289.31884766 156.35083008 C289.33871735 157.6117598 289.35858704 158.87268951 289.37905884 160.17182922 C289.39093337 161.53772812 289.40259633 162.90362887 289.4140625 164.26953125 C289.43278451 165.67487207 289.45235869 167.08020178 289.4727478 168.48551941 C289.52396617 172.17285594 289.56364666 175.86022887 289.60089111 179.54772949 C289.64099559 183.31511362 289.69205844 187.08234766 289.7421875 190.84960938 C289.83882475 198.23296976 289.92326819 205.61640306 290 213 C290.94875 212.29875 291.8975 211.5975 292.875 210.875 C293.40867187 210.48054688 293.94234375 210.08609375 294.4921875 209.6796875 C298.02279837 205.74662357 298.25421727 200.82192809 298.29052734 195.75439453 C298.30328705 194.53938263 298.31604675 193.32437073 298.32919312 192.07254028 C298.33141876 190.77243011 298.33364441 189.47231995 298.3359375 188.1328125 C298.34237372 186.77049625 298.34910268 185.40818135 298.35610962 184.04586792 C298.36805129 181.19639891 298.37179364 178.34705085 298.37060547 175.49755859 C298.37040238 171.86390516 298.39770672 168.2310347 298.43214989 164.5975666 C298.45449419 161.7852326 298.45844074 158.97308487 298.45738602 156.16067123 C298.46086273 154.17550604 298.48247543 152.19039899 298.50448608 150.20535278 C298.46189163 141.75108476 297.54324549 136.30761498 292.0625 129.64453125 C276.58845459 115.89959318 255.56607733 115.03942789 235.82617188 115.83154297 C220.02856989 116.77317612 203.7925443 119.61223411 192 131 Z M-38 135 C-40.9703098 140.47455226 -41.51601523 145.07944451 -41.4375 151.25 C-41.42920166 152.08829346 -41.42090332 152.92658691 -41.41235352 153.7902832 C-41.1437376 163.68127578 -38.7012985 171.26073749 -31.71484375 178.46875 C-28.11649911 181.68185046 -25.32945995 182.18277463 -20.625 182 C-15.43106594 181.24813267 -12.32244911 178.98866937 -9 175 C-2.54482306 165.21637245 -1.83467234 153.36777128 -3 142 C-4.09678725 137.57546052 -5.67763628 134.84025195 -9.625 132.33203125 C-13.70855911 130.72034878 -17.02912502 130.50145973 -21.375 130.5625 C-22.12797363 130.57079834 -22.88094727 130.57909668 -23.65673828 130.58764648 C-29.40950771 130.76308909 -33.34929412 131.37244941 -38 135 Z M138.6875 136.5 C133.87395728 143.6311744 135.15867549 155.36257878 136.6484375 163.57421875 C138.92481914 171.17188567 142.68306612 177.15991192 149.375 181.5625 C154.40631331 182.40105222 158.73746969 182.34238154 163.21875 179.68359375 C169.63526069 174.52404877 172.78666922 168.07375246 174 160 C174.18739142 157.04060914 174.23052719 154.08973552 174.25 151.125 C174.270625 150.34769531 174.29125 149.57039063 174.3125 148.76953125 C174.34849602 143.41512327 173.50880808 139.7496852 171 135 C166.44456778 130.72928229 161.65178776 130.79053891 155.6875 130.75 C154.94048828 130.729375 154.19347656 130.70875 153.42382812 130.6875 C147.27626902 130.64432136 143.00434808 131.83313722 138.6875 136.5 Z M-71.65234375 218.69921875 C-81.54515834 229.8024483 -78.1075366 249.00829286 -78 263 C-74.7 263 -71.4 263 -68 263 C-67.98541748 262.19780029 -67.97083496 261.39560059 -67.95581055 260.5690918 C-67.88143281 256.94140301 -67.78473757 253.31464496 -67.6875 249.6875 C-67.66494141 248.42486328 -67.64238281 247.16222656 -67.61914062 245.86132812 C-67.58369141 244.65283203 -67.54824219 243.44433594 -67.51171875 242.19921875 C-67.48553467 241.08377686 -67.45935059 239.96833496 -67.43237305 238.8190918 C-67 236 -67 236 -65.64770508 234.16723633 C-63.11197496 232.37092195 -61.08197073 232.12327883 -58 232 C-53.43478261 234.13043478 -53.43478261 234.13043478 -52 237 C-51.67 245.58 -51.34 254.16 -51 263 C-31.86 263 -12.72 263 7 263 C7.33 254.09 7.66 245.18 8 236 C13 232 13 232 16.625 232 C20.42789993 233.12678516 21.08989705 233.64928901 23 237 C23.43237305 239.84082031 23.43237305 239.84082031 23.51171875 243.078125 C23.54716797 244.23828125 23.58261719 245.3984375 23.61914062 246.59375 C23.64169922 247.8003125 23.66425781 249.006875 23.6875 250.25 C23.72166016 251.47203125 23.75582031 252.6940625 23.79101562 253.953125 C23.87347162 256.96865846 23.94263201 259.98390194 24 263 C26.97 263 29.94 263 33 263 C35.00350159 239.63114716 35.00350159 239.63114716 27 219 C12.02730817 204.70634182 -9.04143509 204.33388933 -28.46875 204.71484375 C-43.25273924 205.22426898 -60.82887068 207.5686968 -71.65234375 218.69921875 Z M105 219 C100.50090672 224.68599132 99.23730698 229.33060089 99.1875 236.5 C99.16308838 237.36206055 99.13867676 238.22412109 99.11352539 239.11230469 C99.04746905 241.74197634 99.01783998 244.36959439 99 247 C98.99162109 247.81919922 98.98324219 248.63839844 98.97460938 249.48242188 C98.93387427 253.98920538 98.94335056 258.49322198 99 263 C102.3 263 105.6 263 109 263 C109.00410889 262.23856689 109.00821777 261.47713379 109.01245117 260.69262695 C109.0454114 257.23180334 109.11606054 253.77273429 109.1875 250.3125 C109.19620117 248.51522461 109.19620117 248.51522461 109.20507812 246.68164062 C109.45381381 236.75985053 109.45381381 236.75985053 112.32421875 233.671875 C115 232 115 232 118.625 231.9375 C122 233 122 233 125 237 C125.33 245.58 125.66 254.16 126 263 C145.14 263 164.28 263 184 263 C184.33 254.42 184.66 245.84 185 237 C188 233 188 233 191.4375 232.1875 C196.64566929 231.91338583 196.64566929 231.91338583 199 233 C200.07955212 236.23865635 200.20441741 238.79155838 200.31640625 242.19921875 C200.35830078 243.40771484 200.40019531 244.61621094 200.44335938 245.86132812 C200.48267578 247.12396484 200.52199219 248.38660156 200.5625 249.6875 C200.60568359 250.96173828 200.64886719 252.23597656 200.69335938 253.54882812 C200.7995486 256.69910852 200.90159533 259.84946839 201 263 C203.97 263 206.94 263 210 263 C210.07485856 258.74995329 210.12893167 254.50026866 210.16479492 250.24975586 C210.17976508 248.80763045 210.20014868 247.36554964 210.22631836 245.92358398 C210.42216981 234.84453651 210.20272568 225.30174903 202.20703125 216.8515625 C180.43765038 198.5884005 125.26385858 197.60310847 105 219 Z M49 234 C49.33 243.57 49.66 253.14 50 263 C60.56 263 71.12 263 82 263 C82.33 253.43 82.66 243.86 83 234 C71.78 234 60.56 234 49 234 Z M-115.31855541 285.6192922 C-118.40594222 290.1080298 -118.57699603 294.53588657 -118.53344727 299.83764648 C-118.54206284 300.69388611 -118.55067841 301.55012573 -118.55955505 302.43231201 C-118.58214453 305.24555216 -118.57548901 308.05779041 -118.56640625 310.87109375 C-118.57164509 312.83732904 -118.57792252 314.80356181 -118.58518982 316.76979065 C-118.59558119 320.88448946 -118.59105087 324.99884217 -118.57641602 329.11352539 C-118.55923353 334.37380752 -118.5827237 339.63299678 -118.61790562 344.89315701 C-118.63991783 348.95196199 -118.63842881 353.01050703 -118.6301403 357.0693531 C-118.62932282 359.00814067 -118.6361473 360.94694772 -118.65091133 362.88567924 C-118.66842746 365.60211263 -118.65375683 368.31660202 -118.63110352 371.03295898 C-118.64279572 371.82541519 -118.65448792 372.6178714 -118.66653442 373.43434143 C-118.56944685 379.18673215 -117.04671857 383.78183988 -113 388 C-108.79334229 390.4492356 -105.72948474 391.37553856 -100.87765598 391.38031673 C-99.66477171 391.38875668 -98.45188745 391.39719662 -97.20224911 391.40589231 C-95.86485776 391.40009768 -94.52746763 391.39401668 -93.19007874 391.38768005 C-91.76270406 391.39185419 -90.33533271 391.39733215 -88.90796751 391.40399987 C-84.99002717 391.41846277 -81.07229704 391.41420716 -77.15434515 391.40683305 C-72.92726323 391.40210578 -68.70022708 391.41460731 -64.47315979 391.42485046 C-56.19377936 391.44205231 -47.91447478 391.44287562 -39.63508112 391.43763756 C-32.90615686 391.43359729 -26.17725502 391.43503771 -19.44833183 391.44038582 C-18.01217035 391.44150845 -18.01217035 391.44150845 -16.5469955 391.44265376 C-14.60200282 391.44418523 -12.65701014 391.44572358 -10.71201747 391.44726873 C7.53034695 391.46099873 25.7726685 391.45555252 44.01503194 391.44408352 C60.70653549 391.43415007 77.3979282 391.44709286 94.08941465 391.47101771 C111.226288 391.495396 128.36310971 391.50501974 145.50000006 391.49836498 C155.12186345 391.49487001 164.74364158 391.49712321 174.36549187 391.51461601 C182.55614974 391.52932209 190.74666233 391.52999431 198.9373173 391.5125451 C203.11644213 391.50401965 207.29530721 391.50192309 211.47441864 391.51719666 C215.30077374 391.53100791 219.12664571 391.52632697 222.9529726 391.50695742 C224.3364873 391.5031861 225.72004036 391.50615199 227.10352098 391.51656907 C237.27767524 391.62830665 237.27767524 391.62830665 246 387 C250.10181851 382.12065566 250.58194152 376.37060069 250.51757812 370.23242188 C250.5245874 369.39554337 250.53159668 368.55866486 250.53881836 367.69642639 C250.55630101 364.95352148 250.54481062 362.21166384 250.53125 359.46875 C250.53394772 357.54878544 250.53783247 355.62882221 250.54284668 353.7088623 C250.54872855 349.69428438 250.54022113 345.6800636 250.52148438 341.66552734 C250.49869567 336.53430498 250.5118258 331.40391966 250.53577423 326.27272797 C250.5502677 322.31086994 250.54560996 318.34920849 250.53526306 314.38734436 C250.53260558 312.49601643 250.53583089 310.60467033 250.54518127 308.71336365 C250.5554056 306.06429147 250.53976461 303.41655173 250.51757812 300.76757812 C250.52972351 299.6093026 250.52972351 299.6093026 250.54211426 298.42762756 C250.45986136 293.09349025 249.50978428 288.17508625 246 284 C239.57889149 278.91882616 232.96371654 279.43666244 225.06982422 279.49206543 C223.64158429 279.48745367 222.21334911 279.4810989 220.78512383 279.47315645 C216.8693793 279.45647753 212.95402535 279.46470278 209.03827953 279.47710133 C204.81189024 279.48615543 200.58556787 279.47218031 196.35919189 279.46118164 C188.08326508 279.44339567 179.80748338 279.44723674 171.53155088 279.4588322 C164.80550667 279.46786595 158.07950313 279.46909078 151.35345459 279.46473694 C149.91749634 279.46381754 149.91749634 279.46381754 148.45252883 279.46287957 C146.50777768 279.46160067 144.56302654 279.46030381 142.6182754 279.4589892 C124.38256648 279.44758318 106.14693798 279.46069747 87.91124225 279.48219067 C72.26435559 279.50006167 56.61758764 279.49695757 40.97070312 279.47851562 C22.8002254 279.45710932 4.62981818 279.44868182 -13.54067039 279.46096468 C-15.47826512 279.46223888 -17.41585985 279.46349636 -19.35345459 279.46473694 C-20.30678684 279.46535404 -21.2601191 279.46597114 -22.24234021 279.46660694 C-28.96026306 279.47006056 -35.6781412 279.46423124 -42.39605713 279.45481873 C-50.58303858 279.44360004 -58.76986662 279.44663605 -66.9568305 279.4679417 C-71.13393185 279.47845388 -75.31077744 279.48257117 -79.48787689 279.46934509 C-83.31235032 279.4574187 -87.13633109 279.46398741 -90.96075988 279.4852553 C-92.34356823 279.48972036 -93.72641826 279.48745715 -95.10919976 279.47775215 C-106.44906288 279.25087517 -106.44906288 279.25087517 -115.31855541 285.6192922 Z " fill="#ffffff" transform="translate(190,54)"/>
</svg>
