<svg version="1.2" xmlns="http://www.w3.org/2000/svg" viewBox="0 0 95 40" width="95" height="40">
	<title>git-svg</title>
	<defs>
		<clipPath clipPathUnits="userSpaceOnUse" id="cp1">
			<path d="m79.82 0.34v29.66h-10.85v-29.66z"/>
		</clipPath>
		<clipPath clipPathUnits="userSpaceOnUse" id="cp2">
			<path d="m94.73 3.91v26.09h-15.35v-26.09z"/>
		</clipPath>
		<clipPath clipPathUnits="userSpaceOnUse" id="cp3">
			<path d="m39.91 0.34v39.66h-39.91v-39.66z"/>
		</clipPath>
	</defs>
	<style>
		.s0 { fill: #362701 } 
		.s1 { fill: #f03c2e } 
	</style>
	<g id="Folder 1">
		<path fill-rule="evenodd" class="s0" d="m63.8 14c0.7 0.8 1.4 2 1.4 3.8 0 4.2-3.3 6.6-8 6.6-1.3 0-2.4-0.1-3-0.3l-1.3 2 3.7 0.2c6.6 0.4 10.4 0.6 10.4 5.7 0 4.3-3.8 6.8-10.4 6.8-6.8 0-9.4-1.8-9.4-4.8 0-1.7 0.7-2.6 2.1-3.8-1.3-0.5-1.7-1.5-1.7-2.5 0-0.8 0.4-1.6 1.1-2.3 0.7-0.7 1.4-1.5 2.3-2.3-1.8-0.9-3.2-2.9-3.2-5.7 0-4.3 2.9-7.3 8.6-7.3 1.7 0 2.6 0.1 3.5 0.4h7.4v3.2c0 0-3.5 0.3-3.5 0.3zm-11.2 17.2c-0.5 0.6-1 1.3-1 2 0 1.5 2 2 4.6 2 2.2 0 5.2-0.2 5.2-2.2 0-1.2-1.5-1.3-3.3-1.4zm4.2-17.4c-2.1 0-3.6 1-3.6 3.5 0 1.9 1 3.1 3.5 3.1 2.1 0 3.5-1.2 3.5-3.2 0-2.2-1.3-3.4-3.4-3.4z"/>
		<g id="Clip-Path" clip-path="url(#cp1)">
			<g>
				<path class="s0" d="m73.9 7.1c-2.1 0-3.4-1.3-3.4-3.4 0-2.2 1.3-3.4 3.4-3.4 2.2 0 3.4 1.2 3.4 3.4 0 2.1-1.2 3.4-3.4 3.4zm-4.9 22.7v-3l2-0.2c0.5-0.1 0.6-0.2 0.6-0.8v-11.1c0-0.4-0.1-0.7-0.5-0.8l-2.1-0.7 0.5-3.1h7.8v15.7c0 0.6 0 0.7 0.6 0.8l1.9 0.2v3c0 0-10.8 0-10.8 0z"/>
			</g>
		</g>
		<g id="Clip-Path" clip-path="url(#cp2)">
			<g>
				<path class="s0" d="m94.7 28.4c-1.6 0.7-4 1.5-6.1 1.5-4.5 0-6.2-1.8-6.2-6.1v-9.9c0-0.3 0-0.4-0.3-0.4h-2.7v-3.4c3.4-0.4 4.7-2 5.1-6.2h3.6v5.4c0 0.3 0 0.4 0.3 0.4h5.3v3.8h-5.6v9c0 2.3 0.5 3.1 2.6 3.1 1 0 2.1-0.2 3-0.6 0 0 1 3.4 1 3.4z"/>
			</g>
		</g>
		<g id="Clip-Path" clip-path="url(#cp3)">
			<g>
				<path class="s1" d="m38.8 18.4l-17.3-17.3q-0.3-0.3-0.8-0.5-0.5-0.2-1-0.2-0.5 0-0.9 0.2-0.5 0.2-0.9 0.5l-3.6 3.6 4.6 4.6q0.4-0.2 0.8-0.2 0.4 0 0.8 0.1 0.5 0.1 0.8 0.3 0.4 0.2 0.7 0.5 0.3 0.3 0.5 0.7 0.2 0.3 0.3 0.8 0.1 0.4 0.1 0.8 0 0.4-0.2 0.8l4.4 4.4q0.4-0.1 0.8-0.1 0.5-0.1 0.9 0 0.4 0.1 0.8 0.3 0.3 0.2 0.6 0.5 0.5 0.5 0.7 1 0.2 0.6 0.2 1.2 0 0.6-0.2 1.2-0.2 0.5-0.7 0.9-0.4 0.5-1 0.7-0.5 0.2-1.1 0.2-0.6 0-1.2-0.2-0.5-0.2-1-0.7-0.3-0.3-0.5-0.7-0.2-0.4-0.3-0.8-0.1-0.4 0-0.9 0-0.4 0.2-0.9l-4.1-4.1v10.8q0.1 0.1 0.2 0.1 0.1 0.1 0.2 0.2 0.1 0.1 0.2 0.1 0.1 0.1 0.2 0.2 0.4 0.4 0.7 1 0.2 0.5 0.2 1.1 0 0.6-0.2 1.2-0.3 0.6-0.7 1c-1.2 1.2-3.1 1.2-4.3 0q-0.4-0.4-0.6-1-0.3-0.6-0.3-1.2 0-0.6 0.3-1.1 0.2-0.6 0.6-1 0.1-0.1 0.2-0.2 0.2-0.1 0.3-0.2 0.1-0.1 0.2-0.1 0.2-0.1 0.3-0.2v-10.8q-0.1-0.1-0.3-0.2-0.1 0-0.2-0.1-0.1-0.1-0.3-0.2-0.1-0.1-0.2-0.2-0.3-0.3-0.5-0.7-0.2-0.4-0.3-0.9-0.1-0.4-0.1-0.9 0.1-0.4 0.3-0.8l-4.5-4.5-11.9 11.8q-0.3 0.4-0.5 0.9-0.2 0.4-0.2 0.9 0 0.6 0.2 1 0.2 0.5 0.5 0.9l17.3 17.3q0.4 0.3 0.8 0.5 0.5 0.2 1 0.2 0.5 0 1-0.2 0.4-0.2 0.8-0.5l17.2-17.3q0.3-0.3 0.5-0.8 0.2-0.5 0.2-1 0-0.5-0.2-0.9-0.2-0.5-0.5-0.9z"/>
			</g>
		</g>
	</g>
</svg>