<svg version="1.2" xmlns="http://www.w3.org/2000/svg" viewBox="0 0 162 60" width="162" height="60">
	<title>grafana</title>
	<defs>
		<clipPath clipPathUnits="userSpaceOnUse" id="cp1">
			<path d="m196.08-117.36v215.81h-166.76v-215.81z"/>
		</clipPath>
		<clipPath clipPathUnits="userSpaceOnUse" id="cp2">
			<path d="m196.08-117.36v215.81h-166.76v-215.81z"/>
		</clipPath>
		<clipPath clipPathUnits="userSpaceOnUse" id="cp3">
			<path d="m196.08-117.36v215.81h-166.76v-215.81z"/>
		</clipPath>
		<clipPath clipPathUnits="userSpaceOnUse" id="cp4">
			<path d="m196.08-117.36v215.81h-166.76v-215.81z"/>
		</clipPath>
		<clipPath clipPathUnits="userSpaceOnUse" id="cp5">
			<path d="m196.08-117.36v215.81h-166.76v-215.81z"/>
		</clipPath>
		<clipPath clipPathUnits="userSpaceOnUse" id="cp6">
			<path d="m196.08-117.36v215.81h-166.76v-215.81z"/>
		</clipPath>
		<clipPath clipPathUnits="userSpaceOnUse" id="cp7">
			<path d="m196.08-117.36v215.81h-166.76v-215.81z"/>
		</clipPath>
		<clipPath clipPathUnits="userSpaceOnUse" id="cp8">
			<path d="m24.25 7.76q-0.01 0.01-0.05 0.23-0.36 0.1-0.72 0.21-0.49 0.16-0.99 0.35-0.5 0.18-0.98 0.39-0.99 0.42-1.94 0.96-0.92 0.51-1.81 1.13-0.13-0.06-0.15-0.07c-5.99-2.29-11.32 0.47-11.32 0.47-0.49 6.38 2.4 10.4 2.97 11.13q-0.22 0.59-0.4 1.19-0.67 2.17-0.98 4.47-0.04 0.33-0.08 0.66c-5.54 2.74-7.19 8.35-7.19 8.35 4.63 5.32 10.02 5.65 10.02 5.65q0.01-0.01 0.02-0.01 1.03 1.84 2.37 3.47 0.56 0.68 1.17 1.32c-1.68 4.82 0.24 8.84 0.24 8.84 5.15 0.19 8.53-2.26 9.25-2.82q0.76 0.26 1.55 0.46 2.38 0.62 4.82 0.72 0.61 0.03 1.22 0.02h0.19 0.13l0.26-0.01 0.25-0.01v0.01c2.43 3.46 6.7 3.95 6.7 3.95 3.03-3.2 3.2-6.38 3.2-7.06q0-0.01 0-0.05 0-0.09 0-0.09 0-0.07-0.01-0.15 0.96-0.67 1.82-1.44 1.83-1.66 3.16-3.7 0.12-0.19 0.24-0.39c3.44 0.2 5.86-2.12 5.86-2.12-0.57-3.58-2.61-5.33-3.04-5.66q0 0-0.04-0.03-0.04-0.03-0.04-0.03-0.03-0.02-0.08-0.05 0.04-0.32 0.06-0.64 0.03-0.58 0.03-1.16v-0.28-0.15-0.07c0-0.1-0.01-0.06-0.01-0.1l-0.01-0.24-0.01-0.32q-0.01-0.17-0.03-0.31-0.01-0.15-0.03-0.3l-0.03-0.3-0.04-0.29q-0.09-0.59-0.22-1.17c-0.36-1.54-0.97-3.01-1.76-4.32-0.8-1.32-1.79-2.49-2.9-3.47-1.11-0.98-2.36-1.77-3.67-2.36-1.31-0.59-2.69-0.97-4.06-1.14q-1.03-0.14-2.05-0.12l-0.25 0.01h-0.06c-0.02 0-0.1 0-0.09 0l-0.11 0.01-0.25 0.01q-0.14 0.01-0.27 0.03-0.53 0.05-1.04 0.14c-1.36 0.26-2.64 0.75-3.77 1.43-1.13 0.67-2.12 1.52-2.92 2.48-0.8 0.96-1.42 2.02-1.85 3.12-0.43 1.1-0.67 2.23-0.73 3.34q-0.03 0.41-0.02 0.82 0 0.1 0.01 0.2v0.22q0.02 0.2 0.04 0.39 0.08 0.84 0.3 1.62c0.3 1.03 0.78 1.96 1.37 2.76 0.59 0.79 1.3 1.45 2.05 1.96q1.14 0.77 2.34 1.11 1.2 0.35 2.33 0.34 0.14 0 0.28-0.01 0.07 0 0.14 0 0.08-0.01 0.15-0.01 0.12-0.02 0.24-0.03 0.03 0 0.07-0.01h0.07q0.07-0.01 0.14-0.02 0.15-0.03 0.27-0.05 0.13-0.03 0.26-0.06 0.26-0.06 0.5-0.14 0.49-0.16 0.91-0.38 0.43-0.22 0.79-0.48 0.1-0.07 0.2-0.15c0.26-0.21 0.3-0.59 0.1-0.84-0.19-0.22-0.5-0.28-0.75-0.14q-0.09 0.05-0.19 0.09-0.32 0.16-0.68 0.29-0.36 0.11-0.75 0.18-0.19 0.03-0.39 0.05-0.1 0.01-0.2 0.01-0.11 0.01-0.2 0.01-0.1 0-0.2-0.01-0.12 0-0.24-0.01c0 0-0.04 0-0.01 0h-0.03l-0.05-0.01q-0.06 0-0.11-0.01-0.11-0.01-0.22-0.03-0.88-0.12-1.74-0.51-0.86-0.39-1.6-1.05-0.75-0.67-1.26-1.58-0.51-0.9-0.68-1.96-0.08-0.53-0.07-1.07 0.01-0.14 0.02-0.29c0 0.03 0-0.01 0-0.02v-0.03l0.01-0.07q0-0.08 0.01-0.15 0.04-0.29 0.09-0.57c0.27-1.53 1.03-3.01 2.21-4.15q0.44-0.42 0.95-0.77 0.51-0.35 1.08-0.61 0.57-0.26 1.17-0.43 0.61-0.16 1.24-0.22 0.31-0.02 0.63-0.02 0.08 0 0.14 0l0.17 0.01h0.11c0.04 0 0 0 0.02 0l0.04 0.01 0.17 0.01q0.68 0.05 1.36 0.2 1.34 0.3 2.57 0.97c1.62 0.9 3 2.3 3.85 4q0.64 1.27 0.87 2.68 0.05 0.36 0.08 0.71l0.02 0.18 0.01 0.18q0 0.09 0 0.18 0 0.1 0 0.17v0.15 0.18c0 0.11-0.01 0.3-0.02 0.42q-0.03 0.38-0.07 0.77-0.05 0.38-0.13 0.77-0.07 0.37-0.17 0.75-0.19 0.75-0.47 1.47-0.57 1.44-1.5 2.71c-1.22 1.68-2.89 3.06-4.79 3.92q-1.43 0.65-2.98 0.91-0.77 0.13-1.55 0.16h-0.1-0.08-0.17-0.26-0.13c0.08 0-0.01 0 0 0h-0.06q-0.42-0.01-0.83-0.04-1.68-0.13-3.29-0.59-1.6-0.47-3.08-1.25c-1.96-1.05-3.71-2.48-5.08-4.21q-1.04-1.3-1.79-2.76-0.74-1.47-1.18-3.05-0.43-1.57-0.53-3.19l-0.01-0.2-0.01-0.05v-0.04-0.09l-0.01-0.18v-0.04-0.06-0.13-0.25-0.05q0 0.02 0-0.01v-0.1q0-0.2 0.01-0.4 0.03-0.8 0.13-1.62 0.1-0.82 0.27-1.65 0.17-0.81 0.4-1.61 0.46-1.6 1.13-3.06c0.9-1.95 2.08-3.67 3.5-5.05q0.53-0.52 1.1-0.98 0.57-0.46 1.19-0.86 0.6-0.4 1.25-0.73 0.32-0.17 0.66-0.33 0.16-0.07 0.33-0.15 0.16-0.07 0.33-0.14 0.68-0.28 1.38-0.5 0.18-0.05 0.35-0.11 0.18-0.05 0.35-0.09 0.36-0.1 0.71-0.19 0.18-0.04 0.36-0.07 0.18-0.04 0.36-0.08 0.19-0.03 0.37-0.07l0.18-0.03 0.18-0.03q0.18-0.02 0.36-0.05 0.21-0.03 0.42-0.06c0.11-0.01 0.29-0.03 0.4-0.05q0.13-0.01 0.26-0.02l0.17-0.02 0.09-0.01h0.1q0.21-0.02 0.41-0.03l0.21-0.01c0 0 0.07-0.01 0.01-0.01h0.04 0.09q0.17-0.01 0.35-0.02 0.7-0.02 1.4 0 1.38 0.06 2.7 0.3c1.77 0.33 3.42 0.89 4.92 1.63 1.5 0.74 2.85 1.64 4.02 2.62q0.11 0.1 0.21 0.19 0.11 0.09 0.22 0.19 0.21 0.19 0.41 0.38 0.2 0.19 0.4 0.38 0.19 0.19 0.38 0.39 0.75 0.79 1.37 1.59c0.83 1.07 1.49 2.15 2.02 3.16q0.05 0.1 0.1 0.2 0.05 0.09 0.09 0.19 0.1 0.18 0.18 0.37 0.09 0.19 0.17 0.37 0.08 0.18 0.16 0.36 0.3 0.71 0.52 1.36 0.36 1.04 0.56 1.85c0.06 0.22 0.26 0.36 0.48 0.34 0.24-0.02 0.41-0.21 0.42-0.44q0.02-0.87-0.07-2.05c-0.09-0.96-0.25-2.08-0.58-3.31-0.32-1.23-0.8-2.58-1.49-3.97-0.7-1.4-1.61-2.85-2.79-4.25q-0.69-0.83-1.51-1.63c0.81-3.22-0.98-6.02-0.98-6.02-3.1-0.19-5.08 0.97-5.81 1.5q-0.18-0.08-0.37-0.16-0.79-0.32-1.63-0.59-0.84-0.27-1.71-0.47-0.87-0.21-1.78-0.35-0.16-0.02-0.32-0.04c-1.35-4.33-5.23-6.14-5.23-6.14-4.34 2.74-5.16 6.58-5.16 6.58z"/>
		</clipPath>
		<linearGradient id="g1" x2="1" gradientUnits="userSpaceOnUse" gradientTransform="matrix(0,-52.662,48.488,0,27.144,71.78)">
			<stop offset="0" stop-color="#fff200"/>
			<stop offset="1" stop-color="#f15a29"/>
		</linearGradient>
	</defs>
	<style>
		.s0 { fill: #414042 } 
		.s1 { fill: url(#g1) } 
	</style>
	<g id="g958">
		<g id="g946">
			<g id="Clip-Path: path16" clip-path="url(#cp1)">
				<path id="path16" class="s0" d="m83.7 30.4c-0.2 5.4-4.5 9.6-9.8 9.6-5.6 0-9.7-4.5-9.7-10 0-5.5 4.5-10.1 10-10.1 2.5 0 4.9 1.1 6.9 3l-1.6 2c-1.5-1.4-3.4-2.3-5.3-2.3-4.1 0-7.4 3.3-7.4 7.4 0 4.1 3.1 7.3 7.1 7.3 3.6 0 6.4-2.6 7-5.9h-8.1v-2.4h10.9v1.4z"/>
			</g>
			<g id="Clip-Path: path18" clip-path="url(#cp2)">
				<path id="path18" class="s0" d="m93.1 29.1h-1.5c-1.7 0-3 1.3-3 3v7.8h-2.7v-13.4h2.2v1.1c0.7-0.7 1.9-1.1 3.1-1.1h2.9z"/>
			</g>
			<g id="Clip-Path: path20" clip-path="url(#cp3)">
				<path id="path20" fill-rule="evenodd" class="s0" d="m105.3 39.9v-1.7c-1.7 1.7-4.5 2.5-7.3 1.3-2.1-0.9-3.6-2.8-4-5.1-0.8-4.3 2.5-8.1 6.7-8.1 1.8 0 3.4 0.7 4.6 1.9v-1.7h2.3v13.4zm-0.5-5.8c0.7-2.7-1.4-5.1-4.1-5.1-2.3 0-4.1 1.9-4.1 4.1 0 2.6 2.2 4.7 4.9 4.2 1.6-0.3 3-1.5 3.3-3.2z"/>
			</g>
			<g id="Clip-Path: path22" clip-path="url(#cp4)">
				<path id="path22" class="s0" d="m113 25.8v0.7h4.2v2.3h-4.2v11.1h-2.6v-14.1c0-2.9 2.1-4.6 4.7-4.6h3.2l-1.1 2.5h-2.1c-1.2 0-2.1 0.9-2.1 2.1z"/>
			</g>
			<g id="Clip-Path: path24" clip-path="url(#cp5)">
				<path id="path24" fill-rule="evenodd" class="s0" d="m129.1 39.9v-1.7c-1.7 1.7-4.5 2.5-7.3 1.3-2.1-0.9-3.6-2.8-4-5.1-0.8-4.3 2.5-8.1 6.7-8.1 1.8 0 3.4 0.7 4.6 1.9v-1.7h2.3v13.4zm-0.5-5.8c0.7-2.7-1.4-5.1-4.1-5.1-2.3 0-4.2 1.9-4.2 4.1 0 2.6 2.3 4.7 5 4.2 1.6-0.3 3-1.5 3.3-3.2z"/>
			</g>
			<g id="Clip-Path: path26" clip-path="url(#cp6)">
				<path id="path26" class="s0" d="m145.7 31.9v8h-2.7v-8c0-1.6-1.4-2.9-3-2.9-1.7 0-3 1.3-3 2.9v8h-2.7v-13.4h2.2v1.1c1-0.8 2.3-1.3 3.6-1.3 3.1 0 5.6 2.5 5.6 5.6z"/>
			</g>
			<g id="Clip-Path: path28" clip-path="url(#cp7)">
				<path id="path28" fill-rule="evenodd" class="s0" d="m159.1 39.9v-1.7c-1.7 1.7-4.5 2.5-7.3 1.3-2.1-0.9-3.6-2.8-4.1-5.1-0.8-4.3 2.6-8.1 6.8-8.1 1.8 0 3.4 0.7 4.6 1.9v-1.7h2.3v13.4zm-0.5-5.8c0.7-2.7-1.4-5.1-4.1-5.1-2.3 0-4.2 1.9-4.2 4.1 0 2.6 2.3 4.7 5 4.2 1.6-0.3 2.9-1.5 3.3-3.2z"/>
			</g>
		</g>
		<g id="g937">
			<g id="Clip-Path: rect43" clip-path="url(#cp8)">
				<path id="rect43" class="s1" d="m53.7 1.2v57.6h-53.1v-57.6z"/>
			</g>
		</g>
	</g>
</svg>