<svg version="1.2" xmlns="http://www.w3.org/2000/svg" viewBox="0 0 130 40" width="130" height="40">
	<title>jenkin</title>
	<style>
		.s0 { fill: #d33833 } 
		.s1 { fill: #ef3d3a } 
		.s2 { fill: #231f20 } 
		.s3 { fill: #f0d6b7 } 
		.s4 { fill: #335061 } 
		.s5 { fill: #6d6b6d } 
		.s6 { fill: #dcd9d8 } 
		.s7 { fill: #f7e4cd } 
		.s8 { fill: #49728b } 
		.s9 { fill: #ffffff } 
		.s10 { fill: #81b0c4 } 
		.s11 { fill: #1d1919 } 
		.s12 { fill: #000000 } 
	</style>
	<path id="XMLID_3_" class="s0" d="m14.6 33.4c-7.7 0-14-6.4-14-14.3 0-7.9 6.3-14.3 14-14.3 7.8 0 14 6.4 14 14.3 0 7.9-6.2 14.3-14 14.3z"/>
	<path id="XMLID_4_" class="s1" d="m1.2 22.7c0 0-1.1-14.9 12.7-15.4l-0.9-1.6-7.5 2.5-2.1 2.5-1.9 3.6-1.1 4.1 0.3 2.8"/>
	<path id="XMLID_7_" fill-rule="evenodd" class="s2" d="m4.4 29.6c-2.6-2.7-4.2-6.4-4.2-10.4 0-4.1 1.6-7.8 4.2-10.5 2.6-2.6 6.2-4.3 10.2-4.3 4 0 7.6 1.7 10.3 4.3 2.6 2.7 4.2 6.4 4.2 10.5 0 4-1.6 7.7-4.2 10.4-2.7 2.6-6.3 4.3-10.3 4.3-4 0-7.6-1.7-10.2-4.3zm0.6-20.3c-2.4 2.6-3.9 6-3.9 9.9 0 3.8 1.5 7.2 3.9 9.8 2.5 2.5 5.9 4 9.6 4 3.8 0 7.2-1.6 9.6-4 2.5-2.6 4-6 4-9.8 0-3.9-1.5-7.3-4-9.9-2.4-2.5-5.8-4-9.6-4-3.7 0-7.1 1.6-9.6 4z"/>
	<path id="XMLID_8_" class="s3" d="m20.5 19.2l-2.1 0.3-2.9 0.3-1.9 0.1-1.8-0.1-1.4-0.4-1.2-1.3-1-2.7-0.2-0.6-1.3-0.5-0.7-1.2-0.5-1.7 0.6-1.6 1.4-0.5 1.1 0.6 0.5 1.1 0.6-0.1 0.2-0.2-0.2-1.2v-1.6l0.3-2.1v-1.2l1-1.6 1.7-1.2 3-1.3 3.3 0.5 2.8 2.1 1.4 2.1 0.8 1.5 0.3 3.8-0.7 3.4-1.2 2.9-1.1 1.5"/>
	<path id="XMLID_9_" class="s4" d="m18.7 28.4l-7.6 0.3v1.3l0.6 4.4-0.3 0.4-5.3-1.8-0.4-0.6-0.5-6-1.3-3.6-0.2-0.9 4.2-2.9 1.4-0.6 1.1 1.5 1 0.9 1.2 0.3 0.5 0.2 0.7 2.8 0.5 0.6 1.2-0.5-0.9 1.7 4.7 2.2-0.6 0.3"/>
	<path id="XMLID_10_" class="s5" d="m6.1 9.8l1.4-0.5 1.1 0.6 0.5 1.1 0.6-0.1 0.2-0.6-0.3-1.2 0.3-2.9-0.3-1.6 1-1.2 2.1-1.6-0.6-0.8-2.9 1.4-1.3 1-0.7 1.5-1 1.4-0.3 1.7 0.2 1.8"/>
	<path id="XMLID_11_" class="s6" d="m8.2 4.8c0 0 0.9-2 4.1-2.9 3.2-1 0.1-0.7 0.1-0.7l-3.4 1.3-1.4 1.4-0.6 1z"/>
	<path id="XMLID_12_" class="s6" d="m6.6 9.5c0 0-1.1-3.8 3.2-4.3l-0.2-0.6-2.9 0.7-0.9 2.7 0.2 1.8z"/>
	<path id="XMLID_13_" class="s7" d="m8.3 14.4l0.8-0.7c0 0 0.3 0.1 0.3 0.5 0.1 0.3 0.2 3.7 2.5 5.5 0.2 0.2-1.7-0.3-1.7-0.3l-1.7-2.7"/>
	<path id="XMLID_14_" class="s7" d="m18.2 13.4c0 0 0.1-1.6 0.6-1.5 0.4 0.1 0.4 0.6 0.4 0.6 0 0-1.1 0.6-1 0.9z"/>
	<path id="XMLID_15_" class="s7" d="m22.6 7.5c0 0-0.9 0.1-1 0.9 0 0.8 1 0.2 1.2 0.1"/>
	<path id="XMLID_16_" class="s7" d="m16.2 7.5c0 0-1.2 0.2-1.2 1 0 0.7 1.3 0.7 1.7 0.3"/>
	<path id="XMLID_17_" class="s7" d="m8.9 11c0 0-2-1.3-2.3-0.1-0.2 1.2-0.7 2 0.4 3.3l-0.7-0.3-0.7-1.6-0.2-1.6 1.2-1.3 1.4 0.1 0.8 0.7z"/>
	<path id="XMLID_18_" class="s7" d="m9.8 7.6c0 0 1-4.6 5.5-5.5 3.8-0.8 5.8 0.1 6.5 1 0 0-3.3-4-6.5-2.8-3.2 1.3-5.6 3.5-5.5 4.9 0.1 2.4 0 2.4 0 2.4z"/>
	<path id="XMLID_19_" class="s7" d="m22.2 3.6c0 0-1.5-0.1-1.6 1.4 0 0 0 0.2 0.1 0.4 0 0 1.3-1.4 2-0.7"/>
	<path id="XMLID_20_" class="s7" d="m15.5 5.5c0 0-0.3-2.1-2.1-0.9-1.2 0.8-1.1 1.9-0.9 2.1 0.2 0.2 0.1 0.7 0.3 0.4 0.2-0.3 0.1-1.3 0.7-1.5 0.6-0.3 1.6-0.6 2-0.1z"/>
	<path id="XMLID_21_" class="s8" d="m10.4 19.9l-5 2.2c0 0 2.1 8.2 1.1 10.8l-0.8-0.3-0.1-3.1-1.3-6-0.6-1.7 5.2-3.5z"/>
	<path id="XMLID_22_" class="s8" d="m10.9 24.4l0.8 0.9v3.2h-0.9c0 0-0.1-2.3-0.1-2.6 0-0.2 0.1-1.2 0.1-1.2"/>
	<path id="XMLID_23_" class="s8" d="m11 29l-2.4 0.1 0.7 0.5 1.7 0.2"/>
	<path id="XMLID_24_" class="s4" d="m19.2 28.4h2l0.4 4.9-2 0.3-0.4-5.2"/>
	<path id="XMLID_25_" class="s4" d="m19.7 28.4l3-0.2c0 0 1.2-3 1.2-3.2 0-0.2 1.1-4.5 1.1-4.5l-2.4-2.5-0.5-0.4-1.3 1.3v4.9z"/>
	<path id="XMLID_26_" class="s8" d="m21.1 28.1l-1.9 0.4 0.3 1.4c0.7 0.4 1.8-0.5 1.8-0.5"/>
	<path id="XMLID_27_" class="s8" d="m21.1 18.8l3.8 2.7 0.1-1.3-2.9-2.6-1 1.2"/>
	<path id="XMLID_28_" class="s9" d="m12.8 38.9l-1.1-4.5-0.5-3.2-0.1-2.5 5-0.3h3.1l-0.3 5.6 0.5 4.3-0.1 0.8-4 0.3-2.5-0.5"/>
	<path id="XMLID_29_" class="s6" d="m18.5 28.4c0 0-0.3 5.5 0.5 9.4 0 0-1.6 1.1-3.9 1.3l4.5-0.2 0.5-0.3-0.6-8.7-0.2-1.9"/>
	<path id="XMLID_30_" class="s9" d="m21.7 32.8l2.1-0.5 4-0.2 0.5-1.9-1-3.1-1.2-0.2-1.7 0.6-1.7 0.8-0.9-0.2-0.6 0.3"/>
	<path id="XMLID_31_" class="s6" d="m21.7 31.8c0 0 1.4-0.6 1.6-0.6l-0.6-3 0.7-0.2c0 0 0.5 2.7 0.5 3 0 0 3 0.2 3.3 0.2 0 0 0.6-1.2 0.5-2.5l0.6 1.7v1l-0.8 1.2-1 0.2h-1.6l-0.5-0.7-1.9 0.3-0.6 0.2"/>
	<path id="XMLID_32_" class="s9" d="m19.6 28l-1.2-3-1.2-1.7c0 0 0.3-0.8 0.6-0.8 0.4 0 1.3 0 1.3 0l1.1 0.4-0.1 2z"/>
	<path id="XMLID_33_" class="s6" d="m19.8 27c0 0-1.5-2.9-1.5-3.3 0 0 0.3-0.6 0.7-0.5 0.4 0.2 1.1 0.6 1.1 0.6v-1l-1.8-0.4-1.2 0.2 2.1 4.9h0.4"/>
	<path id="XMLID_34_" class="s9" d="m13.3 20l-1.5-0.2-1.4-0.4v0.5l0.7 0.7 2.1 1"/>
	<path id="XMLID_35_" class="s6" d="m10.9 20.1c0 0 1.7 0.7 2.2 0.6v0.6l-1.4-0.3-1-0.6z"/>
	<path id="XMLID_36_" class="s0" d="m21.7 22.7c-0.9 0-1.7-0.1-2.4-0.3 0-0.3 0-0.6 0-0.8 0.2-0.1 0.6-0.1 0.9-0.1-0.3-0.2-0.7-0.2-0.9-0.2 0-0.2-0.2-0.3-0.2-0.5 0.5-0.1 1.7-1.3 2.4-0.9 0.3 0.1 0.5 1.2 0.5 1.7 0 0.5-0.1 0.9-0.3 1.1z"/>
	<path id="XMLID_37_" class="s0" d="m21.7 22.7v-0.1q-1.3-0.1-2.4-0.3v0.1h0.1q0-0.1 0-0.2 0-0.2 0-0.4 0-0.1 0.1-0.1l-0.1-0.1v0.1q0.1 0 0.3-0.1 0.3 0 0.5 0h0.4l-0.4-0.2q-0.3-0.2-0.6-0.2-0.2 0-0.3 0.1v0.1h0.1q0-0.1 0-0.3-0.1-0.1-0.1-0.2h-0.2l0.1 0.1c0.1 0 0.3-0.1 0.4-0.2q0.4-0.3 0.8-0.6c0.3-0.1 0.6-0.2 0.8-0.2q0.2 0 0.3 0c0 0 0 0.1 0 0.1 0.1 0.1 0.1 0.2 0.2 0.3 0.1 0.4 0.1 1 0.2 1.3 0 0.1 0 0.1 0 0.2q0 0.3-0.1 0.5c0 0.1 0 0.3-0.1 0.3v-0.1 0.1l0.1 0.1c0.2-0.1 0.2-0.3 0.2-0.5q0.1-0.2 0.1-0.5c0-0.1 0-0.1 0-0.2 0-0.3-0.1-0.7-0.1-1-0.1-0.2-0.2-0.4-0.2-0.5q0-0.1-0.1-0.2c0-0.1-0.1-0.1-0.1-0.2q-0.2-0.1-0.4-0.1c-0.2 0-0.4 0.1-0.6 0.2-0.4 0.1-0.6 0.3-0.9 0.5q-0.2 0.1-0.4 0.2-0.1 0.1-0.3 0.2h-0.1l0.1 0.1q0 0.2 0.1 0.3 0 0.1 0 0.2v0.1h0.2q0.1-0.1 0.2-0.1c0.2 0 0.5 0.1 0.6 0.2l0.1-0.1v-0.2c-0.2 0-0.3 0.1-0.5 0.1-0.1 0-0.3 0-0.4 0.1v0.1c-0.1 0.1-0.1 0.2-0.1 0.2q0 0.2 0 0.4c0 0.1 0 0.1 0 0.2v0.1h0.1q1.1 0.3 2.5 0.4l0.1-0.1z"/>
	<path id="XMLID_38_" class="s0" d="m17.4 21.2q0 0.1 0 0.3c-0.3 0.1-0.7 0.1-1.1 0.3 0.5 0 0.9 0.1 1.2 0.3q0 0.3-0.1 0.5c-0.5 0.4-1 0.9-1.6 1.2-0.2 0.2-1.3 0.6-1.6 0.5-0.1 0-0.1-0.2-0.2-0.4-0.1-0.5-0.5-1.2-0.5-1.8-0.1-0.8-0.1-2.2 0.7-2.1 0.8 0.2 1.6 0.5 2.1 0.8 0.4 0.2 0.6 0.4 1.1 0.4z"/>
	<path id="XMLID_39_" class="s0" d="m17.4 21.2h-0.1q0 0.1 0 0.3h0.1l-0.1-0.2c-0.1 0.1-0.3 0.2-0.4 0.2-0.2 0.1-0.4 0.1-0.6 0.2l-0.4 0.2h0.5c0.4 0.1 0.8 0.2 1 0.3l0.1-0.1h-0.1q0 0.3-0.1 0.6h0.2l-0.1-0.2q-0.4 0.3-0.8 0.7c-0.2 0.2-0.5 0.4-0.8 0.6-0.1 0-0.4 0.1-0.7 0.2-0.1 0.1-0.3 0.1-0.4 0.2q-0.2 0-0.4 0c0 0 0 0 0 0q-0.1 0.1-0.1 0c0 0 0-0.1 0-0.1-0.1-0.1-0.1-0.2-0.1-0.2-0.1-0.3-0.2-0.5-0.3-0.9q-0.2-0.4-0.2-0.9c0-0.2-0.1-0.4-0.1-0.6 0-0.4 0.1-0.7 0.1-1 0.1-0.1 0.1-0.2 0.2-0.2 0.1-0.1 0.2-0.1 0.3-0.1q0 0 0.1 0c0.7 0.2 1.5 0.5 2 0.8q0.2 0.1 0.5 0.2c0.2 0.1 0.3 0.2 0.6 0.2l0.1-0.2h-0.1 0.1v-0.1c-0.2 0-0.4-0.1-0.5-0.1q-0.2-0.2-0.5-0.3c-0.6-0.3-1.4-0.7-2.2-0.8 0 0-0.1 0-0.1 0-0.2 0-0.4 0.1-0.5 0.1-0.1 0.2-0.2 0.4-0.2 0.6q-0.1 0.4-0.1 0.8 0 0.4 0 0.7c0 0.3 0.1 0.7 0.2 1 0.1 0.3 0.3 0.6 0.4 0.8 0 0.1 0 0.2 0.1 0.3 0 0 0 0.1 0.1 0.1q0 0.1 0.1 0.1 0.1 0 0.1 0 0.2 0 0.4 0c0.3-0.1 0.5-0.2 0.7-0.3 0.2 0 0.4-0.1 0.5-0.2q0.5-0.2 0.9-0.6 0.3-0.3 0.7-0.6v-0.1q0-0.2 0.1-0.5v-0.1h-0.1q-0.5-0.3-1.2-0.3v0.1l0.1 0.1q0.2-0.1 0.5-0.1c0.2 0 0.4-0.1 0.6-0.2v-0.1q0-0.1 0-0.2v-0.1h-0.1z"/>
	<path id="XMLID_40_" class="s0" d="m17.9 22.2c-0.1-0.4-0.2-0.5-0.1-0.9 1.2-0.8 1.4 1.3 0.1 0.9z"/>
	<path id="XMLID_41_" class="s0" d="m17.9 22.2h0.1c0-0.2 0-0.3-0.1-0.5q0-0.1 0-0.3c0 0 0-0.1 0-0.1h-0.1v0.1q0.3-0.2 0.5-0.2c0 0 0.1 0 0.1 0.1 0.1 0 0.1 0.1 0.2 0.2 0 0 0.1 0.1 0.1 0.2q0 0.2-0.1 0.3c-0.1 0.1-0.2 0.2-0.3 0.2-0.1 0-0.2 0-0.3-0.1l-0.1 0.1h0.1-0.1v0.1c0.1 0.1 0.2 0.1 0.3 0.1 0.2 0 0.4-0.1 0.6-0.2q0.1-0.3 0.1-0.5 0-0.3-0.1-0.5c-0.1-0.1-0.1-0.2-0.2-0.2q-0.1-0.1-0.3-0.1-0.3 0-0.6 0.2v0.1c0 0.1 0 0.1 0 0.2 0 0.2 0 0.3 0 0.4q0.1 0.2 0.1 0.4v0.1h0.1z"/>
	<path id="XMLID_42_" class="s1" d="m19.6 22.6c0 0-0.3-0.5-0.1-0.7 0.3-0.2 0.6 0 0.7-0.3 0.2-0.3 0-0.4 0.1-0.8 0.1-0.3 0.3-0.3 0.6-0.4 0.3 0 1.1-0.2 1.2 0.1l-0.4-0.9-0.6-0.2-2 1.1-0.1 0.6v1.2"/>
	<path id="XMLID_43_" class="s1" d="m14.1 24.4c-0.1-0.9-0.2-1.7-0.2-2.5-0.2-1.3 0.2-1.1 1.3-1.1 0.2 0 1.1 0.3 1.1 0.4 0.3 0.6-0.5 0.4 0.3 0.9 0.7 0.4 1.9-0.2 1.7-1.1-0.2-0.2-0.9 0-1.1-0.2-0.4-0.2-0.8-0.4-1.3-0.6-0.5-0.3-1.7-0.7-2.3-0.3-1.4 1 0.1 3.4 0.6 4.5"/>
	<path id="XMLID_44_" class="s2" d="m15.5 5.5c-1.5-0.4-2.2 0.6-2.7 1.6-0.4-0.1-0.2-0.7-0.1-0.9 0.2-0.7 1.3-1.7 2.1-1.5 0.4 0 0.9 0.3 0.7 0.8z"/>
	<path id="XMLID_45_" class="s2" d="m22.6 7.2c0 0 0 0 0 0 0.3 0.6 0.6 1.4 1.1 2-0.3 0.6-2.1 1.2-2.1 0 0.4-0.1 1.1 0 1.4-0.2-0.2-0.6-0.5-1.1-0.4-1.8z"/>
	<path id="XMLID_46_" class="s2" d="m16.2 7.2c0.3 0.5 0.4 1.1 0.8 1.5 0.3 0.2 0.7 0.5 0.4 1 0 0.1-0.4 0.4-0.5 0.5-0.7 0.2-2.3 0-1.8-0.9 0.6 0.1 1.3 0.4 1.8 0-0.3-0.5-0.9-1.5-0.7-2.1z"/>
	<path id="XMLID_47_" class="s2" d="m22.3 13c-1.1 0.6-2.2 1.3-3.9 1.2-0.4-0.3-0.5-1-0.2-1.5 0.2 0.3 0.1 0.9 0.6 1 0.9 0.2 2.1-0.6 2.8-0.9 0.4-0.7 0-0.9-0.4-1.4-0.8-1-1.9-2.2-1.9-3.6 0.3-0.2 0.4 0.4 0.4 0.5 0.4 0.9 1.5 2.2 2.3 3 0.1 0.2 0.4 0.4 0.5 0.6 0.1 0.3-0.3 0.8-0.2 1.1z"/>
	<path id="XMLID_48_" class="s2" d="m8.5 12.2c-0.3-0.1-0.4-0.9-0.8-1-0.5 0-0.4 1.1-0.4 1.7-0.4-0.3-0.5-1.4-0.2-1.9-0.3-0.2-0.5 0.2-0.6 0.3 0.2-1.7 2.4-0.8 2 0.9z"/>
	<path id="XMLID_49_" class="s2" d="m22.9 13.6c-0.5 0.9-1.1 2-2.5 2-0.1-0.3-0.1-0.7 0-0.9 1.1-0.2 1.7-0.7 2.5-1.1z"/>
	<path id="XMLID_50_" class="s2" d="m16.1 14.2c0.9 0.5 2.6 0.6 3.8 0.5 0.1 0.3 0.1 0.6 0.1 0.9-1.6 0.2-3.5-0.3-3.9-1.4z"/>
	<path id="XMLID_51_" class="s2" d="m15.9 15.1c0.7 1.6 2.9 1.4 4.7 1.4-0.1 0.2-0.3 0.4-0.5 0.5-0.6 0.2-2.2 0.4-3 0-0.5-0.3-0.9-0.9-1.2-1.2-0.1-0.2-0.8-0.7 0-0.7z"/>
	<path id="XMLID_52_" class="s10" d="m22.2 23.8c-0.7 1.3-1.5 2.5-2.3 3.7 0.3-1.1 0.5-2.9 0.6-4.3 0.7-0.3 1.4 0.1 1.7 0.6z"/>
	<path id="XMLID_53_" class="s2" d="m26.2 28.3c-0.8 0.2-1.4 1-2.2 0.9 0.4-0.6 1.2-0.8 2.2-0.9z"/>
	<path id="XMLID_54_" class="s2" d="m26.5 29.6c-0.6 0.1-1.4 0.2-2.1 0.1 0.3-0.5 1.6-0.3 2.1-0.1z"/>
	<path id="XMLID_55_" class="s2" d="m26.8 30.7c-0.8 0-1.7 0-2.4 0 0.4-0.5 1.9-0.2 2.4 0z"/>
	<path id="XMLID_56_" class="s6" d="m20.8 33.8c0.1 0.9 0.5 1.9 0.4 2.9-0.4 0.1-0.7 0.3-1.2 0.3 0-0.9-0.1-2.3-0.1-3.1 0.2 0 0.7-0.2 0.9-0.1z"/>
	<path id="XMLID_57_" class="s3" d="m19.6 19.8c-0.4 0.3-0.7 0.6-1.1 0.8-0.8 0.1-1.2 0-1.8-0.5 0 0 0 0 0-0.1 0.9 0.4 2-0.1 2.9-0.2z"/>
	<path id="XMLID_58_" class="s10" d="m15 25.7c0.3-1 1.2-1.6 2-2.1 0.9 1.1 1.5 2.5 2 3.9-1.3-0.5-2.8-1.1-4-1.8z"/>
	<path id="XMLID_78_" fill-rule="evenodd" class="s2" d="m23.3 27.4c1.3-0.6 3.7-1.7 4.5 0 0.3 0.7 0.7 1.7 0.8 2.4 0.2 0.9-0.2 2.9-1.2 3.2-0.8 0.3-1.8 0.2-2.8 0.1-0.1-0.1-0.3-0.3-0.4-0.5-0.7 0-1.4 0-2 0.4 0.1 0.5-0.3 0.6-0.6 0.7-0.3 1 0.5 2.3 0.3 3.2-0.1 0.7-0.9 0.8-1.5 0.9 0 0.4 0 0.7 0.1 1-0.2 0.5-0.8 0.7-1.4 0.8-1.8 0.2-4.7 0.3-6.5-0.3-0.5-1.2-0.9-2.7-1.3-4.1-1.8 0.1-3.2-0.8-4.6-1.4-0.4-0.2-1.1-0.3-1.3-0.7-0.1-0.4-0.1-1.1-0.1-1.7-0.1-1.7-0.2-3.3-0.6-5-0.3-0.7-0.6-1.4-0.8-2.2-0.2-0.6-0.6-1.5-0.7-2.1-0.2-1 0.8-1.1 1.4-1.5 0.9-0.7 1.7-1.1 2.7-1.7 0.3-0.2 1.2-0.6 1.3-0.8 0.2-0.5-0.4-1-0.5-1.4-0.3-0.5-0.4-0.9-0.4-1.4-0.8-0.2-1.5-0.7-1.9-1.2-0.6-1-1.1-2.7-0.5-4 0-0.2 0.2-0.4 0.3-0.5 0-0.3-0.1-0.8-0.2-1.1 0-1.7 0.3-3.2 1.5-3.7 0.5-1.9 2.2-2.5 3.8-3.4 0.6-0.4 1.2-0.6 1.9-0.8 2.4-0.9 6.2-0.7 8.2 0.8 0.8 0.6 2.2 2 2.7 3 1.3 2.6 1.2 7 0.3 10.1-0.1 0.4-0.3 1.1-0.6 1.6-0.1 0.3-0.7 1-0.6 1.4 0.1 0.3 1.2 1.2 1.4 1.4 0.5 0.4 1.3 1 1.4 1.5 0.1 0.6-0.3 1.4-0.4 1.9-0.5 1.8-1.1 3.5-1.7 5.1zm-12.1 1.7c0.3 3.4 0.8 6.3 1.8 9.3 2.2 0.6 4.8 0.7 6.8 0.1-0.4-1.7-0.2-3.8-0.4-5.6-0.1-1.3-0.1-2.7-0.3-4.1-2.4-0.5-5.7-0.1-7.9 0.3zm8.4-0.3c0 1.5 0.1 2.9 0.2 4.4 0.6-0.1 0.9-0.2 1.5-0.3-0.2-1.4-0.2-3-0.5-4.2-0.4 0-0.8 0-1.2 0.1zm2.9-0.2c-0.3-0.1-0.6 0-0.8 0 0.1 1.2 0.4 2.5 0.5 3.8 0.4 0 0.6-0.2 0.9-0.3 0-1.1-0.1-2.6-0.6-3.5zm4.3 3.9c0.8-0.2 1.3-1.2 1.1-2.2-0.1-0.7-0.4-2.1-0.7-2.5-0.2-0.3-0.8-0.8-1.3-0.5-0.8 0.5-2.1 0.7-2.7 1.3 0.3 0.9 0.3 2.2 0.5 3.4 1 0.1 2.2-0.3 3 0.1-0.6 0.1-1.3 0.1-1.8 0.4 0.3 0.2 1.3 0.2 1.9 0zm-7.8-5c-0.5-1.4-1.1-2.8-2-3.9-0.8 0.5-1.7 1.1-2 2.1 1.2 0.7 2.7 1.3 4 1.8zm1.5-4.3c-0.1 1.4-0.3 3.2-0.6 4.3 0.9-1.1 1.6-2.4 2.3-3.7-0.3-0.5-1-0.9-1.7-0.6zm-1.7-0.6c-0.3 0-0.6 0.4-1 0.2-0.1 0.1-0.2 0.2-0.3 0.4 1 1.1 1.4 2.7 2.1 4.1 0.4-1.3 0.4-2.7 0.5-4.1-0.6 0-0.9-0.5-1.3-0.6zm-1-1.4c-0.1 0.4 0 0.6 0.1 1 1.3 0.4 1.1-1.7-0.1-1zm-7.5-0.9c-0.2-0.1-1.2-1.4-1.3-1.3-1.8 0.7-3.5 1.9-5 3 1.5 3 2 6.7 2.1 10.3 1.7 0.8 3.1 1.9 5.3 2-0.2-1.8-0.5-3.4-0.6-5.1-0.6-0.3-1.4 0-1.9-0.1 0-0.6 0.8-0.3 0.9-0.7 0-0.3-0.5-0.3-0.3-0.8 0.4 0.1 0.6 0.4 1 0.6 0.4-0.9 0-2.4 0.1-3.1 0-0.2 0.1-0.8 0.3-0.7 0.3 0.1 0 1.7 0 2.3 0.1 0.7 0 1.3 0.2 1.7 2.1-0.3 4.3-0.5 6.6-0.6-0.5-0.2-1.1-0.4-1.8-0.8-0.3-0.2-1.5-0.6-1.6-0.9-0.2-0.5 0.4-0.8 0.5-1.3-1 0.6-1.2-0.6-1.5-1.4-0.2-0.7-0.3-1.2-0.4-1.7-0.9-0.4-1.9-0.9-2.6-1.4zm0.7-0.5c-0.5 0.5 1.3 1.1 1.9 1.2 0-0.3 0.1-0.6 0.1-0.8-0.6-0.1-1.5-0.1-2-0.4zm5.7 0.2c0 0.1 0 0.1 0 0.1 0.6 0.5 1 0.6 1.8 0.5 0.4-0.2 0.7-0.5 1.1-0.8-0.9 0.1-2 0.6-2.9 0.2zm5.3 1.6c-0.1-0.5-0.2-1.6-0.5-1.7-0.7-0.4-1.9 0.7-2.4 0.9 0 0.2 0.1 0.3 0.1 0.5 0.3 0 0.7 0 0.9 0.2-0.2 0-0.6 0-0.8 0.1-0.1 0.2 0 0.5 0 0.8q1 0.3 2.4 0.3c0.2-0.2 0.3-0.6 0.3-1.1zm-5.7-0.8c-0.5-0.3-1.3-0.7-2.1-0.8-0.8-0.2-0.8 1.2-0.7 2.1 0 0.6 0.3 1.3 0.5 1.7 0.1 0.2 0.1 0.4 0.2 0.5 0.4 0.1 1.4-0.3 1.6-0.5 0.6-0.3 1.1-0.9 1.6-1.2q0-0.3 0.1-0.5c-0.3-0.2-0.7-0.3-1.2-0.3 0.4-0.2 0.8-0.2 1.1-0.4q0-0.1 0-0.2c-0.5 0-0.7-0.2-1.1-0.4zm4.7-1.7c1.5-0.7 1.7 2.7 1.2 3.8 0.1 0.3 0.4 0.4 0.5 0.7-0.8 1.5-1.7 2.9-2.6 4.3 0.6-0.4 1.5 0 2.3-0.3 0.3-0.1 0.4-0.7 0.7-1.2 0.5-1.4 1.1-3.1 1.4-4.4 0-0.3 0.2-0.9 0.2-1.2-0.1-0.4-0.8-0.8-1.1-1.1-0.6-0.5-0.9-1-1.6-1.5-0.2 0.3-0.8 0.6-1 0.9zm-0.8-17.2c-1.7-0.9-4.5-1.6-6.2-0.7-1.4 0.7-3.3 1.9-4 3.4 0.6 1.4-0.2 2.7-0.3 4.1 0 0.8 0.4 1.5 0.4 2.3-0.2 0.4-0.8 0.4-1.3 0.4-0.1-0.7-0.4-1.6-1.1-1.7-1.1-0.1-1.9 0.8-1.9 1.7-0.1 1.1 0.8 3 2.1 2.8 0.5 0 0.6-0.5 1.2-0.5 0.2 0.6-0.5 0.8-0.6 1.2 0 0.1 0.1 0.5 0.1 0.7 0.3 1 0.8 2.2 1.3 2.9 0.6 1 1.9 1.1 3.3 1.2 0.3-0.5 1.1-0.5 1.8-0.3-0.8-0.3-1.4-1-2-1.6-0.6-0.7-1.2-1.4-1.2-2.3 1.1 1.6 2.1 3 4.3 3.8 1.6 0.5 3.5-0.3 4.7-1.2 0.6-0.3 0.9-0.9 1.3-1.5 1.3-1.9 2-4.8 1.8-7.5 0-1.1 0-2.3-0.4-3-0.4-0.8-1.7-1.5-2.5-0.8-0.2-0.8 0.6-1.2 1.6-0.9-0.7-0.9-1.4-1.9-2.4-2.5zm-8.3-0.4c-1.6 0.5-3.7 1.6-4.3 3.1 0.5-0.1 0.9-0.4 1.4-0.4 0.1 0 0.4 0.1 0.6 0 0.4-0.1 0.8-1 1.1-1.4 0.3-0.4 0.7-0.5 1-0.8 0.2-0.1 0.4-0.1 0.4-0.3q0-0.2-0.2-0.2zm-5 4.5c-0.8 0.8-0.6 2.2-0.5 3.3 1.3-0.8 3 0 2.9 1.4 0.6 0 0.3-0.8 0.1-1.2-0.3-1.6 0.7-3.3 0.1-4.7-1.1 0-2 0.5-2.6 1.2zm13 27.9c0 0.9 0.1 2.2 0.1 3.1 0.6 0 0.8-0.1 1.2-0.3 0-1-0.3-1.9-0.4-2.9-0.2-0.1-0.7 0.1-0.9 0.1z"/>
	<path id="XMLID_79_" class="s7" d="m14.7 14.6c0-0.1 0.4-0.2 1 0.1 0 0-0.7 0.1-0.6 1.1h-0.3c0 0-0.3-1-0.1-1.2z"/>
	<path id="XMLID_80_" class="s11" d="m19.4 23.8c0 0.2-0.2 0.3-0.3 0.3-0.2 0-0.3-0.2-0.3-0.3 0-0.2 0.1-0.3 0.3-0.3 0.1 0 0.3 0.1 0.3 0.3z"/>
	<path id="XMLID_81_" class="s11" d="m19.6 25.1c0 0.2-0.1 0.3-0.2 0.3-0.2 0-0.3-0.1-0.3-0.3 0-0.1 0.1-0.3 0.3-0.3 0.1 0 0.2 0.2 0.2 0.3z"/>
	<path id="XMLID_91_" fill-rule="evenodd" class="s12" d="m124.6 28.7q-1.1 0-2.1-0.3-1-0.4-1.6-0.7l-0.4 0.8h-0.9l-0.1-4.2h0.8c0.1 0.3 0.3 0.7 0.6 1.1 0.2 0.4 0.5 0.8 0.9 1.1q0.5 0.5 1.2 0.9c0.4 0.2 0.9 0.4 1.4 0.4 0.7 0 1.2-0.2 1.6-0.4 0.3-0.3 0.4-0.7 0.4-1.3q0-0.5-0.2-0.7-0.2-0.3-0.6-0.5-0.4-0.2-0.9-0.4-0.6-0.2-1.3-0.4c-0.5-0.1-1-0.3-1.3-0.5q-0.6-0.2-1.2-0.7c-0.3-0.2-0.6-0.6-0.8-1q-0.3-0.7-0.3-1.5 0-1.6 1.4-2.6c0.8-0.6 2-1 3.4-1q1.1 0 1.9 0.3 0.9 0.2 1.5 0.4l0.2-0.7h0.9l0.2 3.9h-0.8q-0.4-1.2-1.4-2-0.9-0.9-2-0.9-0.9 0-1.4 0.4-0.5 0.3-0.5 1c0 0.5 0.2 0.9 0.7 1.2 0.5 0.2 1.2 0.5 2.1 0.7 1.3 0.4 2.3 0.8 2.9 1.4q0.9 0.9 0.9 2.3 0 1.8-1.4 2.8-1.5 1.1-3.8 1.1zm-6.4-1.2v0.7h-6.7v-0.8c0.1 0 0.3 0 0.5 0 0.2 0 0.3-0.1 0.5-0.1 0.1-0.1 0.2-0.3 0.3-0.4 0.1-0.2 0.1-0.4 0.1-0.7v-5.2q0-1.2-0.4-1.8-0.4-0.6-1.3-0.5-0.4-0.1-0.8 0.1-0.4 0.1-0.8 0.4c-0.2 0.1-0.3 0.3-0.5 0.4q-0.1 0.3-0.3 0.5v6q0 0.4 0.1 0.7c0.1 0.1 0.2 0.2 0.4 0.4q0.2 0.1 0.4 0.1 0.3 0.1 0.6 0.1v0.8h-6.9v-0.8c0.2 0 0.4 0 0.6 0 0.2-0.1 0.3-0.1 0.5-0.1 0.2-0.1 0.4-0.3 0.5-0.4q0.1-0.3 0.1-0.7v-6.5c0-0.2-0.1-0.5-0.2-0.7-0.1-0.2-0.3-0.4-0.4-0.6q-0.2-0.1-0.5-0.2-0.3 0-0.7-0.1v-0.8l5.4-0.3 0.1 0.2v1.6h0.1c0.2-0.1 0.5-0.4 0.7-0.6q0.5-0.4 0.9-0.7 0.4-0.2 1.1-0.4 0.7-0.2 1.4-0.2c1.3 0 2.2 0.3 2.8 1q0.9 1.1 0.9 2.8v5.5q0 0.4 0.1 0.6c0.1 0.2 0.3 0.3 0.5 0.4 0.1 0.1 0.3 0.1 0.4 0.2q0.3 0 0.6 0.1zm-17.4-14.5c0 0.5-0.2 1-0.7 1.4q-0.6 0.6-1.5 0.6-0.9 0-1.6-0.6-0.7-0.6-0.7-1.4c0-0.6 0.3-1.1 0.7-1.5q0.7-0.6 1.6-0.6 0.9 0 1.5 0.6 0.7 0.7 0.7 1.5zm1.6 14.5v0.7h-7.1v-0.8c0.2-0.1 0.4-0.1 0.6-0.1 0.2 0 0.3-0.1 0.5-0.1 0.2-0.1 0.4-0.2 0.5-0.4q0.1-0.3 0.1-0.7v-6.5q0-0.4-0.2-0.7c-0.1-0.1-0.3-0.3-0.4-0.4-0.2-0.1-0.3-0.2-0.6-0.3q-0.5-0.1-0.8-0.1v-0.8l5.5-0.3 0.2 0.2v8.9q0 0.4 0.2 0.7c0.1 0.2 0.3 0.3 0.5 0.4q0.2 0.1 0.5 0.2c0.2 0 0.4 0 0.5 0.1zm-7.2 0.7h-5.3c-0.6-1.1-1.2-2.1-1.8-2.9q-0.8-1.1-1.5-2.1l-0.7 0.5v2.5q0 0.4 0.1 0.7c0.1 0.1 0.3 0.3 0.5 0.4 0.1 0 0.3 0 0.5 0.1q0.2 0.1 0.5 0.1v0.8h-7v-0.8c0.2 0 0.4 0 0.6-0.1q0.2 0 0.5-0.1c0.2-0.1 0.4-0.2 0.5-0.4q0.1-0.2 0.1-0.6v-12.5q0-0.4-0.2-0.8c-0.1-0.3-0.2-0.5-0.4-0.6q-0.3-0.1-0.7-0.2-0.4-0.1-0.8-0.1v-0.8l5.6-0.3 0.2 0.2v11.5c0.6-0.4 1.2-1 1.9-1.7 0.7-0.6 1.3-1.2 1.7-1.6q0.4-0.4 0.4-0.6 0-0.2 0-0.2 0-0.2-0.3-0.4-0.4-0.1-1.1-0.2v-0.8h5.7v0.7q-1.1 0.4-1.7 0.6-0.6 0.3-1.2 0.8-0.5 0.3-0.9 0.6-0.5 0.4-1 0.8c0.7 1.1 1.4 2.1 2 3 0.6 0.9 1.3 1.8 2 2.8q0.3 0.6 0.8 0.8c0.4 0.1 0.7 0.1 1 0.2zm-15.6-0.8v0.8h-6.7v-0.8c0.1-0.1 0.3-0.1 0.5-0.1 0.2 0 0.3-0.1 0.5-0.1 0.1-0.1 0.2-0.2 0.3-0.4 0.1-0.2 0.1-0.4 0.1-0.7v-5.2q0-1.2-0.4-1.8-0.4-0.5-1.3-0.5-0.4 0-0.8 0.1-0.4 0.1-0.8 0.4c-0.2 0.1-0.3 0.3-0.5 0.5q-0.1 0.2-0.3 0.4v6q0 0.4 0.1 0.7c0.1 0.2 0.2 0.3 0.4 0.4q0.2 0.1 0.4 0.1 0.3 0.1 0.5 0.2v0.8h-6.8v-0.8c0.2-0.1 0.4-0.1 0.6-0.1 0.2-0.1 0.3-0.1 0.5-0.1 0.2-0.1 0.3-0.2 0.5-0.4q0.1-0.3 0.1-0.7v-6.5c0-0.2-0.1-0.5-0.2-0.7-0.1-0.2-0.3-0.4-0.4-0.5q-0.2-0.1-0.5-0.2-0.3-0.1-0.7-0.2v-0.8l5.4-0.3 0.1 0.2v1.7h0.1c0.2-0.2 0.5-0.5 0.7-0.7q0.5-0.4 0.9-0.7 0.4-0.2 1.1-0.4 0.7-0.2 1.4-0.2c1.3 0 2.2 0.3 2.8 1q0.9 1.1 0.9 2.8v5.5q0 0.4 0.1 0.7c0.1 0.1 0.3 0.2 0.5 0.3 0.1 0.1 0.3 0.1 0.4 0.2q0.3 0 0.6 0.1zm-15.8-1.9q-0.4 0.6-1 1.2-0.5 0.5-1.2 0.9c-0.5 0.3-1.1 0.5-1.6 0.7-0.5 0.1-1.1 0.2-1.7 0.2q-1.7 0-2.9-0.5-1.2-0.5-2-1.2-0.8-0.9-1.2-1.9-0.4-1.1-0.4-2.4c0-0.7 0.2-1.4 0.5-2.2q0.4-1 1.2-1.8 0.7-0.8 1.9-1.3c0.7-0.3 1.6-0.5 2.6-0.5q1.6 0 2.6 0.4 1 0.4 1.6 1.1c0.5 0.4 0.8 0.9 1 1.5q0.2 0.9 0.3 1.8v0.7h-7.7q0 2.3 0.9 3.5 1 1.2 2.9 1.2 1 0 1.9-0.5c0.6-0.4 1.1-0.9 1.5-1.5zm-4.3-4.2q0-0.7-0.1-1.3-0.1-0.8-0.2-1.2-0.2-0.6-0.6-0.8c-0.2-0.2-0.5-0.3-0.8-0.3-0.6 0-1 0.3-1.4 0.9q-0.5 0.8-0.6 2.7zm-9-9v0.9q-0.5 0-0.8 0.1-0.3 0-0.7 0.1-0.5 0.1-0.6 0.4c-0.1 0.2-0.1 0.5-0.1 0.7v8.8q0 1.2-0.5 2.2-0.5 1.1-1.4 1.7-0.9 0.7-1.9 1.1-1.1 0.3-2.3 0.3-2.1 0-3.4-1-1.3-1-1.3-2.8 0-1 0.6-1.7c0.4-0.5 1-0.7 1.6-0.7q1 0 1.6 0.6 0.6 0.6 0.6 1.4c0 0.5-0.2 0.9-0.5 1.4-0.3 0.4-0.7 0.7-1.2 1.1v0.1q0.2 0.3 0.5 0.4 0.3 0.2 0.6 0.2c1 0 1.6-0.4 2.2-1q0.8-0.9 0.8-2.9v-9c0-0.3-0.1-0.5-0.2-0.7q-0.1-0.2-0.6-0.4-0.3-0.2-0.8-0.3-0.5-0.1-0.8-0.1v-0.9z"/>
</svg>