<?xml version="1.0" encoding="UTF-8"?>
<svg version="1.1" xmlns="http://www.w3.org/2000/svg" width="512" height="512">
<path d="M0 0 C2.36798533 -0.00542549 4.73596727 -0.01255054 7.10394287 -0.02124023 C13.51300129 -0.03942543 19.9218012 -0.03242572 26.33086395 -0.01972389 C30.33868378 -0.01259401 34.3464861 -0.01396087 38.35430908 -0.01768494 C39.3547657 -0.01860433 39.3547657 -0.01860433 40.37543356 -0.01954231 C41.73070766 -0.02082131 43.08598174 -0.02211817 44.44125581 -0.02343267 C57.12608283 -0.03481725 69.8107939 -0.0217582 82.49560189 -0.00023121 C93.36105824 0.01763788 104.22634361 0.01453318 115.09179688 -0.00390625 C127.7336807 -0.0253506 140.37546311 -0.03371882 153.01736259 -0.0214572 C154.36743035 -0.02018311 155.71749813 -0.01892562 157.06756592 -0.01768494 C158.0637489 -0.01675928 158.0637489 -0.01675928 159.08005679 -0.01581493 C163.74231267 -0.01237268 168.40446837 -0.01836326 173.06671143 -0.02760315 C179.35087004 -0.03918829 185.63470689 -0.03108679 191.91883087 -0.00802612 C194.22017127 -0.00275333 196.52153892 -0.0042282 198.82286835 -0.01307678 C214.35669994 -0.06728123 226.88977196 0.23272255 238.7109375 11.51757812 C248.81494592 22.10177704 250.3086489 33.43953687 250.25683594 47.5456543 C250.26558698 49.13347376 250.27607806 50.72128443 250.28816223 52.30908203 C250.31585567 56.58729097 250.31943063 60.8652098 250.31844234 65.14349532 C250.32158587 69.62651565 250.34723386 74.10940806 250.37042236 78.59236145 C250.41087611 87.06703446 250.43129801 95.54163074 250.44439626 104.01638538 C250.46030242 113.67069706 250.49873318 123.32487882 250.53898954 132.97911489 C250.62124296 152.82522637 250.67542588 172.67133155 250.7109375 192.51757812 C251.8458815 192.91528664 251.8458815 192.91528664 253.00375366 193.32102966 C253.99557648 193.67391556 254.98739929 194.02680145 256.00927734 194.39038086 C256.99278168 194.73801987 257.97628601 195.08565887 258.98959351 195.4438324 C262.22560527 196.72064776 264.68300373 198.33761457 267.3359375 200.58007812 C268.15320313 201.25167969 268.97046875 201.92328125 269.8125 202.61523438 C271.7109375 204.51757812 271.7109375 204.51757812 272.7109375 207.51757812 C273.3709375 207.51757812 274.0309375 207.51757812 274.7109375 207.51757812 C274.93652344 206.94136719 275.16210938 206.36515625 275.39453125 205.77148438 C277.08835298 202.87138011 279.06481999 201.43225462 281.7734375 199.45507812 C282.67191406 198.78347656 283.57039063 198.111875 284.49609375 197.41992188 C294.37567727 191.57380137 304.22150193 192.12308832 315.30859375 192.22460938 C317.11176702 192.2302125 318.9149449 192.23447921 320.71812439 192.23747253 C325.43802755 192.24886489 330.15764877 192.27828311 334.87744141 192.31158447 C339.70406278 192.34240698 344.53073021 192.35600378 349.35742188 192.37109375 C358.80873683 192.40315881 368.25976949 192.45588023 377.7109375 192.51757812 C377.7109375 203.07757813 377.7109375 213.63757813 377.7109375 224.51757812 C388.2709375 224.51757812 398.8309375 224.51757812 409.7109375 224.51757812 C409.7109375 272.03757812 409.7109375 319.55757813 409.7109375 368.51757812 C375.3909375 368.51757812 341.0709375 368.51757812 305.7109375 368.51757812 C305.7109375 371.15757812 305.7109375 373.79757812 305.7109375 376.51757812 C304.97020115 379.37470403 303.88039828 381.78883629 302.7109375 384.51757812 C304.05019287 384.39902466 304.05019287 384.39902466 305.41650391 384.27807617 C316.5257597 383.72930224 324.18861563 386.56095359 334.0859375 391.33007812 C335.62347301 392.045232 337.16224411 392.75773457 338.70214844 393.46777344 C341.97979053 394.98476818 345.24891369 396.51835776 348.51269531 398.06494141 C353.95374913 400.63991773 359.4203944 403.15765579 364.890625 405.66992188 C372.0090411 408.9439041 379.12355875 412.22589685 386.2265625 415.53320312 C386.96784393 415.87741806 387.70912537 416.221633 388.47286987 416.57627869 C392.03224491 418.23644121 395.58105405 419.91849242 399.11254883 421.63720703 C399.7546077 421.94848541 400.39666656 422.25976379 401.05818176 422.58047485 C403.35882654 423.88492759 404.68469067 425.46147095 406.1484375 427.64257812 C406.62152344 428.32578125 407.09460938 429.00898438 407.58203125 429.71289062 C410.97200759 435.13216076 410.41171158 441.317396 409.7109375 447.51757812 C406.17198402 456.24862945 399.03600781 460.15609935 390.69140625 463.74023438 C390.01144592 464.03844086 389.3314856 464.33664734 388.63092041 464.64389038 C387.15848932 465.28949988 385.68503306 465.93277532 384.21066284 466.57394409 C380.20989436 468.31482516 376.21775649 470.07518905 372.2265625 471.83789062 C371.38544418 472.20927658 370.54432587 472.58066254 369.67771912 472.96330261 C357.62012408 478.30677725 345.67929353 483.90593401 333.72924805 489.48461914 C332.45667145 490.07782455 332.45667145 490.07782455 331.15838623 490.68301392 C329.56563607 491.42577253 327.97359389 492.17005188 326.38238525 492.91610718 C321.20726277 495.33055875 317.4721228 496.64237923 311.76867771 496.6517992 C310.51956594 496.65625705 309.27045417 496.66071489 307.98349053 496.66530782 C306.58962539 496.66521852 305.19576025 496.66502866 303.80189514 496.66474915 C302.32705397 496.66804776 300.8522137 496.67177333 299.37737459 496.67589062 C295.31415364 496.68591945 291.25094746 496.68962885 287.18771589 496.69227993 C282.80916869 496.69618051 278.43063322 496.70575918 274.05209351 496.7144928 C263.47106662 496.73426673 252.89003877 496.74432571 242.30899802 496.75322059 C237.32607391 496.75760296 232.34315086 496.76296999 227.36022758 496.76820946 C210.79446286 496.78522452 194.2286988 496.79971775 177.66292667 496.8069582 C173.36276816 496.8088681 169.06260966 496.81078843 164.76245117 496.81274414 C163.15927146 496.81346975 163.15927146 496.81346975 161.52370428 496.81421002 C144.21784407 496.82250671 126.91205306 496.84783629 109.60622305 496.88032482 C91.83775376 496.91340973 74.0693196 496.93140835 56.30081934 496.93460244 C46.32494883 496.93676647 36.34917917 496.94549925 26.3733387 496.97106361 C17.87534536 496.99279036 9.37747735 497.0008114 0.87945939 496.99109683 C-3.45419131 496.98655753 -7.78758354 496.98841664 -12.12119865 497.00785828 C-16.09471198 497.02552984 -20.06777905 497.02446018 -24.04129738 497.00896098 C-25.47277655 497.00659091 -26.90428694 497.01087714 -28.33571851 497.02278963 C-43.46770697 497.14083869 -58.23548477 492.8002792 -69.60546875 482.33007812 C-82.4485166 468.50368786 -87.03260046 453.60584416 -86.6640625 435.12695312 C-86.04489598 422.00946809 -80.61591487 411.49333843 -71.8515625 401.83007812 C-71.0059375 401.06695312 -70.1603125 400.30382812 -69.2890625 399.51757812 C-68.6703125 398.94136719 -68.0515625 398.36515625 -67.4140625 397.77148438 C-63.54387988 394.24580665 -60.01990337 391.82434178 -55.2890625 389.51757812 C-55.28846541 388.76423791 -55.28786832 388.0108977 -55.28725314 387.23472899 C-55.25135145 342.57579065 -55.19470056 297.91691989 -55.11114155 253.25804399 C-55.10112421 247.89460447 -55.09128006 242.53116464 -55.08154297 237.16772461 C-55.0796016 236.09996994 -55.07766022 235.03221526 -55.07566002 233.93210439 C-55.04464736 216.64804696 -55.02766141 199.36400282 -55.01586828 182.07992282 C-55.00345293 164.34202719 -54.97594282 146.60420119 -54.93444943 128.86634952 C-54.90932509 117.92303475 -54.89594445 106.97983545 -54.89763293 96.03649143 C-54.89766271 88.53004251 -54.88301709 81.02371113 -54.85689822 73.51730802 C-54.84226505 69.18787711 -54.83403836 64.85868723 -54.84325981 60.52923584 C-54.85156963 56.56055167 -54.84132962 52.592351 -54.81672588 48.62373839 C-54.8110597 47.19287639 -54.81203058 45.7619683 -54.82055005 44.33112045 C-54.89149093 31.29290528 -52.45303576 21.11706694 -43.2890625 11.51757812 C-30.56148439 -0.63256733 -16.58753222 -0.06377888 0 0 Z M-30.91796875 24.15820312 C-41.41131874 35.78938625 -38.2890625 48.67850762 -38.2890625 64.51757812 C-4.2990625 64.51757812 29.6909375 64.51757812 64.7109375 64.51757812 C63.0609375 60.88757813 61.4109375 57.25757813 59.7109375 53.51757812 C58.72275463 49.56484665 58.49074771 45.945062 58.39453125 41.90820312 C58.37375015 41.18139343 58.35296906 40.45458374 58.33155823 39.70574951 C58.26638238 37.39311821 58.2073271 35.08037719 58.1484375 32.76757812 C58.10522184 31.19595238 58.06160658 29.62433756 58.01757812 28.05273438 C57.91073394 24.2077936 57.80937726 20.36274288 57.7109375 16.51757812 C48.47875676 16.47109229 39.24661676 16.43562673 30.01434422 16.41395378 C25.72672432 16.40354815 21.43918491 16.38944823 17.15161133 16.36669922 C13.00837864 16.3448554 8.86522304 16.33298532 4.72193718 16.32782364 C3.14681728 16.32414849 1.57170125 16.31697222 -0.00338554 16.30611801 C-16.82301625 15.89431999 -16.82301625 15.89431999 -30.91796875 24.15820312 Z M73.7109375 16.51757812 C72.22698341 37.14211071 72.22698341 37.14211071 79.7109375 55.51757812 C85.10958512 60.87766397 89.71177782 63.79019726 97.5234375 63.89257812 C104.33466877 63.74233038 108.72591582 62.34891552 113.68359375 57.64648438 C124.78373655 45.58903973 121.7109375 33.42907453 121.7109375 16.51757812 C105.8709375 16.51757812 90.0309375 16.51757812 73.7109375 16.51757812 Z M137.7109375 16.51757812 C137.7015918 17.46487793 137.69224609 18.41217773 137.68261719 19.38818359 C137.63824955 22.94846912 137.57648136 26.50761365 137.50341797 30.06738281 C137.47542675 31.59949979 137.45410504 33.13175531 137.43994141 34.6640625 C137.35177837 43.66844703 136.83409345 51.32719304 132.7109375 59.51757812 C131.7209375 61.99257812 131.7209375 61.99257812 130.7109375 64.51757812 C164.7009375 64.51757812 198.6909375 64.51757812 233.7109375 64.51757812 C235.19489159 43.89304554 235.19489159 43.89304554 227.7109375 25.51757812 C220.11764089 17.97851935 213.03906595 16.38542351 202.42041016 16.40405273 C201.71727692 16.40390671 201.01414368 16.40376068 200.28970337 16.40361023 C197.98476995 16.40430229 195.67991916 16.41206132 193.375 16.41992188 C191.76931808 16.42178857 190.16363558 16.42321129 188.55795288 16.42420959 C184.34611418 16.42801498 180.13431034 16.43782825 175.92248535 16.44891357 C171.61890128 16.45917036 167.31531154 16.46371634 163.01171875 16.46875 C154.57810906 16.4794524 146.14452763 16.4965049 137.7109375 16.51757812 Z M-38.2890625 80.51757812 C-38.2890625 180.83757812 -38.2890625 281.15757812 -38.2890625 384.51757812 C55.1009375 384.51757812 148.4909375 384.51757812 244.7109375 384.51757812 C243.7209375 379.23757813 242.7309375 373.95757812 241.7109375 368.51757812 C207.3909375 368.51757812 173.0709375 368.51757812 137.7109375 368.51757812 C137.7109375 342.44757813 137.7109375 316.37757813 137.7109375 289.51757812 C134.19538542 290.92379896 130.77871577 292.40081529 127.34326172 293.97998047 C101.32434318 305.80906311 71.65615087 307.51462982 44.6484375 297.83007812 C19.73437753 288.28903652 -0.9672703 269.70184374 -12.26782227 245.47509766 C-22.73529382 221.88265427 -25.73926178 193.23638537 -17.2890625 168.51757812 C-17.08007324 167.88932129 -16.87108398 167.26106445 -16.65576172 166.61376953 C-11.33829244 150.94814654 -2.85234813 138.22318111 8.7109375 126.51757812 C9.28070313 125.875625 9.85046875 125.23367187 10.4375 124.57226562 C24.39740524 109.18057524 49.33229947 98.48938781 69.8762207 97.34057617 C99.90239681 96.79708658 99.90239681 96.79708658 113.7109375 101.51757812 C114.33919434 101.72656738 114.96745117 101.93555664 115.61474609 102.15087891 C131.74128529 107.62479953 144.80680071 116.44981059 156.7109375 128.51757812 C157.53335938 129.3296875 158.35578125 130.14179688 159.203125 130.97851562 C175.5370851 147.99070244 181.92872349 169.82429409 185.7109375 192.51757812 C201.5509375 192.51757812 217.3909375 192.51757812 233.7109375 192.51757812 C233.7109375 155.55757812 233.7109375 118.59757812 233.7109375 80.51757812 C143.9509375 80.51757812 54.1909375 80.51757812 -38.2890625 80.51757812 Z M68.09765625 122.72851562 C65.77602147 125.89371432 65.77602147 125.89371432 64.7109375 129.51757812 C75.9309375 129.51757812 87.1509375 129.51757812 98.7109375 129.51757812 C95.5283744 122.68807887 95.5283744 122.68807887 91.0859375 117.58007812 C90.49554688 117.01417969 89.90515625 116.44828125 89.296875 115.86523438 C86.39336251 113.39796391 83.7357121 112.99362495 79.93359375 113.04882812 C74.6883927 114.15502167 71.1378401 118.56206512 68.09765625 122.72851562 Z M17.3984375 140.58007812 C14.59843526 142.97697868 14.59843526 142.97697868 14.7109375 144.51757812 C18.08564254 144.63447438 21.4598218 144.70505746 24.8359375 144.76757812 C25.78726563 144.80109375 26.73859375 144.83460938 27.71875 144.86914062 C32.01245307 144.92877539 35.11662117 144.76430119 39.1171875 143.10351562 C42.73826368 139.4933463 44.27358202 135.6173959 46.0859375 130.89257812 C46.44042969 130.02117187 46.79492188 129.14976562 47.16015625 128.25195312 C49.01992242 124.01088053 49.01992242 124.01088053 49.7109375 119.51757812 C39.04622583 119.51757812 24.49663256 133.62470389 17.3984375 140.58007812 Z M113.7109375 119.51757812 C115.21161495 124.09039715 116.77305838 128.63558175 118.4609375 133.14257812 C118.6878125 133.79742187 118.9146875 134.45226562 119.1484375 135.12695312 C121.01398204 140.02896911 122.92995775 142.36017456 127.7109375 144.51757812 C131.1910179 144.96231914 134.58523436 144.89741876 138.0859375 144.76757812 C139.01277344 144.74953125 139.93960938 144.73148438 140.89453125 144.71289062 C143.16775185 144.6660201 145.43879157 144.60043338 147.7109375 144.51757812 C142.22218048 132.75087151 126.99018889 124.77908341 115.7109375 119.51757812 C115.0509375 119.51757812 114.3909375 119.51757812 113.7109375 119.51757812 Z M3.7109375 160.51757812 C-1.01651979 170.91798417 -5.2890625 180.88436873 -5.2890625 192.51757812 C-0.3390625 192.51757812 4.6109375 192.51757812 9.7109375 192.51757812 C10.00226563 191.29683594 10.29359375 190.07609375 10.59375 188.81835938 C13.07829066 178.73344361 16.00524348 169.81953142 20.7109375 160.51757812 C15.1009375 160.51757812 9.4909375 160.51757812 3.7109375 160.51757812 Z M142.7109375 160.51757812 C143.7834375 162.82757813 144.8559375 165.13757813 145.9609375 167.51757812 C149.64402455 175.69575796 151.75816302 183.76914845 153.7109375 192.51757812 C158.6609375 192.51757812 163.6109375 192.51757812 168.7109375 192.51757812 C168.40951353 186.08720008 167.24957441 180.3799388 165.3359375 174.26757812 C165.12686768 173.5946875 164.91779785 172.92179688 164.70239258 172.22851562 C163.34597892 168.03869305 161.70696073 164.50962459 159.7109375 160.51757812 C154.1009375 160.51757812 148.4909375 160.51757812 142.7109375 160.51757812 Z M-5.2890625 208.51757812 C-4.98763853 214.94795617 -3.82769941 220.65521745 -1.9140625 226.76757812 C-1.60045776 227.77691406 -1.60045776 227.77691406 -1.28051758 228.80664062 C0.07589608 232.9964632 1.71491427 236.52553166 3.7109375 240.51757812 C9.3209375 240.51757812 14.9309375 240.51757812 20.7109375 240.51757812 C19.6384375 238.20757812 18.5659375 235.89757812 17.4609375 233.51757812 C13.77785045 225.33939829 11.66371198 217.2660078 9.7109375 208.51757812 C4.7609375 208.51757812 -0.1890625 208.51757812 -5.2890625 208.51757812 Z M153.7109375 208.51757812 C153.2159375 210.60070312 152.7209375 212.68382812 152.2109375 214.83007812 C151.9325 216.00183594 151.6540625 217.17359375 151.3671875 218.38085938 C150.60854666 221.47287657 150.60854666 221.47287657 150.7109375 224.51757812 C156.9809375 224.51757812 163.2509375 224.51757812 169.7109375 224.51757812 C169.7109375 219.23757812 169.7109375 213.95757812 169.7109375 208.51757812 C164.4309375 208.51757812 159.1509375 208.51757812 153.7109375 208.51757812 Z M185.7109375 208.51757812 C185.7109375 245.47757813 185.7109375 282.43757813 185.7109375 320.51757812 C212.1109375 320.51757812 238.5109375 320.51757812 265.7109375 320.51757812 C265.76915462 305.09668696 265.76915462 305.09668696 265.80859375 289.67578125 C265.82052744 283.38188281 265.8346122 277.08804283 265.86181641 270.79418945 C265.88362205 265.71728311 265.89552239 260.64043949 265.90069199 255.56348991 C265.9043739 253.63111319 265.91156365 251.69873971 265.92239761 249.76638985 C265.93701522 247.04999624 265.93891117 244.33385855 265.93798828 241.61743164 C265.94877411 240.43167038 265.94877411 240.43167038 265.95977783 239.22195435 C265.92709793 230.27358573 264.65369918 222.42503437 258.0703125 215.88867188 C239.90093448 199.49673301 203.50547314 208.51757812 185.7109375 208.51757812 Z M290.7109375 214.51757812 C283.49957539 221.78082054 281.60509905 228.72839509 281.58651733 238.84869385 C281.59011261 239.64998718 281.59370789 240.45128052 281.59741211 241.27685547 C281.59726608 242.13604584 281.59712006 242.99523621 281.5969696 243.88046265 C281.59766321 246.70483981 281.6054297 249.52915006 281.61328125 252.35351562 C281.61514739 254.31792159 281.61657037 256.28232802 281.61756897 258.24673462 C281.62137871 263.40551041 281.63119579 268.56425784 281.64227295 273.72302246 C281.65432342 279.91887323 281.65889666 286.11473351 281.66472626 292.31059265 C281.67440839 301.71294084 281.69357575 311.11522686 281.7109375 320.51757812 C308.1109375 320.51757812 334.5109375 320.51757812 361.7109375 320.51757812 C361.7109375 283.55757812 361.7109375 246.59757812 361.7109375 208.51757812 C329.65588637 204.53466673 329.65588637 204.53466673 290.7109375 214.51757812 Z M153.7109375 240.51757812 C153.7109375 277.47757812 153.7109375 314.43757813 153.7109375 352.51757812 C188.0309375 352.51757812 222.3509375 352.51757812 257.7109375 352.51757812 C257.7109375 357.79757812 257.7109375 363.07757813 257.7109375 368.51757812 C259.23619246 375.55069821 260.80839929 378.49882871 266.7109375 382.51757812 C270.4255455 384.37488212 274.65686868 383.96040718 278.7109375 383.51757812 C283.5874004 381.16965154 286.11431364 378.22996958 288.7109375 373.51757812 C290.23391386 366.75253291 290.23391386 366.75253291 289.7109375 352.51757812 C324.0309375 352.51757812 358.3509375 352.51757812 393.7109375 352.51757812 C393.7109375 315.55757812 393.7109375 278.59757812 393.7109375 240.51757812 C388.4309375 240.51757812 383.1509375 240.51757812 377.7109375 240.51757812 C377.7109375 272.19757813 377.7109375 303.87757813 377.7109375 336.51757812 C309.0709375 336.51757812 240.4309375 336.51757812 169.7109375 336.51757812 C169.7109375 304.83757812 169.7109375 273.15757812 169.7109375 240.51757812 C164.4309375 240.51757812 159.1509375 240.51757812 153.7109375 240.51757812 Z M15.7109375 256.51757812 C21.19969452 268.28428474 36.43168611 276.25607284 47.7109375 281.51757812 C48.3709375 281.51757812 49.0309375 281.51757812 49.7109375 281.51757812 C48.21026005 276.9447591 46.64881662 272.3995745 44.9609375 267.89257812 C44.7340625 267.23773438 44.5071875 266.58289063 44.2734375 265.90820312 C42.40789296 261.00618714 40.49191725 258.67498169 35.7109375 256.51757812 C32.2308571 256.07283711 28.83664064 256.13773749 25.3359375 256.26757812 C24.40910156 256.285625 23.48226562 256.30367187 22.52734375 256.32226562 C20.25412315 256.36913615 17.98308343 256.43472287 15.7109375 256.51757812 Z M121.7109375 260.51757812 C119.89742999 263.59627297 118.61359599 266.81171747 117.3359375 270.14257812 C116.98144531 271.01398438 116.62695312 271.88539063 116.26171875 272.78320312 C114.40195258 277.02427572 114.40195258 277.02427572 113.7109375 281.51757812 C120.3521297 279.51138465 125.8502245 276.16050765 131.7109375 272.51757812 C132.40703125 272.12699219 133.103125 271.73640625 133.8203125 271.33398438 C135.75094455 270.19724586 135.75094455 270.19724586 137.7109375 267.51757812 C138.18599681 263.79628023 138.0634838 260.24542878 137.7109375 256.51757812 C136.17091294 256.40801116 134.62853987 256.33128442 133.0859375 256.26757812 C132.22742188 256.22117187 131.36890625 256.17476562 130.484375 256.12695312 C126.53288714 256.68350071 124.71775152 257.87062217 121.7109375 260.51757812 Z M64.7109375 271.51757812 C67.8935006 278.34707738 67.8935006 278.34707738 72.3359375 283.45507812 C72.92632812 284.02097656 73.51671875 284.586875 74.125 285.16992188 C77.02851249 287.63719234 79.6861629 288.0415313 83.48828125 287.98632812 C88.7334823 286.88013458 92.2840349 282.47309113 95.32421875 278.30664062 C97.64585353 275.14144193 97.64585353 275.14144193 98.7109375 271.51757812 C87.4909375 271.51757812 76.2709375 271.51757812 64.7109375 271.51757812 Z M-59.24609375 413.27539062 C-67.60045529 422.44442222 -69.91300616 432.31933734 -69.59765625 444.50585938 C-68.99321256 455.15259567 -63.7837703 463.27215763 -56.22265625 470.49023438 C-41.69442959 482.73136989 -24.79039781 480.51757812 -6.2890625 480.51757812 C-6.2890625 454.11757813 -6.2890625 427.71757812 -6.2890625 400.51757812 C-35.65096528 399.52041167 -35.65096528 399.52041167 -59.24609375 413.27539062 Z M9.7109375 400.51757812 C9.7109375 405.79757812 9.7109375 411.07757813 9.7109375 416.51757812 C44.68415436 416.85998008 79.65698389 417.12533031 114.63152548 417.28355807 C118.76322352 417.30231802 122.89491824 417.32173292 127.02661133 417.34155273 C127.84913559 417.34548739 128.67165985 417.34942205 129.51910909 417.35347594 C142.82677336 417.41869584 156.13346283 417.53693407 169.44054935 417.67487007 C183.10126152 417.81528754 196.76146423 417.89848931 210.42286843 417.92890555 C218.84917956 417.94945993 227.2727355 418.01429416 235.69819804 418.13632513 C241.48086421 418.21579765 247.26211249 418.23954151 253.04528473 418.22009879 C256.38116428 418.21051095 259.70838808 418.23311937 263.04406357 418.30566025 C276.03129667 419.12622259 276.03129667 419.12622259 287.89645362 414.97982335 C291.87304836 411.02835412 294.45092335 406.61469529 296.7109375 401.51757812 C296.7109375 401.18757813 296.7109375 400.85757812 296.7109375 400.51757812 C202.0009375 400.51757812 107.2909375 400.51757812 9.7109375 400.51757812 Z M315.7109375 403.51757812 C313.53252958 406.27936084 311.37032281 409.05340491 309.2109375 411.83007812 C308.59089844 412.61576172 307.97085937 413.40144531 307.33203125 414.2109375 C306.45224609 415.34692383 306.45224609 415.34692383 305.5546875 416.50585938 C304.73774414 417.55060425 304.73774414 417.55060425 303.90429688 418.61645508 C302.4451124 420.56695471 302.4451124 420.56695471 302.7109375 423.51757812 C304.95044516 425.45204363 304.95044516 425.45204363 307.890625 427.31054688 C309.50130859 428.37885742 309.50130859 428.37885742 311.14453125 429.46875 C311.70897949 429.83540771 312.27342773 430.20206543 312.85498047 430.57983398 C314.57911762 431.70064472 316.2920762 432.83706562 318.00390625 433.9765625 C322.98148709 437.81042907 322.98148709 437.81042907 328.7109375 439.51757812 C328.7109375 440.17757812 328.7109375 440.83757812 328.7109375 441.51757812 C327.99075439 441.78038574 327.27057129 442.04319336 326.52856445 442.31396484 C323.63209901 443.55125578 321.23739486 445.01506089 318.62890625 446.77539062 C317.69755859 447.40058594 316.76621094 448.02578125 315.80664062 448.66992188 C314.36708008 449.64638672 314.36708008 449.64638672 312.8984375 450.64257812 C311.91939453 451.30128906 310.94035156 451.96 309.93164062 452.63867188 C307.52190403 454.26083602 305.11515256 455.88724658 302.7109375 457.51757812 C303.32190133 460.77183108 304.42778049 462.79008897 306.43359375 465.40820312 C306.97177734 466.1171875 307.50996094 466.82617188 308.06445312 467.55664062 C308.62841797 468.28625 309.19238281 469.01585937 309.7734375 469.76757812 C310.34126953 470.51265625 310.90910156 471.25773437 311.49414062 472.02539062 C312.89406433 473.86058473 314.29976971 475.69102499 315.7109375 477.51757812 C324.86693203 474.8209496 333.3330421 470.66662775 341.9609375 466.64257812 C345.26316984 465.11013574 348.56698053 463.58111651 351.87109375 462.05273438 C352.69708572 461.67022018 353.5230777 461.28770599 354.37409973 460.89360046 C359.73831729 458.41414766 365.11927787 455.9760763 370.51953125 453.57617188 C371.19672211 453.27497437 371.87391296 452.97377686 372.57162476 452.66345215 C375.74511514 451.253659 378.92131145 449.85030909 382.10058594 448.45361328 C383.76976074 447.71377197 383.76976074 447.71377197 385.47265625 446.95898438 C386.44162842 446.53302979 387.41060059 446.1070752 388.40893555 445.66821289 C390.82930526 444.61010937 390.82930526 444.61010937 392.7109375 442.51757812 C392.93139986 440.02997107 392.93139986 440.02997107 391.7109375 437.51757812 C389.36743101 435.97237727 387.29414542 434.84172392 384.76171875 433.70117188 C384.04744217 433.36258652 383.33316559 433.02400116 382.59724426 432.67515564 C380.31134586 431.60043306 378.01361757 430.55580628 375.7109375 429.51757812 C374.98211365 429.18558411 374.25328979 428.85359009 373.50238037 428.51153564 C368.32070812 426.15586023 363.11215863 423.86371245 357.8984375 421.58007812 C354.73296419 420.18742938 351.56909437 418.79118662 348.40625 417.39257812 C347.64504349 417.056017 346.88383698 416.71945587 346.0995636 416.37269592 C339.35994892 413.3822343 332.68483139 410.26444622 326.0769043 406.99243164 C322.60941557 405.2980954 319.50027294 404.18975571 315.7109375 403.51757812 Z M9.7109375 432.51757812 C9.7109375 437.79757812 9.7109375 443.07757813 9.7109375 448.51757812 C44.81179312 448.67736577 79.91256468 448.80119694 115.01370775 448.87503543 C119.1604249 448.88379007 123.30714134 448.89285036 127.45385742 448.90209961 C128.2793723 448.90393578 129.10488718 448.90577196 129.95541766 448.90766377 C143.31117566 448.93809905 156.66672213 448.99327773 170.02235476 449.0576477 C183.73283513 449.12317537 197.44320494 449.16200371 211.15383548 449.17619759 C219.60991551 449.18578871 228.06539758 449.21604842 236.52129348 449.27299339 C242.3247465 449.31007817 248.1278917 449.32116024 253.93145452 449.31208777 C257.27717391 449.30761641 260.62101283 449.31818708 263.96668816 449.35201645 C267.60266527 449.38697269 271.23610784 449.37842703 274.87214661 449.35935974 C275.91789803 449.37974963 276.96364945 449.40013952 278.04109031 449.42114729 C285.98210405 449.30899045 291.65141871 446.68471057 297.7109375 441.51757812 C297.7109375 440.85757812 297.7109375 440.19757813 297.7109375 439.51757812 C290.49838854 433.36722246 284.163494 431.49463534 274.87214661 431.67579651 C273.73160393 431.66981553 272.59106125 431.66383456 271.41595668 431.65767235 C267.6213114 431.64620725 263.82886706 431.68453336 260.03442383 431.72290039 C257.30375818 431.72878334 254.57313442 431.7240716 251.84246826 431.71980286 C245.97762892 431.71614508 240.11333772 431.73797277 234.24863625 431.77746773 C225.76952369 431.83453165 217.29067424 431.85260552 208.81139048 431.86138367 C195.05208887 431.8766769 181.29307893 431.92318719 167.53393555 431.98950195 C154.17392427 432.05382578 140.81399243 432.10334001 127.45385742 432.13305664 C126.2170957 432.13581524 126.2170957 432.13581524 124.95534889 432.13862956 C120.81873863 432.1477653 116.6821278 432.15661114 112.54551661 432.16531289 C78.26711169 432.23779526 43.98906098 432.36153576 9.7109375 432.51757812 Z M9.7109375 464.51757812 C9.7109375 469.79757812 9.7109375 475.07757813 9.7109375 480.51757812 C104.4209375 480.51757812 199.1309375 480.51757812 296.7109375 480.51757812 C294.7309375 477.54757812 292.7509375 474.57757813 290.7109375 471.51757812 C289.99069806 470.19431487 289.27045862 468.87105162 288.52839375 467.50768948 C286.92690559 465.31784465 286.09715063 464.62358765 283.45663393 463.89880669 C280.49114908 463.62953332 277.60896177 463.61848964 274.63163757 463.67579651 C273.500305 463.66981553 272.36897242 463.66383456 271.20335704 463.65767235 C267.40391183 463.64612133 263.60661961 463.68467589 259.80737305 463.72290039 C257.08744433 463.72877063 254.36755798 463.72407592 251.64762878 463.71980286 C245.7875957 463.71613288 239.92810832 463.73808877 234.06821251 463.77746773 C225.59589255 463.8343653 217.12383637 463.85258856 208.65134607 463.86138367 C194.90535392 463.87670291 181.1596526 463.92328403 167.41381836 463.98950195 C154.0612941 464.05375828 140.70884884 464.10330561 127.35620117 464.13305664 C126.53310401 464.13489571 125.71000685 464.13673477 124.86196735 464.13862956 C120.73271735 464.14776485 116.6034668 464.1566108 112.47421587 464.16531289 C78.21957842 464.23787632 43.96529413 464.36168542 9.7109375 464.51757812 Z " fill="#000000" transform="translate(94.2890625,7.482421875)"/>
<path d="M0 0 C47.52 0 95.04 0 144 0 C144 15.84 144 31.68 144 48 C96.48 48 48.96 48 0 48 C0 32.16 0 16.32 0 0 Z " fill="#3498db" transform="translate(72,328)"/>
<path d="M0 0 C15.84 0 31.68 0 48 0 C48 26.4 48 52.8 48 80 C32.16 80 16.32 80 0 80 C0 53.6 0 27.2 0 0 Z " fill="#3498db" transform="translate(392,232)"/>
<path d="M0 0 C15.84 0 31.68 0 48 0 C48 15.84 48 31.68 48 48 C32.16 48 16.32 48 0 48 C0 32.16 0 16.32 0 0 Z " fill="#3498db" transform="translate(296,232)"/>
<path d="M0 0 C21.12 0 42.24 0 64 0 C64 10.13436867 64 10.13436867 63.37890625 14.40234375 C63.24806641 15.31177734 63.11722656 16.22121094 62.98242188 17.15820312 C62.77456055 18.53395508 62.77456055 18.53395508 62.5625 19.9375 C62.42779297 20.88173828 62.29308594 21.82597656 62.15429688 22.79882812 C61.1381079 29.72378419 61.1381079 29.72378419 60 32 C41.52 32 23.04 32 4 32 C1.28960438 20.25495233 0 11.74858205 0 0 Z " fill="#2980b9" transform="translate(144,216)"/>
<path d="M0 0 C18.48 0 36.96 0 56 0 C58.25197358 6.75592073 58.25197358 6.75592073 58.6328125 10.49609375 C58.71660156 11.30240234 58.80039063 12.10871094 58.88671875 12.93945312 C58.96535156 13.76380859 59.04398438 14.58816406 59.125 15.4375 C59.21136719 16.25798828 59.29773438 17.07847656 59.38671875 17.92382812 C59.86577634 22.68778972 60 27.166282 60 32 C38.88 32 17.76 32 -4 32 C-2.5 5 -2.5 5 0 0 Z " fill="#2980b9" transform="translate(148,168)"/>
<path d="M0 0 C15.84 0 31.68 0 48 0 C48 5.28 48 10.56 48 16 C32.16 16 16.32 16 0 16 C0 10.72 0 5.44 0 0 Z " fill="#000000" transform="translate(392,296)"/>
<path d="M0 0 C15.84 0 31.68 0 48 0 C48 5.28 48 10.56 48 16 C32.16 16 16.32 16 0 16 C0 10.72 0 5.44 0 0 Z " fill="#000000" transform="translate(296,296)"/>
<path d="M0 0 C15.84 0 31.68 0 48 0 C48 5.28 48 10.56 48 16 C32.16 16 16.32 16 0 16 C0 10.72 0 5.44 0 0 Z " fill="#3498db" transform="translate(392,280)"/>
<path d="M0 0 C15.84 0 31.68 0 48 0 C48 5.28 48 10.56 48 16 C32.16 16 16.32 16 0 16 C0 10.72 0 5.44 0 0 Z " fill="#000000" transform="translate(392,264)"/>
<path d="M0 0 C15.84 0 31.68 0 48 0 C48 5.28 48 10.56 48 16 C32.16 16 16.32 16 0 16 C0 10.72 0 5.44 0 0 Z " fill="#000000" transform="translate(392,232)"/>
<path d="M0 0 C5.28 0 10.56 0 16 0 C27 20.58907363 27 20.58907363 27 32 C19.08 32 11.16 32 3 32 C2.09292358 28.37169432 1.71822381 25.20061586 1.46484375 21.484375 C1.37783203 20.23398438 1.29082031 18.98359375 1.20117188 17.6953125 C1.11416016 16.39335937 1.02714844 15.09140625 0.9375 13.75 C0.84603105 12.41924825 0.75423771 11.08851876 0.66210938 9.7578125 C0.43821324 6.50542657 0.21868945 3.25274018 0 0 Z " fill="#2980b9" transform="translate(221,168)"/>
<path d="M0 0 C5.28 0 10.56 0 16 0 C15.73680879 3.91464978 15.47142364 7.82905504 15.20043945 11.74316406 C15.06407788 13.72704389 14.93143118 15.71117791 14.79882812 17.6953125 C14.71181641 18.94570312 14.62480469 20.19609375 14.53515625 21.484375 C14.456604 22.63647461 14.37805176 23.78857422 14.29711914 24.97558594 C14 28 14 28 13 32 C5.08 32 -2.84 32 -11 32 C-9.62933932 19.6640539 -6.18162166 10.6773465 0 0 Z " fill="#2980b9" transform="translate(115,168)"/>
<path d="M0 0 C7.92 0 15.84 0 24 0 C24.50422365 4.20786639 25.00353362 8.41621743 25.5 12.625 C25.64308594 13.81480469 25.78617188 15.00460938 25.93359375 16.23046875 C26.06894531 17.38417969 26.20429688 18.53789062 26.34375 19.7265625 C26.46943359 20.78439941 26.59511719 21.84223633 26.72460938 22.93212891 C26.9949763 25.94403568 27 28.97598269 27 32 C21.72 32 16.44 32 11 32 C0 11.41092637 0 11.41092637 0 0 Z " fill="#3498db" transform="translate(104,216)"/>
<path d="M0 0 C1.05445313 -0.00773438 2.10890625 -0.01546875 3.1953125 -0.0234375 C14.15308395 0.00402559 14.15308395 0.00402559 19 2.25 C20.77734375 5 20.77734375 5 21.9375 8.25 C22.33839844 9.3225 22.73929688 10.395 23.15234375 11.5 C24 14.25 24 14.25 24 16.25 C8.16 16.25 -7.68 16.25 -24 16.25 C-21 6.25 -21 6.25 -19 2.25 C-12.88788642 -0.37422268 -6.55873215 -0.04810806 0 0 Z " fill="#2980b9" transform="translate(176,135.75)"/>
<path d="M0 0 C15.84 0 31.68 0 48 0 C46.35 4.62 44.7 9.24 43 14 C35.11130649 16.25391243 35.11130649 16.25391243 30.3125 16.265625 C28.76949219 16.26949219 28.76949219 16.26949219 27.1953125 16.2734375 C25.61363281 16.26183594 25.61363281 16.26183594 24 16.25 C22.94554687 16.25773437 21.89109375 16.26546875 20.8046875 16.2734375 C19.77601563 16.27085937 18.74734375 16.26828125 17.6875 16.265625 C16.76324219 16.26336914 15.83898437 16.26111328 14.88671875 16.25878906 C12 16 12 16 5 14 C3.35 9.38 1.7 4.76 0 0 Z " fill="#3498db" transform="translate(152,264)"/>
<path d="M0 0 C7.92 0 15.84 0 24 0 C23.33668915 5.96979766 22.76443461 10.47143821 21 16 C16.71 16 12.42 16 8 16 C8 21.28 8 26.56 8 32 C4.37 32 0.74 32 -3 32 C-2.68887046 28.3540451 -2.37613591 24.70823945 -2.0625 21.0625 C-1.97548828 20.04091797 -1.88847656 19.01933594 -1.79882812 17.96679688 C-1.71181641 16.95810547 -1.62480469 15.94941406 -1.53515625 14.91015625 C-1.456604 13.99371338 -1.37805176 13.07727051 -1.29711914 12.13305664 C-0.91311585 8.08382551 -0.44916903 4.0425213 0 0 Z " fill="#3498db" transform="translate(224,216)"/>
<path d="M0 0 C2.5 1.5 2.5 1.5 4 4 C4.791013 8.02098277 4.62153384 10.96411027 2.5 14.5 C-1.03588973 16.62153384 -3.97901723 16.791013 -8 16 C-10.5 14.5 -10.5 14.5 -12 12 C-12.791013 7.97901723 -12.62153384 5.03588973 -10.5 1.5 C-6.96411027 -0.62153384 -4.02098277 -0.791013 0 0 Z " fill="#000000" transform="translate(308,40)"/>
<path d="M0 0 C2.5 1.5 2.5 1.5 4 4 C4.791013 8.02098277 4.62153384 10.96411027 2.5 14.5 C-1.03588973 16.62153384 -3.97901723 16.791013 -8 16 C-10.5 14.5 -10.5 14.5 -12 12 C-12.791013 7.97901723 -12.62153384 5.03588973 -10.5 1.5 C-6.96411027 -0.62153384 -4.02098277 -0.791013 0 0 Z " fill="#000000" transform="translate(196,40)"/>
</svg>
