<?xml version="1.0" encoding="UTF-8"?>
<svg version="1.1" xmlns="http://www.w3.org/2000/svg" width="512" height="512">
<path d="M0 0 C0.67958771 0.00054382 1.35917542 0.00108765 2.05935669 0.00164795 C36.28129327 0.12708206 65.96489455 13.37098308 90.3125 37.1875 C109.46113548 56.52378946 123.09085412 83.52841233 124.6875 110.9375 C124.79964844 112.76474609 124.79964844 112.76474609 124.9140625 114.62890625 C124.96304687 115.53511719 125.01203125 116.44132812 125.0625 117.375 C126.22265625 117.48585938 127.3828125 117.59671875 128.578125 117.7109375 C132.91303762 118.25804389 136.74884794 119.42837173 140.8125 121 C141.50714355 121.26796387 142.20178711 121.53592773 142.91748047 121.81201172 C165.35061769 130.73879981 182.05411477 147.66912654 192.20605469 169.38085938 C201.48994656 190.99740122 202.69689589 217.48243343 194.23291016 239.53662109 C190.16655869 249.58017861 184.9649106 258.01169085 178.0625 266.375 C176.886875 267.9528125 176.886875 267.9528125 175.6875 269.5625 C166.02335188 279.91694442 153.94445078 287.77848497 140.75 292.8125 C140.10458252 293.05959717 139.45916504 293.30669434 138.79418945 293.5612793 C134.04942926 295.26472898 130.26256547 295.72499182 125.0625 296.375 C125.0625 367.655 125.0625 438.935 125.0625 512.375 C4.9425 512.375 -115.1775 512.375 -238.9375 512.375 C-238.9375 439.775 -238.9375 367.175 -238.9375 292.375 C-240.5875 292.045 -242.2375 291.715 -243.9375 291.375 C-271.49060855 280.35375658 -291.5592892 261.37058107 -304.5234375 234.6796875 C-310.62955075 220.40959962 -313.32378236 206.11929664 -313.25 190.625 C-313.24436035 189.3865332 -313.2387207 188.14806641 -313.23291016 186.87207031 C-312.84131224 157.36652413 -299.96054737 130.94496445 -278.9375 110.375 C-262.64803797 95.88059382 -243.35926942 87.08367843 -221.9375 83.375 C-220.65875 83.148125 -219.38 82.92125 -218.0625 82.6875 C-209.96817699 81.86260084 -201.43843905 81.58509677 -193.4375 83.2109375 C-189.12826087 84.0654328 -185.3479164 84.67146025 -180.9375 84.375 C-177.85293225 82.03575721 -176.15047478 79.63399236 -174.03125 76.40625 C-167.18285507 66.49140957 -154.25408578 61.25625423 -142.9375 58.375 C-131.98575888 56.70269051 -122.59353718 57.94551974 -111.9375 60.375 C-110.27185524 60.71340276 -108.60562526 61.04904449 -106.9375 61.375 C-106.51082031 60.68277344 -106.08414063 59.99054687 -105.64453125 59.27734375 C-86.44724956 29.23458746 -58.12013349 9.82141897 -23.50854492 1.81298828 C-15.6796666 0.19302103 -7.97701954 -0.01081097 0 0 Z M-69.9375 44.375 C-70.45699219 44.84534668 -70.97648438 45.31569336 -71.51171875 45.80029297 C-83.27445338 56.58862054 -92.94538485 69.46778671 -98.9375 84.375 C-98.9375 85.365 -98.9375 86.355 -98.9375 87.375 C-99.44796875 87.08367187 -99.9584375 86.79234375 -100.484375 86.4921875 C-105.0048607 83.94340301 -109.56882573 81.49149894 -114.1875 79.125 C-115.16203125 78.62484375 -116.1365625 78.1246875 -117.140625 77.609375 C-125.82488925 73.77665502 -136.74449174 74.25850036 -145.6015625 77.33984375 C-157.92525678 82.80101262 -165.91772219 92.01569857 -170.9375 104.375 C-170.9375 105.035 -170.9375 105.695 -170.9375 106.375 C-171.68773437 106.10945313 -172.43796875 105.84390625 -173.2109375 105.5703125 C-174.23445313 105.21710938 -175.25796875 104.86390625 -176.3125 104.5 C-177.31023437 104.15195313 -178.30796875 103.80390625 -179.3359375 103.4453125 C-203.04274318 96.40012296 -227.06717006 99.85235668 -248.88671875 110.86328125 C-270.19131015 122.53207053 -284.86569442 141.16514134 -292.3125 164.1875 C-292.88038332 166.2429361 -293.42412229 168.30527723 -293.9375 170.375 C-294.27394531 171.67050781 -294.27394531 171.67050781 -294.6171875 172.9921875 C-299.441461 194.73446123 -294.58813868 218.90077669 -282.75 237.625 C-278.1867624 244.52833445 -272.77218843 250.53179378 -266.9375 256.375 C-266.20917969 257.11492187 -265.48085938 257.85484375 -264.73046875 258.6171875 C-260.43025543 262.71794751 -255.80555063 265.84532129 -250.6875 268.8125 C-250.09670654 269.15506836 -249.50591309 269.49763672 -248.8972168 269.85058594 C-245.42941357 271.77610735 -242.92975278 272.57654944 -238.9375 273.375 C-238.9375 237.735 -238.9375 202.095 -238.9375 165.375 C-118.8175 165.375 1.3025 165.375 125.0625 165.375 C125.0625 202.665 125.0625 239.955 125.0625 278.375 C137.36131474 275.64193006 147.66056964 270.81789921 157.0625 262.375 C157.88363281 261.64667969 158.70476562 260.91835938 159.55078125 260.16796875 C173.49049234 247.07437063 180.99369781 229.69997915 182.31640625 210.734375 C182.96038825 189.5452897 175.98883032 171.59011044 161.78515625 155.8515625 C147.40133682 140.71787571 128.69689017 133.55294747 108.0625 132.375 C108.09730469 131.38886719 108.09730469 131.38886719 108.1328125 130.3828125 C108.70704875 100.1123588 98.98073198 71.8094229 77.87646484 49.77416992 C72.06800874 43.89301039 66.12273325 38.72429227 59.0625 34.375 C57.91974609 33.61509766 57.91974609 33.61509766 56.75390625 32.83984375 C17.56680384 7.68030837 -35.8733043 13.42059745 -69.9375 44.375 Z M-221.9375 182.375 C-221.9375 198.545 -221.9375 214.715 -221.9375 231.375 C-137.7875 231.375 -53.6375 231.375 33.0625 231.375 C33.0625 215.205 33.0625 199.035 33.0625 182.375 C-51.0875 182.375 -135.2375 182.375 -221.9375 182.375 Z M51.0625 182.375 C51.0625 198.545 51.0625 214.715 51.0625 231.375 C69.8725 231.375 88.6825 231.375 108.0625 231.375 C108.0625 215.205 108.0625 199.035 108.0625 182.375 C89.2525 182.375 70.4425 182.375 51.0625 182.375 Z M-221.9375 248.375 C-221.9375 329.885 -221.9375 411.395 -221.9375 495.375 C-113.0375 495.375 -4.1375 495.375 108.0625 495.375 C108.0625 413.865 108.0625 332.355 108.0625 248.375 C-0.8375 248.375 -109.7375 248.375 -221.9375 248.375 Z " fill="#333333" transform="translate(312.9375,-0.37499999999999994)"/>
<path d="M0 0 C98.34 0 196.68 0 298 0 C298 49.17 298 98.34 298 149 C199.66 149 101.32 149 0 149 C0 99.83 0 50.66 0 0 Z " fill="#F9BA48" transform="translate(107,264)"/>
<path d="M0 0 C38.28 0 76.56 0 116 0 C116 27.39 116 54.78 116 83 C77.72 83 39.44 83 0 83 C0 55.61 0 28.22 0 0 Z " fill="#383633" transform="translate(140,297)"/>
<path d="M0 0 C33 0 66 0 100 0 C100 19.47 100 38.94 100 59 C67 59 34 59 0 59 C0 39.53 0 20.06 0 0 Z M17 17 C17 24.92 17 32.84 17 41 C38.78 41 60.56 41 83 41 C83 33.08 83 25.16 83 17 C61.22 17 39.44 17 17 17 Z " fill="#333333" transform="translate(206,429)"/>
<path d="M0 0 C27.06 0 54.12 0 82 0 C82 16.17 82 32.34 82 49 C54.94 49 27.88 49 0 49 C0 32.83 0 16.66 0 0 Z " fill="#F9BA48" transform="translate(157,314)"/>
<path d="M0 0 C27.39 0 54.78 0 83 0 C83 19.47 83 38.94 83 59 C55.61 59 28.22 59 0 59 C0 39.53 0 20.06 0 0 Z M17 17 C17 24.92 17 32.84 17 41 C33.17 41 49.34 41 66 41 C66 33.08 66 25.16 66 17 C49.83 17 33.66 17 17 17 Z " fill="#333333" transform="translate(322,429)"/>
<path d="M0 0 C27.39 0 54.78 0 83 0 C83 19.47 83 38.94 83 59 C55.61 59 28.22 59 0 59 C0 39.53 0 20.06 0 0 Z M17 17 C17 24.92 17 32.84 17 41 C33.17 41 49.34 41 66 41 C66 33.08 66 25.16 66 17 C49.83 17 33.66 17 17 17 Z " fill="#333333" transform="translate(107,429)"/>
<path d="M0 0 C33 0 66 0 100 0 C100 5.61 100 11.22 100 17 C67 17 34 17 0 17 C0 11.39 0 5.78 0 0 Z " fill="#3A3733" transform="translate(272,363)"/>
<path d="M0 0 C33 0 66 0 100 0 C100 5.61 100 11.22 100 17 C67 17 34 17 0 17 C0 11.39 0 5.78 0 0 Z " fill="#3A3733" transform="translate(272,330)"/>
<path d="M0 0 C33 0 66 0 100 0 C100 5.61 100 11.22 100 17 C67 17 34 17 0 17 C0 11.39 0 5.78 0 0 Z " fill="#3A3733" transform="translate(272,297)"/>
<path d="M0 0 C2.5 1.5 2.5 1.5 4 4 C4.7099846 8.9698922 4.79117716 10.84919686 1.9375 15 C-1.77807226 17.52975133 -3.5882483 17.7878128 -8 17 C-11.69186542 14.40783917 -12.82883761 12.95850936 -13.625 8.5 C-13 5 -13 5 -11 2.0625 C-6.84919686 -0.79117716 -4.9698922 -0.7099846 0 0 Z " fill="#323232" transform="translate(186,198)"/>
<path d="M0 0 C2.9375 1.5 2.9375 1.5 5 4 C5.79190864 8.98902441 5.80380719 10.83082591 2.9375 15 C-0.77807226 17.52975133 -2.5882483 17.7878128 -7 17 C-10.69186542 14.40783917 -11.82883761 12.95850936 -12.625 8.5 C-11.33615024 1.28244135 -7.03773356 -1.13106432 0 0 Z " fill="#323232" transform="translate(152,198)"/>
<path d="M0 0 C4.45850936 0.79616239 5.90783917 1.93313458 8.5 5.625 C9.125 9.125 9.125 9.125 8.5 12.625 C5.90783917 16.31686542 4.45850936 17.45383761 0 18.25 C-4.45850936 17.45383761 -5.90783917 16.31686542 -8.5 12.625 C-9.125 9.125 -9.125 9.125 -8.5 5.625 C-5.90783917 1.93313458 -4.45850936 0.79616239 0 0 Z " fill="#323232" transform="translate(115.5,197.375)"/>
</svg>
