<?xml version="1.0" encoding="UTF-8"?>
<svg version="1.1" xmlns="http://www.w3.org/2000/svg" width="512" height="512">
<path d="M0 0 C1.16847577 -0.00644889 2.33695155 -0.01289778 3.54083568 -0.0195421 C4.82039124 -0.01644489 6.09994681 -0.01334769 7.41827679 -0.01015663 C8.79457638 -0.01389362 10.17087385 -0.01849534 11.54716796 -0.02388728 C15.3285763 -0.03612671 19.10989623 -0.03585571 22.89131987 -0.03349853 C26.96982827 -0.0330906 31.04830823 -0.04412722 35.1268034 -0.05361366 C43.11721011 -0.07022984 51.10758732 -0.07572349 59.09800986 -0.07683842 C65.59286881 -0.07778861 72.08771802 -0.08189744 78.58257389 -0.08823967 C96.99524727 -0.10585382 115.40789734 -0.11507828 133.82057921 -0.11357872 C134.81330693 -0.11349881 135.80603465 -0.1134189 136.82884502 -0.11333656 C137.82278437 -0.1132548 138.81672371 -0.11317304 139.84078243 -0.1130888 C155.94968414 -0.11227587 172.05849235 -0.13141495 188.16736702 -0.1596133 C204.70643211 -0.18833632 221.24545159 -0.20215391 237.78454226 -0.20042574 C247.07055273 -0.19976164 256.35646518 -0.20526295 265.64245319 -0.22678185 C273.54873592 -0.24498599 281.45487621 -0.24934731 289.36117081 -0.235763 C293.3946021 -0.22922943 297.42776007 -0.22912999 301.46116543 -0.2464695 C305.15561294 -0.26218839 308.84957013 -0.25934912 312.5440056 -0.24190123 C314.50926676 -0.23737622 316.47454306 -0.252498 318.43974525 -0.26838052 C326.57744371 -0.2047511 332.13977236 0.70723405 338.43309307 6.22211266 C338.9719212 6.87308922 339.51074932 7.52406578 340.06590557 8.19476891 C340.62020245 8.84316734 341.17449932 9.49156578 341.74559307 10.15961266 C345.35459141 15.39753727 345.49396248 20.11314108 345.50975323 26.27020836 C345.51979885 27.16826698 345.52984447 28.06632561 345.54019451 28.99159813 C345.57101229 31.95124247 345.58805783 34.91079641 345.60496807 37.87055016 C345.62368084 39.92607462 345.64325433 41.98159142 345.66365337 44.03709984 C345.71496902 49.44078612 345.75459788 54.8444973 345.79179668 60.24829674 C345.8318398 65.76502197 345.88293077 71.28164367 345.93309307 76.79828453 C346.02984569 87.61787324 346.1142527 98.43752043 346.19090557 109.25726891 C347.84006466 109.97519867 347.84006466 109.97519867 349.52254009 110.70763206 C350.97891001 111.34286504 352.43525857 111.97814696 353.89158916 112.61347008 C354.61458706 112.92805923 355.33758495 113.24264839 356.08249187 113.56677055 C361.07747398 115.74739115 366.00519166 118.00334868 370.81590557 120.56976891 C371.51336895 120.94093834 372.21083233 121.31210777 372.92943096 121.69452477 C380.12987451 125.62330411 386.68382813 130.28174518 393.19090557 135.25726891 C394.07133526 135.92500328 394.95176495 136.59273766 395.85887432 137.28070641 C402.64375834 142.56622814 408.93434327 148.36618034 415.19090557 154.25726891 C415.90117901 154.91340172 416.61145245 155.56953453 417.34324932 156.24555016 C423.14890395 161.79000969 427.99222724 168.07088404 432.82371807 174.45892906 C434.08467924 176.11754335 435.37106637 177.75674537 436.65965557 179.39398766 C461.81033416 212.58798391 473.66695332 254.40478806 473.56590557 295.63226891 C473.56502941 296.5095565 473.56415325 297.3868441 473.56325054 298.29071617 C473.38332825 353.11160598 451.36987932 401.88094948 413.06590557 440.63226891 C407.73668743 445.89932866 402.1502115 450.71720869 396.19090557 455.25726891 C395.62935772 455.69474449 395.06780987 456.13222008 394.48924541 456.5829525 C359.8163996 483.37687606 317.35760836 496.73898877 273.81590557 496.63226891 C272.93861797 496.63139275 272.06133038 496.63051659 271.15745831 496.62961388 C228.07571072 496.48821948 185.97042982 483.15844412 151.81492901 456.52289391 C150.37148733 455.39799889 148.91121947 454.29476996 147.44871807 453.19476891 C111.5348168 425.24960561 87.39324214 384.31067612 77.19090557 340.25726891 C77.19090557 338.93726891 77.19090557 337.61726891 77.19090557 336.25726891 C76.16884014 336.26615135 75.14677471 336.2750338 74.0937376 336.28418541 C64.44250156 336.36541607 54.79133526 336.42530372 45.1398344 336.46451759 C40.17835986 336.48535593 35.2171622 336.51360486 30.25584698 336.55902672 C25.46421381 336.60261853 20.6728463 336.62643423 15.88103008 336.63677788 C14.05664675 336.64414535 12.23227728 336.6585323 10.40800762 336.68018913 C7.84443998 336.70940091 5.2819577 336.71321758 2.71824932 336.71137047 C1.59722569 336.73294212 1.59722569 336.73294212 0.45355511 336.75494957 C-6.03686087 336.70463948 -11.16478276 334.57449672 -16.05128193 330.29242516 C-16.59011005 329.64144859 -17.12893818 328.99047203 -17.68409443 328.31976891 C-18.2383913 327.67137047 -18.79268818 327.02297203 -19.36378193 326.35492516 C-22.12706436 322.34443147 -23.05888351 318.78547947 -23.06636333 313.94793034 C-23.07281223 312.89092322 -23.07926112 311.83391611 -23.08590543 310.74487847 C-23.08280823 309.58983325 -23.07971102 308.43478803 -23.07651997 307.24474144 C-23.08105108 306.01288103 -23.08558219 304.78102062 -23.09025061 303.5118311 C-23.10072376 300.09522772 -23.10221997 296.67883478 -23.09986186 293.26223028 C-23.09945374 289.57636212 -23.11049242 285.89052538 -23.119977 282.20467186 C-23.13658901 274.98429563 -23.14208664 267.76395206 -23.14320175 260.54355832 C-23.14415215 254.67417576 -23.14826201 248.80480396 -23.154603 242.9354248 C-23.17221609 226.2935518 -23.18144179 209.6517046 -23.17994206 193.00982221 C-23.17986214 192.11267835 -23.17978223 191.21553449 -23.1796999 190.29120445 C-23.17961814 189.39296478 -23.17953638 188.49472511 -23.17945214 187.56926606 C-23.17863925 173.01232641 -23.19777735 158.45549023 -23.22597663 143.89858051 C-23.25470497 128.95057217 -23.26851695 114.0026143 -23.26678908 99.05457765 C-23.26612515 90.66282457 -23.27161858 82.27117996 -23.29314518 73.87945175 C-23.31135635 66.73439867 -23.3157049 59.58950323 -23.30212633 52.44443699 C-23.29559624 48.79984621 -23.29548056 45.15555787 -23.31283283 41.51099586 C-23.33146244 37.55743965 -23.31900992 33.60432502 -23.30357075 29.6507473 C-23.31385787 28.50239424 -23.324145 27.35404119 -23.33474386 26.17088956 C-23.26763687 18.40172946 -22.10667766 13.02031617 -16.84425068 7.01508141 C-16.19327412 6.47625328 -15.54229755 5.93742516 -14.87159443 5.38226891 C-14.22319599 4.82797203 -13.57479755 4.27367516 -12.90675068 3.70258141 C-8.71032072 0.81118646 -5.05460286 0.00706201 0 0 Z M-4.80909443 19.25726891 C-10.38545394 33.19816769 -6.80909443 49.2424614 -6.80909443 64.25726891 C104.07090557 64.25726891 214.95090557 64.25726891 329.19090557 64.25726891 C331.12682693 40.4461579 331.12682693 40.4461579 326.19090557 18.25726891 C322.68667919 16.22001841 319.59755102 16.00638139 315.59486771 16.00279331 C314.47392607 15.99696112 313.35298444 15.99112893 312.19807488 15.98512 C310.35840508 15.99078898 310.35840508 15.99078898 308.48157024 15.99657249 C307.17479476 15.99274695 305.86801927 15.9889214 304.52164453 15.98497993 C300.89599118 15.97468457 297.27043654 15.97688564 293.64477503 15.98116052 C289.73399861 15.98362495 285.82324613 15.97461713 281.91247845 15.96712303 C274.2516061 15.95436629 266.59076878 15.95258354 258.9298876 15.95492329 C252.70389053 15.95670546 246.4779041 15.954959 240.2519083 15.95069885 C239.36620249 15.95010366 238.48049668 15.94950847 237.5679513 15.94889525 C235.76871336 15.94768351 233.96947542 15.94646938 232.17023747 15.94525287 C215.29278388 15.93437366 198.41535027 15.93654168 181.53789555 15.94263772 C166.09370994 15.94780771 150.64958738 15.93654995 135.20541424 15.9175395 C119.35114702 15.89817369 103.49690965 15.88990286 87.64263052 15.89366275 C78.74011754 15.89557665 69.83765825 15.8930689 60.93515491 15.87894821 C53.35674631 15.86704948 45.77842443 15.86561257 38.20001466 15.87773838 C34.33294637 15.88363759 30.46603683 15.88469786 26.598979 15.87273598 C22.40826764 15.85992349 18.21793603 15.87031674 14.02722454 15.8830471 C12.19090083 15.87198568 12.19090083 15.87198568 10.31747967 15.86070079 C2.26532634 15.78767967 2.26532634 15.78767967 -4.80909443 19.25726891 Z M-6.80909443 80.25726891 C-6.87096943 118.41351891 -6.93284443 156.56976891 -6.99659443 195.88226891 C-7.02390644 207.93967613 -7.05121845 219.99708336 -7.0793581 232.41986656 C-7.08939008 243.20799699 -7.08939008 243.20799699 -7.09542561 253.99612999 C-7.09822574 258.80924167 -7.10948876 263.62225454 -7.12582111 268.43533897 C-7.14636669 274.5711273 -7.15257376 280.70677151 -7.14831126 286.84259105 C-7.14920285 289.09667604 -7.15517042 291.35076597 -7.16673982 293.60482144 C-7.18162704 296.64610578 -7.17807735 299.68682779 -7.16985798 302.72812462 C-7.17859597 303.61309309 -7.18733397 304.49806156 -7.19633675 305.40984726 C-7.16012012 310.38426121 -6.78039602 314.05844474 -3.80909443 318.25726891 C-0.19397275 320.08260832 2.7663177 320.50814033 6.78694344 320.5117445 C7.90788507 320.51757669 9.0288267 320.52340889 10.18373626 320.52941781 C11.41018279 320.52563849 12.63662932 320.52185917 13.9002409 320.51796532 C15.20701638 320.52179086 16.51379187 320.52561641 17.86016661 320.52955788 C21.48581996 320.53985325 25.1113746 320.53765217 28.73703611 320.53337729 C32.64781253 320.53091287 36.55856501 320.53992068 40.4693327 320.54741478 C48.13020504 320.56017153 55.79104236 320.56195427 63.45192354 320.55961452 C69.67792061 320.55783235 75.90390704 320.55957881 82.12990284 320.56383896 C83.01560865 320.56443415 83.90131446 320.56502934 84.81385984 320.56564256 C86.61309778 320.5668543 88.41233573 320.56806843 90.21157367 320.56928494 C107.08902726 320.58016415 123.96646087 320.57799613 140.84391559 320.57190009 C156.2881012 320.5667301 171.73222376 320.57798786 187.1763969 320.59699831 C203.03066412 320.61636412 218.88490149 320.62463495 234.73918062 320.62087506 C243.6416936 320.61896117 252.54415289 320.62146891 261.44665623 320.6355896 C269.02506484 320.64748833 276.60338672 320.64892524 284.18179648 320.63679943 C288.04886478 320.63090023 291.91577432 320.62983995 295.78283215 320.64180183 C299.9735435 320.65461432 304.16387512 320.64422107 308.3545866 320.63149071 C310.19091031 320.64255213 310.19091031 320.64255213 312.06433147 320.65383703 C320.1164848 320.72685814 320.1164848 320.72685814 327.19090557 317.25726891 C329.98903282 312.93767333 329.46406569 307.82497085 329.4314146 302.84837914 C329.43312664 301.89901482 329.43483868 300.9496505 329.43660259 299.97151756 C329.43991447 296.77852447 329.42886342 293.5857409 329.41795635 290.39276695 C329.41734375 288.06930263 329.41761056 285.74583793 329.41868687 283.42237377 C329.41913879 277.19460061 329.40753861 270.96690414 329.393466 264.73914909 C329.38208464 258.89740822 329.38154022 253.0556861 329.38011456 247.21393394 C329.3696157 230.12420209 329.34169345 213.03448453 329.31590557 195.94476891 C329.27465557 157.76789391 329.23340557 119.59101891 329.19090557 80.25726891 C218.31090557 80.25726891 107.43090557 80.25726891 -6.80909443 80.25726891 Z M345.19090557 128.25726891 C345.19090557 133.53726891 345.19090557 138.81726891 345.19090557 144.25726891 C347.41840557 145.41226891 349.64590557 146.56726891 351.94090557 147.75726891 C369.66220623 157.12834982 395.75443281 173.38432338 405.19090557 192.25726891 C411.13090557 192.25726891 417.07090557 192.25726891 423.19090557 192.25726891 C421.35542489 187.66856721 419.36302232 184.75178436 416.19090557 181.13226891 C415.70323711 180.5674984 415.21556866 180.00272789 414.71312237 179.42084312 C413.21397352 177.69223025 411.70397287 175.97370279 410.19090557 174.25726891 C409.74053936 173.74228844 409.29017315 173.22730797 408.82615948 172.69672203 C396.0773449 158.15667273 380.94359004 146.25982122 364.19090557 136.63226891 C363.33150372 136.13573814 362.47210186 135.63920738 361.58665752 135.12763023 C356.24776162 132.14250229 351.04995447 130.01734609 345.19090557 128.25726891 Z M417.19090557 208.25726891 C418.34590557 210.48476891 419.50090557 212.71226891 420.69090557 215.00726891 C432.6403023 238.72294881 438.40858811 261.92704517 441.19090557 288.25726891 C446.14090557 288.25726891 451.09090557 288.25726891 456.19090557 288.25726891 C456.70985194 260.8896762 447.85530517 231.78505554 434.19090557 208.25726891 C428.58090557 208.25726891 422.97090557 208.25726891 417.19090557 208.25726891 Z M441.19090557 304.25726891 C441.04395245 305.72293297 440.89699932 307.18859703 440.74559307 308.69867516 C437.78284164 336.17584236 429.80339265 359.82057519 417.19090557 384.25726891 C422.80090557 384.25726891 428.41090557 384.25726891 434.19090557 384.25726891 C447.09153449 359.58764518 456.95330392 332.46600795 456.19090557 304.25726891 C451.24090557 304.25726891 446.29090557 304.25726891 441.19090557 304.25726891 Z M94.19090557 336.25726891 C98.079407 353.45816934 104.08564655 368.60573424 112.19090557 384.25726891 C117.80090557 384.25726891 123.41090557 384.25726891 129.19090557 384.25726891 C127.99465557 381.92664391 126.79840557 379.59601891 125.56590557 377.19476891 C119.8832533 365.90930615 115.35054357 354.37956546 111.75072002 342.27094078 C110.96941183 338.99819455 110.96941183 338.99819455 109.19090557 336.25726891 C106.66041155 336.18413324 104.1578572 336.16479364 101.62840557 336.19476891 C100.9174876 336.19928062 100.20656963 336.20379234 99.4741087 336.20844078 C97.71300544 336.22026027 95.95194521 336.23819627 94.19090557 336.25726891 Z M122.19090557 400.25726891 C143.3425825 434.57819019 181.47255543 461.67977875 220.19090557 472.25726891 C220.85090557 471.92726891 221.51090557 471.59726891 222.19090557 471.25726891 C221.52703838 470.48383141 220.8631712 469.71039391 220.17918682 468.91351891 C219.28698926 467.86166494 218.39507762 466.8095684 217.50340557 465.75726891 C216.85081768 464.99930016 216.85081768 464.99930016 216.1850462 464.22601891 C213.74320013 461.33197913 211.81267177 458.56904869 210.04246807 455.21820641 C206.7899598 449.88722871 201.74932934 447.94629552 196.25340557 445.38226891 C179.72378158 437.20457721 156.02746788 423.51981231 146.82371807 406.76898766 C145.12987389 403.82536115 144.02344609 402.17903871 141.19090557 400.25726891 C134.93594804 399.12527139 128.48516646 399.7479431 122.19090557 400.25726891 Z M398.13621807 408.18695641 C397.17328838 409.70676109 397.17328838 409.70676109 396.19090557 411.25726891 C384.67088315 424.37175809 369.42785981 435.80477237 353.72996807 443.47601891 C342.58195955 449.01607103 336.11156125 455.04732943 329.35594463 465.50580406 C327.77888138 467.87668667 326.01052782 470.06949052 324.19090557 472.25726891 C331.57873671 470.41715089 338.52808173 468.11637897 345.50340557 465.06976891 C346.41638409 464.67249596 347.3293626 464.27522301 348.27000713 463.86591148 C366.10544687 455.96893239 382.49076865 445.24596757 396.57762432 431.72992516 C398.46074936 429.94813419 400.32829755 428.28996617 402.32762432 426.65180016 C408.62302732 421.38702248 413.49944383 414.69002054 418.62840557 408.31976891 C419.17319561 407.64446129 419.71798565 406.96915367 420.27928448 406.27338219 C422.9476337 403.55252738 422.9476337 403.55252738 424.19090557 400.25726891 C408.90144075 398.45983724 408.90144075 398.45983724 398.13621807 408.18695641 Z M236.19090557 461.25726891 C242.48166632 470.69341004 255.18691673 477.36264199 266.14012432 479.66742516 C279.11158335 481.69348788 290.54694547 477.09351903 301.03856182 469.84711266 C304.25474708 467.47145494 307.24003727 464.95699948 310.19090557 462.25726891 C310.19090557 461.92726891 310.19090557 461.59726891 310.19090557 461.25726891 C308.52408026 461.40127771 306.85745372 461.54758734 305.19090557 461.69476891 C303.79871807 461.81658531 303.79871807 461.81658531 302.37840557 461.94086266 C300.08107652 462.16890635 297.78886997 462.45082591 295.50194073 462.76654625 C291.34387639 463.28830867 287.21448651 463.41860166 283.02684307 463.42523766 C281.89504116 463.43023026 281.89504116 463.43023026 280.74037457 463.43532372 C279.15211368 463.44035329 277.56384238 463.44273328 275.97557354 463.44257164 C273.59273821 463.44474444 271.21037724 463.46290496 268.82762432 463.48187828 C260.41374196 463.51173491 252.40652952 463.10942392 244.09569073 461.68817711 C241.40673964 461.28928665 238.90336963 461.17804316 236.19090557 461.25726891 Z " fill="#000000" transform="translate(30.809094429016113,7.742731094360352)"/>
<path d="M0 0 C52.8 0 105.6 0 160 0 C160 31.68 160 63.36 160 96 C107.2 96 54.4 96 0 96 C0 64.32 0 32.64 0 0 Z " fill="#3498db" transform="translate(40,104)"/>
<path d="M0 0 C42.24 0 84.48 0 128 0 C128 26.4 128 52.8 128 80 C85.76 80 43.52 80 0 80 C0 53.6 0 27.2 0 0 Z " fill="#3498db" transform="translate(216,104)"/>
<path d="M0 0 C5.28 0 10.56 0 16 0 C16.19434736 10.04847809 15.48634487 19.79229493 14.3125 29.75 C14.22518616 30.50825073 14.13787231 31.26650146 14.0479126 32.04772949 C12.16478879 48.26770255 9.49085089 64.28202189 5 80 C-45.82 80 -96.64 80 -149 80 C-154.77183735 58.06701807 -154.77183735 58.06701807 -156.3125 47.5625 C-156.56483398 45.9527832 -156.56483398 45.9527832 -156.82226562 44.31054688 C-157.46286827 40.13486353 -158 36.23395307 -158 32 C-157.29800287 31.99853344 -156.59600574 31.99706688 -155.87273598 31.99555588 C-138.76143961 31.95844254 -121.65035868 31.89936803 -104.53922462 31.81609726 C-96.2642651 31.77635249 -87.98940004 31.7439369 -79.71435547 31.72900391 C-72.49860604 31.71596365 -65.28306487 31.68893874 -58.06743276 31.64538693 C-54.24967322 31.62282517 -50.43217004 31.60708612 -46.61433792 31.60811615 C-43.01414661 31.60886592 -39.41452086 31.59078972 -35.81447601 31.55883217 C-33.87697777 31.54637273 -31.93938429 31.55337246 -30.00186157 31.56114197 C-22.06981671 31.46721308 -14.29181602 30.7774226 -8.09566689 25.32390976 C-0.96672265 17.71490514 -0.51911035 10.07074079 0 0 Z " fill="#3498db" transform="translate(376,312)"/>
<path d="M0 0 C47.52 0 95.04 0 144 0 C138.16774892 17.49675325 138.16774892 17.49675325 134.125 25.75 C133.69082764 26.64686523 133.25665527 27.54373047 132.80932617 28.46777344 C127.92472702 38.40848789 122.18233389 47.54527129 115 56 C114.10087891 57.06347656 114.10087891 57.06347656 113.18359375 58.1484375 C110.43788 60.47664558 108.26208903 60.96760497 104.75 61.6875 C103.67234375 61.91824219 102.5946875 62.14898437 101.484375 62.38671875 C94.96826081 63.53361329 88.62626141 64.16083302 82.01171875 64.203125 C80.90592972 64.21351051 80.90592972 64.21351051 79.77780151 64.22410583 C77.41431293 64.24127896 75.05104801 64.24769071 72.6875 64.25 C71.48237259 64.25200912 71.48237259 64.25200912 70.25289917 64.25405884 C38.218085 64.24245188 38.218085 64.24245188 30 58 C28.18099172 55.98859661 26.58697993 54.05558086 25 51.875 C24.53505127 51.2368335 24.07010254 50.59866699 23.59106445 49.94116211 C14.87792208 37.5055373 0 15.82684774 0 0 Z " fill="#3498db" transform="translate(232,408)"/>
<path d="M0 0 C7.01011622 -0.25391045 14.01904562 -0.42880663 21.03271484 -0.54931641 C23.41728009 -0.59955531 25.80153803 -0.66776266 28.18505859 -0.75439453 C31.61632971 -0.87596937 35.04352831 -0.93245546 38.4765625 -0.9765625 C40.07064438 -1.05398178 40.07064438 -1.05398178 41.69692993 -1.13296509 C44.76995433 -1.13528482 47.10171435 -1.03232401 50 0 C52.76414578 3.02282913 54.37237122 6.26830457 56 10 C56.63121208 11.21053504 57.26610307 12.41916598 57.90625 13.625 C65.25409332 29.18513879 69.98408621 45.06762337 73 62 C73.19980469 63.10988281 73.39960938 64.21976562 73.60546875 65.36328125 C74.13186305 70.21549005 74 75.11932165 74 80 C52.88 80 31.76 80 10 80 C9.5875 74.575625 9.175 69.15125 8.75 63.5625 C7.20825229 44.40845003 4.5807931 25.5835596 0.515625 6.79296875 C0 4 0 4 0 0 Z " fill="#3498db" transform="translate(398,216)"/>
<path d="M0 0 C21.12 0 42.24 0 64 0 C64 7.67067137 63.73707523 14.23484894 62.3125 21.625 C62.13170898 22.57793945 61.95091797 23.53087891 61.76464844 24.51269531 C58.96038208 38.78244594 54.94842518 52.66773204 48.14770508 65.59912109 C46.8849886 68.07278686 46.8849886 68.07278686 46.0769043 71.18603516 C44.54682656 75.25443955 43.41277424 77.25420754 40 80 C31.80071506 82.09169451 22.92821922 81.11620534 14.5625 80.75 C12.18568055 80.68978228 9.80871581 80.63503372 7.43164062 80.5859375 C1.6179177 80.45393978 -4.19037173 80.25343164 -10 80 C-9.43815596 75.8763187 -8.79709654 71.81273831 -7.9140625 67.74609375 C-4.22134261 49.90416915 -2.59275795 32.17261488 -1.44302368 14.01034546 C-1.1346797 9.29154734 -0.58897105 4.71176838 0 0 Z " fill="#3498db" transform="translate(408,312)"/>
<path d="M0 0 C5.28 0 10.56 0 16 0 C16.33 19.47 16.66 38.94 17 59 C18.48009135 49.48955977 18.48009135 49.48955977 19.93066406 39.97460938 C22.34529813 24.98694749 22.34529813 24.98694749 27.71875 19.125 C33.58394502 15.4206663 39.18795784 14.88297158 46 16 C50.88410368 17.72846526 53.26341557 19.84170693 56.046875 24.21875 C59.05900868 30.56865344 59.71461356 37.61623995 60.75 44.5 C61.4925 49.285 62.235 54.07 63 59 C63.33 39.53 63.66 20.06 64 0 C69.28 0 74.56 0 80 0 C80.09053508 8.8755714 80.16385034 17.75083381 80.20724869 26.62676334 C80.22808259 30.74866518 80.25632261 34.87023346 80.30175781 38.99194336 C80.34536665 42.97309565 80.36916865 46.95392803 80.37950897 50.93530083 C80.38687351 52.45070872 80.4012548 53.96610002 80.42292023 55.48137093 C80.62624964 70.29759906 80.62624964 70.29759906 76 76 C70.83660384 80.19525938 66.39555806 80.62951528 59.80859375 80.3828125 C54.66308119 79.68147699 52.13065363 77.4144084 48.9765625 73.46875 C46.47800908 69.08393689 45.70446166 65.06011771 44.875 60.125 C44.71032227 59.2069458 44.54564453 58.2888916 44.37597656 57.34301758 C42.96076286 49.26298808 41.87666246 41.15526786 41 33 C40.34 33 39.68 33 39 33 C38.85304688 34.36705078 38.85304688 34.36705078 38.703125 35.76171875 C37.76046313 43.92874616 36.57665272 52.03224916 35.125 60.125 C34.97579102 61.01276123 34.82658203 61.90052246 34.67285156 62.81518555 C33.46007188 69.33604644 31.40045623 73.71956658 26.5 78.375 C20.86246575 80.99242662 14.78436127 81.1400304 8.80859375 79.33984375 C5.19028136 77.53459502 2.72749405 74.97368937 0.81164551 71.44577026 C-1.10609636 65.66694688 -0.47686222 59.2540513 -0.390625 53.22265625 C-0.3831556 51.68567138 -0.37746597 50.14867692 -0.37347412 48.61167908 C-0.35827253 44.58537045 -0.31903923 40.55964794 -0.2746582 36.53356934 C-0.23358636 32.41764248 -0.2154378 28.30162002 -0.1953125 24.18554688 C-0.15253838 16.12340025 -0.08223463 8.06184078 0 0 Z " fill="#000000" transform="translate(248,216)"/>
<path d="M0 0 C5.28 0 10.56 0 16 0 C16.33 19.47 16.66 38.94 17 59 C18.48009135 49.48955977 18.48009135 49.48955977 19.93066406 39.97460938 C22.34529813 24.98694749 22.34529813 24.98694749 27.71875 19.125 C33.58394502 15.4206663 39.18795784 14.88297158 46 16 C50.88410368 17.72846526 53.26341557 19.84170693 56.046875 24.21875 C59.05900868 30.56865344 59.71461356 37.61623995 60.75 44.5 C61.4925 49.285 62.235 54.07 63 59 C63.33 39.53 63.66 20.06 64 0 C69.28 0 74.56 0 80 0 C80.09053508 8.8755714 80.16385034 17.75083381 80.20724869 26.62676334 C80.22808259 30.74866518 80.25632261 34.87023346 80.30175781 38.99194336 C80.34536665 42.97309565 80.36916865 46.95392803 80.37950897 50.93530083 C80.38687351 52.45070872 80.4012548 53.96610002 80.42292023 55.48137093 C80.62624964 70.29759906 80.62624964 70.29759906 76 76 C70.83660384 80.19525938 66.39555806 80.62951528 59.80859375 80.3828125 C54.66308119 79.68147699 52.13065363 77.4144084 48.9765625 73.46875 C46.47800908 69.08393689 45.70446166 65.06011771 44.875 60.125 C44.71032227 59.2069458 44.54564453 58.2888916 44.37597656 57.34301758 C42.96076286 49.26298808 41.87666246 41.15526786 41 33 C40.34 33 39.68 33 39 33 C38.85304688 34.36705078 38.85304688 34.36705078 38.703125 35.76171875 C37.76046313 43.92874616 36.57665272 52.03224916 35.125 60.125 C34.97579102 61.01276123 34.82658203 61.90052246 34.67285156 62.81518555 C33.46007188 69.33604644 31.40045623 73.71956658 26.5 78.375 C20.86246575 80.99242662 14.78436127 81.1400304 8.80859375 79.33984375 C5.19028136 77.53459502 2.72749405 74.97368937 0.81164551 71.44577026 C-1.10609636 65.66694688 -0.47686222 59.2540513 -0.390625 53.22265625 C-0.3831556 51.68567138 -0.37746597 50.14867692 -0.37347412 48.61167908 C-0.35827253 44.58537045 -0.31903923 40.55964794 -0.2746582 36.53356934 C-0.23358636 32.41764248 -0.2154378 28.30162002 -0.1953125 24.18554688 C-0.15253838 16.12340025 -0.08223463 8.06184078 0 0 Z " fill="#000000" transform="translate(152,216)"/>
<path d="M0 0 C5.28 0 10.56 0 16 0 C16.33 19.47 16.66 38.94 17 59 C18.48009135 49.48955977 18.48009135 49.48955977 19.93066406 39.97460938 C22.34529813 24.98694749 22.34529813 24.98694749 27.71875 19.125 C33.58394502 15.4206663 39.18795784 14.88297158 46 16 C50.88410368 17.72846526 53.26341557 19.84170693 56.046875 24.21875 C59.05900868 30.56865344 59.71461356 37.61623995 60.75 44.5 C61.4925 49.285 62.235 54.07 63 59 C63.33 39.53 63.66 20.06 64 0 C69.28 0 74.56 0 80 0 C80.09053508 8.8755714 80.16385034 17.75083381 80.20724869 26.62676334 C80.22808259 30.74866518 80.25632261 34.87023346 80.30175781 38.99194336 C80.34536665 42.97309565 80.36916865 46.95392803 80.37950897 50.93530083 C80.38687351 52.45070872 80.4012548 53.96610002 80.42292023 55.48137093 C80.62624964 70.29759906 80.62624964 70.29759906 76 76 C70.83660384 80.19525938 66.39555806 80.62951528 59.80859375 80.3828125 C54.66308119 79.68147699 52.13065363 77.4144084 48.9765625 73.46875 C46.47800908 69.08393689 45.70446166 65.06011771 44.875 60.125 C44.71032227 59.2069458 44.54564453 58.2888916 44.37597656 57.34301758 C42.96076286 49.26298808 41.87666246 41.15526786 41 33 C40.34 33 39.68 33 39 33 C38.85304688 34.36705078 38.85304688 34.36705078 38.703125 35.76171875 C37.76046313 43.92874616 36.57665272 52.03224916 35.125 60.125 C34.97579102 61.01276123 34.82658203 61.90052246 34.67285156 62.81518555 C33.46007188 69.33604644 31.40045623 73.71956658 26.5 78.375 C20.86246575 80.99242662 14.78436127 81.1400304 8.80859375 79.33984375 C5.19028136 77.53459502 2.72749405 74.97368937 0.81164551 71.44577026 C-1.10609636 65.66694688 -0.47686222 59.2540513 -0.390625 53.22265625 C-0.3831556 51.68567138 -0.37746597 50.14867692 -0.37347412 48.61167908 C-0.35827253 44.58537045 -0.31903923 40.55964794 -0.2746582 36.53356934 C-0.23358636 32.41764248 -0.2154378 28.30162002 -0.1953125 24.18554688 C-0.15253838 16.12340025 -0.08223463 8.06184078 0 0 Z " fill="#000000" transform="translate(56,216)"/>
<path d="M0 0 C20.46 0 40.92 0 62 0 C63.134375 6.435 64.26875 12.87 65.4375 19.5 C65.79384521 21.51544922 66.15019043 23.53089844 66.51733398 25.60742188 C66.8020763 27.22783723 67.08667244 28.84827827 67.37109375 30.46875 C67.59013367 31.70286621 67.59013367 31.70286621 67.81359863 32.96191406 C67.95559692 33.77305664 68.09759521 34.58419922 68.24389648 35.41992188 C68.36603012 36.11275269 68.48816376 36.8055835 68.61399841 37.51940918 C69.15583445 41.00145053 69.56290824 44.50326594 70 48 C53.5 48 37 48 20 48 C10.71148936 31.74510638 10.71148936 31.74510638 8.3125 25.6875 C7.92868164 24.77967773 7.92868164 24.77967773 7.53710938 23.85351562 C4.37623872 16.0711275 2.38918292 8.12322193 0 0 Z " fill="#3498db" transform="translate(140,344)"/>
<path d="M0 0 C42.24 0 84.48 0 128 0 C128 5.28 128 10.56 128 16 C85.76 16 43.52 16 0 16 C0 10.72 0 5.44 0 0 Z " fill="#000000" transform="translate(216,168)"/>
<path d="M0 0 C42.24 0 84.48 0 128 0 C128 5.28 128 10.56 128 16 C85.76 16 43.52 16 0 16 C0 10.72 0 5.44 0 0 Z " fill="#3498db" transform="translate(216,152)"/>
<path d="M0 0 C42.24 0 84.48 0 128 0 C128 5.28 128 10.56 128 16 C85.76 16 43.52 16 0 16 C0 10.72 0 5.44 0 0 Z " fill="#000000" transform="translate(216,136)"/>
<path d="M0 0 C31.68 0 63.36 0 96 0 C96 5.28 96 10.56 96 16 C64.32 16 32.64 16 0 16 C0 10.72 0 5.44 0 0 Z " fill="#000000" transform="translate(248,104)"/>
<path d="M0 0 C14.19 0 28.38 0 43 0 C47.21481481 10.53703704 47.21481481 10.53703704 49.078125 15.26171875 C53.45671364 26.24872356 58.20500842 36.68852817 64 47 C64.67702901 48.32810163 65.34908013 49.65890882 66 51 C41.59452241 43.67835672 13.82566418 22.25357004 0 1 C0 0.67 0 0.34 0 0 Z " fill="#2980b9" transform="translate(172,408)"/>
<path d="M0 0 C14.19 0 28.38 0 43 0 C41.00000599 3.99998803 38.63961177 6.84484876 35.625 10.0625 C35.0889917 10.63540771 34.5529834 11.20831543 34.00073242 11.79858398 C17.8999198 28.81809696 -0.03387246 40.63888617 -21 51 C-21 47.07718158 -19.58726717 45.27988256 -17.625 41.875 C-10.25690065 28.64411192 -5.30435153 14.14493741 0 0 Z " fill="#2980b9" transform="translate(393,408)"/>
<path d="M0 0 C5.16733111 1.48793259 9.47348691 3.77429703 14.0625 6.5 C14.80983398 6.94359863 15.55716797 7.38719727 16.32714844 7.84423828 C30.99056375 16.71056224 43.68336175 28.0904856 55.3125 40.625 C55.78703613 41.13401855 56.26157227 41.64303711 56.75048828 42.16748047 C60 45.75133924 60 45.75133924 60 48 C45.81 48 31.62 48 17 48 C11.875 34.75 11.875 34.75 10.30029297 30.65136719 C7.60257215 23.7333597 4.67060298 17.10740114 1.14257812 10.5703125 C-0.52552521 6.81779285 -0.46588123 4.0376373 0 0 Z " fill="#3498db" transform="translate(376,152)"/>
<path d="M0 0 C15.33925341 23.00888012 16.59192679 68.06733111 16 95 C10.72 95 5.44 95 0 95 C0 63.65 0 32.3 0 0 Z " fill="#2980b9" transform="translate(376,201)"/>
<path d="M0 0 C5.28 0 10.56 0 16 0 C16 5.28 16 10.56 16 16 C10.72 16 5.44 16 0 16 C0 10.72 0 5.44 0 0 Z " fill="#000000" transform="translate(304,360)"/>
<path d="M0 0 C5.28 0 10.56 0 16 0 C16 5.28 16 10.56 16 16 C10.72 16 5.44 16 0 16 C0 10.72 0 5.44 0 0 Z " fill="#000000" transform="translate(272,360)"/>
<path d="M0 0 C5.28 0 10.56 0 16 0 C16 5.28 16 10.56 16 16 C10.72 16 5.44 16 0 16 C0 10.72 0 5.44 0 0 Z " fill="#000000" transform="translate(240,360)"/>
<path d="M0 0 C5.28 0 10.56 0 16 0 C16 5.28 16 10.56 16 16 C10.72 16 5.44 16 0 16 C0 10.72 0 5.44 0 0 Z " fill="#000000" transform="translate(216,104)"/>
<path d="M0 0 C5.28 0 10.56 0 16 0 C16 5.28 16 10.56 16 16 C10.72 16 5.44 16 0 16 C0 10.72 0 5.44 0 0 Z " fill="#000000" transform="translate(104,40)"/>
<path d="M0 0 C5.28 0 10.56 0 16 0 C16 5.28 16 10.56 16 16 C10.72 16 5.44 16 0 16 C0 10.72 0 5.44 0 0 Z " fill="#000000" transform="translate(72,40)"/>
<path d="M0 0 C5.28 0 10.56 0 16 0 C16 5.28 16 10.56 16 16 C10.72 16 5.44 16 0 16 C0 10.72 0 5.44 0 0 Z " fill="#000000" transform="translate(40,40)"/>
</svg>
