<?xml version="1.0" encoding="UTF-8"?>
<svg version="1.1" xmlns="http://www.w3.org/2000/svg" width="512" height="512">
<path d="M0 0 C8.62925284 6.51681174 16.97859854 14.52002769 18.6875 25.6875 C19.3475 25.3575 20.0075 25.0275 20.6875 24.6875 C34.042931 23.78530588 44.95260521 24.79408061 55.609375 33.6875 C60.12869663 38.03692232 64.29720654 42.47422007 65.6875 48.6875 C66.27539307 48.66131592 66.86328613 48.63513184 67.46899414 48.6081543 C84.92222874 47.93589416 98.62292729 49.25683818 112.6875 60.6875 C113.52023438 61.31398438 114.35296875 61.94046875 115.2109375 62.5859375 C124.40880296 70.39106624 131.80688982 84.02800337 132.90869141 96.11376953 C133.38422133 107.08738127 133.58549767 117.62023095 128.6875 127.6875 C128.21699219 128.67234375 127.74648437 129.6571875 127.26171875 130.671875 C124.6484647 135.77683641 122.06117297 139.95701424 117.6875 143.6875 C125.65029317 143.65361577 131.6297133 141.97912879 137.6875 136.6875 C139.58947356 134.04681098 139.58947356 134.04681098 141.26171875 130.91796875 C141.59355667 130.32185791 141.92539459 129.72574707 142.26728821 129.11157227 C148.19832799 118.28657498 153.49840933 107.10819212 158.9230957 96.02441406 C160.42473756 92.96065516 161.93634889 89.90197653 163.44921875 86.84375 C163.90141281 85.91244263 164.35360687 84.98113525 164.81950378 84.02160645 C168.05557364 77.49911245 171.34527586 71.66656866 177.8125 67.875 C178.47507812 67.47667969 179.13765625 67.07835938 179.8203125 66.66796875 C186.54089954 63.13895757 196.49094233 63.53020188 203.71875 65.5234375 C210.97495829 68.86039748 215.42621107 74.11320459 219.625 80.75 C223.045025 90.17120095 221.16064499 99.52214606 217.27929688 108.32055664 C214.2458 114.73696084 210.98001248 121.02611314 207.6875 127.3125 C206.16647478 130.23032114 204.64891694 133.14993183 203.1328125 136.0703125 C202.75544952 136.79651794 202.37808655 137.52272339 201.98928833 138.27093506 C199.57978331 142.9221597 197.22963097 147.59839887 194.9296875 152.3046875 C194.35734375 153.47177246 193.785 154.63885742 193.1953125 155.84130859 C192.14247482 157.99893317 191.09758451 160.16046278 190.0625 162.32666016 C186.91854258 168.75371636 183.32071282 174.23691051 178.6875 179.6875 C177.97464844 180.53441406 177.26179688 181.38132813 176.52734375 182.25390625 C165.66843516 193.64795612 150.94392526 200.64066582 135.14039612 201.06282043 C131.36223475 201.08843327 127.58954146 201.02277506 123.8125 200.9375 C122.23830438 200.91737211 120.66408345 200.89913263 119.08984375 200.8828125 C115.28841988 200.83938751 111.4882522 200.77072348 107.6875 200.6875 C107.57269287 201.28248291 107.45788574 201.87746582 107.33959961 202.49047852 C105.29133928 213.04797471 103.19480642 223.59001714 100.796875 234.07421875 C100.63751968 234.77152603 100.47816437 235.46883331 100.3139801 236.18727112 C99.52626637 239.62385287 98.72969612 243.05816786 97.92358398 246.49047852 C97.63298096 247.74658936 97.34237793 249.0027002 97.04296875 250.296875 C96.78153076 251.41030273 96.52009277 252.52373047 96.25073242 253.67089844 C95.72065546 256.50992353 95.29944742 258.82411915 95.6875 261.6875 C97.15946371 263.365739 97.15946371 263.365739 99.28125 264.59765625 C100.05694336 265.10683594 100.83263672 265.61601562 101.63183594 266.140625 C102.47520508 266.67171875 103.31857422 267.2028125 104.1875 267.75 C105.93436469 268.89397612 107.67912183 270.04117626 109.421875 271.19140625 C110.30423828 271.77035645 111.18660156 272.34930664 112.09570312 272.94580078 C115.98101346 275.5567469 119.71486477 278.35127035 123.4375 281.1875 C124.68220976 282.13552421 125.92699775 283.08344573 127.171875 284.03125 C127.75235596 284.47605713 128.33283691 284.92086426 128.9309082 285.37915039 C130.72115756 286.71256892 132.55613578 287.96047884 134.40234375 289.21484375 C137.42799518 291.36292896 139.44100395 293.63016289 141.5 296.75 C142.06332031 297.58660156 142.62664062 298.42320312 143.20703125 299.28515625 C144.49855781 301.38090515 145.6047437 303.48033173 146.6875 305.6875 C152.77826513 287.685511 158.59428844 269.61252617 164.22940063 251.46350098 C165.52993121 247.27593609 166.83718288 243.09048492 168.14526367 238.90527344 C173.39168248 222.11402763 173.39168248 222.11402763 178.55537415 205.29719543 C179.62316952 201.7917942 180.70105948 198.28954677 181.78060913 194.78775024 C182.2507399 193.25183284 182.71551468 191.71426305 183.17422485 190.17489624 C187.79310637 174.67504393 194.69117349 159.96771368 209.2265625 151.515625 C215.30557863 148.26631447 220.92068989 146.37920253 227.6875 144.6875 C228.0175 97.1675 228.3475 49.6475 228.6875 0.6875 C252.79956123 0.6875 252.79956123 0.6875 260.62890625 4.140625 C261.54588791 4.50816391 262.46286957 4.87570282 263.40763855 5.25437927 C266.36961659 6.44954323 269.30846353 7.69298772 272.25 8.9375 C274.3574387 9.79668623 276.4665329 10.65182145 278.57714844 11.50317383 C283.00585465 13.29207963 287.42772356 15.09661087 291.84619141 16.91064453 C302.19440447 21.13662122 312.64165811 25.10647109 323.08370972 29.09338379 C327.37277237 30.73240465 331.65812327 32.38099574 335.9434967 34.02963257 C347.84819509 38.60843164 359.76518633 43.15479 371.6875 47.6875 C371.6875 48.3475 371.6875 49.0075 371.6875 49.6875 C358.66489533 54.88616942 345.51099986 59.63676137 332.27185059 64.25302124 C326.37548688 66.30907799 320.48244311 68.37458945 314.58984375 70.44140625 C313.37559723 70.86722488 312.16135071 71.29304352 310.91030884 71.73176575 C302.07421358 74.83588912 293.25386083 77.98184061 284.44140625 81.15234375 C283.2158049 81.59311249 281.99020355 82.03388123 280.72746277 82.48800659 C274.80634513 84.61891203 268.88708023 86.7548486 262.96948242 88.89550781 C260.8390518 89.66347207 258.70860047 90.43137891 256.578125 91.19921875 C255.60053726 91.55451157 254.62294952 91.90980438 253.61573792 92.27586365 C252.72708542 92.59563675 251.83843292 92.91540985 250.92285156 93.24487305 C249.76151703 93.66521065 249.76151703 93.66521065 248.57672119 94.09403992 C246.6875 94.6875 246.6875 94.6875 244.6875 94.6875 C244.6875 111.1875 244.6875 127.6875 244.6875 144.6875 C248.3175 145.3475 251.9475 146.0075 255.6875 146.6875 C267.42486316 150.70254556 278.48802189 159.73769108 284.29193115 170.77565002 C289.26916709 181.16063703 293.05834474 192.21336717 297.046875 203.00390625 C297.54924693 204.35861961 298.05179562 205.71326743 298.55450439 207.06785583 C299.6251689 209.95392747 300.69466111 212.84042955 301.76318359 215.72729492 C303.47692205 220.35732026 305.19334968 224.98634597 306.91015625 229.61523438 C309.01019014 235.27787904 311.10962965 240.94074333 313.20827484 246.60390282 C316.88981931 256.53829246 320.57610353 266.47091411 324.265625 276.40234375 C324.66478654 277.47682707 324.66478654 277.47682707 325.07201195 278.57301712 C326.41017845 282.17509251 327.74843769 285.77713343 329.08676147 289.37915039 C331.76782641 296.59508482 334.44844128 303.81118643 337.12890625 311.02734375 C337.39532236 311.74454967 337.66173847 312.4617556 337.9362278 313.20069504 C341.60844658 323.08670829 345.27820793 332.97363077 348.94613647 342.86123657 C350.99228834 348.37699671 353.03912849 353.89250137 355.08611107 359.40795326 C356.73203103 363.84295985 358.37716197 368.2782576 360.02130699 372.7139225 C360.79180679 374.79161348 361.56343157 376.86888432 362.33511353 378.94613647 C363.33142195 381.62908024 364.32171869 384.31413328 365.30770874 387.00088501 C367.47035406 392.87415789 369.66931532 398.71807896 372.08233166 404.49383259 C372.8787062 406.40256206 373.660692 408.31663245 374.43934631 410.23265076 C375.39275275 412.56192461 376.37349391 414.88034272 377.39060974 417.18251038 C380.38275733 424.58107895 380.95128482 430.71605004 380.81138611 438.6408844 C380.80244308 439.60975728 380.79350005 440.57863015 380.78428602 441.57686281 C380.76111073 443.94733374 380.72863181 446.31728414 380.6875 448.6875 C346.2065478 448.77910086 311.72562342 448.84956172 277.24457578 448.89176132 C273.17167662 448.89676401 269.0987777 448.90194131 265.02587891 448.90722656 C263.80964274 448.90880043 263.80964274 448.90880043 262.56883614 448.91040608 C249.44850578 448.92780055 236.32824569 448.95933294 223.20795698 448.99611118 C209.74042529 449.03354732 196.27293034 449.0557415 182.80534875 449.06385398 C174.49838082 449.06933622 166.19161153 449.08663715 157.88470475 449.11916587 C152.18455806 449.14034677 146.48451373 449.14669198 140.78433056 449.14150551 C137.49795453 449.13894924 134.21199697 449.14500745 130.92566681 449.1643219 C127.3555755 449.18427311 123.78632859 449.17941942 120.21621704 449.16851807 C119.18700752 449.18016943 118.157798 449.1918208 117.09740031 449.20382524 C107.96413358 449.12863446 99.99251701 446.71706778 93.21875 440.390625 C86.86887225 433.32800586 84.33225072 426.01839252 84.60668945 416.54589844 C84.63579017 414.90045636 84.66461133 413.25500931 84.69319153 411.60955811 C84.71171488 410.74428246 84.73023823 409.87900681 84.74932289 408.98751068 C84.83756424 404.37357949 84.85778258 399.75913985 84.88867188 395.14453125 C84.93031868 389.28616336 84.99232885 383.43056812 85.13647461 377.57373047 C85.25152424 372.82607911 85.29248176 368.08272514 85.28496361 363.33374786 C85.29541854 361.53302825 85.33248034 359.73224575 85.39751625 357.93267059 C86.00318404 348.31054094 86.00318404 348.31054094 82.13759995 339.91017151 C78.04437029 336.42428611 73.53121607 333.97418195 68.6875 331.6875 C67.07146298 334.63573075 66.20204744 337.33100327 65.52481079 340.618927 C65.31748825 341.61125839 65.11016571 342.60358978 64.89656067 343.62599182 C64.67626694 344.70863815 64.45597321 345.79128448 64.22900391 346.90673828 C63.99129776 348.05193436 63.75359161 349.19713043 63.50868225 350.37702942 C62.99284483 352.86521515 62.4795212 355.35392303 61.96840286 357.84308243 C61.15795455 361.78753994 60.3401991 365.73041123 59.51986694 369.67282104 C57.33556242 380.17745624 55.1631422 390.68454171 52.99705732 401.19294822 C51.57433453 408.09485837 50.14628456 414.99561889 48.70833719 421.89437473 C48.02666139 425.16658903 47.3497409 428.43962252 46.67918777 431.71414566 C45.92940091 435.37518109 45.16829499 439.03370012 44.40478516 442.69189453 C44.18853989 443.76239548 43.97229462 444.83289642 43.74949646 445.93583679 C41.29293438 457.57774431 37.81709576 466.69201551 28.6875 474.6875 C18.53386056 481.08487976 7.40446012 482.37171684 -4.3046875 480.109375 C-13.03607195 477.04083733 -20.20421473 470.51025035 -24.375 462.3125 C-31.90011207 445.44125229 -25.66786965 426.44482998 -21.3125 409.5 C-19.3325 401.641875 -17.3525 393.78375 -15.3125 385.6875 C-48.3125 385.3575 -81.3125 385.0275 -115.3125 384.6875 C-115.3125 347.7275 -115.3125 310.7675 -115.3125 272.6875 C-104.4225 272.6875 -93.5325 272.6875 -82.3125 272.6875 C-82.8075 271.2025 -82.8075 271.2025 -83.3125 269.6875 C-84.60039712 258.14033152 -82.4225721 250.60296787 -76.3125 240.6875 C-75.79171875 239.83542969 -75.2709375 238.98335937 -74.734375 238.10546875 C-71.62820758 233.04745289 -68.47623463 228.02009869 -65.296875 223.0078125 C-61.44729952 216.92983135 -57.71629388 210.78503865 -54 204.625 C-38.20585095 178.59845478 -38.20585095 178.59845478 -28.3125 168.6875 C-27.62929687 167.99269531 -26.94609375 167.29789063 -26.2421875 166.58203125 C-9.38728334 150.50456732 13.02142657 144.60811083 35.6875 143.6875 C35.25179687 143.26082031 34.81609375 142.83414063 34.3671875 142.39453125 C27.63048813 135.32245508 23.45707007 127.05579171 21.60864258 117.46630859 C21.43440262 116.5701181 21.26016266 115.67392761 21.0806427 114.75057983 C20.95090561 114.06976349 20.82116852 113.38894714 20.6875 112.6875 C18.76642929 112.70082367 18.76642929 112.70082367 16.80654907 112.7144165 C4.71304233 112.79564651 -7.38040875 112.8555347 -19.47412682 112.89474869 C-25.69103782 112.91558702 -31.90772786 112.94383652 -38.12451172 112.98925781 C-44.12862941 113.03284876 -50.13253509 113.05666533 -56.13679886 113.06700897 C-58.42284098 113.07437652 -60.70887204 113.0887635 -62.99482346 113.11042023 C-66.206924 113.13962968 -69.41815824 113.1434486 -72.63037109 113.14160156 C-73.56689514 113.15598267 -74.50341919 113.17036377 -75.46832275 113.18518066 C-84.34868504 113.1302425 -92.2179796 110.52047188 -98.78125 104.390625 C-106.17491291 96.16706115 -107.89440067 87.45304365 -107.625 76.67578125 C-107.15067365 68.29008669 -103.53780477 61.284563 -97.3125 55.6875 C-90.196929 50.3365906 -84.11226733 48.58832229 -75.3125 48.6875 C-75.35890625 47.52734375 -75.4053125 46.3671875 -75.453125 45.171875 C-75.91660331 28.74747245 -72.37767378 17.20070028 -61 4.9375 C-44.70456176 -10.48496833 -18.58433045 -12.3339951 0 0 Z M244.6875 17.6875 C244.6875 37.1575 244.6875 56.6275 244.6875 76.6875 C264.99699086 69.97210741 264.99699086 69.97210741 285.19140625 62.94140625 C286.25826157 62.55935532 287.32511688 62.17730438 288.42430115 61.78367615 C290.60904385 61.00004262 292.79322592 60.21484408 294.97680664 59.42797852 C298.33446612 58.21960177 301.69548152 57.02086901 305.05664062 55.82226562 C307.20593488 55.05005149 309.35503177 54.27728775 311.50390625 53.50390625 C312.50257217 53.14873428 313.5012381 52.79356232 314.53016663 52.42762756 C315.44390549 52.09645432 316.35764435 51.76528107 317.29907227 51.42407227 C318.10143814 51.13589127 318.90380402 50.84771027 319.73048401 50.55079651 C321.86672392 49.74931935 321.86672392 49.74931935 323.6875 47.6875 C316.9312331 45.1039728 310.17463655 42.52130956 303.41766357 39.93962955 C300.27715281 38.73968628 297.13677189 37.53940606 293.99658203 36.33862305 C290.35216217 34.94508233 286.70736138 33.55254167 283.0625 32.16015625 C281.44371948 31.54080956 281.44371948 31.54080956 279.79223633 30.90895081 C268.11014129 26.44838318 256.39684486 22.07850432 244.6875 17.6875 Z M44.875 80.9375 C37.78071935 90.75400462 36.53393472 100.90210626 37.6875 112.6875 C39.94507909 123.46777414 46.43206148 131.79859065 55.26171875 138.1796875 C65.23765899 144.38051348 76.4595243 145.41058289 87.83984375 143.02734375 C99.02459105 139.40367387 107.49005052 131.49872995 113.0078125 121.23046875 C117.05893851 111.78256299 117.2876898 100.51189536 114.125 90.75 C109.54841606 80.07663815 101.29836185 71.82658394 90.625 67.25 C73.20810611 61.60721951 56.48140211 67.16259814 44.875 80.9375 Z M182.6875 86.6875 C180.26095194 90.67554849 178.29038985 94.8583377 176.29296875 99.07421875 C175.69706213 100.29949016 175.09939775 101.52390809 174.50007629 102.74751282 C172.29125433 107.26604567 170.11145203 111.79839559 167.93548584 116.33282471 C166.09506369 120.1664873 164.24115736 123.99302497 162.36886024 127.8112278 C161.50677211 129.58266988 160.66421545 131.36357569 159.8223114 133.1446991 C155.18589497 142.61651256 149.31665039 151.83880413 139.375 156.25 C138.38886719 156.70503906 137.40273438 157.16007812 136.38671875 157.62890625 C132.72633978 159.06445285 129.56345053 159.81032065 125.63165283 159.83226013 C124.43382927 159.84260788 124.43382927 159.84260788 123.21180725 159.85316467 C121.91055153 159.85708473 121.91055153 159.85708473 120.58300781 159.86108398 C119.66202805 159.867771 118.74104828 159.87445801 117.79216003 159.88134766 C115.79132659 159.89539315 113.79047717 159.9072888 111.78961945 159.91729546 C108.6091798 159.9337565 105.4288559 159.95700296 102.24847412 159.98219299 C93.20493401 160.05278179 84.16134359 160.11269253 75.11767578 160.16430664 C69.58218452 160.19637624 64.04682205 160.23773139 58.51143646 160.28450203 C56.41462306 160.30037099 54.31777999 160.31276086 52.22092438 160.32140923 C26.08390089 160.43065717 2.85837703 162.77601382 -17.14453125 181.43359375 C-25.36609629 189.98105866 -31.15875335 200.19464811 -37.14453125 210.34375 C-40.27520642 215.64912458 -43.50008993 220.89205246 -46.75 226.125 C-47.28036865 226.98496582 -47.8107373 227.84493164 -48.35717773 228.73095703 C-51.19423505 233.32208822 -54.07632369 237.87706988 -57.0234375 242.3984375 C-57.92751343 243.8052478 -57.92751343 243.8052478 -58.84985352 245.24047852 C-60.00219644 247.03183213 -61.16861821 248.81423567 -62.35131836 250.58569336 C-65.76687444 255.93332396 -67.10495447 259.32701021 -66.3125 265.6875 C-64.75941356 268.79367288 -63.50106852 270.18729163 -60.2890625 271.5390625 C-55.7004052 272.83892105 -52.5618486 273.02302751 -48.08178711 270.91455078 C-44.46288239 268.40473774 -42.48245618 264.58831524 -40.25 260.875 C-39.69691162 259.98989746 -39.14382324 259.10479492 -38.57397461 258.19287109 C-37.40134059 256.31540481 -36.23588135 254.43344075 -35.07714844 252.54736328 C-32.79610814 248.8506137 -30.45716138 245.19252834 -28.1159668 241.53369141 C-23.91676737 234.97019725 -19.75085595 228.38564284 -15.59765625 221.79296875 C-12.19922164 216.404987 -8.773131 211.0357479 -5.3125 205.6875 C-4.90273926 205.05118652 -4.49297852 204.41487305 -4.07080078 203.75927734 C2.00188841 194.44098015 8.87650399 188.80305262 19.6875 185.6875 C23.01933537 185.22638509 26.32731935 185.09032744 29.6875 185 C30.55761719 184.96583984 31.42773438 184.93167969 32.32421875 184.89648438 C34.44488815 184.81492017 36.56616891 184.74951472 38.6875 184.6875 C38.56301483 185.3180127 38.43852966 185.94852539 38.31027222 186.59814453 C29.80831154 229.60626968 29.80831154 229.60626968 21.6875 272.6875 C23.9975 272.6875 26.3075 272.6875 28.6875 272.6875 C28.6875 309.6475 28.6875 346.6075 28.6875 384.6875 C20.1075 384.6875 11.5275 384.6875 2.6875 384.6875 C0.85014753 392.08801844 -0.98436788 399.48912379 -2.81176758 406.89208984 C-3.43381614 409.40844866 -4.05749599 411.92440482 -4.68286133 414.43994141 C-5.58327142 418.06307126 -6.47773736 421.68762534 -7.37109375 425.3125 C-7.6502916 426.43052002 -7.92948944 427.54854004 -8.21714783 428.70043945 C-10.74357692 438.99761939 -12.68000921 447.2019267 -7.625 456.9375 C-4.12111521 461.10428192 -1.01800884 463.2554262 4.3046875 464.10546875 C10.05135686 464.39996566 14.09336161 463.56970108 18.93359375 460.46484375 C25.32400596 453.98903628 26.37178873 445.33154518 28.12109375 436.77734375 C28.43788321 435.2735016 28.75574535 433.76988507 29.07460022 432.26647949 C29.92839313 428.22622668 30.76741748 424.18303799 31.60360718 420.13911057 C32.47593278 415.93283284 33.36165911 411.72937982 34.24609375 407.52563477 C35.69317506 400.6396612 37.13232977 393.7520759 38.56591797 386.86328125 C40.41416915 377.98382391 42.28135009 369.10845757 44.15672493 360.23469353 C45.50255754 353.8652687 46.84497793 347.49512327 48.1875 341.125 C48.40053331 340.1146274 48.40053331 340.1146274 48.61787033 339.08384323 C49.55051396 334.6594244 50.47932208 330.23421439 51.40625 325.80859375 C51.63981705 324.70076538 51.87338409 323.59293701 52.11402893 322.45153809 C52.42786781 320.94883362 52.42786781 320.94883362 52.74804688 319.41577148 C52.9307312 318.54500473 53.11341553 317.67423798 53.30163574 316.77708435 C53.74803021 314.71386071 53.74803021 314.71386071 53.6875 312.6875 C70.6530746 310.9269215 81.05977358 317.84133138 94.4453125 327.66699219 C98.060672 330.92490979 99.55822497 333.43971044 100.06604004 338.34124756 C100.08322559 339.77394629 100.08425629 341.20689682 100.07226562 342.63964844 C100.0776384 343.42571472 100.08301117 344.21178101 100.08854675 345.02166748 C100.09830656 346.7234629 100.10127434 348.42530799 100.09819031 350.1271286 C100.09369983 352.82703731 100.10774887 355.5262948 100.12658691 358.22613525 C100.16333378 363.96324624 100.17706391 369.7002887 100.1875 375.4375 C100.19960603 382.07494418 100.22131832 388.71207081 100.26750183 395.34937286 C100.28099923 397.99767281 100.27691364 400.64556386 100.27209473 403.29388428 C99.83346149 416.11692394 99.83346149 416.11692394 105.13928223 427.28265381 C109.84720293 431.38883838 113.0929796 432.04337274 119.1484375 431.96484375 C122.91210402 431.55373556 124.90540187 430.2046364 127.6875 427.6875 C132.80772234 421.18343378 132.83696781 415.48616705 132.83276367 407.55786133 C132.83612228 406.64660492 132.8394809 405.73534851 132.84294128 404.79647827 C132.85243014 401.78748201 132.85439358 398.77854154 132.85546875 395.76953125 C132.85868352 393.67071002 132.86204776 391.571889 132.86555481 389.47306824 C132.87154146 385.07245362 132.87339526 380.67185863 132.87280273 376.27124023 C132.87270131 370.65048741 132.88633492 365.02986148 132.90357494 359.40913868 C132.91473201 355.07237681 132.91672078 350.73564522 132.91619301 346.39887047 C132.91736825 344.32777152 132.92176429 342.25667167 132.92952538 340.18558693 C132.93939713 337.27833999 132.93641868 334.37136325 132.93041992 331.46411133 C132.93603943 330.61959915 132.94165894 329.77508698 132.94744873 328.90498352 C132.89615321 319.04984007 131.68928167 310.99344595 124.6875 303.6875 C122.4097743 301.60559387 120.01262064 299.78816736 117.5 298 C116.81583008 297.49944092 116.13166016 296.99888184 115.42675781 296.4831543 C109.2159502 291.9757828 102.87113643 287.65807658 96.51318359 283.36181641 C90.80013281 279.49305289 85.27638614 275.44627922 79.83984375 271.19921875 C77.85308968 269.4959142 77.85308968 269.4959142 75.6875 269.6875 C76.80743994 264.29060536 77.93304603 258.8949116 79.0625 253.5 C79.23579834 252.67213989 79.40909668 251.84427979 79.58764648 250.99133301 C83.09338878 234.27551252 86.78686843 217.60328782 90.53662109 200.94067383 C90.74680878 200.00328873 90.95699646 199.06590363 91.17355347 198.10011292 C91.56957054 196.33442325 91.96737106 194.56913235 92.36721802 192.80430603 C93.33183412 188.78578948 93.33183412 188.78578948 93.6875 184.6875 C94.74026123 184.69797363 95.79302246 184.70844727 96.87768555 184.71923828 C100.84558609 184.75589259 104.81347222 184.77856284 108.78149414 184.79736328 C110.48724905 184.80731874 112.19298736 184.82088799 113.89868164 184.83837891 C132.17531033 185.02087681 147.88647718 184.09865805 162.625 171.9375 C170.85635327 163.83661275 175.78881363 153.00166567 180.93359375 142.8046875 C181.42042979 141.84373861 181.42042979 141.84373861 181.91710091 140.86337662 C183.62877703 137.48453407 185.33381779 134.10244767 187.03295898 130.71728516 C188.77740726 127.24494108 190.54392511 123.78432517 192.31564236 120.32583427 C193.68758074 117.63800796 195.04321343 114.94219588 196.39460945 112.24399185 C197.03888053 110.96446518 197.6890914 109.68790983 198.34557915 108.414608 C201.9961044 101.31911408 204.83700145 95.74785959 203.6875 87.6875 C201.41622666 84.66340636 201.41622666 84.66340636 198.6875 82.6875 C198.3575 82.3575 198.0275 82.0275 197.6875 81.6875 C195.75943659 81.37094336 195.75943659 81.37094336 193.5 81.3125 C192.74332031 81.26351562 191.98664063 81.21453125 191.20703125 81.1640625 C187.43634256 81.94743038 185.18008919 83.86927719 182.6875 86.6875 Z M15.28930664 206.08154297 C10.62198251 211.33155182 6.81550469 216.84592494 3.125 222.8125 C1.90122425 224.76313539 0.67726037 226.71365277 -0.546875 228.6640625 C-1.16755859 229.65825195 -1.78824219 230.65244141 -2.42773438 231.67675781 C-5.46647819 236.53087552 -8.54698181 241.35823179 -11.625 246.1875 C-12.20467529 247.09999512 -12.78435059 248.01249023 -13.3815918 248.95263672 C-15.96517976 253.01799379 -18.55770792 257.07626499 -21.19140625 261.109375 C-21.61832764 261.76486328 -22.04524902 262.42035156 -22.48510742 263.09570312 C-23.59819309 264.80070176 -24.71682598 266.50207549 -25.8359375 268.203125 C-27.48280448 270.49237001 -27.48280448 270.49237001 -27.3125 272.6875 C-16.7525 272.6875 -6.1925 272.6875 4.6875 272.6875 C6.23559558 265.01006671 7.78311643 257.33255488 9.32526398 249.65393066 C10.04369356 246.07757284 10.76313774 242.50142625 11.48510742 238.92578125 C12.18145084 235.47684606 12.87491012 232.02734205 13.56643867 228.57743835 C13.95719451 226.63183614 14.35087504 224.68682206 14.74461365 222.74182129 C15.94662249 216.73291114 17.04534182 210.78301184 17.6875 204.6875 C16.4764576 204.56982417 16.4764576 204.56982417 15.28930664 206.08154297 Z M225.1953125 223.46484375 C216.52590781 235.52564769 212.47139444 250.77788256 207.9375 264.74853516 C200.71742041 286.9117352 200.71742041 286.9117352 191.6875 294.6875 C187.98023244 296.54113378 183.73345205 296.14740853 179.6875 295.6875 C176.07282737 293.7815817 173.51937692 291.56891413 170.6875 288.6875 C170.09869567 290.50251898 169.51023271 292.3176487 168.921875 294.1328125 C168.33684204 295.93250488 168.33684204 295.93250488 167.73999023 297.76855469 C166.8452579 300.53242808 165.96983923 303.30160762 165.10571289 306.07519531 C163.01274223 312.75027725 160.8892951 319.3524406 158.22015381 325.82275391 C147.9034568 350.93641253 147.4174433 375.33567985 147.60717773 402.08886719 C147.61195979 402.81044447 147.61674185 403.53202175 147.62166882 404.27546501 C147.64721769 407.69680893 147.69050479 411.1156635 147.76036072 414.53652954 C147.77869461 415.75601288 147.7970285 416.97549622 147.81591797 418.23193359 C147.83878876 419.28980072 147.86165955 420.34766785 147.88522339 421.43759155 C147.6875 424.6875 147.6875 424.6875 145.6875 432.6875 C217.6275 432.6875 289.5675 432.6875 363.6875 432.6875 C359.6063333 421.02702371 355.52991857 409.39408272 351.19750977 397.82885742 C350.88081329 396.9826181 350.56411682 396.13637878 350.23782349 395.26449585 C349.91184174 394.39346222 349.58585999 393.52242859 349.25 392.625 C348.55178187 390.75439529 347.85378935 388.88370634 347.15600586 387.01293945 C345.71427843 383.14826372 344.27160826 379.28394213 342.828125 375.41992188 C339.46188549 366.40750452 336.1055537 357.39140025 332.75 348.375 C332.42774445 347.50933411 332.10548889 346.64366821 331.77346802 345.75177002 C323.70591695 324.07807526 315.69499416 302.38344036 307.6875 280.6875 C305.27841734 283.01903171 303.57515321 285.32914345 301.8125 288.1875 C297.73161765 294.30882353 297.73161765 294.30882353 293.6875 295.6875 C288.92278773 296.31211774 284.99641784 296.20080111 280.5 294.4375 C270.16368393 284.33087985 266.25215584 268.68086817 261.9375 255.2890625 C255.91494505 234.71116217 255.91494505 234.71116217 242.875 218.3125 C235.50725307 216.20742945 230.17555903 217.53287472 225.1953125 223.46484375 Z M-93.3125 288.6875 C-88.00368421 301.95953947 -77.32198619 310.09405319 -64.83984375 316.2421875 C-51.94069244 321.52755404 -36.21166342 321.73674636 -23.12890625 316.94140625 C-10.62440632 311.37421557 -0.15279684 302.66934447 6.6875 290.6875 C6.6875 290.0275 6.6875 289.3675 6.6875 288.6875 C-26.3125 288.6875 -59.3125 288.6875 -93.3125 288.6875 Z M-99.3125 311.6875 C-99.3125 330.4975 -99.3125 349.3075 -99.3125 368.6875 C-62.3525 368.6875 -25.3925 368.6875 12.6875 368.6875 C12.6875 349.8775 12.6875 331.0675 12.6875 311.6875 C7.60445156 316.03338209 7.60445156 316.03338209 2.6875 320.5625 C-13.8563064 334.59519293 -34.37800183 337.34773282 -55.3125 335.6875 C-70.90241521 333.78217618 -84.06918467 325.74091124 -95.01953125 314.91015625 C-97.10404763 312.66613479 -97.10404763 312.66613479 -99.3125 311.6875 Z " fill="#000000" transform="translate(123.3125,23.3125)"/>
<path d="M0 0 C8.62925284 6.51681174 16.97859854 14.52002769 18.6875 25.6875 C19.3475 25.3575 20.0075 25.0275 20.6875 24.6875 C34.03797825 23.78564045 44.96305291 24.78755774 55.609375 33.69140625 C60.47920169 38.36900294 64.72620217 42.83825299 65.6875 49.6875 C64.429375 50.05875 63.17125 50.43 61.875 50.8125 C46.67981864 55.93313322 34.67843495 65.26329693 27.21875 79.48828125 C23.27057039 87.78634479 21.44201572 95.56330945 21.0625 104.6875 C21.00449219 105.84958984 21.00449219 105.84958984 20.9453125 107.03515625 C20.85228643 108.91893415 20.76886825 110.80318256 20.6875 112.6875 C7.30035099 112.78034715 -6.0867209 112.85133991 -19.47412682 112.89474869 C-25.69103782 112.91558702 -31.90772786 112.94383652 -38.12451172 112.98925781 C-44.12862941 113.03284876 -50.13253509 113.05666533 -56.13679886 113.06700897 C-58.42284098 113.07437652 -60.70887204 113.0887635 -62.99482346 113.11042023 C-66.206924 113.13962968 -69.41815824 113.1434486 -72.63037109 113.14160156 C-73.56689514 113.15598267 -74.50341919 113.17036377 -75.46832275 113.18518066 C-84.34868504 113.1302425 -92.2179796 110.52047188 -98.78125 104.390625 C-106.17491291 96.16706115 -107.89440067 87.45304365 -107.625 76.67578125 C-107.15067365 68.29008669 -103.53780477 61.284563 -97.3125 55.6875 C-90.196929 50.3365906 -84.11226733 48.58832229 -75.3125 48.6875 C-75.35890625 47.52734375 -75.4053125 46.3671875 -75.453125 45.171875 C-75.91660331 28.74747245 -72.37767378 17.20070028 -61 4.9375 C-44.70456176 -10.48496833 -18.58433045 -12.3339951 0 0 Z " fill="#3498db" transform="translate(123.3125,23.3125)"/>
<path d="M0 0 C17.05245936 11.30063775 21.69284787 34.31056035 28.31390381 52.43554688 C29.88765404 56.74085486 31.46794713 61.04376737 33.04748535 65.34695435 C33.94057236 67.78374749 34.83113032 70.22146907 35.71911621 72.66012573 C37.75260069 78.23587372 39.80455169 83.80145469 41.95100784 89.33466244 C42.6748681 91.20146386 43.3918997 93.07090849 44.10882568 94.94038391 C45.00246614 97.26561561 45.90857066 99.58610907 46.8291626 101.90080261 C49.01703477 107.62848893 50.50834986 111.64450767 48.75 117.625 C47.296875 120.390625 47.296875 120.390625 45.5 122.875 C44.91734375 123.70515625 44.3346875 124.5353125 43.734375 125.390625 C40.96438084 128.5095948 38.4306197 130.32936009 34.28515625 131.05859375 C28.57848431 131.06760903 25.04733872 130.73134589 20.75 126.625 C10.86489767 114.68738239 6.86672027 98.16684545 2.1875 83.6875 C-3.08758338 66.74182236 -3.08758338 66.74182236 -14 53.3125 C-18.89263832 51.81752718 -22.77957856 51.97801457 -27.375 54 C-37.61734487 63.35170618 -41.4098557 79.10779631 -45.70703125 91.88671875 C-45.92179108 92.52245316 -46.1365509 93.15818756 -46.3578186 93.81318665 C-47.42919948 96.98621449 -48.48702643 100.16185543 -49.52246094 103.34692383 C-53.15617285 114.21775399 -57.46780668 124.10353778 -67.25 130.625 C-72.22298692 131.36110478 -76.18855811 131.16537042 -80.6875 128.875 C-82.99859948 126.84574192 -84.65163757 125.23054563 -86.25 122.625 C-86.33058844 115.18020506 -82.56204895 107.17895437 -80.1680603 100.24853516 C-76.55015627 89.76386876 -73.17991982 79.24721733 -70.22753906 68.5534668 C-68.59943088 62.7035417 -66.64830937 57.04064603 -64.53125 51.34765625 C-62.90946807 46.63558864 -61.58368916 41.86259661 -60.25 37.0625 C-55.92159879 21.67688911 -51.77881264 7.33170193 -37.25 -1.375 C-25.21388272 -8.11774633 -11.6216809 -6.84771904 0 0 Z " fill="#3498db" transform="translate(380.25,189.375)"/>
<path d="M0 0 C5.28 0 10.56 0 16 0 C16 5.28 16 10.56 16 16 C10.72 16 5.44 16 0 16 C0 10.72 0 5.44 0 0 Z " fill="#000000" transform="translate(448,424)"/>
<path d="M0 0 C5.28 0 10.56 0 16 0 C16 5.28 16 10.56 16 16 C10.72 16 5.44 16 0 16 C0 10.72 0 5.44 0 0 Z " fill="#000000" transform="translate(416,424)"/>
<path d="M0 0 C5.28 0 10.56 0 16 0 C16 5.28 16 10.56 16 16 C10.72 16 5.44 16 0 16 C0 10.72 0 5.44 0 0 Z " fill="#000000" transform="translate(384,424)"/>
</svg>
