<?xml version="1.0" encoding="UTF-8"?>
<svg version="1.1" xmlns="http://www.w3.org/2000/svg" width="512" height="512">
<path d="M0 0 C1.69637352 -0.0098568 1.69637352 -0.0098568 3.42701721 -0.01991272 C7.16285271 -0.03959233 10.89864808 -0.05129744 14.63452148 -0.0612793 C15.91463545 -0.06535482 17.19474941 -0.06943035 18.51365471 -0.07362938 C24.593589 -0.09232353 30.67350337 -0.10689303 36.75346047 -0.11524135 C43.73824636 -0.12499404 50.7227137 -0.15127068 57.70738751 -0.19174224 C63.78356099 -0.22572363 69.85960223 -0.23740126 75.9358654 -0.24144554 C78.50689794 -0.24629746 81.07792742 -0.25787129 83.64889717 -0.27648354 C103.32546641 -0.41005949 119.25091584 0.34889718 134.44311523 14.42700195 C145.97461646 26.87106802 149.66475947 40.77339078 149.07202148 57.3605957 C148.23814101 70.72098164 142.51957242 81.92299099 132.81811523 91.05200195 C122.10402188 100.17700195 122.10402188 100.17700195 116.69311523 100.17700195 C116.69311523 106.77700195 116.69311523 113.37700195 116.69311523 120.17700195 C119.33311523 120.17700195 121.97311523 120.17700195 124.69311523 120.17700195 C134.19008421 122.49333585 140.63869182 127.84211036 145.65014648 136.05200195 C149.73212398 144.36884001 150.05104461 154.2129144 148.00561523 163.1965332 C144.77276817 171.96563088 139.05899591 178.0709539 130.69311523 182.17700195 C126.0862759 184.04167502 122.2730953 184.39549214 117.31811523 184.30200195 C116.07288086 184.28395508 114.82764648 184.2659082 113.54467773 184.24731445 C112.60366211 184.22411133 111.66264648 184.2009082 110.69311523 184.17700195 C110.58225586 184.8937207 110.47139648 185.61043945 110.35717773 186.34887695 C108.32704876 194.99483799 102.30658502 202.4982895 96.69311523 209.17700195 C96.09885742 209.91692383 95.50459961 210.6568457 94.89233398 211.41918945 C88.40342126 219.18438936 80.41707123 225.10530542 71.69311523 230.17700195 C71.81428711 230.96461914 71.93545898 231.75223633 72.06030273 232.5637207 C73.27124023 240.43481445 74.48217773 248.3059082 75.69311523 256.17700195 C87.88970279 256.09239306 100.08616248 255.99743074 112.28256702 255.88947487 C117.94665418 255.83966001 123.61072402 255.79332923 129.27490234 255.75512695 C134.74741984 255.71808639 140.21978698 255.67167675 145.69217491 255.61893845 C147.77358026 255.60049381 149.85501771 255.58534976 151.93647194 255.57365799 C175.72169951 255.81092596 175.72169951 255.81092596 195.69311523 244.17700195 C204.60942025 232.24743043 204.05082145 218.42938346 204.26293945 204.1784668 C204.29966285 202.26397538 204.35429754 200.34974214 204.42700195 198.4362793 C205.28029895 185.33027397 205.28029895 185.33027397 199.34155273 174.19262695 C198.54668457 173.51748047 197.75181641 172.84233398 196.93286133 172.14672852 C192.44165501 168.19697349 189.8369589 162.00848078 188.69311523 156.17700195 C188.5632534 153.5797652 188.48149718 151.00964795 188.45483398 148.41137695 C188.44676224 147.65914856 188.43869049 146.90692017 188.43037415 146.13189697 C188.41656998 144.54164916 188.40583149 142.95137218 188.39794922 141.36108398 C188.38644359 139.7454349 188.36601401 138.1298234 188.33642578 136.5144043 C188.00872907 118.60641972 188.00872907 118.60641972 194.65795898 110.8996582 C195.30893555 110.35180664 195.95991211 109.80395508 196.63061523 109.23950195 C197.27901367 108.67360352 197.92741211 108.10770508 198.59545898 107.5246582 C200.96772056 106.00057953 202.91872253 105.55817939 205.69311523 105.17700195 C205.73049805 104.46157227 205.76788086 103.74614258 205.80639648 103.0090332 C206.70509218 89.38762596 209.00157341 74.79938959 219.69311523 65.17700195 C231.10393333 56.77835634 241.80603803 54.68887892 255.69311523 56.17700195 C266.34918527 58.7169743 274.38025484 65.08756903 280.13061523 74.30200195 C283.4003637 79.98447079 284.93992139 85.10729391 284.9672699 91.67958069 C284.97724503 92.97008835 284.98722015 94.26059601 284.99749756 95.59020996 C284.99839329 97.0085448 284.99905689 98.4268798 284.99951172 99.84521484 C285.00713945 101.34895741 285.015568 102.85269609 285.0247345 104.35643005 C285.04664784 108.43587466 285.05547613 112.51524429 285.06056094 116.59474111 C285.0642135 119.15281948 285.07045873 121.71087853 285.07756233 124.26894951 C285.10206252 133.22146329 285.11510637 142.17391926 285.11865234 151.12646484 C285.12227034 159.42195051 285.15203872 167.71706226 285.19405693 176.01243407 C285.22900256 183.16697677 285.24420507 190.3213973 285.24489838 197.47602457 C285.24568411 201.73400553 285.25408994 205.99160688 285.28289604 210.24949837 C285.52072887 247.73665503 278.455801 278.58862264 251.69311523 306.17700195 C229.9268623 327.54420692 201.92748876 336.55018369 172.04077148 336.2746582 C170.54667523 336.26680249 169.05257496 336.25967646 167.55847168 336.2532959 C163.93660113 336.23626565 160.31488478 336.20940024 156.69311523 336.17700195 C156.69680241 336.94453104 156.70048958 337.71206013 156.70428848 338.50284767 C156.79263902 357.18147194 156.8588246 375.86005449 156.90036392 394.53884315 C156.92098616 403.57178885 156.94910025 412.60459503 156.99487305 421.63745117 C157.03475122 429.51081097 157.06055051 437.38406973 157.06946921 445.25752771 C157.07468232 449.42622344 157.0869278 453.59463012 157.11603546 457.76323318 C157.14322018 461.68830939 157.15155415 465.61297794 157.14554596 469.53813934 C157.14664484 470.97726788 157.15458086 472.41641028 157.16993713 473.85545731 C157.18990862 475.82383564 157.18265356 477.79243356 157.1741333 479.76089478 C157.17782047 480.8615156 157.18150764 481.96213642 157.18530655 483.09610939 C156.3654557 488.22800082 153.87254147 491.13034326 150.05262184 494.52025604 C145.55308991 496.73920722 141.89304933 496.73359121 136.94100952 496.68493652 C135.47594103 496.69429647 135.47594103 496.69429647 133.9812752 496.7038455 C130.71098486 496.71979 127.44143836 496.70716489 124.17114258 496.69458008 C121.82522141 496.70000074 119.47930364 496.70712308 117.13339233 496.71582031 C110.76115955 496.73406907 104.38918559 496.72697793 98.01694822 496.71430397 C92.02063211 496.70520398 86.02433972 496.71215062 80.02802427 496.71801275 C67.42044555 496.72941709 54.81298318 496.71630995 42.20542355 496.69481128 C31.4061777 496.67696524 20.60710401 496.68002402 9.80786133 496.69848633 C-2.74609979 496.7199386 -15.29995871 496.72829235 -27.8539356 496.71603727 C-34.49415546 496.70973041 -41.13427962 496.70893676 -47.77449417 496.72218323 C-54.02411759 496.73377886 -60.27341776 496.7256478 -66.52300644 496.7026062 C-68.81102208 496.6973376 -71.09906513 496.698801 -73.3870697 496.70765686 C-91.80090735 496.77233027 -105.08272738 494.82958452 -119.05688477 481.86450195 C-128.88575701 471.47927845 -131.7675879 459.76141466 -131.7109375 445.82104492 C-131.71780075 444.62608902 -131.724664 443.43113312 -131.73173523 442.19996643 C-131.74680874 438.94947339 -131.7485215 435.69934382 -131.74279284 432.44883108 C-131.73967948 429.71844242 -131.74581775 426.98810438 -131.75183159 424.25772297 C-131.76583623 417.80368896 -131.76435224 411.3497874 -131.75292969 404.89575195 C-131.74147879 398.28034655 -131.75548202 391.66534802 -131.78232616 385.04999626 C-131.80463234 379.3349135 -131.81108654 373.61995702 -131.80524975 367.90483391 C-131.80191109 364.50729703 -131.80408399 361.11002009 -131.82150078 357.7125206 C-131.88930678 340.58179287 -131.88058213 324.28023117 -123.55688477 308.80200195 C-123.04146118 307.8118811 -123.04146118 307.8118811 -122.515625 306.80175781 C-119.41783372 301.03440556 -115.7414783 295.99941165 -111.30688477 291.17700195 C-110.60821289 290.3984082 -109.90954102 289.61981445 -109.18969727 288.81762695 C-103.84386533 283.1483817 -98.06570979 279.01855635 -91.30688477 275.17700195 C-90.50508789 274.71422852 -89.70329102 274.25145508 -88.87719727 273.7746582 C-76.14625604 266.9082981 -61.28581156 264.791721 -47.24438477 262.0300293 C-44.15171784 261.42106188 -41.06127875 260.80160747 -37.97094727 260.1809082 C-35.99711074 259.78836811 -34.02315658 259.396419 -32.04907227 259.00512695 C-31.1293161 258.82081116 -30.20955994 258.63649536 -29.26193237 258.44659424 C-28.40648834 258.27931824 -27.55104431 258.11204224 -26.66967773 257.93969727 C-25.92136688 257.79187805 -25.17305603 257.64405884 -24.40206909 257.49176025 C-22.30688477 257.17700195 -22.30688477 257.17700195 -18.30688477 257.17700195 C-18.20375977 256.00137695 -18.10063477 254.82575195 -17.99438477 253.61450195 C-17.36495064 247.81074906 -16.1324033 242.1399845 -14.92797852 236.43481445 C-14.21324753 233.23859632 -14.21324753 233.23859632 -14.30688477 230.17700195 C-16.62429142 228.36707598 -16.62429142 228.36707598 -19.61938477 226.61450195 C-34.70245145 216.87261535 -45.96983146 203.57331079 -53.30688477 187.17700195 C-53.30688477 186.18700195 -53.30688477 185.19700195 -53.30688477 184.17700195 C-54.20149414 184.2234082 -55.09610352 184.26981445 -56.01782227 184.31762695 C-66.59842267 184.63346577 -74.85848042 183.27445035 -82.77563477 175.88012695 C-88.93502046 169.02938164 -91.70063162 161.64273429 -91.68188477 152.42700195 C-91.68273071 151.37355591 -91.68273071 151.37355591 -91.68359375 150.29882812 C-91.57472732 145.11904648 -90.59963204 140.97204394 -88.27954102 136.2902832 C-85.88115189 131.0793253 -86.51800814 127.70604447 -87.9987793 122.33837891 C-94.94973788 96.94484749 -93.06996455 70.92237762 -80.41235352 47.7668457 C-77.44395214 42.58825356 -74.0622304 37.8137798 -70.30688477 33.17700195 C-69.70489258 32.41129883 -69.10290039 31.6455957 -68.48266602 30.85668945 C-51.80780101 10.79091899 -25.68649381 0.06507352 0 0 Z M-32.49438477 80.42700195 C-40.63957051 88.39118357 -43.25736251 97.97744142 -43.45214844 109.12402344 C-43.46542535 111.0153494 -43.47266929 112.9067244 -43.47485352 114.7980957 C-43.47818192 115.81565445 -43.48151031 116.8332132 -43.48493958 117.88160706 C-43.48998796 120.03239493 -43.49234855 122.18319058 -43.4921875 124.33398438 C-43.49435684 127.5728097 -43.5124876 130.81128442 -43.53149414 134.05004883 C-43.60815069 161.49296152 -40.39867204 183.80616207 -20.30688477 204.17700195 C-6.34518485 217.92055031 11.57786024 223.84969092 30.96264648 224.2434082 C48.05121875 223.54806556 63.86651289 216.24913374 76.69311523 205.17700195 C77.35956055 204.60594727 78.02600586 204.03489258 78.71264648 203.4465332 C94.52551512 188.81884999 99.94395072 169.22484726 100.86383057 148.29223633 C100.9214635 144.39792357 100.91894545 140.50909884 100.88842773 136.61450195 C100.88468197 135.20247603 100.88184244 133.79044745 100.87985229 132.37841797 C100.8723385 128.7223347 100.85280099 125.06641898 100.83044434 121.41040039 C100.80971626 117.65554061 100.80079391 113.90065286 100.79077148 110.14575195 C100.7695389 102.82276019 100.7355582 95.49990484 100.69311523 88.17700195 C100.1200061 88.17335632 99.54689697 88.16971069 98.9564209 88.16595459 C92.8536276 88.1233167 86.75153109 88.05344399 80.64916992 87.96948242 C78.38817401 87.94169115 76.12708848 87.92027475 73.8659668 87.90600586 C48.39743934 87.73591329 25.31726498 83.83464398 1.50561523 74.86450195 C-10.97764907 70.27450169 -21.83406926 72.90207336 -32.49438477 80.42700195 Z M231.69311523 78.17700195 C225.01027346 84.50037547 223.88001872 92.40016302 222.69311523 101.17700195 C222.69311523 102.16700195 222.69311523 103.15700195 222.69311523 104.17700195 C223.96155273 104.21567383 223.96155273 104.21567383 225.25561523 104.25512695 C234.37095983 104.71089418 240.79310987 105.70748166 247.06811523 112.61450195 C252.64664756 119.33055624 252.44222461 126.8040453 251.69311523 135.17700195 C250.0610009 141.38294566 245.99915618 145.71318313 240.69311523 149.17700195 C236.52361554 151.27633047 232.46940532 151.59048154 227.88061523 151.80200195 C225.50874023 151.92575195 223.13686523 152.04950195 220.69311523 152.17700195 C220.69311523 146.89700195 220.69311523 141.61700195 220.69311523 136.17700195 C223.33311523 136.17700195 225.97311523 136.17700195 228.69311523 136.17700195 C233.01537019 134.6104341 233.01537019 134.6104341 235.69311523 131.17700195 C236.09312864 127.49687863 236.20341421 125.82807306 233.88061523 122.86450195 C229.83800234 119.74591487 225.76981636 119.96246307 220.88061523 119.92700195 C220.18129883 119.90637695 219.48198242 119.88575195 218.76147461 119.86450195 C213.98343171 119.82874485 210.64879144 120.45710501 206.69311523 123.17700195 C203.93000228 127.46459101 204.39676296 132.49048514 204.44311523 137.42700195 C204.43538086 138.23524414 204.42764648 139.04348633 204.41967773 139.8762207 C204.44629059 148.19273774 205.37350735 155.5274921 210.69311523 162.17700195 C211.87768311 163.73088623 211.87768311 163.73088623 213.08618164 165.31616211 C216.78370011 168.94928583 220.29637901 168.85896054 225.30111694 168.85678101 C226.96082016 168.81032944 226.96082016 168.81032944 228.65405273 168.76293945 C229.79975739 168.75444977 230.94546204 168.74596008 232.12588501 168.73721313 C235.77426383 168.70370809 239.42040789 168.62842644 243.06811523 168.55200195 C245.54594783 168.52189896 248.02381518 168.49452375 250.50170898 168.4699707 C256.56626962 168.40392601 262.62953276 168.3036037 268.69311523 168.17700195 C268.73959736 158.81443717 268.77506477 149.45191253 268.79673958 140.08925724 C268.80714601 135.74110378 268.82124742 131.39302968 268.84399414 127.04492188 C268.86583507 122.8433346 268.87770744 118.64182333 268.88286972 114.44018364 C268.88654538 112.84273521 268.89372267 111.24529062 268.90457535 109.64787483 C269.33211271 93.9625147 269.33211271 93.9625147 262.69311523 80.17700195 C253.33730913 71.12299604 241.9983526 69.66397978 231.69311523 78.17700195 Z M-70.30688477 141.17700195 C-74.24315408 145.52761541 -74.94572395 149.09477201 -74.68969727 154.77856445 C-73.88705788 159.80734589 -71.27576717 162.3976835 -67.43188477 165.48950195 C-63.99870816 167.56139396 -63.99870816 167.56139396 -58.30688477 168.17700195 C-58.63688477 157.94700195 -58.96688477 147.71700195 -59.30688477 137.17700195 C-64.86093396 137.17700195 -66.11436073 137.78730167 -70.30688477 141.17700195 Z M116.69311523 137.17700195 C116.36311523 147.40700195 116.03311523 157.63700195 115.69311523 168.17700195 C124.90985104 166.02281943 124.90985104 166.02281943 130.83374023 159.31762695 C132.422252 155.36078855 132.22243715 151.35864509 131.69311523 147.17700195 C129.35782323 142.32678009 126.43368383 139.6924057 121.69311523 137.17700195 C120.04311523 137.17700195 118.39311523 137.17700195 116.69311523 137.17700195 Z M220.69311523 184.17700195 C220.48349395 199.5232522 220.48349395 199.5232522 220.30517578 214.86987305 C220.27284929 216.81341415 220.23947048 218.75693815 220.20483398 220.70043945 C220.19859009 221.68568604 220.19234619 222.67093262 220.18591309 223.68603516 C219.92696453 236.32586329 215.71837107 248.18241243 206.94311523 257.48950195 C197.12955626 266.57819578 185.3765776 271.69034497 171.98144531 271.27856445 C169.51068596 271.17916213 167.04197341 271.0605735 164.57270241 270.92929077 C160.03918148 270.70819722 155.50197279 270.62472299 150.96459961 270.5168457 C145.22971052 270.37375191 139.50508794 270.19136345 133.77783203 269.85717773 C114.15541729 267.91036546 114.15541729 267.91036546 95.93431854 273.38366699 C89.1275881 279.54811415 85.58966007 288.14266902 82.27328491 296.51147461 C79.70867597 302.46061055 76.23953661 307.76625546 72.69311523 313.17700195 C69.26654787 312.66703341 66.12994491 312.13081388 62.94189453 310.76245117 C61.93505867 310.33728714 61.93505867 310.33728714 60.90788269 309.90353394 C60.20150162 309.59932526 59.49512054 309.29511658 58.76733398 308.98168945 C57.23316917 308.34155012 55.69865263 307.70225324 54.16381836 307.0637207 C51.77060417 306.06072388 49.38046289 305.05193654 46.99609375 304.02807617 C44.67709584 303.03589671 42.34855463 302.06973365 40.01733398 301.10668945 C39.3170256 300.79843231 38.61671722 300.49017517 37.89518738 300.1725769 C30.30616575 297.08271404 23.84881304 298.39423742 16.43974304 301.45046997 C15.73316055 301.75467865 15.02657806 302.05888733 14.29858398 302.37231445 C13.54394363 302.68401581 12.78930328 302.99571716 12.01179504 303.31686401 C9.63002125 304.30102012 7.25475864 305.29959122 4.88061523 306.30200195 C1.73345757 307.63002079 -1.41935617 308.94304002 -4.57641602 310.24731445 C-5.29311966 310.55557159 -6.0098233 310.86382874 -6.74824524 311.181427 C-10.37751296 312.6795605 -12.57889314 313.53443745 -16.30688477 312.17700195 C-17.71972656 310.44970703 -17.71972656 310.44970703 -19.00610352 308.1965332 C-19.48917969 307.36798828 -19.97225586 306.53944336 -20.4699707 305.68579102 C-20.97302734 304.79601562 -21.47608398 303.90624023 -21.99438477 302.98950195 C-23.053749 301.16682037 -24.11496186 299.34521205 -25.17797852 297.5246582 C-25.96470947 296.16945068 -25.96470947 296.16945068 -26.76733398 294.78686523 C-28.93855951 291.10618003 -31.22694646 287.50870544 -33.55688477 283.92700195 C-33.9393335 283.33765869 -34.32178223 282.74831543 -34.71582031 282.14111328 C-35.57678255 280.8179651 -36.44134885 279.49716279 -37.30688477 278.17700195 C-62.85898558 281.40717319 -86.51422472 286.80553934 -103.19750977 308.04418945 C-113.1582331 322.83770819 -115.4608775 338.24963692 -115.45214844 355.70629883 C-115.45718636 357.18913109 -115.45718636 357.18913109 -115.46232605 358.70191956 C-115.47173799 361.93321019 -115.4737739 365.16444851 -115.47485352 368.39575195 C-115.47807179 370.66296408 -115.48143628 372.930176 -115.48493958 375.1973877 C-115.49090564 379.93457521 -115.49278197 384.67174454 -115.4921875 389.40893555 C-115.49208577 395.45763648 -115.50576054 401.50622032 -115.52295971 407.55489349 C-115.53411282 412.23224415 -115.53610572 416.90956673 -115.53557777 421.58692932 C-115.53675202 423.81629339 -115.54114238 426.04565831 -115.54891014 428.27500916 C-115.55878156 431.39932338 -115.55580439 434.52338622 -115.54980469 437.64770508 C-115.55542419 438.55400162 -115.5610437 439.46029816 -115.5668335 440.39405823 C-115.51503199 451.0876182 -114.12043266 460.64917122 -107.30688477 469.17700195 C-98.08591522 478.22752844 -88.29976099 480.32556772 -75.62329102 480.2746582 C-74.34139893 480.27216064 -73.05950684 480.26966309 -71.73876953 480.26708984 C-70.13187256 480.25798584 -68.52497559 480.24888184 -66.86938477 480.23950195 C-61.73375977 480.21887695 -56.59813477 480.19825195 -51.30688477 480.17700195 C-51.30688477 469.61700195 -51.30688477 459.05700195 -51.30688477 448.17700195 C-61.86688477 448.17700195 -72.42688477 448.17700195 -83.30688477 448.17700195 C-83.30688477 442.89700195 -83.30688477 437.61700195 -83.30688477 432.17700195 C-72.74688477 432.17700195 -62.18688477 432.17700195 -51.30688477 432.17700195 C-51.29753906 429.11854004 -51.28819336 426.06007813 -51.27856445 422.90893555 C-51.24479403 412.80264427 -51.1892446 402.69655718 -51.12298203 392.59042931 C-51.08347666 386.46318873 -51.05130301 380.33609253 -51.03588867 374.20874023 C-51.02074252 368.29524572 -50.98633256 362.38214805 -50.93857574 356.46883011 C-50.923741 354.21304397 -50.91584256 351.95720118 -50.91500092 349.70136642 C-50.9126359 346.54095929 -50.88559227 343.381653 -50.8527832 340.22143555 C-50.86032875 338.82313004 -50.86032875 338.82313004 -50.86802673 337.39657593 C-50.77907729 331.85679283 -50.13750672 328.48064092 -46.30688477 324.17700195 C-41.96963755 320.7980821 -37.91900607 320.75132507 -32.62654114 320.79173279 C-31.31611226 320.78387925 -31.31611226 320.78387925 -29.97921008 320.77586704 C-27.051592 320.76189813 -24.12441431 320.76920926 -21.19677734 320.77636719 C-19.09718942 320.77062466 -16.99760479 320.76354189 -14.89802551 320.75521851 C-10.37401586 320.74009435 -5.8501243 320.73433218 -1.32608986 320.73574638 C5.84137386 320.73778107 13.00867939 320.71820212 20.17610168 320.6955719 C34.1171684 320.65456126 48.0582228 320.63600073 61.99933624 320.61940002 C79.69684143 320.59706624 97.3943098 320.56326329 115.09175569 320.51220089 C122.20108173 320.49239196 129.31032554 320.48270663 136.41967809 320.48124874 C140.86845051 320.47847547 145.3171785 320.46759455 149.76593208 320.45473862 C151.8111568 320.45050038 153.85639183 320.44957046 155.90161896 320.45241356 C186.41123861 320.48991976 214.38970593 316.74585328 237.69311523 295.17700195 C238.85713867 294.13286133 238.85713867 294.13286133 240.04467773 293.06762695 C258.85794187 275.35341948 267.71703758 250.58576347 268.69311523 225.17700195 C268.84046578 218.05284523 268.78783873 210.92710134 268.75561523 203.80200195 C268.72467773 194.08762695 268.72467773 194.08762695 268.69311523 184.17700195 C252.85311523 184.17700195 237.01311523 184.17700195 220.69311523 184.17700195 Z M2.69311523 237.17700195 C2.01984963 240.07144291 1.3543112 242.96730208 0.69311523 245.86450195 C0.40694336 247.08943359 0.40694336 247.08943359 0.11499023 248.33911133 C-0.40035423 250.6121485 -0.86376643 252.88894391 -1.30688477 255.17700195 C-1.49637695 256.09481445 -1.68586914 257.01262695 -1.88110352 257.95825195 C-1.05664382 261.14391934 1.00786819 262.13311849 3.72314453 263.76782227 C4.43510986 264.17097656 5.1470752 264.57413086 5.88061523 264.98950195 C7.34968809 265.8548395 8.81843339 266.72073334 10.28686523 267.5871582 C11.02678711 268.01657715 11.76670898 268.44599609 12.52905273 268.88842773 C14.55470255 270.09458519 16.51721729 271.35944379 18.47436523 272.6730957 C19.05162354 273.05425537 19.62888184 273.43541504 20.22363281 273.828125 C21.79472535 274.87004153 23.35935373 275.92168613 24.92358398 276.97387695 C27.58055719 278.48524698 27.58055719 278.48524698 29.99609375 277.46728516 C32.98023077 276.03964289 35.78134575 274.44329619 38.61499023 272.7355957 C39.72229492 272.06979492 40.82959961 271.40399414 41.97045898 270.71801758 C42.54006348 270.37295166 43.10966797 270.02788574 43.6965332 269.67236328 C45.44950547 268.61063155 47.20576832 267.554521 48.96264648 266.49926758 C54.09912209 263.70451383 54.09912209 263.70451383 58.69311523 260.17700195 C58.62625574 252.35444169 56.57256064 244.71842441 54.69311523 237.17700195 C54.05631836 237.32137695 53.41952148 237.46575195 52.76342773 237.61450195 C36.75435362 240.67193786 18.62023385 240.7880086 2.69311523 237.17700195 Z M65.85717773 275.23950195 C64.79370117 275.87114258 63.73022461 276.5027832 62.63452148 277.15356445 C61.54010742 277.82129883 60.44569336 278.4890332 59.31811523 279.17700195 C58.20049805 279.84473633 57.08288086 280.5124707 55.93139648 281.20043945 C53.17806337 282.84773277 50.43258694 284.50679358 47.69311523 286.17700195 C50.64257118 288.14330591 53.43008997 289.43441048 56.69311523 290.80200195 C57.74499023 291.24801758 58.79686523 291.6940332 59.88061523 292.15356445 C62.66415354 293.34797827 62.66415354 293.34797827 65.69311523 293.17700195 C67.24190678 291.30943184 67.24190678 291.30943184 68.61108398 288.8371582 C69.40869141 287.49041016 69.40869141 287.49041016 70.22241211 286.11645508 C70.76961914 285.16706055 71.31682617 284.21766602 71.88061523 283.23950195 C72.43942383 282.29397461 72.99823242 281.34844727 73.57397461 280.37426758 C76.30195437 276.49883214 76.30195437 276.49883214 77.69311523 272.17700195 C72.75834441 271.81857502 70.07160643 272.70178145 65.85717773 275.23950195 Z M-19.30688477 274.17700195 C-17.72155667 278.73264257 -15.31685395 282.49175964 -12.68188477 286.48950195 C-12.26165039 287.13467773 -11.84141602 287.77985352 -11.40844727 288.44458008 C-10.37850236 290.0246092 -9.34322849 291.60116243 -8.30688477 293.17700195 C-4.13112309 292.49283761 -0.4260807 291.16335187 3.50561523 289.61450195 C5.2477832 288.93194336 5.2477832 288.93194336 7.02514648 288.2355957 C7.90557617 287.88625977 8.78600586 287.53692383 9.69311523 287.17700195 C5.43922255 283.55017711 0.87136126 280.74665491 -3.93188477 277.92700195 C-4.69500977 277.4680957 -5.45813477 277.00918945 -6.24438477 276.53637695 C-6.97915039 276.10325195 -7.71391602 275.67012695 -8.47094727 275.22387695 C-9.13562012 274.83039063 -9.80029297 274.4369043 -10.48510742 274.03149414 C-13.58087034 272.57944774 -16.15191504 273.30666548 -19.30688477 274.17700195 Z M-35.30688477 336.17700195 C-35.30688477 373.13700195 -35.30688477 410.09700195 -35.30688477 448.17700195 C22.77311523 448.17700195 80.85311523 448.17700195 140.69311523 448.17700195 C140.69311523 411.21700195 140.69311523 374.25700195 140.69311523 336.17700195 C82.61311523 336.17700195 24.53311523 336.17700195 -35.30688477 336.17700195 Z M-35.30688477 464.17700195 C-35.30688477 469.45700195 -35.30688477 474.73700195 -35.30688477 480.17700195 C22.77311523 480.17700195 80.85311523 480.17700195 140.69311523 480.17700195 C140.69311523 474.89700195 140.69311523 469.61700195 140.69311523 464.17700195 C82.61311523 464.17700195 24.53311523 464.17700195 -35.30688477 464.17700195 Z " fill="#000000" transform="translate(219.306884765625,7.822998046875)"/>
<path d="M0 0 C1.69637352 -0.0098568 1.69637352 -0.0098568 3.42701721 -0.01991272 C7.16285271 -0.03959233 10.89864808 -0.05129744 14.63452148 -0.0612793 C15.91463545 -0.06535482 17.19474941 -0.06943035 18.51365471 -0.07362938 C24.593589 -0.09232353 30.67350337 -0.10689303 36.75346047 -0.11524135 C43.73824636 -0.12499404 50.7227137 -0.15127068 57.70738751 -0.19174224 C63.78356099 -0.22572363 69.85960223 -0.23740126 75.9358654 -0.24144554 C78.50689794 -0.24629746 81.07792742 -0.25787129 83.64889717 -0.27648354 C103.32546641 -0.41005949 119.25091584 0.34889718 134.44311523 14.42700195 C145.97461646 26.87106802 149.66475947 40.77339078 149.07202148 57.3605957 C148.23814101 70.72098164 142.51957242 81.92299099 132.81811523 91.05200195 C122.10402188 100.17700195 122.10402188 100.17700195 116.69311523 100.17700195 C116.69311523 90.93700195 116.69311523 81.69700195 116.69311523 72.17700195 C112.32834961 72.2234082 107.96358398 72.26981445 103.46655273 72.31762695 C99.91799872 72.34347109 96.36947239 72.36511918 92.82087708 72.38400269 C89.11256044 72.40485601 85.40462804 72.43256205 81.6965332 72.47875977 C58.3239153 72.76208513 36.90475756 70.84969583 14.69311523 63.17700195 C12.62852111 62.47914557 10.56247616 61.78580962 8.49560547 61.09472656 C6.62796593 60.46805571 4.76391751 59.83071108 2.90014648 59.19262695 C-9.8105746 55.16730724 -22.18386618 56.74946706 -34.09985352 62.5324707 C-46.26294346 69.39606004 -53.67724783 79.73183117 -57.56079102 93.10668945 C-59.4571359 101.89193811 -59.17383161 111.22688348 -59.30688477 120.17700195 C-59.98090332 120.30107422 -60.65492188 120.42514648 -61.34936523 120.55297852 C-62.24026855 120.7228125 -63.13117188 120.89264648 -64.04907227 121.06762695 C-64.92934082 121.23294922 -65.80960938 121.39827148 -66.71655273 121.56860352 C-73.96211409 123.27038852 -79.56179793 127.64223199 -85.30688477 132.17700195 C-86.12394644 129.13654215 -86.93470497 126.09443513 -87.74438477 123.05200195 C-87.97448242 122.19606445 -88.20458008 121.34012695 -88.44165039 120.45825195 C-88.66401367 119.62036133 -88.88637695 118.7824707 -89.11547852 117.91918945 C-89.42183228 116.77232666 -89.42183228 116.77232666 -89.734375 115.60229492 C-95.51837561 91.09983776 -91.15223628 65.56597805 -78.30688477 44.17700195 C-75.8303168 40.33471495 -73.18299515 36.72817573 -70.30688477 33.17700195 C-69.70489258 32.41129883 -69.10290039 31.6455957 -68.48266602 30.85668945 C-51.80780101 10.79091899 -25.68649381 0.06507352 0 0 Z " fill="#3498db" transform="translate(219.306884765625,7.822998046875)"/>
<path d="M0 0 C2.44225447 1.66159248 4.74768159 3.38773224 7.0390625 5.25 C7.87179688 5.87648437 8.70453125 6.50296875 9.5625 7.1484375 C18.78558467 14.97496676 26.06978627 28.53729372 27.27636719 40.62792969 C28.16706278 57.87621726 26.15610237 71.4476848 15.0390625 85.25 C14.08 86.61125 14.08 86.61125 13.1015625 88 C11.0390625 90.25 11.0390625 90.25 9.21289062 91.22412109 C5.27381864 93.4479399 3.38371671 95.28212484 1.84350586 99.60742188 C0.85069634 103.74171392 0.15248429 107.92913947 -0.5234375 112.125 C-3.57578913 130.69711361 -3.57578913 130.69711361 -10.9609375 136.25 C-16.0365084 137.94185697 -21.35968154 137.51458565 -26.67504883 137.54516602 C-28.06870686 137.55667849 -29.46232104 137.57711929 -30.85571289 137.60668945 C-32.87676739 137.64955813 -34.89651494 137.66555979 -36.91796875 137.67578125 C-38.72744995 137.69765503 -38.72744995 137.69765503 -40.57348633 137.7199707 C-45.74155397 137.00295952 -48.6335849 134.59058912 -52.23779297 130.95043945 C-54.35332548 127.6350661 -54.89123122 124.91841837 -55.53125 121.04296875 C-55.79013433 119.63708676 -56.05060191 118.23149556 -56.3125 116.82617188 C-56.70476917 114.63665451 -57.0843808 112.44723696 -57.43554688 110.25073242 C-59.12468082 99.61234374 -59.12468082 99.61234374 -65.9609375 91.55078125 C-67.23324219 90.74314331 -67.23324219 90.74314331 -68.53125 89.91918945 C-77.57711755 83.70470026 -82.55232397 70.57917598 -84.9609375 60.25 C-85.39753041 56.67564435 -85.48620355 53.1611531 -85.4609375 49.5625 C-85.45521729 48.60569336 -85.44949707 47.64888672 -85.44360352 46.66308594 C-85.12051272 33.70029175 -81.19857916 23.3858007 -72.9609375 13.25 C-72.33445312 12.41726562 -71.70796875 11.58453125 -71.0625 10.7265625 C-54.23488249 -9.10375256 -21.90682862 -12.94757154 0 0 Z M-60.7734375 25.5 C-67.86771815 35.31650462 -69.11450278 45.46460626 -67.9609375 57.25 C-65.65606108 68.25612588 -59.08654254 76.26020311 -50.16796875 82.80859375 C-45.79598449 85.66392506 -42.29566552 87.25 -36.9609375 87.25 C-36.49927144 82.15243728 -36.24800159 77.33306979 -36.9609375 72.25 C-38.78188533 70.09676242 -40.29462405 69.34342841 -42.85546875 68.21484375 C-46.88081371 66.37020515 -49.14519428 62.91308213 -51.0703125 58.98828125 C-53.18557416 52.4847794 -53.23661156 44.04757934 -50.3984375 37.75 C-47.03174126 32.18659415 -42.14649956 28.21650817 -35.9609375 26.25 C-28.1170546 25.44405743 -20.36909283 25.15328111 -13.9609375 30.25 C-9.25645836 34.70132332 -6.30096679 38.94064516 -5.625 45.51953125 C-5.53398651 53.7744544 -5.75027055 59.89279012 -11.64453125 65.9921875 C-14.65203191 68.69570423 -17.29858527 70.41882389 -20.9609375 72.25 C-20.9609375 77.2 -20.9609375 82.15 -20.9609375 87.25 C-10.20920169 85.71403774 -3.86961555 81.04099567 3.125 72.84765625 C10.15155532 63.31161689 11.04982592 52.74108138 10.0390625 41.25 C7.8428412 30.48057749 1.2624873 22.11577338 -7.53515625 15.7578125 C-25.76365059 4.42737963 -47.34465214 9.56222714 -60.7734375 25.5 Z M-40.9609375 104.25 C-40.17520613 113.15179354 -40.17520613 113.15179354 -37.9609375 121.25 C-32.0209375 121.25 -26.0809375 121.25 -19.9609375 121.25 C-19.4453125 119.1875 -18.9296875 117.125 -18.3984375 115 C-18.10839844 113.83984375 -17.81835938 112.6796875 -17.51953125 111.484375 C-16.71131108 108.10354983 -16.71131108 108.10354983 -17.9609375 104.25 C-25.5509375 104.25 -33.1409375 104.25 -40.9609375 104.25 Z " fill="#000000" transform="translate(92.9609375,158.75)"/>
<path d="M0 0 C26.4 0 52.8 0 80 0 C80 16.18894552 79.84743813 25.63704005 69 37 C59.77286823 45.80850953 50.14955676 48.62574301 37.63525391 48.47070312 C25.80802493 48.00249528 17.15892893 43.4516305 9.02734375 34.93359375 C-0.27042588 23.89866121 0 14.98277928 0 0 Z M18 16 C20.77631475 21.69142632 20.77631475 21.69142632 24.875 25.75 C25.53242188 26.32234375 26.18984375 26.8946875 26.8671875 27.484375 C32.81766605 31.7129202 38.93591423 31.71744621 46 31 C52.67910137 29.217402 57.0880301 24.52211403 61 19 C61.33 18.01 61.66 17.02 62 16 C47.48 16 32.96 16 18 16 Z " fill="#000000" transform="translate(208,168)"/>
<path d="M0 0 C5.82485779 3.51996782 10.54466582 8.98962934 12.5625 15.5 C13.36764105 23.33608208 13.68710392 31.11922577 8.5625 37.5 C3.75801361 42.54521222 -0.59927055 46.10562995 -7.70703125 46.8359375 C-16.22326573 46.92983204 -22.11345494 46.6177288 -28.40234375 40.62890625 C-34.7841668 33.72505269 -35.91792252 28.29832071 -35.7421875 18.9453125 C-35.04689797 11.08319245 -31.38995981 6.95041296 -25.53515625 1.9453125 C-18.47077988 -2.92213491 -7.84396301 -3.47595223 0 0 Z " fill="#3498db" transform="translate(283.4375,377.5)"/>
<path d="M0 0 C5.82485779 3.51996782 10.54466582 8.98962934 12.5625 15.5 C13.36927794 23.35201321 13.6743336 31.09946885 8.5625 37.5 C3.45805247 43.06949481 -1.11086439 46.0206028 -8.78125 46.7109375 C-15.59109152 46.98417188 -21.88690874 46.16811421 -27.44921875 41.98828125 C-32.43184088 37.33992308 -35.10132679 33.02141437 -35.75 26.2265625 C-35.98983223 19.19648013 -35.9685621 13.14174027 -31.4375 7.5 C-23.13577971 -1.21767287 -11.72105717 -5.1940371 0 0 Z " fill="#3498db" transform="translate(75.4375,185.5)"/>
<path d="M0 0 C5.16818759 3.12314132 9.07049266 7.84033475 12 13.0625 C12.5625 15.5 12.5625 15.5 12.5625 22.5 C6.9525 22.5 1.3425 22.5 -4.4375 22.5 C-5.0975 20.85 -5.7575 19.2 -6.4375 17.5 C-9.23620027 16.10064987 -11.34248792 16.24734595 -14.4375 16.5 C-16.99699546 18.35342775 -17.41668798 19.43756393 -18.4375 22.5 C-24.0475 22.5 -29.6575 22.5 -35.4375 22.5 C-35.4375 14.89979557 -34.72681307 11.00219137 -29.56640625 5.5078125 C-21.47281646 -1.86668708 -10.50288165 -4.65421815 0 0 Z " fill="#000000" transform="translate(291.4375,129.5)"/>
<path d="M0 0 C5.16818759 3.12314132 9.07049266 7.84033475 12 13.0625 C12.5625 15.5 12.5625 15.5 12.5625 22.5 C6.9525 22.5 1.3425 22.5 -4.4375 22.5 C-5.0975 20.85 -5.7575 19.2 -6.4375 17.5 C-9.23620027 16.10064987 -11.34248792 16.24734595 -14.4375 16.5 C-16.99699546 18.35342775 -17.41668798 19.43756393 -18.4375 22.5 C-24.0475 22.5 -29.6575 22.5 -35.4375 22.5 C-35.4375 14.89979557 -34.72681307 11.00219137 -29.56640625 5.5078125 C-21.47281646 -1.86668708 -10.50288165 -4.65421815 0 0 Z " fill="#000000" transform="translate(227.4375,129.5)"/>
<path d="M0 0 C5.28 1.98 10.56 3.96 16 6 C13.76188601 13.00406547 11.12994735 19.77276643 8.3125 26.5625 C7.89677734 27.57119141 7.48105469 28.57988281 7.05273438 29.61914062 C6.03784021 32.0805506 5.02021747 34.54079283 4 37 C0.05993502 36.27702566 -3.17851333 35.14503591 -6.8125 33.4375 C-7.78832031 32.98246094 -8.76414062 32.52742188 -9.76953125 32.05859375 C-10.50558594 31.70925781 -11.24164063 31.35992187 -12 31 C-11.36158846 27.18817999 -10.24950385 23.89009051 -8.75 20.33203125 C-8.3065625 19.27435547 -7.863125 18.21667969 -7.40625 17.12695312 C-6.9421875 16.03318359 -6.478125 14.93941406 -6 13.8125 C-5.5359375 12.70712891 -5.071875 11.60175781 -4.59375 10.46289062 C-1.20583977 2.41167954 -1.20583977 2.41167954 0 0 Z " fill="#000000" transform="translate(96,108)"/>
<path d="M0 0 C4.11347173 2.05673587 5.2442381 8.29367504 6.90551758 12.39135742 C7.68234145 14.29982667 8.47808165 16.19962332 9.27539062 18.09960938 C9.76587891 19.30037109 10.25636719 20.50113281 10.76171875 21.73828125 C11.21506592 22.84212158 11.66841309 23.94596191 12.13549805 25.08325195 C13.00057983 28.00195629 13.28908976 29.27023198 12 32 C9.3828125 33.484375 9.3828125 33.484375 6.125 34.75 C5.05507813 35.17796875 3.98515625 35.6059375 2.8828125 36.046875 C0 37 0 37 -3 37 C-4.71348735 32.90844133 -6.42236208 28.81499689 -8.12695312 24.71972656 C-8.7077131 23.32629239 -9.28973926 21.93338525 -9.87304688 20.54101562 C-10.71035383 18.54173168 -11.54311689 16.54060824 -12.375 14.5390625 C-12.87773437 13.33459473 -13.38046875 12.13012695 -13.8984375 10.88916016 C-15 8 -15 8 -15 6 C-12.54524486 4.96971956 -10.08685649 3.95054496 -7.625 2.9375 C-6.57699219 2.49567383 -6.57699219 2.49567383 -5.5078125 2.04492188 C-3.69495092 1.30408902 -1.84876857 0.64603036 0 0 Z " fill="#000000" transform="translate(31,108)"/>
<path d="M0 0 C5.28 0 10.56 0 16 0 C16 10.56 16 21.12 16 32 C10.72 32 5.44 32 0 32 C0 21.44 0 10.88 0 0 Z " fill="#000000" transform="translate(56,104)"/>
</svg>
