<svg version="1.2" xmlns="http://www.w3.org/2000/svg" viewBox="0 0 256 256" width="100" height="100">
	<title>whatsapp-logo-4456-svg</title>
	<style>
		.s0 { fill: #32d851 } 
		.s1 { fill: #ffffff } 
	</style>
	<g>
		<path class="s0" d="m127.9 254.3c-70 0-126.5-56.5-126.5-126.4 0-70 56.5-126.5 126.5-126.5 69.9 0 126.4 56.5 126.4 126.5 0 69.9-56.5 126.4-126.4 126.4z"/>
		<path fill-rule="evenodd" class="s1" d="m128.2 45.7c21.8 0 42.2 8.5 57.6 23.9 15.4 15.4 23.9 35.8 23.8 57.6 0 44.9-36.5 81.4-81.4 81.4-13.7 0-27.1-3.4-39-9.9l-43.1 11.3 11.5-42.2c-7.1-12.3-10.9-26.3-10.8-40.7 0-44.9 36.5-81.4 81.4-81.4zm-62.6 145l25.6-6.8 2.5 1.5c10.4 6.2 22.3 9.4 34.5 9.4 37.3 0 67.7-30.3 67.7-67.6 0-18.1-7-35.1-19.8-47.9-12.8-12.8-29.8-19.8-47.9-19.8-37.3 0-67.7 30.3-67.7 67.6 0 12.8 3.6 25.3 10.4 36l1.6 2.6zm62.5 17.9q0 0 0 0z"/>
		<path class="s1" d="m107.8 93.1c-1.5-3.4-3.1-3.5-4.5-3.5-1.2-0.1-2.6-0.1-3.9-0.1-1.4 0-3.6 0.5-5.5 2.6-1.8 2-7.1 6.9-7.1 16.9 0 10 7.3 19.7 8.3 21.1 1 1.3 14.1 22.5 34.8 30.7 17.2 6.8 20.7 5.4 24.4 5.1 3.7-0.4 12-4.9 13.7-9.7 1.7-4.7 1.7-8.8 1.2-9.7-0.5-0.8-1.8-1.3-3.9-2.3-2-1.1-12-6-13.9-6.7-1.8-0.6-3.2-1-4.6 1.1-1.3 2-5.2 6.6-6.4 7.9-1.2 1.4-2.4 1.6-4.4 0.6-2-1.1-8.6-3.2-16.4-10.1-6-5.4-10.1-12.1-11.3-14.1-1.2-2.1-0.1-3.2 0.9-4.2 0.9-0.9 2-2.4 3.1-3.6 1-1.1 1.3-2 2-3.3 0.7-1.4 0.3-2.6-0.2-3.6-0.5-1-4.4-11.1-6.3-15.1z"/>
	</g>
</svg>