<svg version="1.2" xmlns="http://www.w3.org/2000/svg" viewBox="0 0 2301 2000" width="800" height="695">
	<title>9812-ai</title>
	<style>
		.s0 { fill: #f7cc7f } 
		.s1 { fill: #f79c8d } 
		.s2 { fill: #355389 } 
		.s3 { fill: #f48c7f } 
		.s4 { fill: #13375b } 
		.s5 { fill: #86b1f2 } 
		.s6 { fill: #f7a491 } 
		.s7 { fill: #f47458 } 
		.s8 { fill: #ffffff } 
		.s9 { fill: #3c8f7c } 
		.s10 { fill: #184655 } 
		.s11 { fill: #b75742 } 
		.s12 { fill: #6394db } 
		.s13 { fill: #e5b05c } 
		.s14 { opacity: .2;fill: #f47458 } 
		.s15 { fill: #f8a492 } 
		.s16 { fill: #50bfa5 } 
		.s17 { fill: #0e2e35 } 
		.s18 { fill: #dd513a } 
		.s19 { fill: #fe875e } 
		.s20 { fill: #466eb6 } 
		.s21 { fill: #cae1f9 } 
		.s22 { fill: #9bc1f9 } 
		.s23 { opacity: .2;fill: #9bc1f9 } 
		.s24 { fill: #96d9c9 } 
		.s25 { fill: #e25a44 } 
		.s26 { fill: #66ccb2 } 
		.s27 { fill: #07345a } 
	</style>
	<g id="Layer 1">
		<g id="&lt;Group&gt;">
			<path id="&lt;Path&gt;" class="s0" d="m2037.8 551.4c-40.6 33-98.2 69.6-145.7 85.3l70.5 13.3-291.2 343.5-580.5 167-687 732.7 541.1-0.2 275.8-442.7 552.4-328.2 214.6-457.3 45.7 55.4c-9.2-49.2-5-117.3 4.3-168.8z"/>
			<path id="&lt;Path&gt;" class="s1" d="m311.1 1327c0 0-31.5-56.4-39.1-68.4-7.7-12-27.6-59.6-28.3-61.5-0.8-1.8 13.7-24.4 10.5-25.2-3.3-0.7-6.8 11.9-10.3 10.4-3.4-1.5-13.5-32-15.4-30.5-3.7 2.9 5.4 18.9 3.4 20-1.9 1-7.8-17.7-11.7-17.2-3.8 0.6 7.3 17.2 6.3 18.6-1.1 1.5-12.7-14.1-14.8-10.8-1.1 1.8 10.7 13.6 8.4 14.7-2.3 1.1-12.7-6.5-13.8-4.3-1.2 2.2 9.6 5.2 12.9 11.2 3.2 5.9 8.7 8.5 11 19.5 2.3 11 5.7 50.8 17.4 70.6 11.7 19.9 37.4 63.8 37.4 63.8z"/>
			<path id="&lt;Path&gt;" class="s2" d="m302.4 1308.7c0 0 34.8 37.6 40 52.7 5.1 15.1-5.1 36.7-19.2 37.7-14.1 0.9-45.5-66.6-45.5-66.6z"/>
			<path id="&lt;Path&gt;" class="s3" d="m466.3 1580.3c-2.5-2.1-5.6-1.2-14.4-5.2-1.7-0.8-6.2-2.1-8.2-2.5-0.3 0-0.6-0.3-0.7-0.7-2.7-10.1-14.4-56.9-15.7-70.3-1.3-13.8-10.2-72.3-11.6-81.2-0.1-0.6-0.7-1-1.2-0.8l-25.6 7.1c-0.5 0.2-0.8 0.7-0.7 1.2 1.6 7 11.4 50.7 14.3 72.9 2.3 17.6 28.6 74.3 29.1 77.9q0 0 0 0.1c0.2 1.1 1.1 1.9 2.2 1.9 6.5 0 27.3 0 28.5 0 1 0 4.8 0.3 4-0.4z"/>
			<path id="&lt;Path&gt;" class="s4" d="m409.4 1395.2c-13.6-41.2-28.8-39.5-28.8-39.5l11.8 86.7c8.4-2.3 19.3-7.4 27.7-9.8-2.8-13-7.3-27.2-10.7-37.4z"/>
			<path id="&lt;Path&gt;" class="s0" d="m405.2 1288c-4.2-27.1-28.7-46.6-54.3-33.5-5.8 3-13.6 9-17.6 14.1-10.8 13.8-13.6 30.9-24.7 44.3 4.1 3.1 9.1 6.4 14.9 9.5l7-9.2-2.4 11.5c17.2 8.3 41.5 15.1 74.8 14.9 4.2-18.9 4.5-37.2 2.3-51.6z"/>
			<path id="&lt;Path&gt;" class="s3" d="m413.2 1889.2c-3.9-2.9-7.1-4.8-19.6-10.9-0.8-0.4-3.8-2.3-4.8-3-2.8-1.6-5.5-4.2-7.8-6.9-2.3-2.5-3.3-10.5-3.8-16.9 1.2-14.2 21.9-243.2 26.3-268 4.5-25.6-2.4-64.6-2.4-64.6l-15.9-6-30.3 105.1 2.3 79.9c0 0-7.1 23.1-8 36.9-0.9 13.7 10.3 125.6 10.3 125.6 0 4-0.1 7.6-0.6 9.9-0.8 4.1-5.4 12.7-3.3 16.7 2.1 3.9 4.5 4.9 4.5 4.9l54.5 0.9c3 0 1-1.9-1.4-3.6z"/>
			<path id="&lt;Path&gt;" class="s1" d="m330.5 1510.7c0 0-18.9 28.5-23.4 52.1-4.5 23.7 3.3 96.2-5.3 127.2-4.7 16.7-22.5 42.6-25.2 64.3-2.7 21.6-12.1 84.1-12.1 84.1-1.4 6.6-3.7 14.7-6.6 18.4-1.7 2.4-5 5.3-7.1 9.4-3.3 6.5-1.5 16.2 1 21.5 1.2 2.8-0.1 2.8 2.7 3.6 8.5 2.7 17.4-1.7 21-9.8 2-4.6 3.8-10.6 4.2-18.2 0.3-8.1 1.6-14.5 2.9-19.2l60.5-148.3 43.8-128 11.2-66z"/>
			<path id="&lt;Path&gt;" class="s5" d="m277.2 1877.2c-13.1 2.4-21.8-5.3-26.4-11-3.3 6.5-4.9 16.2-2.5 21.5 2.2 4.7 8.5 4.6 13.5 4.8 5.2 0.2 9.3-2.7 11.9-7.3 1.2-2.1 2.4-4.8 3.5-8z"/>
			<path id="&lt;Path&gt;" class="s5" d="m388.8 1875.3c-14.4 3.7-25.1 1.2-31.1-1.2-1.5 4.4-3.5 9.9-2.4 13 1.3 3.9 3.2 4.8 4.8 4.8 13.2 0.3 48.2 0.8 58.3 1 1.4 0 2.1-1.7 1.2-2.8-2.5-2.9-29.8-14.1-30.8-14.8z"/>
			<path id="&lt;Path&gt;" class="s0" d="m342.8 1696.1q1.7 0.1 3.4 0.2 0.1 0 0.2 0 1.7 0.1 3.4 0.2 0.1 0 0.2 0 1.7 0.1 3.4 0.2 0.1 0 0.2 0 1.7 0 3.4 0.1c12.9 0.4 28.9 0.3 39.1-1.5 5.2-52.2 7.2-99.9 9.1-110.4 4.7-25.6-4.1-66-4.1-66l-4.1-0.8 2.6-14.9-70.3 8.8c0 0-19.6 28.6-24.3 52.2-4.7 23.6 3.4 96.2-5.6 127.2 0 0 20.1 3.1 43.4 4.7z"/>
			<path id="&lt;Path&gt;" class="s2" d="m345.8 1348.3c0 0-25-1.6-34.9 9.2-9.9 10.9 22 96.5 23.8 110.3 1.8 13.8-9.2 50.4-9.2 50.4 0 0 58.8 11.9 75.6 0.7 0 0 1.8-99.1 0-108.9-1.8-9.8-16.8-49.9-20.4-53.8-3.6-3.9-34.9-7.9-34.9-7.9z"/>
			<path id="&lt;Path&gt;" class="s6" d="m354.2 1314.8c0 0-0.1 0.7-0.4 2-1.1 6-5.4 26-8.3 31.5-3.5 6.7 12 27.9 27 25.3 4.4-0.8-3.8-19.5-3.4-21.5 0.8-3.8 1.8-8.9 2.8-14.2 0.6-3 1.2-6.1 1.8-8.9 1.6-8.1 2.9-14.8 2.9-14.8z"/>
			<path id="&lt;Path&gt;" class="s7" d="m353.8 1316.8c0.3-1.3 0.4-2 0.4-2l22.4-0.6c0 0-1.3 6.7-2.9 14.8-0.6 2.8-1.2 5.8-1.8 8.8-3.4-0.5-7-2.2-10.7-5.4-3.9-3.4-6.5-7.6-8.1-12 0.3-1.5 0.5-2.7 0.7-3.6z"/>
			<path id="&lt;Path&gt;" class="s6" d="m369.3 1263.8c0 0-10.6-1.3-17.2 7.3-6.6 8.6-13.8 35.1 2.7 49.5 16.4 14.5 32.7-1.9 35.1-19.2 2.4-17.3 3.3-38.3-20.6-37.6z"/>
			<path id="&lt;Path&gt;" class="s6" d="m394.7 1301.2c-1.9 3.8-5.2 5.9-7.3 4.7-2.1-1.2-2.2-5.3-0.3-9.1 2-3.8 5.3-6 7.4-4.7 2.1 1.2 2.2 5.2 0.2 9.1z"/>
			<path id="&lt;Path&gt;" class="s0" d="m370.4 1260.9c0 0-14.1 25.2-24.2 26.4-10 1.2-11.4 14.6-11.4 14.6 0 0 3.6-30.9 13.6-36.9 10-5.9 22-4.1 22-4.1z"/>
			<path id="&lt;Path&gt;" class="s6" d="m348.9 1293.6c0.8 4.5-0.8 8.6-3.7 9.2-2.9 0.6-5.8-2.5-6.7-7-0.8-4.5 0.9-8.6 3.7-9.2 2.9-0.6 5.9 2.6 6.7 7z"/>
			<path id="&lt;Path&gt;" class="s8" d="m361.3 1309.9l15.3 3c0 0-1.5 5.8-8.3 4.6-8.2-1.3-7-7.6-7-7.6z"/>
			<g id="&lt;Group&gt;">
				<path id="&lt;Path&gt;" class="s9" d="m1618.6 1894.7l6.3-1.2-27-143.4-6.3 1.2z"/>
				<path id="&lt;Path&gt;" class="s9" d="m1329.2 1895.4h-7.6l28.1-145.3 6.2 1.2z"/>
				<path id="&lt;Path&gt;" class="s9" d="m1548.9 1895.4h-7.5l28-145.3 6.3 1.2z"/>
				<path id="&lt;Path&gt;" class="s10" d="m1397.7 1895.4h6.1l-26.8-144.6-6.3 1.1z"/>
				<path id="&lt;Path&gt;" class="s7" d="m1506.1 1435.3c33.4 3.6 76.6 7.3 120 81 47.5 80.5 22.5 200.8-15 234.2-37.4 33.4-159.7 74.7-262.5 12.9 0 0-62.1-37.4-30.2-99.6 49-95.6 42.1-115.5 64-153 21.9-37.5 52.7-83.1 123.7-75.5z"/>
				<path id="&lt;Path&gt;" class="s11" d="m1626.1 1516.3c-29.6-50.3-59.2-68-85.6-75.3 10.2 10.6 20.6 24.2 31 41.7 47.4 80.5 22.4 200.8-15 234.2-33.2 29.7-133.2 65.5-227.1 30.1 9.7 10.7 19.2 16.4 19.2 16.4 102.8 61.8 225.1 20.5 262.5-12.9 37.5-33.4 62.5-153.7 15-234.2z"/>
				<path id="&lt;Path&gt;" class="s1" d="m1398.8 1557.7l-8.6 25.7 26.2-10.3z"/>
				<path id="&lt;Path&gt;" class="s12" d="m1425.8 1481c-1.8 0.1-6.6 1.7-13.6 14.8-8.9 16.8-21.9 67.6-21.9 67.6l38.9 14.5 5-10.6 8.3-81.6c0 0-16.3-4.7-16.7-4.7z"/>
				<path id="&lt;Path&gt;" class="s5" d="m1477.3 1473.7c-11.2 0-38.7 3.2-51.5 7.3 0 0-9.4 80.5 8.4 141.7 4 13.6-3.3 56.7-3.3 56.7l115.4-1.5c0 0-13.6-104.1-8.5-120.9 5.2-16.9 5.3-75.5 5.3-75.5 0 0-0.8-0.1-25.9-4.4-11.8-2-28.1-3.4-39.9-3.4z"/>
				<path id="&lt;Path&gt;" class="s6" d="m1490.7 1828.8c0 0-2.6 29.4-7.2 37.5-4.7 8.1 0.2 22 0.4 23.9 0.3 1.9 9.9 4.6 25.2 2.9 15.4-1.6 15.1-5.1 13.9-10.8-1.2-5.7-9.4-13-9.9-18.4-0.5-5.5 4.7-25 4.7-25z"/>
				<path id="&lt;Path&gt;" class="s13" d="m1443.9 1655.2c0 0-79.6-4.4-97.4 6.3-17.8 10.7 3.2 32.8 3.2 32.8 0 0 64.9 28.1 173.4 34.3 25.8 1.5 28-66.8 23.2-72.4-4.8-5.7-102.4-1-102.4-1z"/>
				<path id="&lt;Path&gt;" class="s7" d="m1511.1 1895.4c15.7-1.6 13.8-9.4 12.5-15.2-0.8-3.7-5.3-8-8-12.1-1.4 1.1-3.7 3.1-10.6 5.1-7.1 2.1-16.8-2.1-23-4.7-2.3 8.3-2.4 18.7-2.2 20.3 0.3 2 15.5 8.3 31.3 6.6z"/>
				<path id="&lt;Path&gt;" class="s0" d="m1502.4 1712c-3.2 24-19 143.5-19 143.5l36.6 4.5c0 0 44.9-156 42.6-179.8-2.3-23.9-19.1-25.9-19.1-25.9 0 0-32.7-5.9-41.1 57.7z"/>
				<path id="&lt;Path&gt;" class="s6" d="m1544.3 1490.5c-10.7-4-16 92.9-17.5 132.7-19.1 1.9-52.4 0.1-60.7-0.6-3.9-0.3-12.9-3.5-16.8-4-3.9-0.6-7.5-0.8-9.5-0.5-0.7 0.1-20.6 8.2-22.3 10-2.2 2.2-7.9 7.8-6.9 10.2 1 2.4 11-6.7 11-6.7l4.9-2.7c-6.1 5.9-17.8 13.7-16.1 16.6 1.7 2.7 12.2-5.2 19.6-10.6-6.4 5.8-14.4 16.1-12.5 17.7 1.6 1.5 10.7-10.5 20.4-13.9 3.6-1.3 7.2 2.2 10 2.6 2 0.4 5.3 1 7.3 0.4l10.5-2.9c3.6 0.3 3.6 2.4 7.2 3.2 4.2 0.9 11.1 1.8 16.4 3.1 30.8 7.5 41 11 50.4 10.9 28.5 0 30.1-156 4.6-165.5z"/>
				<path id="&lt;Path&gt;" class="s5" d="m1564.8 1581.5c2-40.9 1.7-91.3-21.2-99.8-9.1-3.4-25.1 17-22.2 100.6 12.3 1 30.3 1.8 43.4-0.8z"/>
				<path id="&lt;Path&gt;" class="s6" d="m1383.8 1853.9c0 0 3.2 10.2-2.6 17-5.7 6.7-29.4 13.3-32.5 17-3.1 3.6-2.9 6.7-2.9 6.7l66.6-1.8-0.7-20-3.1-14.5z"/>
				<path id="&lt;Path&gt;" class="s7" d="m1377.1 1874.2c0 0 17.1 6.9 25.4 2.8 8.3-4 8-5.2 10.4-3.7 2.4 1.6 3.3 22.1 3.3 22.1l-75 0.5c-5.2-0.2-7.8-4-3.6-7.3 2.9-2.2 6.3-3.7 8.2-4.8 5.8-3.3 31.3-9.6 31.3-9.6z"/>
				<path id="&lt;Path&gt;" class="s0" d="m1386.3 1674c-5.2-10.8-16.9-24.9-37.5-16.4-19.6 8.1-24.9 27.9-18.7 48.3 6.2 20.3 47 139.8 48.4 156.2l32.6 0.3c0 0-5.9-94.7-7.3-117.6-1.4-22-8.6-52.1-17.5-70.8z"/>
				<path id="&lt;Path&gt;" class="s2" d="m1333.4 1563.9h108.9c2.9 0 5.5 1.8 6.6 4.4l33.6 81.9h60c1.7 0 3.1 1.3 3.1 3 0 1.7-1.4 3-3.1 3h-170.9c-4.7 0-9-2.7-10.9-7l-33.8-75.3c-2.1-4.7 1.3-10 6.5-10z"/>
				<g id="&lt;Group&gt;">
					<path id="&lt;Path&gt;" class="s8" d="m1392 1611.6c0.8 3.6 4 6.1 7.2 5.5 3.2-0.7 5.2-4.2 4.5-7.9-0.7-3.6-3.9-6.1-7.2-5.5-3.2 0.7-5.2 4.2-4.5 7.9z"/>
				</g>
				<path id="&lt;Path&gt;" class="s6" d="m1490.5 1439.2l5.3 35.1c0 0-19.4 41.9-31.1 38.2-9.7-3-3.7-40-3.7-40 0 0 5.3-19.9 3.7-29.9-1.6-9.9 25.8-3.4 25.8-3.4z"/>
				<path id="&lt;Path&gt;" class="s14" d="m1464.7 1442.6c-1.6-9.9 25.8-3.4 25.8-3.4l0.4 2.9c-0.8 1.9-1.7 3.6-2.9 4.9-6.2 6.6-15.7 10.5-24 10.8 0.8-5.3 1.4-11.1 0.7-15.2z"/>
				<g id="&lt;Group&gt;">
					<path id="&lt;Path&gt;" class="s6" d="m1495 1389.5c0.8-0.3 6.2 40-4.1 51.1-10.3 11.1-30.4 14.7-37.6 6-8-9.7-7.6-53 8.5-64.4 16-11.4 33.2 7.3 33.2 7.3z"/>
					<path id="&lt;Path&gt;" class="s0" d="m1467.9 1360.6c12.3 2.5 20.4 10.1 23.3 13.3 5.6 0.7 13.3 3.8 21.2 16.9 9.7 16 2.5 33.8-8.8 42.6-11.3 8.7-11.1 18.8-11.1 18.8l-1.8-5.2c-1.3-4-1.9-8.2-1.4-12.3 0.2-2.5 0.8-5.2 1.8-7.4 2.7-5.8-5.8-9.7-8.2-14.6-1.9-3.7-2-12.3-4.9-18.4l-3.5-4.8c0 0-8-6.2-15.8-4.4-7.9 1.7-6.7-27.7 9.2-24.5z"/>
					<path id="&lt;Path&gt;" class="s6" d="m1483.4 1419.9c-0.1 4.9 2.1 8.9 5 9 2.8 0 5.2-3.9 5.3-8.8 0.1-4.9-2.2-9-5-9-2.9-0.1-5.2 3.9-5.3 8.8z"/>
				</g>
				<path id="&lt;Path&gt;" class="s8" d="m1469.5 1433.5l-15.6-0.8c0 0 0.1 5.9 6.9 6.5 8.3 0.7 8.7-5.7 8.7-5.7z"/>
			</g>
			<g id="&lt;Group&gt;">
				<path id="&lt;Path&gt;" class="s15" d="m1778.9 1237.6c1.7 7 4.8 18 4.8 18-0.2 3-1.1 15.6-2.2 31l22.7-9c0 0-0.3-25.2 0.7-26.7 0.9-1.3 2.3 0.3 9.3-9.6 2-2.9 2.4-8.1 2.4-8.1 0 0 0.4-6.3-1-6.9-1.5-0.5-3.1 0.4-3.6 1.5-0.5 1.1-0.4 3.6-0.9 4.7-0.5 1.1-3.8 2.4-5.2 2.4-1.4-0.1 0.2-18.7 0.2-18.7 0 0 0.8-5.3 1.2-7 0.3-1.5 1.6-5.8 1.6-5.8 0 0 1.6-6.3-0.3-6.8-1.2-0.3-4.1 4.8-6.1 10.2-2.2 5.9-3.4 12-4 11.9-1.5-0.2-0.7-10.4-0.7-10.4 0 0 1.5-4.6 1.4-6.8 1.4-2.7 2.3-7.8-0.1-8.2-0.5 0-3.6 6.3-3.6 6.3 0 0-1.3 4.5-2 6.6-1.3 3.7-1.5 9.5-2.1 12.1-0.6 2.2-1.1 1.3-1.3 1.4-0.2 0 0.1-2.9 0.5-7 0.2-2-0.1-4.4 0.5-6.7 0.5-2.2 0.8-5.3 1-7.1 0.3-5.3-3-4.8-4.1 0.1-0.5 1.8-0.9 3.8-1.4 5.8-1.8 8-1.7 15.6-2.6 15.6-1.1 0.1-0.3-13.8-0.3-13.8 0 0-1.7-7.6-3.4-0.5-2 8.3-1.8 15-1.8 15.3 0.2 2-1.2 9.3 0.4 16.2z"/>
				<path id="&lt;Path&gt;" class="s15" d="m2019.7 1219.3c-1.7 6.9-4.7 17.9-4.7 17.9 0.2 3.1 1.1 15.7 2.2 31.1l-22.7-9.1c0 0 0.3-25.1-0.8-26.7-0.8-1.3-2.3 0.4-9.2-9.6-2-2.9-2.4-8-2.4-8 0 0-0.4-6.3 1-6.9 1.4-0.6 3.1 0.4 3.6 1.4 0.5 1.1 0.4 3.7 0.9 4.8 0.5 1.1 3.8 2.4 5.1 2.3 1.4-0.1-0.1-18.7-0.1-18.7 0 0-0.8-5.3-1.2-7-0.3-1.5-1.7-5.8-1.7-5.8 0 0-1.5-6.2 0.4-6.7 1.2-0.3 4.1 4.8 6.1 10.2 2.1 5.8 3.4 12 4 11.9 1.4-0.2 0.7-10.4 0.7-10.4 0 0-1.5-4.7-1.4-6.9-1.4-2.7-2.3-7.7 0.1-8.1 0.4-0.1 3.6 6.3 3.6 6.3 0 0 1.2 4.5 2 6.6 1.2 3.7 1.4 9.5 2.1 12.1 0.5 2.1 1.1 1.2 1.3 1.3 0.2 0.1-0.2-2.9-0.5-6.9-0.2-2.1 0.1-4.4-0.5-6.8-0.6-2.1-0.9-5.2-1-7.1-0.4-5.2 2.9-4.7 4.1 0.1 0.4 1.9 0.9 3.9 1.3 5.9 1.8 7.9 1.8 15.5 2.6 15.6 1.1 0.1 0.4-13.8 0.4-13.8 0 0 1.7-7.7 3.4-0.5 2 8.2 1.8 15 1.7 15.3-0.1 2 1.3 9.2-0.4 16.2z"/>
				<path id="&lt;Path&gt;" class="s6" d="m1957.7 1811c0 0 12.5 15.6 15.7 17.5 3.1 1.9-1.4 24.6-10 26-4.8 0.9-7.4-4.4-7.4-4.4l1.3-6.5-17.9-18.6z"/>
				<path id="&lt;Path&gt;" class="s6" d="m1892.9 1814.8c0 0 10.5 17.1 13.3 19.4 2.9 2.3-4.5 24.2-13.2 24.6-4.8 0.2-6.8-5.4-6.8-5.4l2.2-6.3-15.5-20.7z"/>
				<path id="&lt;Path&gt;" class="s4" d="m1905.6 1833.5c0 0-6 7.7-9.3 10.8-4.3 3.9-9.7 7.8-9.7 7.8 0 0-6.1 11.1-7.8 15-3.8 8.7-8 18.4-7.4 23.2 0.2 1.6 3.7 3.2 6.7 2.3 12.1-3.7 43.2-32.1 47.1-39.8 4.5-8.8-19.6-19.3-19.6-19.3z"/>
				<path id="&lt;Path&gt;" class="s9" d="m1816.9 1573.5c1.1-3.2 2.2-6.1 3.3-8.8 12.9 2.8 27.5 5.9 42.5 9.1l1.8 55c0-4.2-11.3 87.8-11.3 87.8 0 0 29.2 64.6 49.2 102.2-8.2 10.2-12.1 13.5-23.9 20.5-31-37.1-71.5-105.1-73.2-116.4-1-6.5-1.9-111.5 11.6-149.4z"/>
				<path id="&lt;Path&gt;" class="s16" d="m1932.3 1589.4c-4 42.9-12.8 124.9-12 131.4 2.2 8.3 41.2 84.1 48.2 95.2-5.5 8.4-14.2 17.5-23.5 20-1.8 0.5-66.2-91.2-69.8-98.5-3.9-8.2-10.5-53.1-10.7-108.7l-1.8-55c25 5.3 48 10.5 69.6 15.6z"/>
				<path id="&lt;Path&gt;" class="s2" d="m1850.1 1393.9l29.5 4.1c0 0 23.5 0.4 26.4 0.4 2.9 0 21.5 107.6 26.8 148 5.4 40.4 1.3 47.6 1.3 47.6 0 0-37.4 8.4-65 5.9-28.7-2.5-61-18-61-18 0 0 24.5-77.7 29.4-102 4.8-24.2 12.6-86 12.6-86z"/>
				<path id="&lt;Path&gt;" class="s5" d="m1778.7 1263.8c0 0-1.9 80.1 1.1 86.2 4.4 8.9 53.9 72.1 53.9 72.1 0 0-23.6 98.9-33.6 133-1 3.4-5.4 25.6-5.4 27.8 0 4.8 20.9 10.9 23.4 10.5 2.2-0.3 20.4-94.3 32.1-140.3 3.9-15.6 10.7-30.4 19.9-43.5l8.1-11.5-62.1-62.3c0 0-7.7-69.3-7.7-75 0-1.5-26.7-2.6-29.7 3z"/>
				<path id="&lt;Path&gt;" class="s5" d="m1905 1398.4l77.5-78.9c0 0 10.8-74.7 11.5-77.5 0.8-2.7 20-4.2 27.8-5 2.5-0.2-1.3 79.5-5 92.9-4.4 15.8-63 87.7-63 87.7 0 0-10.5 39-7.9 67.6 4.2 47.4 15.5 112.7 13.5 114.8-12.6 7.9-61 8.8-64 3.8-33.8-54.4 9.6-205.4 9.6-205.4z"/>
				<path id="&lt;Path&gt;" class="s4" d="m1972.7 1827.9c0 0-5 8.4-7.9 11.8-3.7 4.5-8.6 9-8.6 9 0 0-4.7 11.9-5.8 15.9-2.6 9.1-5.6 20.1-4.4 24.8 0.4 1.5 3.8 4.4 6.5 2.6 10.7-6.9 39.2-39.4 42.1-47.4 3.3-9.4-21.9-16.7-21.9-16.7z"/>
				<path id="&lt;Path&gt;" class="s17" d="m1881.7 1295.6c3.3 0.1 6.6 0.1 9.9-0.2 3.7-0.4 8.5-0.6 11.2 0 5.7 1.2 14.8 5.2 17.8 12.8 3.8 9.3 17.3 7.9 1.3 43.4-18.1 40.2-39.3 27-39.6 26.1-0.3-0.9-10.4-34-10.4-34 0 0-12.7 12.5-12.5 12 0.2-0.6-17.3-61.6 22.3-60.1z"/>
				<path id="&lt;Path&gt;" class="s6" d="m1879.9 1383.4l-2.1 15.7c0 0-4.7 22.6 1.4 27 6.1 4.4 25.9-27.7 25.9-27.7l-2.1-39.8z"/>
				<path id="&lt;Path&gt;" class="s7" d="m1903.6 1371.5c-5 13.6-16.9 22-25.4 25.2l1.7-13.3 23.1-24.8z"/>
				<path id="&lt;Path&gt;" class="s6" d="m1896.1 1313.6c-11.3-6.5-25.8-0.9-30.1 11.3-1.8 5.3-3.9 12-5.4 19.5-3.8 17.9 2.1 37.3 10.3 38.8 8.1 1.6 32.9-5.8 38.6-31.2 3.6-15.7-1.5-31.6-13.4-38.4z"/>
				<path id="&lt;Path&gt;" class="s6" d="m1903.1 1352.8c-0.7 4 1.3 7.7 4.5 8.4 3.3 0.6 6.5-2.1 7.3-6.1 0.7-4-1.3-7.7-4.5-8.3-3.2-0.6-6.5 2.1-7.3 6z"/>
				<path id="&lt;Path&gt;" class="s17" d="m1910.4 1346.8c0 0-10.1-1.2-11.3-8.5-1.2-7.2-8.6-24.7-26.3-25.3-17.6-0.5 18.7-7.7 19.9-7.3 1.3 0.5 16.3 6.1 16.3 6.1 0 0 8 13.8 8 15 0 1.2-1 13.9-1 13.9z"/>
				<path id="&lt;Path&gt;" class="s8" d="m1884.1 1365.2l-18.1-3.1c0 0-0.8 6.9 7.1 8.5 9.7 2 11-5.4 11-5.4z"/>
			</g>
			<g id="&lt;Group&gt;">
				<path id="&lt;Path&gt;" class="s15" d="m971.4 1438.7c0.6 2.4 1 3.1 1.9 4.7 5.6 10.2 18.5 24.7 18.5 24.7l10.1-22.6c0 0-1.7-7.1-4.5-17.2-9.7 2.5-18.9 4-26 10.4z"/>
				<path id="&lt;Path&gt;" class="s4" d="m1028.8 1419.1c0 0-55.9 24.1-57.7 23.7-1.2-0.3-22.9-36.8-23.2-71-0.1-15.9 16.4-34.9 34.7-31.1 9.2 1.9 9.1 4.4 22.7 24.3 13.7 19.8 23.5 54.1 23.5 54.1z"/>
				<path id="&lt;Path&gt;" class="s6" d="m1076.5 1850.7c0 0-1.3 22-1.3 22-0.5 2.8-2.4 9.7-2.4 12.2 0 9.6 45.2-8 35.1-12.3-1-0.3-5.8-3.2-6.1-6.5-0.4-5-1.6-15.1-1.6-15.1z"/>
				<path id="&lt;Path&gt;" class="s18" d="m1107.8 1872.5c0 0-10.7 3-16.1 3.7-5.4 0.7-12.6-5.4-16.4-3.8-4.3 1.9-4.1 18.3-4.1 18.3 0 0 56.9 4.6 72.9-0.2 6.3-1.9-14.7-11.2-36.3-18z"/>
				<path id="&lt;Path&gt;" class="s6" d="m984.1 1850.7c0 0-1.4 22-1.4 22-0.5 2.8-2.4 9.7-2.4 12.2 0 9.6 45.2-8 35.1-12.3-0.9-0.3-7.2-5.4-7.5-8.6-0.4-5-0.2-13-0.2-13z"/>
				<path id="&lt;Path&gt;" class="s18" d="m1015.3 1872.5c0 0-10.6 3-16.1 3.7-5.4 0.7-12.6-5.4-16.4-3.8-4.2 1.9-4.4 18.3-4.4 18.3 0 0 57.2 5.4 73.2-0.2 6.3-2.2-14.6-11.2-36.3-18z"/>
				<g id="&lt;Group&gt;">
					<path id="&lt;Path&gt;" class="s6" d="m997.9 1450.9l39.8-55.8q0.2-0.7 1.1-3c2-5.5 6.1-17 9.8-28.5v-0.1c1.2-4 3.6-11 5.9-17.8 2.6-7.5 5.9-16.8 6-18.4q-0.2-0.4-0.6-1.4c-1.4-3.8-3.4-12.8-4.1-16.7-0.4-2.5-0.9-8.6 2.1-8.6 4.7 0 2.4 6.1 4.6 9.8 0.8-2.5 2.4-7.5 3.2-12.6l0.8-11.8c0.1-0.9-0.8-7.5 2.5-7.5h0.1c3 0.2 2.9 7.2 4.1 19 0.4-1.4 0.8-3 1.1-4.5 0-0.8 0.5-4.4 1-6.2-0.6-3.3-0.3-8.5 3.2-8 1.8 0.2 1.6 7.5 1.6 7.5 0 0.9-0.1 8.6 0 10.1 0.3-2.6 1.7-13.5 4.5-13.5 2.2 0 2.4 2.9 2.4 5.3-0.1 1.3-1.5 13.2-1.6 14.5 1.1-1.7 2.4-12.2 3.4-12.2 4.5 0 2.9 14.9 1.2 18.7-0.1 0.4-0.3 1.2-0.5 2.1-0.5 2.6-1.4 7-3.8 11-2.7 4.8-6.6 12.3-7.2 13.5-0.4 2.3-1.7 10.8-3.4 21.5-0.7 4.6-1.5 9.6-2.3 14.8h-0.1c-0.1 1.1-0.9 4.7-4.1 18.1-4.3 18.3-4.8 19.1-4.9 19.5-1.9 3.3-44.8 61.6-46.7 64.1l-1 1.4z"/>
					<path id="&lt;Path&gt;" class="s7" d="m1071.9 1320.8c0 0-3.2-8.2-9-8.3 0 0 3.3-1.1 6 1.1 2.8 2.1 3 7.2 3 7.2z"/>
				</g>
				<g id="&lt;Group&gt;">
					<path id="&lt;Path&gt;" class="s6" d="m988.3 1304.8l-5.2 32.5c0 0 19.6 15.6 30.9 12.3 9.6-2.7 3-15.2 3-15.2 0 0-5-17.3-3.5-26.4 1.6-9.1-25.2-3.2-25.2-3.2z"/>
					<path id="&lt;Path&gt;" class="s19" d="m991.9 1314.6c4.9 2.4 14.6 5.5 22.1 6.3-0.7-4.6-1.1-9.4-0.5-12.9 0.7-4.2-4.6-5.2-10.5-5-7.8 0.6-14.7 1.8-14.7 1.8l-1 6.3c1.5 1.5 3 2.8 4.6 3.5z"/>
					<path id="&lt;Path&gt;" class="s6" d="m963.6 1267.5c-0.8 0 7.7 36.2 20.9 42.4 13.2 6.2 32.9 3 36.6-6.8 4.1-10.8-10.8-47.7-29.4-52.4-18.5-4.7-28.1 16.8-28.1 16.8z"/>
					<path id="&lt;Path&gt;" class="s4" d="m978.9 1234.2c-10.6 6.1-15.4 15.1-17 18.8-5 2.3-11 7.4-13.8 21.1-3.6 16.8 9 29.8 22.3 33.7 13.3 3.9 15.4 12.7 15.4 12.7l1.5-9.5c0 0-3-8.3-7.4-12.4-4.5-4.1 2.1-10.1 2.7-15.1 0.4-3.7-2.4-11.1-1.8-17.3 0 0 7.4-11.2 14.7-14 12.5-4.7-3.1-25.8-16.6-18z"/>
					<path id="&lt;Path&gt;" class="s6" d="m984.5 1289.8c1.7 4.2 1 8.4-1.6 9.3-2.6 1-6.1-1.7-7.8-5.8-1.7-4.2-1-8.4 1.6-9.3 2.6-1 6.1 1.7 7.8 5.8z"/>
				</g>
				<path id="&lt;Path&gt;" class="s15" d="m1033.6 1451.8l76.8-12.5c0 0-8.7-22-11.8-22-3.2 0-58.1 24-58.1 24l-4.4 8.7z"/>
				<path id="&lt;Path&gt;" class="s10" d="m994.3 1504.4c0 0-7.7 37.1-4.5 65.2 3.1 28 3.3 127.8 3.3 127.8l-11.9 159.6 28.3 0.6c0 0 33.5-159.5 32.9-155.4-0.6 4.1 11.2-112.3 11.2-112.3l-39.9-89z"/>
				<path id="&lt;Path&gt;" class="s4" d="m1001.8 1502.7c0 0-5 33.3 1.2 48 6.3 14.6 53.6 158.1 54.2 169.8 0.6 11.7 16.4 141 16.4 141l32.8-0.9 7.2-143.8-14.9-180.7-14.5-45.7z"/>
				<path id="&lt;Path&gt;" class="s6" d="m983.1 1337.3c0 0 8.1 5.3 15.7 4.7 7.6-0.7 18.2-7.6 18.2-7.6l-1.4-5.1c0 0-19.6-2.8-20.1-2.5-0.5 0.3-12.4 10.5-12.4 10.5z"/>
				<path id="&lt;Path&gt;" class="s15" d="m1069.5 1416.2c0 0 29.1 27.4 42.2 22.7 13.1-4.7 18.5-20.7-13.5-44.1-28.6-20.9-28.7 21.4-28.7 21.4z"/>
				<path id="&lt;Path&gt;" class="s2" d="m1089.2 1450c-4.3-23.4-35.6-96.5-38.1-110-1.2-6.5-18.1-6.6-34.1-5.8-17 0.9-33.9 3.1-33.9 3.1 0 0-15 2.4-21.6 8.6-6.6 6.2-8.4 23.3 1.1 55.9 7.5 25.6 16.8 39.7 21.4 58.4 1 6.3 1.8 12.5 2.8 19.7 1.7 28 0 64.9 0 64.9 0 0 81.8 17 112.4-8.8 0 0-5.6-61.9-10-86z"/>
				<path id="&lt;Path&gt;" class="s20" d="m1110.1 1399.6c0 0-32.1 26.4-34 26.4-1.2 0-45.8-32.8-56.1-59.7-5.7-14.9 6.2-31.6 19.9-31.5 9.4 0 13.6 2.5 32.4 18.2 18.7 15.8 37.8 46.6 37.8 46.6z"/>
			</g>
			<g id="&lt;Group&gt;">
				<g id="&lt;Group&gt;">
					<path id="&lt;Compound Path&gt;" fill-rule="evenodd" class="s21" d="m1250.9 824.6l-22.6 42c-2.1 1.4-4.2 0.5-9.6-1.9-9.7-4.1-19.3-8.3-29.1-12.1-1.6-0.6-4.3 0-5.6 1.1-8.1 6.4-15.7 13.3-23.8 19.7-2.5 2-3.5 3.4-2.7 6.6 3 13.1 5.6 26.3 8.3 39.3-10.4 6.5-39.2 15.5-49.8 15.5-4.8-11.8-10-23.9-14.6-36.1-1.4-3.8-3-4.9-7.3-5-9.9-0.2-19.8-1.4-29.7-2.7-4-0.5-6.5-0.4-8.9 3.5-6.1 9.9-12.9 19.5-19.2 29.4-1.7 2.6-3.5 3.6-6.3 2.1q-19.9-10.5-39.7-21c-3.3-1.7-1.6-4.1-0.8-6.2 4.3-10.6 8.5-21.1 13.1-31.5 1.8-3.9 1.2-6.3-1.7-9.4-7.9-8.4-15.2-17.3-23.3-26.6-12.9 2.7-27.2 5.6-42 8.6-7.8-15.6-12.6-32-14.9-49.7 13.5-5.5 27-11.1 38.9-16 1.6-13.6 2.8-26.2 4.7-38.7 0.6-3.6-0.2-5.2-3-7-9.8-6.2-19.3-12.7-29-19-2.1-1.4-3.4-2.6-2.4-5.3 5.1-14 11.2-27.4 20.3-39.4 2-2.6 3.8-2.7 6.5-1.6 11 4.6 22 8.9 33 13.5 2.7 1.1 4.2 1.1 6.7-1 8.6-7.4 17.5-14.4 26.5-21.2 2.4-1.7 2.5-3.1 2-5.5-2.7-13.1-5.3-26.3-8-39.8 15.7-7.5 31.6-12.9 49-15.3 5.7 13.8 11.3 27.5 16.7 40.5 14.2 1.4 28 2.7 42.8 4 5.7-8.5 12.2-18.4 18.9-28.2 5.4-8 3.6-8.1 13.2-4.2 0.9 0.4 2 0.4 3 0.6q11.8 6.4 23.6 12.8c1.6 1.2 3.1 2.8 4.8 3.7 4.6 2.4 5.7 5.1 3.4 10.2-4.9 10.6-9.1 21.6-13.3 32.5-0.5 1.4-0.1 3.9 0.8 5.1 6.2 8 13.1 15.5 18.9 23.8 2.8 4.1 5.2 4.6 9.6 3.6 12.4-2.8 24.9-5.1 38.6-7.8 5.2 16.6 10.3 32.8 15.3 49.2-2.9 1.3-4.6 2.1-6.4 2.8-10.6 4.4-21.3 8.9-32 13.1-3.1 1.1-3.8 2.8-4.1 6-0.9 10.9-2.6 21.8-3.6 32.7-0.1 1.7 1.1 4.2 2.5 5.2 7.8 5.5 15.8 10.5 23.7 15.8 6.3 4.3 8.6 5.9 8.6 9.3zm-92.6-24c20.2-37.6 6.1-84.4-31.4-104.6-37.6-20.2-84.4-6.1-104.6 31.4-20.2 37.6-6.1 84.4 31.4 104.6 37.6 20.2 84.4 6.1 104.6-31.4z"/>
				</g>
			</g>
			<path id="&lt;Compound Path&gt;" fill-rule="evenodd" class="s22" d="m866.2 997.5l12.6 63c-0.9 3.2-4 4-11.6 6.3-13.6 3.9-27.2 7.9-40.6 12.3-2.1 0.7-4.5 3.6-4.9 5.9-2.8 13.6-4.8 27.3-7.8 40.9-0.9 4.2-0.7 6.5 2.9 9.2 14.3 11.1 28.4 22.5 42.4 33.6-5.3 15.7-27.5 49.8-38.5 58.9-15.2-8.1-30.8-16.2-46.1-24.9-4.7-2.7-7.3-2.6-11.9 1-10.4 8.3-21.7 15.6-33.1 22.7-4.6 2.9-7.1 5.2-6.3 11.2 2.2 15.7 3.4 31.4 5.3 47.1 0.5 4.2-0.6 6.7-4.8 7.6q-29.6 6.1-59.1 12.3c-4.9 1-5.3-3-6.2-5.9-4.6-14.6-9.3-29.1-13.4-43.9-1.5-5.5-4.1-7.6-9.9-8.3-15.3-1.9-30.5-4.9-46.9-7.6-11.2 13.9-23.6 29.2-36.2 45-21.6-9.5-40.6-22.4-58.2-38.8 9.2-17.4 18.5-34.7 26.6-50-10-15.5-19.5-29.6-28.3-44.3-2.5-4.2-4.7-5.1-9.2-4.5-15.4 1.8-30.9 3.2-46.3 5-3.4 0.4-5.8 0.3-7.1-3.4-6.8-18.9-11.9-38.1-12.7-58.3-0.2-4.5 1.6-6.1 5.4-7.3 15.3-4.6 30.5-9.6 45.8-14.2 3.7-1.2 5.4-2.5 6.1-6.9 2.6-15 5.8-29.9 9.4-44.7 0.9-3.8-0.2-5.4-2.7-7.4-14.1-11.4-28.1-22.8-42.5-34.5 9.9-21.2 21.8-40.6 37.8-57.9 17.7 9.4 35.3 18.8 52.1 27.7 15.9-10.8 31.3-21.3 47.8-32.5-1.4-13.8-3.1-29.7-4.6-45.6-1.2-13-3.2-11.5 10.1-15.7 1.3-0.4 2.4-1.2 3.6-1.9q17.8-3.5 35.6-7.1c2.7 0 5.5 0.3 8.1-0.2 6.8-1.5 10.4 0.4 12.3 7.7 4.1 15.2 9.1 30.2 14.1 45.1 0.7 2 3.2 4.2 5.2 4.7 13.3 3 26.9 4.8 40 8.5 6.4 1.8 9.4 0.2 13.1-4.5 10.5-13.6 21.5-26.7 33.4-41.3 19.6 12.8 38.8 25.3 58.1 37.9-2 3.9-3.1 6.2-4.3 8.4-7.3 13.7-14.5 27.5-22 41.1-2.1 3.9-1.5 6.2 1 9.7 8.4 12.2 16 24.9 24.3 37.1 1.3 1.9 4.8 3.5 7.1 3.3 12.7-1 25.4-2.7 38.1-3.9 10.2-1 14.1-1.3 16.9 2.3zm-239.1-27.1c-56.4 11.2-92.9 66-81.6 122.3 11.2 56.4 66 92.9 122.4 81.6 56.3-11.2 92.8-66 81.6-122.4-11.3-56.3-66.1-92.8-122.4-81.5z"/>
			<path id="&lt;Compound Path&gt;" fill-rule="evenodd" class="s23" d="m828.8 672.4l-9.6 26.7c-1.1 1-2.4 0.6-5.8-0.3-6-1.5-12.1-3.1-18.2-4.5-0.9-0.2-2.5 0.4-3.2 1.1-4.1 4.5-8 9.3-12.2 13.7-1.3 1.4-1.7 2.3-1 4.2 2.9 7.4 5.6 14.9 8.4 22.3-5.5 4.8-21.7 12.6-27.9 13.6-3.9-6.5-8-13.2-11.8-19.9-1.2-2.1-2.2-2.6-4.7-2.3-5.9 0.7-11.8 1-17.7 1.1-2.4 0-3.9 0.3-5 2.8-2.7 6.4-5.8 12.6-8.7 19-0.7 1.7-1.7 2.4-3.5 1.8q-12.6-4.4-25.2-8.8c-2-0.7-1.3-2.3-1-3.6 1.6-6.6 3.1-13.2 4.9-19.7 0.7-2.4 0.2-3.8-1.9-5.4-5.3-4.2-10.4-8.8-16-13.5-7.4 2.7-15.5 5.7-23.9 8.8-6-8.5-10.3-17.7-13.2-27.9 7.4-4.5 14.9-8.9 21.4-12.9-0.3-8.1-0.7-15.6-0.7-23.2 0.1-2.1-0.6-3-2.4-3.8-6.3-2.8-12.4-5.8-18.7-8.6-1.4-0.6-2.2-1.2-1.9-2.9 1.7-8.7 4.2-17.1 8.4-25 1-1.7 2-1.9 3.7-1.5 6.9 1.7 13.8 3.3 20.6 5 1.7 0.4 2.6 0.3 3.9-1.2 4.4-5.1 9-10 13.7-14.8 1.2-1.2 1.1-2.1 0.6-3.4-2.7-7.5-5.4-15-8.2-22.7 8.5-5.8 17.4-10.4 27.4-13.4 4.6 7.6 9.1 15.2 13.5 22.4 8.5-0.5 16.7-1 25.5-1.5 2.6-5.5 5.5-11.9 8.5-18.3 2.5-5.2 1.4-5.1 7.5-3.6 0.5 0.1 1.2 0 1.8 0.1q7.5 2.7 15 5.3c1.1 0.6 2 1.4 3.2 1.8 2.9 1 3.8 2.5 2.9 5.7-1.9 6.7-3.4 13.5-5 20.3-0.1 0.9 0.3 2.3 1 3 4.3 4.1 9.1 7.9 13.2 12.3 2 2.1 3.5 2.2 5.9 1.2 7.1-2.7 14.3-5.2 22.1-8 4.5 9.3 8.9 18.4 13.4 27.5-1.7 1.1-2.6 1.7-3.6 2.2-5.8 3.6-11.7 7.2-17.6 10.6-1.7 1-2 2-1.9 3.9 0.5 6.5 0.5 13 0.8 19.6 0.1 1 1 2.4 2 2.8 5 2.5 10.2 4.8 15.3 7.2 4.1 1.9 5.6 2.7 5.9 4.7zm-84.4-64.6c-23.9-8.5-50.2 4-58.7 27.8-8.5 23.9 3.9 50.2 27.8 58.7 23.9 8.5 50.2-3.9 58.7-27.8 8.5-23.9-3.9-50.2-27.8-58.7z"/>
			<path id="&lt;Path&gt;" class="s2" d="m742 1883.5l-15.1-0.1c2-65.9 3.8-166.1 0.4-171.7 0.1 0 0.3 0.4 1 0.8l12.3-3.2c2 1 3.2 1.6 3.6 29.6 0.2 14.5 0.1 34.4-0.2 59.3-0.7 42.3-2 84.9-2 85.3z"/>
			<path id="&lt;Path&gt;" class="s2" d="m786.3 1882.7h-101.9c-4.7 0-8.5 3.8-8.5 8.5 0 0.8 0.6 1.5 1.4 1.5h116c0.8 0 1.5-0.7 1.5-1.5 0-4.7-3.8-8.5-8.5-8.5z"/>
			<path id="&lt;Path&gt;" class="s2" d="m740.4 1874.3h-12.5c-3.7 0-6.7 3-6.7 6.7 0 3.7 3 6.7 6.7 6.7h12.5c3.7 0 6.7-3 6.7-6.7 0-3.7-3-6.7-6.7-6.7z"/>
			<path id="&lt;Path&gt;" class="s4" d="m378.9 1892.5v-300.6h-6v300.6z"/>
			<path id="&lt;Path&gt;" class="s4" d="m683 1425.6c-0.6-13.4 1.4-26.6 7.3-39 5.2-10.7 17.9-16.8 29.5-16.8 36.9 0 41.5 48.6 65 67.4 7.2 5.8 15.2 10.4 22 16.6 25 22.9 13.7 65.2-9.3 85.2-15.9 13.9-41 21.8-60.7 10.9-10.2-5.7-18-15.1-23.6-25.4-7.9-14.7-12.9-31.6-18.5-47.2-6-16.6-11-34-11.7-51.7z"/>
			<path id="&lt;Path&gt;" class="s3" d="m581.3 1565.6l80.2-22.4c0 0 16.9-22.7 38.6-53.1 7.1 7 11.1 17.8 18.2 24.8l-53 58.7c-2 2.1-4.7 3.3-7.5 3.3l-73.7 0.3-25.2 2v-16.2z"/>
			<path id="&lt;Path&gt;" class="s24" d="m696.7 1548.5c0 0 27.6-28.2 34.6-40.4 7.1-12.3-4.8-4.3-16.9-7.5-4.6-1.3-3.5-28.2-12.2-19.5-14.3 14.4-32.2 39.6-32.2 39.6z"/>
			<path id="&lt;Path&gt;" class="s16" d="m735.9 1468.8c0 0 24.7-4.9 35.9 4.5 11.3 9.4-2.4 93.1-2.4 107 0 13.9 7.8 53.1 7.8 53.1 0 0-74.9 13.1-86.8-7.8 0 0-3.4-79.3-2.9-89.3 0.5-10 11.6-50.8 14.7-55.2 3.1-4.3 33.7-12.3 33.7-12.3z"/>
			<path id="&lt;Path&gt;" class="s6" d="m736 1430.5c0 0 0.1 0.8 0.4 2 1.1 6.1 5.4 26.1 8.3 31.6 3.5 6.6-12 27.8-27 25.2-4.5-0.8 3.8-19.5 3.4-21.4-0.8-3.8-1.8-9-2.9-14.3-0.6-3-1.2-6-1.7-8.9-1.6-8.1-2.9-14.7-2.9-14.7z"/>
			<path id="&lt;Path&gt;" class="s7" d="m736.4 1432.5c-0.3-1.2-0.4-2-0.4-2l-22.4-0.5c0 0 1.3 6.6 2.9 14.7 0.5 2.9 1.1 5.9 1.7 8.8 3.5-0.5 7.1-2.1 10.7-5.3 4-3.5 6.6-7.6 8.2-12.1-0.3-1.4-0.5-2.6-0.7-3.6z"/>
			<path id="&lt;Path&gt;" class="s6" d="m720.9 1379.6c0 0 10.6-1.2 17.2 7.3 6.7 8.6 13.8 35.1-2.7 49.5-16.5 14.4-32.8-1.9-35.2-19.2-2.4-17.3-3.3-38.2 20.7-37.6z"/>
			<path id="&lt;Path&gt;" class="s6" d="m695.4 1417c1.9 3.8 5.2 5.9 7.3 4.7 2.1-1.2 2.3-5.3 0.3-9.1-2-3.8-5.3-6-7.4-4.7-2.1 1.2-2.2 5.2-0.2 9.1z"/>
			<path id="&lt;Path&gt;" class="s4" d="m719.7 1376.8c0 0 14.2 25.2 24.3 26.3 10.1 1.2 11.4 14.6 11.4 14.6 0 0-3.6-30.9-13.6-36.8-10-6-22.1-4.1-22.1-4.1z"/>
			<path id="&lt;Path&gt;" class="s6" d="m741.3 1409.4c-0.8 4.5 0.9 8.6 3.7 9.2 2.9 0.6 5.9-2.6 6.7-7 0.8-4.5-0.8-8.6-3.7-9.2-2.9-0.6-5.9 2.6-6.7 7z"/>
			<g id="&lt;Group&gt;">
				<path id="&lt;Path&gt;" class="s3" d="m646.1 1824.4c0 0 22.7 27.2 22.9 29.6 0.1 2.4-0.9 28.2-3.6 30.6-2.7 2.4-10.7 4.1-8.1 6.7 1.9 2.1 16.8 1.6 26.6 1.1 2.9-0.2 6.5-23.1 7.6-26.4 1.7-4.9 5.7-15.9 4.2-19.4-0.8-1.6-4.3-5-9.2-8.2-5.2-3.4-25-31-25-31z"/>
				<path id="&lt;Path&gt;" class="s11" d="m686.2 1838.2c0 0-15.3 43-21.2 45.1-1.6 0.5-9.2 1.9-10.7 5.3-0.4 1 0 4.4 0 4.4h31.8c0 0 4-19 5.6-27.3 0 0 8.5-20.3 7.5-22.1-0.9-1.9-13-5.4-13-5.4z"/>
				<path id="&lt;Path&gt;" class="s6" d="m510 1837.5c0 0-18.5 26.1-16.9 34.4 0.9 4.4 4.8 10.2 2.5 14.3-2.2 4.2-4.7 5.2-4.7 5.2l-57.9 1c-3.2 0-1.1-2 1.5-3.9 4.1-3 7.5-5 20.8-11.4 0.8-0.5 4-2.5 5.1-3.2 2.9-1.7 5.8-4.5 8.3-7.3 4.2-4.6 22.4-42.2 22.4-42.2z"/>
				<path id="&lt;Path&gt;" class="s11" d="m460.4 1873.9c15.3 4 26.7 1.3 33-1.3 1.6 4.7 3.8 10.4 2.6 13.8-1.4 4.1-3.4 5-5.1 5-14 0.4-51.3 0.9-61.9 1.1-1.5 0-2.3-1.8-1.4-2.9 2.7-3.2 31.7-15 32.8-15.7z"/>
				<path id="&lt;Path&gt;" class="s11" d="m577.1 1676.3c0 0 23 26.3 28.9 30.4 5.8 4.2 62.1 107.7 62.1 107.7l-20.1 14.6c0 0-50.2-62.6-73.8-96.1-20-28.4-12.6-26.6-24.4-43.8-6.4-9.5-5-22.4 3.6-30.1q1.5-1.4 3.4-3c17.4-14.5 136.5-30.8 136.5-30.8l76.1 7.5c0 0-62.2 43.6-64.5 44.8-2.3 1.2-86 13.4-87.7 13.4-1.7 0-40.1-14.6-40.1-14.6z"/>
				<path id="&lt;Path&gt;" class="s7" d="m777.2 1633.4c0 0 13 39.2-6.6 57.5-19.6 18.2-136 16.2-174.3 16.2 0 0-15.7 43-17.4 49.9-1.8 7-77.8 97-77.8 97l-20.9-13.3c0 0 81.8-159.1 88.2-166.1 6.4-7 97.6-34.8 120.2-41.2 22.7-6.4 88.6 0 88.6 0z"/>
			</g>
			<path id="&lt;Path&gt;" class="s6" d="m625.7 1562.9l69.5-15.4c0 0 25.1-32.3 49.3-60.1 7.1 7 11 17.8 18.2 24.8l-53.1 58.7c-1.9 2.1-4.6 3.3-7.5 3.3l-73.6 0.3-25.3 2v-16.2z"/>
			<path id="&lt;Path&gt;" class="s24" d="m741.1 1545.8c0 0 27.5-28.2 34.6-40.4 7.1-12.3 1.8-32.8-10.3-36-12.2-3.3-51 48.6-51 48.6z"/>
			<g id="&lt;Group&gt;">
				<path id="&lt;Path&gt;" class="s11" d="m482.9 1483.7h114.6c3.1 0 5.8 1.9 6.9 4.7l35.3 86.1h63.2c1.8 0 3.2 1.4 3.2 3.2 0 1.7-1.4 3.2-3.2 3.2h-179.8c-5 0-9.5-2.9-11.5-7.4l-35.5-79.2c-2.3-5 1.3-10.6 6.8-10.6z"/>
				<g id="&lt;Group&gt;">
					<path id="&lt;Path&gt;" class="s8" d="m544.6 1533.9c0.8 3.8 4.1 6.4 7.5 5.7 3.4-0.6 5.5-4.3 4.8-8.2-0.8-3.8-4.2-6.4-7.6-5.8-3.4 0.7-5.5 4.4-4.7 8.3z"/>
				</g>
			</g>
			<path id="&lt;Path&gt;" class="s10" d="m715 1595.4h-342.5c-4 0-7.3-3.3-7.3-7.3 0-4 3.3-7.2 7.3-7.2h342.5c4 0 7.3 3.2 7.3 7.2 0 4-3.3 7.3-7.3 7.3z"/>
			<path id="&lt;Path&gt;" class="s8" d="m714.5 1426.9l15.6-0.8c0 0-0.1 5.9-6.9 6.4-8.3 0.7-8.7-5.6-8.7-5.6z"/>
			<path id="&lt;Path&gt;" class="s2" d="m665.9 1711.1l7-29.2c4.9-20.4 23-35.3 44-36.1l88.9-3.6 2.7-9-91.9 3.7c-25 1-46.5 18.7-52.3 42.9l-7.5 31.1c2.5 0.1 5.6 0.2 9.1 0.2z"/>
			<path id="&lt;Path&gt;" class="s10" d="m785.1 1695.6c0 0-122.1 2.1-134.8 0-12.7-2.1-18.2 13.8-14.4 22.2 3.8 8.4 14.2 11.6 29.6 12.3 15.4 0.8 143.4 4.4 147 1 3-2.8 41.8-135.5 55.9-184 2.8-9.7-2.7-19.8-12.4-22.7-9.7-2.8-19.8 2.7-22.7 12.3z"/>
			<path id="&lt;Path&gt;" class="s4" d="m715.1 1892.5v-300.6h-6.1v300.6z"/>
			<path id="&lt;Path&gt;" class="s4" d="m713.6 1611.3h-340.7v3.3h340.7z"/>
			<g id="&lt;Group&gt;">
				<path id="&lt;Path&gt;" class="s25" d="m1622.1 145.5c0 0 44.2 28.7 153.3 24.8 0 0-116.9 44.1-162.6 51l-18.8-74.4z"/>
				<path id="&lt;Path&gt;" class="s11" d="m1642.9 182.9c0 0-8.9 21-30.1 38.4l-9.8-38.8 0.6-18.7z"/>
				<path id="&lt;Path&gt;" class="s7" d="m1474.7 103.1c0 0 127.8-8.6 147.7-1.3l20.5 81.1c0 0-72.7-6.2-143.6 17.4z"/>
				<path id="&lt;Path&gt;" class="s3" d="m1397.7 1007.6c0 0-6.1 10-5.6 13 0.6 3 8 34.5 12.1 36.6 4 2.1 14.4 1.7 12.1 5.8-1.8 3-20.3 7.2-32.6 9.6-3.6 0.7-15.2-26.5-17.6-30.3-3.6-5.5-12-17.9-11.2-22.6 0.4-2.2 3.6-7.6 8.7-13 5.4-5.8 9.2-16.6 9.2-16.6z"/>
				<path id="&lt;Path&gt;" class="s6" d="m1487.1 1004.7c0 0-2 22.5-2 22.6 0.3 3.4 0.2 12.1 0.9 15 2.8 11.2 48.1-22.2 35.5-24.3-1.1-0.2-5.3-3-6.6-6.7-2-5.7 0.9-14.3 0.9-14.3z"/>
				<path id="&lt;Path&gt;" class="s9" d="m1468.8 599.7c0 0 13.1 36.2 13.2 36.7 15.2 60 56.7 174.1 57.3 185.9 1.5 28.9-22.4 184.2-22.4 184.2l-33 4.2-0.7-178.5-32.5-63.6-55.6-128.1z"/>
				<path id="&lt;Path&gt;" class="s16" d="m1369.5 659.8l2.8 36.6 20.1 148.8-26.9 157.1c0 0 14 18.3 27.8 17.9l63-170.3 15-201.3-12.6-40.7z"/>
				<path id="&lt;Path&gt;" class="s4" d="m1364 1006.4c0 0 32.2 48.3 40.3 49 2.1 0.1 11.9-0.5 14.8 3.2 0.8 1.1 2.6 6.7 2.6 6.7l-40.5 11.7c0 0-10.9-25.1-15.5-34.9 0 0-16.8-22.5-16.2-25.1 0.6-2.5 14.5-10.6 14.5-10.6z"/>
				<path id="&lt;Path&gt;" class="s4" d="m1484 1048.1l1.2-21.1c0 0 13.5 2.1 19.3-0.3 5.9-2.4 16.8-8.8 16.8-8.8 26.3 1.8 47.1 0.7 45.1 8z"/>
				<path id="&lt;Path&gt;" class="s3" d="m1546.7 477.8l17.4 13.4c3.4-2.6 10.8-13.5 15.5-16.9l-15.9-17.4c-1.3-1-2-2.6-1.9-4.2 0.1-1.2 0.3-2.2 0.5-2.7 0.5-1.4 0.9-3 1.4-4.4 0.5-1.4-2.8-4.1-4.5-4.6-1.8-0.5-2.3 6.1-3.1 8.1-2.3 5.9-5 22.2-5.5 24.9z"/>
				<path id="&lt;Path&gt;" class="s4" d="m1566 489.5c-4.9-5.2-11.8-8.2-16.9-13.6l-77.5 53.4c0 0-60-70.9-92.5-45.8 14.2 24 31.4 47 40.2 57.9 19.9 24.6 50.3 36.4 56.3 33.7 6.6-3.1 88.7-83.5 90.4-85.6z"/>
				<path id="&lt;Path&gt;" class="s15" d="m1227 312.1c2.6 6.8 7 17.6 7 17.6 0.1 3.1 0.8 15.9 1.6 31.6l21.8-11.9c0 0-3.4-25.4-2.5-27.1 0.7-1.4 2.3 0.1 8.1-10.8 1.7-3.2 1.5-8.4 1.5-8.4 0 0-0.4-6.5-1.9-6.9-1.5-0.4-3 0.8-3.4 1.9-0.4 1.2 0.1 3.7-0.3 4.9-0.4 1.2-3.6 2.9-5 3-1.4 0.1-2.1-18.9-2.1-18.9 0 0 0.1-5.4 0.3-7.2 0.2-1.5 1-6.1 1-6.1 0 0 0.8-6.5-1.2-6.7-1.2-0.2-3.5 5.3-4.9 11-1.4 6.2-1.9 12.5-2.6 12.5-1.4 0-1.9-10.4-1.9-10.4 0 0 0.9-4.9 0.6-7.1 1-2.9 1.3-8.1-1.2-8.2-0.4 0-2.8 6.8-2.8 6.8 0 0-0.7 4.7-1.2 6.9-0.9 3.9-0.3 9.8-0.7 12.5-0.3 2.2-0.9 1.4-1.1 1.5-0.2 0.1-0.2-2.9-0.4-7.1-0.1-2.1-0.6-4.4-0.3-6.8 0.3-2.3 0.2-5.4 0.1-7.4-0.2-5.3-3.5-4.4-4.1 0.6-0.2 1.9-0.4 4-0.6 6.1-0.9 8.3 0.1 16-0.8 16.1-1.1 0.2-2-13.9-2-13.9 0 0-2.7-7.5-3.5-0.1-1 8.6 0 15.4 0.1 15.7 0.4 2-0.2 9.5 2.4 16.3z"/>
				<path id="&lt;Path&gt;" class="s7" d="m1380 377.4c0 0-13.1-10.9-20.7 5.2 0 0-7.7-3.2-11.9 4.6 0 0-13.6-2.3-14.4 17.6 0 0-6.8-0.5-6.8 7.6 0.1 8.1 4.8 13 4.8 13 0 0-3.4 3.3-0.8 10.4 2.2 6.1 7.5 6.4 7.5 6.4 0 0 2.7 10.3 7.6 13 5 2.6 11 0.3 11 0.3 0 0 2.3 5.5 7.6 4.4 5.3-1.2 11.2-7.1 17.5-5.5 6.2 1.6 21.4-2.7 21.4-2.7 0 0 16.4-9.9 9.1-27 0 0 8.1-9.3-1.1-18.2 0 0 4-16.2-8.7-24-12.6-7.7-22.1-5.1-22.1-5.1z"/>
				<path id="&lt;Path&gt;" class="s0" d="m1417.2 489.3l-26.7-13.8c0 0-23.8 3.5-26.7 3.8-3 0.4-8.6 111.2-9 152.7-0.5 41.5 4.6 48.2 4.6 48.2 0 0 38.7 3.9 66.3-1.9 28.7-6.1 59.5-25.7 59.5-25.7 0 0-34.3-75.5-42.2-99.4-7.9-23.9-25.8-63.9-25.8-63.9z"/>
				<path id="&lt;Path&gt;" class="s4" d="m1364.8 479.1l-87.9-70.3c0 0-20-74.1-21.2-76.9-1.1-2.7-20.7-1.8-28.6-1.6-2.5 0 11 80.1 16.4 93.2 6.4 15.4 74.3 80.9 74.3 80.9 0 0 15.4 38.1 16.3 67.3 1.6 48.5-1.8 115.9 0.5 117.7 13.6 6.4 62.6 1.4 65-4 27.5-59-34.8-206.3-34.8-206.3z"/>
				<path id="&lt;Path&gt;" class="s6" d="m1388.2 461.1l4 15.4c0 0 7.4 22 1.9 27.1-5.6 5.1-29.2-24.4-29.2-24.4l-2.8-40z"/>
				<path id="&lt;Path&gt;" class="s7" d="m1363 452.2c6.7 12.9 19.7 19.8 28.6 22l-3.4-13.1-26.1-21.9z"/>
				<path id="&lt;Path&gt;" class="s7" d="m1326.5 416.2c0.7 6 4.8 10.5 9 10 4.2-0.5 7.1-5.8 6.3-11.9-0.7-6-4.7-10.5-9-10-4.2 0.5-7 5.8-6.3 11.9z"/>
				<path id="&lt;Path&gt;" class="s7" d="m1346.7 389.8c0.4 3.5 4.9 5.8 10.1 5.2 5.1-0.6 9-3.9 8.6-7.4-0.5-3.5-5-5.8-10.1-5.2-5.2 0.6-9 4-8.6 7.4z"/>
				<path id="&lt;Path&gt;" class="s6" d="m1371.2 395.8c11.8-5.7 26 0.9 29.4 13.4 1.5 5.4 3 12.3 4.1 19.9 2.6 18.2-4.8 37.2-13.1 38.2-8.3 1-32.7-8.1-36.7-33.9-2.4-16 3.8-31.6 16.3-37.6z"/>
				<path id="&lt;Path&gt;" class="s6" d="m1361.3 434.7c0.5 4-1.8 7.6-5.1 8-3.3 0.4-6.3-2.5-6.8-6.6-0.5-4 1.8-7.6 5.1-8 3.3-0.4 6.3 2.5 6.8 6.6z"/>
				<path id="&lt;Path&gt;" class="s7" d="m1406.1 382.4c9.4 5.7 13.6 15.7 9.5 22.2-4.2 6.6-15.2 7.2-24.6 1.4-9.4-5.7-13.6-15.7-9.5-22.2 4.2-6.6 15.1-7.2 24.6-1.4z"/>
				<path id="&lt;Path&gt;" class="s7" d="m1384.3 390.6c0.3 3-2.9 5.8-7.3 6.4-4.4 0.5-8.3-1.5-8.6-4.4-0.4-3 2.9-5.8 7.3-6.3 4.4-0.6 8.2 1.4 8.6 4.3z"/>
				<path id="&lt;Path&gt;" class="s7" d="m1410.8 410.5c0.4 3.8-2.3 7.3-6 7.7-3.8 0.5-7.2-2.2-7.7-6-0.4-3.8 2.3-7.3 6-7.7 3.8-0.5 7.2 2.2 7.7 6z"/>
				<path id="&lt;Path&gt;" class="s4" d="m1439.6 505.7c0 0 37.1 87.9 50.3 118.9 1.5 3.3 8.7 25.2 8.9 27.4 0.6 4.8-19.7 13.5-22.3 13.5-2.3-0.1-32.2-92.8-49.6-137.9-5.9-15.3-14.5-29.3-25.5-41.5l-8.4-7-0.8-2.6c0 0 37.7 3.4 47.4 29.2z"/>
				<path id="&lt;Path&gt;" class="s4" d="m1625.7 685.3l-6.7 1.7-151.5-598.3 6.7-1.7z"/>
				<g id="&lt;Group&gt;">
					<path id="&lt;Path&gt;" class="s6" d="m1582.9 466.5c-0.2-1.4-0.7-2.7-1.2-4.1-0.6-1.4-1.6-3.2-2.3-3.7-0.5-0.3-0.8-1.3-1.2-2.4q-0.2-0.5-0.5-1 0 0 0 0c-0.7-0.9-1.4-1.6-2.3-2.2-0.8-0.6-1.6-1.4-2.5-2.7-0.7-1-1.6-1.9-2.7-2.4-1.1-0.5-2-0.6-2.4 0.1-1.8 3.2-11 13.2-7.3 18 3.1 4.1 7.2 8.3 8 10.2 1.2 2.6 5.2 2.5 7.6 1.5 4.5-1.7 8.1-4.5 6.8-11.3z"/>
				</g>
			</g>
			<path id="&lt;Path&gt;" class="s10" d="m2098.9 1890.1h-1945.9v6.9h1945.9z"/>
			<g id="&lt;Group&gt;">
				<path id="&lt;Path&gt;" class="s7" d="m1446.6 350.4c0.3-0.8 1.6-1 2.2-0.3q1.4 1.5 2.9 2.9c2.1 2.2 2.2 2.4 2.5 2.3 0.7-0.1 0.8-1.5 0.7-2-0.1-1.1-0.4-2.3-0.3-3.4 0.3-2.2 2.4-3.4 4.2-1.9 1.7 1.4 3.3 2.9 4.9 4.4 0.2-2.5 0.2-4.9 0.4-7.4 0-0.8 0.9-1.2 1.6-0.7 1.5 1.2 5.9 4.7 7.4 5.8 0.4 0.3 2 1.9 2.5 1.6 0.4-0.2 0.4-2 0.4-2.3 0.2-2.1 0.3-2.9 1.2-9.7 0.1-0.8 1.4-1.2 1.9-0.5 5.2 6.2 6 5.6 6.5 7.4 0.1 0.5-0.2 0.8-0.6 0.7-1-0.1-1.2-0.2-3.9-2.7q-1-1-1.9-2c-1 8.3-1 10.4-3.1 11-1.4 0.4-1.7 0-10.1-6.6 0 2.5-0.1 5.1-0.3 7.7 0 1-1 1.4-1.8 0.8-6-5-6-5.3-6.6-5.6 0 0 0-0.5-0.1 0.2-0.2 1 0.8 3.4 0.1 5.4-0.7 1.7-2.6 3-4.5 2.1-1-0.5-1.3-1-4.5-4.1-1 2-2.2 3.8-3.7 5.7-0.6 0.8-1.2 1.2-2.1 1.6-0.8 0.3-1.8-0.6-1.5-1.4 0.7-2.3 2.8-2.9 5.6-9z"/>
				<path id="&lt;Path&gt;" class="s26" d="m1418.8 320c2.3 0.4 4.5 0.6 6.9 0.6 0.4 0 1.3 0.1 1.6-0.3 0.7-1.1-1.2-2.8-2-7.1-0.3-1.8-1.2-5.6 1.2-6.3 1.3-0.4 2.9-0.1 4.2-0.1q1.5 0 3 0c-1.8-6.9-2.2-6.5-1.5-8 0.2-0.4 0.8-0.6 1.2-0.4 1.4 0.9 1 0.7 3.3 9.4 0.2 0.8-0.4 1.8-1.2 1.8-1.4-0.1-7.5-0.6-8.2-0.5 0 0.1 0 0.4 0 0.5 0 2.8 1 5.3 2 7.9 0.8 2.2 0.8 5.1-2 5.7-1.5 0.3-4.5 0.1-6.9-0.2 1.3 4.2 2.5 8.4 3.8 12.6 0.2 0.9-0.4 2-1.4 2-2.7-0.3-5.5-0.4-8.2-0.6 0.8 2.5 1.9 4.9 3.4 7 1 1.6-1.2 3.5-3.6-0.7q-2.2-3.4-3.1-7.4c-0.3-0.9 0.3-2 1.3-1.9 2.7 0 5.4 0.2 8.1 0.4-1.2-4.2-2.3-8.4-3.5-12.6-0.3-1.1 0.6-1.9 1.6-1.8z"/>
				<path id="&lt;Path&gt;" class="s27" d="m1355.7 296.6c-0.8-0.1-1.3-0.6-1.4-1.3-0.6-3.7-0.8-7.4 0-11.1 0.3-1.9 3.2-1.2 2.9 0.7-0.4 3-0.7 6-0.4 9q3.3-0.1 6.5-0.8c0.8-0.2 1.8 0.3 1.8 1.3-0.2 2.4-1 11.4-1.1 11.5 0.1-0.1 0.1-0.1 0.3 0 0.9 0.1 4.1-0.5 5.6-0.4 1.6 0.1 2.2 2.3 2.3 3.7 0.1 2.7-1.9 5.7-1 8.4 1 2.5 5-0.3 8 1.8 2.3 1.6 1.5 4.3 0.6 8.6-0.3 1.1-0.5 2.1-1.5 2.6-0.3 0.2-0.7 0.2-0.9 0-1.1-1.4-0.5-2.9 0.2-6.8 0.1-0.5 0.5-1.4 0.1-1.8-1.2-1.5-4.6 0.6-7.3-1.2-2.2-1.4-2.5-4.2-2.1-6.5 0.2-1.8 1.4-4 0.8-5.9-1.6 0.1-3.2 0.2-4.7 0.2-1.7-0.1-2.9-1-3-2.7-0.1-2 0.2-4 0.4-5.9q0.1-1.9 0.3-3.9-3.2 0.6-6.4 0.5z"/>
				<path id="&lt;Path&gt;" class="s9" d="m1468.5 391.1c6.6 8.4 0.4 12.4-2.3 10-1.2-1-1.2-2.8 0.1-3.7 0.7-0.4 1.7 0.2 1.4 1-0.2 0.6 0.5 0.8 0.8 0.1 0.4-0.9-0.2-2-0.6-2.8-1-1.9-2.1-4.3-4.4-4.6-3.4-0.6-7.1 2.8-5.3 8.1 2.7 7.5 14.9 7.4 17.1-0.5 1.3-4.3-0.5-8.9-3.9-11.7-0.7-0.5 0.1-1.4 0.8-1.1 5.2 2.2 7 9 5.1 14-1.9 5.2-7.5 7.7-12.8 6.8-5.5-0.9-10-5.8-9.3-11.6 0.8-6.4 8.8-9.8 13.3-4z"/>
				<path id="&lt;Path&gt;" class="s0" d="m1334.1 321.4c0.9 1.4 1.4 4.1-0.4 5-0.9 0.4-1.9 0.1-2.2-0.9-0.3-0.9 0.2-1.8-0.7-2.6-0.7-0.6-1.8-0.3-2.5 0.3-2.1 1.7-1.6 5.5-0.5 7.7 1.8 3.4 6.6 4.1 9 0.5 0.7-1.1 0.9-2.4 1.2-3.7 0.2-0.7 1.3-1 1.7-0.3 1.4 2.9-0.6 6.4-3.1 8.1-2.6 1.7-6.2 1.6-8.8-0.1-2.9-2-4.2-5.7-4.1-9.1 0.2-7 7.5-9.3 10.4-4.9z"/>
			</g>
			<path id="&lt;Path&gt;" class="s8" d="m1003.6 1298.4c0 0 3.1 5 9.3 1.9 7.4-3.7 4.5-9.3 4.5-9.3z"/>
			<path id="&lt;Path&gt;" class="s8" d="m1382 446.8c0 0 0.6 5.9 7.4 5.8 8.4-0.1 8.1-6.5 8.1-6.5z"/>
		</g>
	</g>
</svg>