<svg version="1.2" xmlns="http://www.w3.org/2000/svg" viewBox="0 0 176 40" width="176" height="40">
	<title>docket</title>
	<style>
		.s0 { fill: #1d63ed } 
	</style>
	<path fill-rule="evenodd" class="s0" d="m50.7 17c0 0-0.5 1-0.5 1.1-2.2 4.2-6.6 3.9-8.3 3.9-5.1 12.7-13.5 18-23.2 18-6.4 0-10.7-2.1-13.5-4.9q-0.7-0.7-1.3-1.5c-3.5-4.4-4-9.9-3.9-12.7h19.5c12.6 0 15.5 0.4 18.5-1.4-0.8-1-1.2-2.4-1.3-3.6-0.2-2 0.3-4.2 1.3-5.8l0.6-0.9 0.8 0.6c2.3 1.7 3.5 3.7 3.6 6.1 2.4-0.7 5.6-0.3 6.9 0.5 0 0 0.8 0.6 0.8 0.6zm-38-3.2v5.5h-5.5v-5.5zm7.1 0v5.5h-5.5v-5.5zm7.1 0v5.5h-5.5v-5.5zm7.1 0v5.5h-5.5v-5.5zm-28.3 0v5.5h-5.5v-5.5zm7.1-6.9v5.5h-5.5v-5.5zm7.1 0v5.5h-5.5v-5.5zm7.1 0v5.5h-5.5v-5.5zm0-6.9v5.5h-5.4v-5.5z"/>
	<path fill-rule="evenodd" class="s0" d="m175.7 31.6c0 1.4-1.2 2.5-2.6 2.5-1.5 0-2.6-1.1-2.6-2.5 0-1.4 1.1-2.5 2.6-2.5 1.4 0 2.6 1.1 2.6 2.5zm-4.6 0c0 1.1 0.9 2 2 2 1.1 0 1.9-0.9 1.9-2 0-1.1-0.8-2-1.9-2-1.1 0-2 0.9-2 2zm1.6 1.3h-0.6v-2.5q0.3-0.1 1-0.1c0.4 0 0.7 0.1 0.8 0.2 0.2 0.1 0.3 0.3 0.3 0.5 0 0.3-0.2 0.5-0.5 0.6v0.1c0.2 0.1 0.3 0.2 0.4 0.6 0.1 0.4 0.1 0.5 0.2 0.6h-0.6c-0.1-0.1-0.1-0.3-0.2-0.6-0.1-0.3-0.2-0.4-0.5-0.4h-0.3zm0-1.4h0.3c0.3 0 0.6-0.1 0.6-0.4 0-0.2-0.2-0.4-0.6-0.4q-0.2 0-0.3 0z"/>
	<path fill-rule="evenodd" class="s0" d="m77.2 7.5v16.8q0 4.3-2.9 7.2c-1.9 2-4.2 2.9-6.9 2.9q-4.1 0-7-2.9-2.9-3-2.9-7.2 0-4.1 2.9-7.1 2.9-3 7-3 3.5 0 6.2 2.3v-9q0-0.8 0.5-1.4 0.5-0.5 1.3-0.5 0.8 0 1.3 0.5 0.5 0.6 0.5 1.4zm-3.6 16.8q0-1.3-0.5-2.4-0.5-1.1-1.4-2-0.8-0.9-1.9-1.4-1.1-0.5-2.4-0.5-1.3 0-2.5 0.5-1.1 0.5-1.9 1.4-0.9 0.8-1.3 2-0.5 1.1-0.5 2.4 0 1.3 0.5 2.5 0.4 1.1 1.3 2 0.8 0.9 1.9 1.4 1.2 0.5 2.5 0.5 1.3 0 2.4-0.5 1.1-0.5 1.9-1.4 0.9-0.9 1.4-2 0.5-1.2 0.5-2.5z"/>
	<path fill-rule="evenodd" class="s0" d="m158.3 20.5q0.8 1.7 0.8 3.8 0 0.9-0.6 1.4-0.5 0.5-1.3 0.5h-14q0.3 1 0.9 1.8 0.6 0.9 1.4 1.4 0.8 0.6 1.7 1 0.9 0.3 2 0.3 1.1 0 2.1-0.4 1-0.3 1.8-1.1 0.5-0.4 1.2-0.4 0.8 0 1.3 0.5 0.6 0.5 0.6 1.3 0 0.8-0.6 1.4-2.7 2.4-6.4 2.4-4.1 0-7-2.9-2.9-3-2.9-7.2 0-4.1 2.9-7.1c1.9-2 4.3-3 7-3q4 0 7 3 1.4 1.5 2.1 3.3zm-3.2 2q-0.3-1-0.9-1.8-0.6-0.9-1.4-1.5-0.7-0.5-1.7-0.9-0.9-0.3-1.9-0.3-1 0-2 0.3-0.9 0.4-1.7 0.9-0.8 0.6-1.4 1.5-0.6 0.8-0.9 1.8c0 0 11.9 0 11.9 0z"/>
	<path class="s0" d="m175.5 15.5q-0.5-0.5-1.2-0.8-0.8-0.2-1.7-0.3-0.9-0.1-1.6-0.1-1.8 0-3.4 0.5-1.5 0.6-2.8 1.7v-0.4q0-0.7-0.6-1.3-0.5-0.5-1.3-0.5-0.7 0-1.3 0.5-0.5 0.6-0.5 1.3v16.5q0 0.7 0.5 1.3 0.6 0.5 1.3 0.5 0.8 0 1.3-0.5 0.6-0.6 0.6-1.3v-8.3q0-1.3 0.4-2.4 0.5-1.2 1.4-2 0.8-0.9 1.9-1.4 1.2-0.5 2.5-0.5 1.2 0 2.4 0.5 0.4 0.2 0.7 0.2 0.4 0 0.8-0.2 0.3-0.1 0.6-0.4 0.2-0.2 0.3-0.6 0.2-0.3 0.2-0.7 0-0.8-0.5-1.3z"/>
	<path fill-rule="evenodd" class="s0" d="m99.1 24.3q0 4.3-2.9 7.2c-2 2-4.3 2.9-7 2.9q-4.1 0-7-2.9-2.9-3-2.9-7.2 0-4.1 2.9-7.1c2-2 4.3-3 7-3q4.1 0.1 7 3 1.5 1.5 2.2 3.3 0.7 1.8 0.7 3.8zm-3.7 0q0-1.3-0.5-2.4-0.5-1.1-1.3-2-0.8-0.9-2-1.4-1.1-0.5-2.4-0.5-1.3 0-2.4 0.5-1.1 0.5-2 1.4-0.8 0.8-1.3 2-0.5 1.1-0.5 2.4 0 1.3 0.5 2.5 0.5 1.1 1.3 2 0.9 0.9 2 1.4 1.1 0.5 2.4 0.5 1.3 0 2.4-0.5 1.2-0.5 2-1.4 0.8-0.9 1.3-2 0.5-1.2 0.5-2.5z"/>
	<path class="s0" d="m137.9 16.1q0-0.4-0.2-0.7-0.1-0.3-0.4-0.6-0.2-0.3-0.5-0.4-0.4-0.1-0.8-0.2-0.5 0-0.9 0.3l-10.6 7v-14q0-0.8-0.5-1.4-0.6-0.5-1.3-0.5-0.8 0-1.3 0.5-0.6 0.6-0.6 1.4v25q0 0.8 0.6 1.4 0.5 0.5 1.3 0.5 0.7 0 1.3-0.5 0.5-0.6 0.5-1.4v-6.5l2.2-1.4 8.1 9.3q0.5 0.5 1.2 0.5 0.4 0 0.8-0.1 0.3-0.2 0.6-0.4 0.2-0.3 0.3-0.6 0.2-0.4 0.2-0.7 0-0.8-0.5-1.4l-7.6-8.7 7.4-4.9q0.7-0.5 0.7-1.5z"/>
	<path class="s0" d="m106.7 19.9q0.8-0.9 1.9-1.4 1.2-0.5 2.4-0.5 1.2 0 2.2 0.4 1 0.4 1.9 1.2 0.5 0.4 1.2 0.4 0.8 0 1.3-0.5 0.5-0.6 0.5-1.4c0-0.5-0.2-1-0.6-1.4q-2.7-2.4-6.5-2.4-4-0.1-6.9 2.9-2.9 3-2.9 7.1 0 4.2 2.9 7.2 2.9 2.9 6.9 2.9 3.8 0 6.5-2.4 0.6-0.6 0.6-1.4 0-0.8-0.5-1.3-0.6-0.6-1.4-0.6-0.6 0.1-1.1 0.4-0.9 0.8-1.9 1.2-1 0.4-2.2 0.4-1.2 0-2.4-0.5-1.1-0.5-1.9-1.4-0.9-0.8-1.4-2-0.5-1.1-0.5-2.5 0-1.3 0.5-2.4 0.5-1.2 1.4-2z"/>
</svg>