<svg version="1.2" xmlns="http://www.w3.org/2000/svg" viewBox="0 0 223 40" width="223" height="40">
	<title>kubernetes</title>
	<style>
		.s0 { fill: #326de6 } 
		.s1 { fill: #ffffff } 
		.s2 { fill: #000000 } 
	</style>
	<path id="path10349" class="s0" d="m36.8 9.6c-0.2-0.7-0.8-1.3-1.4-1.6l-13.4-6.5c-0.4-0.1-0.8-0.2-1.1-0.2-0.4 0-0.8 0-1.1 0.1l-13.4 6.5c-0.7 0.3-1.1 0.8-1.3 1.6l-3.3 14.5c-0.1 0.7 0 1.5 0.5 2.1l9.2 11.4c0.6 0.6 1.3 0.9 2.1 1h14.7c0.8 0 1.5-0.3 2-1l9.3-11.4c0.4-0.6 0.6-1.4 0.5-2.1z"/>
	<path id="path10351" fill-rule="evenodd" class="s1" d="m35.5 24.3c-0.1 0.4-0.5 0.6-0.9 0.6-0.1 0-0.1 0-0.2 0 0-0.1 0-0.1-0.1-0.1-0.1 0-0.1 0-0.1 0-0.2-0.1-0.4-0.1-0.5-0.2q-0.2 0-0.3-0.1-0.7-0.3-1.4-0.4h-0.1q-0.2 0-0.3 0.1c0 0 0 0.1-0.1 0.1l-0.3-0.1c-0.8 2.5-2.5 4.6-4.8 6l0.2 0.3c0 0-0.1 0-0.1 0.1-0.1 0.1-0.1 0.3 0 0.4q0.2 0.7 0.7 1.3v0.1c0.1 0.1 0.1 0.1 0.1 0.2q0.2 0.2 0.4 0.5 0 0 0 0.1c0 0 0.1 0 0.1 0q0.1 0.4 0 0.7c0 0.2-0.2 0.4-0.4 0.5-0.1 0-0.2 0.1-0.3 0.1-0.4 0-0.7-0.3-0.9-0.6 0 0 0 0 0 0 0-0.1 0-0.1-0.1-0.1q-0.1-0.3-0.2-0.5v-0.3c-0.2-0.5-0.4-1-0.6-1.4q-0.2-0.2-0.4-0.3 0 0 0 0l-0.2-0.3c-0.4 0.1-0.9 0.3-1.4 0.4q-1.2 0.3-2.4 0.3-1.9 0-3.8-0.7l-0.2 0.3q0.1 0.1 0 0.1-0.2 0.1-0.4 0.2c-0.2 0.5-0.4 0.9-0.5 1.4l-0.1 0.3c-0.1 0.2-0.1 0.3-0.2 0.5q-0.1 0-0.1 0.1c0 0 0 0 0 0-0.2 0.3-0.5 0.6-0.9 0.6 0 0-0.2-0.1-0.3-0.1-0.4-0.2-0.5-0.8-0.3-1.2 0 0 0-0.1 0-0.1 0.1 0 0.1 0 0.1-0.1 0.2-0.2 0.2-0.3 0.3-0.4 0.1-0.1 0.2-0.2 0.2-0.2v-0.1c0.3-0.4 0.5-0.8 0.7-1.3 0.1-0.1 0.1-0.3 0-0.4 0 0-0.1 0-0.1-0.1l0.2-0.3c-0.4-0.2-0.8-0.4-1.1-0.7-1.8-1.4-3-3.2-3.6-5.2l-0.4 0.1c0 0 0-0.1-0.1-0.1q-0.1-0.1-0.3-0.1h-0.1c-0.5 0.1-0.9 0.2-1.4 0.4h-0.1q-0.1 0-0.2 0.1c-0.2 0-0.3 0.1-0.5 0.1-0.1 0-0.2 0-0.2 0q0 0.1 0 0.1c-0.1 0-0.2 0-0.3 0-0.4 0.1-0.7-0.2-0.8-0.6-0.1-0.5 0.2-0.9 0.7-1 0 0 0 0 0.1 0 0 0 0.1-0.1 0.1-0.1 0.2 0 0.4 0 0.6 0q0.1-0.1 0.2-0.1 0.8 0 1.5-0.2c0.1-0.1 0.3-0.2 0.3-0.4 0 0 0.1 0 0.1 0l0.3-0.1c-0.4-2.5 0.2-5 1.6-7.2 0-0.1 0-0.1 0.1-0.2l-0.3-0.3c0-0.1 0-0.2-0.1-0.3-0.4-0.4-0.8-0.6-1.2-0.9q-0.2-0.1-0.3-0.1-0.3-0.2-0.5-0.3c0 0-0.1-0.1-0.1-0.1 0 0 0 0-0.1 0-0.3-0.3-0.4-0.9-0.1-1.3q0.2-0.3 0.6-0.3 0.3 0 0.6 0.2 0 0 0 0.1c0.1 0 0.1 0 0.2 0.1 0.1 0.1 0.2 0.2 0.3 0.4 0.1 0 0.1 0.1 0.2 0.2 0.3 0.3 0.7 0.7 1.1 1q0.1 0 0.3 0.1c0 0 0.1-0.1 0.1-0.1h0.1l0.2 0.2c1.5-1.6 3.4-2.7 5.4-3.1q0.8-0.1 1.5-0.2l0.1-0.4v-0.1c0.1 0 0.1-0.2 0.2-0.3 0-0.5 0-1-0.1-1.5q0-0.2 0-0.3-0.1-0.3-0.1-0.5v-0.3q0-0.3 0.2-0.6c0.3-0.2 0.5-0.3 0.8-0.3 0.4 0.1 0.8 0.5 0.7 0.9v0.3c0 0.2 0 0.4-0.1 0.5 0 0.1 0 0.2 0 0.3-0.1 0.6-0.1 1.1-0.1 1.5 0.1 0.2 0.1 0.3 0.2 0.4v-0.1l0.1 0.4c2 0.2 4.1 1 5.7 2.3 0.3 0.3 0.7 0.7 1.1 1l0.3-0.2h0.1c0 0.1 0.1 0.1 0.1 0.1q0.2 0 0.3-0.1c0.4-0.3 0.8-0.6 1.1-1 0.1 0 0.1-0.1 0.2-0.2q0.1-0.2 0.3-0.4 0.1 0 0.2-0.1 0.3-0.2 0.6-0.2c0.2 0 0.5 0.1 0.6 0.3 0.3 0.4 0.3 0.9-0.1 1.2 0 0.1 0 0.1 0 0.1-0.1 0.1-0.1 0.1-0.2 0.1-0.1 0.1-0.3 0.2-0.5 0.3q-0.1 0-0.2 0.1c-0.5 0.3-0.8 0.5-1.2 0.9-0.1 0.1-0.2 0.2-0.2 0.4l-0.2 0.3c0.7 1.1 1.2 2.3 1.5 3.6 0.3 1.3 0.3 2.6 0.2 3.8l0.3 0.1c0 0 0.1 0 0 0 0.1 0.2 0.2 0.3 0.3 0.3 0.5 0.2 1 0.3 1.5 0.3h0.1q0.1 0.1 0.2 0.1 0.3-0.1 0.6 0c0 0 0.1 0 0.1 0q0 0.1 0.1 0.1c0.4 0.1 0.8 0.4 0.8 0.9zm-23.8-9.5v-0.1q0 0.1 0 0.1zm10.6 5.9l-0.8-1h-1.3l-0.8 1 0.3 1.3 1.2 0.6 1.1-0.6zm5.8-4.2l-3.3 3q-0.1 0.2-0.1 0.3c-0.1 0.4 0.1 0.8 0.5 0.9l4.2 1.2q0.1-1.4-0.2-2.8-0.3-1.4-1.1-2.6zm-6.2-4l0.2 4.5q0 0.2 0.1 0.3c0.3 0.3 0.7 0.3 1 0.2l3.6-2.6c-1.3-1.3-3-2.1-4.9-2.4zm-7.1 2.4l3.6 2.6c0.2 0.1 0.2 0.1 0.4 0.1 0.4 0 0.7-0.3 0.7-0.7l0.2-4.4-0.8 0.2c-1.6 0.3-3 1.1-4.1 2.2zm-2.6 7l4.3-1.2c0.2-0.1 0.3-0.1 0.3-0.2 0.3-0.3 0.3-0.8 0-1.1l-3.3-2.9c-1 1.7-1.4 3.6-1.3 5.4zm3.9 6.4l1.7-4.1c0.1-0.1 0.1-0.3 0.1-0.4-0.1-0.4-0.4-0.6-0.8-0.6l-4.3 0.8c0.6 1.7 1.8 3.3 3.3 4.3zm7.5 0.9l-2.1-3.8c-0.2-0.1-0.3-0.2-0.4-0.3-0.3-0.2-0.7-0.1-0.9 0.2l-2.1 3.9c0.9 0.3 1.8 0.4 2.7 0.4q1 0 1.9-0.2 0.5-0.1 0.9-0.2zm5.3-5.3l-4.4-0.7q-0.2 0-0.4 0.1c-0.3 0.1-0.4 0.5-0.4 0.8l1.8 4.1c1-0.6 1.9-1.5 2.6-2.6q0.5-0.7 0.8-1.7z"/>
	<path id="path3003" fill-rule="evenodd" class="s2" d="m214.4 28.8c0.7 0 1.3-0.1 1.9-0.3 0.3-0.1 0.6-0.5 0.5-0.9 0-0.5-0.3-0.9-0.7-1-0.7-0.4-1.4-0.8-2.1-1q-1.2-0.4-2.1-0.9c-0.5-0.2-1-0.6-1.5-1q-0.6-0.7-1-1.5c-0.2-0.7-0.3-1.4-0.3-2.1-0.1-1.4 0.6-2.8 1.7-3.7q1.8-1.4 4.8-1.4c1 0 2 0.1 3 0.3q1.1 0.2 2.2 0.6l-0.8 3.7c-0.6-0.2-1.2-0.3-1.8-0.5-0.7-0.2-1.5-0.2-2.2-0.2q-2.2 0-2.2 1.2 0 0.3 0.1 0.6 0.1 0.2 0.4 0.4 0.2 0.2 0.7 0.4 0.5 0.3 1.3 0.6c0.9 0.3 1.7 0.7 2.5 1.1q1 0.5 1.6 1.2 0.6 0.6 0.8 1.5 0.3 0.9 0.3 1.8c0.1 1.5-0.6 3-1.9 3.8q-1.8 1.3-5.2 1.3-1.9 0.1-3.8-0.4-1-0.3-2-0.6l0.8-3.9q1.2 0.5 2.4 0.8c0.9 0 1.8 0.1 2.6 0.1zm-24.1-4.8c-0.1-1.4 0.2-2.7 0.6-3.9q0.6-1.6 1.8-2.8 1.1-1.2 2.6-1.7 1.4-0.6 2.9-0.6 3.6 0 5.7 2.2 2 2.2 2 6.4 0 0.4 0 1c0 0.3-0.1 0.6-0.1 0.9h-10.7c0.1 0.9 0.6 1.8 1.4 2.3 1 0.6 2.1 0.9 3.2 0.9 0.9 0 1.7-0.1 2.6-0.3q1-0.2 2-0.6l0.7 3.8c-0.3 0.2-0.7 0.3-1 0.4-0.5 0.2-1 0.3-1.5 0.4-0.5 0-1 0.1-1.6 0.2q-0.9 0.1-1.8 0.1-2.1 0.1-4-0.7-1.6-0.6-2.7-1.8c-0.8-0.7-1.3-1.7-1.7-2.7q-0.4-1.8-0.4-3.5zm11.1-1.8q-0.1-0.6-0.3-1.2c0-0.4-0.3-0.7-0.5-1q-0.4-0.5-0.9-0.8-0.7-0.3-1.4-0.3-0.7 0-1.3 0.3c-0.4 0.2-0.7 0.4-1 0.7q-0.4 0.5-0.6 1.1-0.2 0.6-0.3 1.2zm-23.9-10.9l4.7-0.8v4.9h5.7v4h-5.7v5.9c0 0.8 0.1 1.6 0.5 2.3q0.5 0.9 2.2 0.9 0.8 0 1.5-0.1 0.8-0.1 1.5-0.4l0.7 3.7c-0.7 0.3-1.3 0.4-2 0.6q-1.2 0.3-2.6 0.3c-1.1 0-2.2-0.2-3.2-0.6-0.8-0.3-1.5-0.8-2-1.4-0.5-0.7-0.9-1.5-1.1-2.3-0.2-1-0.3-2-0.2-2.9zm-19.2 12.7c-0.1-1.4 0.2-2.7 0.6-3.9q0.6-1.6 1.8-2.8 1.1-1.1 2.6-1.7 1.4-0.6 3-0.6 3.5 0.1 5.6 2.2 2 2.2 2 6.5 0.1 0.4 0 0.9c0 0.3 0 0.6 0 0.9h-10.8c0.1 0.9 0.6 1.8 1.4 2.3 0.9 0.6 2.1 0.9 3.2 0.9 0.8 0 1.7-0.1 2.6-0.3q1-0.1 2.1-0.6l0.6 3.9c-0.3 0.1-0.6 0.2-1 0.4-0.5 0.1-1 0.2-1.4 0.3-0.6 0-1.1 0.1-1.7 0.2q-0.9 0.1-1.8 0.1-2 0.1-4-0.6-1.5-0.7-2.7-1.8c-0.8-0.8-1.3-1.8-1.6-2.8q-0.6-1.8-0.5-3.5zm11.1-1.8q0-0.6-0.2-1.2c-0.1-0.4-0.3-0.7-0.6-1q-0.4-0.5-0.9-0.8-0.6-0.3-1.4-0.3-0.7 0-1.3 0.3-0.5 0.3-0.9 0.7-0.4 0.5-0.6 1.1-0.2 0.6-0.3 1.2zm-29.1-6.2q1.5-0.4 3.1-0.6c1.3-0.3 2.7-0.4 4-0.4 1.2 0 2.4 0.2 3.5 0.6 0.9 0.3 1.7 0.8 2.2 1.6 0.6 0.7 1 1.5 1.2 2.4 0.3 1 0.4 2 0.4 3.1v9.4h-4.7v-8.8c0-1.5-0.2-2.6-0.6-3.2-0.4-0.7-1.2-1-2.3-1q-0.5 0-1.1 0c-0.4 0-0.7 0.1-1 0.1v12.9h-4.7zm-3.4 3.7c-0.4-0.1-0.9-0.2-1.4-0.3q-1-0.2-1.9-0.2-0.5 0-1.1 0.1-0.4 0-0.9 0.2v12.8h-4.7v-16q1.4-0.5 2.9-0.8c1.3-0.3 2.6-0.4 3.9-0.4 0.3 0 0.6 0.1 0.9 0.1q0.5 0 1.1 0.1 0.5 0 1.1 0.2 0.5 0 0.9 0.2zm-29.4 4.3c-0.1-1.3 0.2-2.6 0.6-3.8q0.6-1.6 1.8-2.8 1.2-1.2 2.6-1.7 1.4-0.6 3-0.6 3.5 0 5.6 2.2c1.4 1.5 2.1 3.6 2.1 6.4q0 0.4-0.1 0.9c0 0.4 0 0.6 0 0.9h-10.8c0.1 0.9 0.6 1.8 1.4 2.3 0.9 0.6 2.1 0.9 3.2 0.9 0.9 0 1.7-0.1 2.6-0.2q1-0.2 2-0.6l0.7 3.8c-0.3 0.2-0.7 0.3-1 0.4-0.5 0.2-1 0.3-1.5 0.3-0.5 0.1-1 0.2-1.6 0.3q-0.9 0.1-1.8 0.1-2.1 0.1-4-0.7-1.6-0.6-2.8-1.8c-0.7-0.8-1.2-1.7-1.6-2.7-0.2-1.2-0.4-2.4-0.4-3.6zm11.1-1.8q0-0.6-0.2-1.1c-0.1-0.4-0.3-0.8-0.5-1.1q-0.4-0.4-0.9-0.7-0.7-0.3-1.4-0.3-0.7 0-1.4 0.3c-0.3 0.2-0.7 0.4-0.9 0.7q-0.4 0.5-0.6 1.1-0.2 0.5-0.3 1.1zm-14 1.8c0 1.2-0.2 2.4-0.6 3.6q-0.6 1.6-1.7 2.8-1.2 1.2-2.7 1.8c-1.2 0.4-2.4 0.6-3.7 0.6q-0.9 0-1.8-0.1c-0.6 0-1.2-0.1-1.8-0.2q-0.9-0.1-1.8-0.3-0.8-0.1-1.4-0.4v-23.5l4.7-0.7v8.3q0.8-0.3 1.7-0.5 0.9-0.2 1.9-0.2c1.1 0 2.1 0.2 3.1 0.7 0.9 0.4 1.7 1 2.3 1.7q1 1.3 1.4 2.8c0.3 1.1 0.4 2.3 0.4 3.6zm-4.8-0.2c0-3.1-1.2-4.6-3.4-4.6q-0.7 0-1.5 0.2-0.6 0.1-1.1 0.5v8.6q0.3 0 0.9 0.1 0.5 0.1 1.2 0.1c1.1 0 2.2-0.4 2.9-1.4 0.7-1 1-2.2 1-3.5zm-15.2 7.9q-1.5 0.4-3.1 0.6c-1.4 0.2-2.7 0.3-4 0.3-1.3 0.1-2.4-0.2-3.6-0.6q-1.3-0.5-2.2-1.5-0.9-1.2-1.2-2.5c-0.3-1.1-0.4-2.2-0.4-3.2v-9.3h4.8v8.8q0 2.3 0.6 3.3 0.6 1 2.2 1 0.5 0 1.1-0.1c0.4 0 0.7 0 1-0.1v-12.9h4.8zm-27.7-10.1c0.5-0.5 0.9-1.1 1.5-1.6q0.7-0.8 1.4-1.6c0.5-0.6 0.9-1.1 1.3-1.5 0.4-0.5 0.8-1 1.1-1.3h5.7c-1.2 1.3-2.3 2.5-3.3 3.7-1.1 1.2-2.3 2.4-3.5 3.7 0.7 0.6 1.3 1.3 1.9 2 0.7 0.8 1.3 1.6 2 2.5 0.6 0.8 1.2 1.7 1.8 2.5q0.7 1.3 1.3 2.4h-5.5c-0.3-0.6-0.7-1.2-1.2-1.8-0.4-0.7-0.9-1.3-1.3-2.1q-0.7-1-1.6-1.9-0.7-0.9-1.6-1.5v7.3h-4.7v-24.1l4.7-0.7z"/>
</svg>