<svg version="1.2" xmlns="http://www.w3.org/2000/svg" viewBox="0 0 167 40" width="167" height="40">
	<title>terraform</title>
	<style>
		.s0 { fill: #000000 } 
		.s1 { fill: #4040b2 } 
		.s2 { fill: #5c4ee5 } 
	</style>
	<path fill-rule="evenodd" class="s0" d="m67.8 14.8c5 0 6.1 2.9 6.1 6.2v3.3h-8.7v0.8c0 1.9 0.7 2.6 3.1 2.6q2.4 0 4.7-0.7l0.6 2.9c-1.8 0.7-3.8 1-5.7 1-4.9 0-6.6-2.3-6.6-6v-4.1c0-3.3 1.5-6 6.5-6zm32.7 0c4.9 0 6.3 1.7 6.3 5.6v10.2h-3.2l-0.3-1.1c-1.3 0.9-2.9 1.4-4.6 1.4-2.8 0-4-1.9-4-4.6 0-3.2 1.3-4.4 4.5-4.4h3.7v-1.6c0-1.7-0.4-2.3-2.9-2.3q-2.2 0-4.3 0.5l-0.5-3q2.6-0.7 5.3-0.7zm25.9 0c5.3 0 6.8 2.9 6.8 6.1v3.9c0 3.2-1.5 6.1-6.8 6.1-5.3 0-6.8-2.9-6.8-6.1v-3.9c0-3.2 1.5-6.1 6.8-6.1zm-61.8-5.4v3.5h-6v17.7h-4v-17.7h-5.9v-3.5zm51.3-1.3q1.7 0 3.3 0.5l-0.4 2.9q-1.1-0.2-2.2-0.2c-1.6 0-1.8 0.7-1.8 1.8v2h4l-0.3 3.1h-3.7v12.4h-3.9v-12.4h-2.5v-3.1h2.5v-2.2c0-3.2 1.5-4.8 5-4.8zm41.3 8.3c2-1 4.1-1.5 6.3-1.6 2.6 0 3.5 1.8 3.5 4.5v11.3h-3.9v-10.8c0-0.9-0.4-1.3-1.2-1.3-1.5 0.2-2.9 0.6-4.1 1.4v10.7h-3.9v-10.8c0-0.9-0.4-1.3-1.3-1.3-1.4 0.2-2.8 0.6-4 1.4v10.7h-3.9v-15.5h3l0.3 1.3c2-1 4.1-1.5 6.3-1.6 1.2-0.2 2.4 0.5 2.9 1.6zm-73.3-1.6l0.4 3.5q-2.2 1-4.2 2.3v10h-3.8v-15.5h3.2l0.3 1.7q1.9-1.3 4.1-2zm9.5 0l0.4 3.5q-2.2 1-4.1 2.3v10h-3.9v-15.5h3.3l0.2 1.7q1.9-1.3 4.1-2zm49.4 0l0.4 3.5q-2.2 1-4.1 2.3v10h-3.9v-15.5h3.3l0.2 1.7q1.9-1.3 4.1-2zm-39.9 9.9h-2.8c-1.3 0-1.7 0.4-1.7 1.5 0 1.2 0.4 1.6 1.6 1.6 1 0 2-0.3 2.9-0.8zm23.5-6.6c-2.1 0-2.9 0.9-2.9 2.6v4.2c0 1.7 0.8 2.6 2.9 2.6 2.1 0 2.9-0.9 2.9-2.6v-4.2c0-1.7-0.8-2.6-2.9-2.6zm-58.6-0.2c-1.9 0-2.6 1-2.6 2.5v0.8h5v-0.8c0-1.5-0.5-2.5-2.4-2.5z"/>
	<g>
		<path class="s1" d="m24.3 26l11-6.3v-12.7l-11 6.4z"/>
		<path fill-rule="evenodd" class="s2" d="m12.2 19.7l10.9 6.3v-12.6l-10.9-6.4m-12.2 5.6l11 6.3v-12.6l-11-6.3zm12.2 21l10.9 6.3v-12.6l-10.9-6.3z"/>
	</g>
</svg>