<svg version="1.2" xmlns="http://www.w3.org/2000/svg" viewBox="0 0 111 37" width="111" height="37">
	<title>ansible_logo_icon_169596-svg</title>
	<style>
		.s0 { fill: #1a1918 } 
		.s1 { fill: #ffffff } 
	</style>
	<g id="Folder 1">
		<path class="s0" d="m36.4 18.8c0 2.3-0.5 4.6-1.4 6.8-0.9 2.2-2.2 4.2-3.8 5.8-1.7 1.7-3.7 3-5.9 3.9-2.1 0.9-4.4 1.4-6.8 1.4-9.9 0-17.9-8.1-17.9-17.9 0-9.9 8-17.9 17.9-17.9 9.9 0 17.9 8 17.9 17.9z"/>
		<path fill-rule="evenodd" class="s1" d="m27.2 26.4c0 0.7-0.7 1.3-1.4 1.3-0.3 0-0.6-0.2-0.9-0.5l-9.3-7.4-3.1 7.7h-2.7l7.9-18.8c0.2-0.5 0.6-0.7 1.1-0.7 0.5 0 0.9 0.2 1.1 0.7l7.1 17.2q0.1 0.3 0.2 0.5zm-10.8-8.7l7 5.5-4.6-11.4z"/>
		<path fill-rule="evenodd" class="s0" d="m60.9 24.1c-0.2 0-0.4 0-0.5-0.2l-5.9-7.8v7.9h-1.4v-9.8c0-0.4 0.3-0.7 0.7-0.7 0.2 0 0.4 0.1 0.6 0.3l5.9 7.8v-8h1.3v9.8q0 0.2 0 0.3-0.1 0.1-0.2 0.2-0.1 0.1-0.2 0.2-0.1 0-0.3 0zm7.9 0.1c-1.4 0-2.8-0.3-4.1-0.8l0.3-1.1c1.2 0.4 2.5 0.7 3.8 0.7 1.7 0 2.6-0.6 2.6-1.5 0-0.8-0.7-1.2-3.1-2.3-2.4-1.1-3.3-1.8-3.3-3.2 0-1.8 1.3-2.5 3.9-2.5 1 0 2.7 0.2 3.6 0.5l-0.2 1.1q-0.4-0.1-0.9-0.1-0.4-0.1-0.8-0.2-0.4 0-0.8 0-0.5-0.1-0.9-0.1c-1.8 0-2.5 0.4-2.5 1.2 0 0.9 0.5 1.2 3 2.4 2.7 1.2 3.4 1.9 3.4 3.1 0 1.9-1.8 2.8-4 2.8zm7-10.6h1.4v10.4h-1.4zm10.8 10.3h-4.2c-0.4 0-0.7-0.3-0.7-0.7v-9q0-0.1 0-0.3 0.1-0.1 0.2-0.2 0.1-0.1 0.2-0.1 0.1-0.1 0.3-0.1h3.4c2.2 0 3.4 1 3.4 2.7 0 0.9-0.5 1.7-1.3 2.2 1.2 0.3 2 1.3 2 2.5 0 1.7-1.4 3-3.3 3zm-0.7-9.2h-2.8v3.3h2.8c1.1 0 1.9-0.7 1.9-1.7 0-1-0.7-1.6-1.9-1.6zm0.6 4.5h-3.4v3.5h3.4c1.2 0 1.9-0.7 1.9-1.8 0-1-0.7-1.7-1.9-1.7zm7.5 4.6c-0.4 0-0.7-0.3-0.7-0.7v-9.7h1.4v9.1h5.5v1.3zm12.8 0c-2.8 0-4.5-1-4.5-3.2 0-1 0.5-2 1.6-2.4-0.9-0.6-1.3-1.4-1.3-2.2 0-2 1.5-2.9 4.3-2.9q0.4 0 0.8 0 0.5 0.1 0.9 0.1 0.4 0 0.8 0.1 0.4 0.1 0.8 0.2l-0.1 1.1q-1.7-0.3-3.3-0.3c-1.8 0-2.8 0.5-2.8 1.7 0 1 0.9 1.7 2.1 1.7h2.4q0.1 0 0.2 0.1 0.1 0 0.2 0.1 0.1 0.1 0.1 0.2 0.1 0.1 0.1 0.2c0 0.4-0.3 0.6-0.6 0.6h-2.6c-1.4 0-2.2 0.7-2.2 1.7 0 1.5 1.4 2 3.1 2 1 0 2.3-0.1 3.3-0.4l0.2 1.2q-0.4 0.1-0.8 0.2-0.5 0-0.9 0.1-0.4 0.1-0.9 0.1-0.4 0-0.8 0zm-56.9-0.5q0 0 0 0.1 0 0 0 0 0 0.1 0 0.1 0 0.1-0.1 0.3 0 0.1-0.1 0.2-0.1 0.1-0.2 0.1-0.2 0.1-0.3 0.1c-0.2 0-0.3-0.1-0.5-0.3l-4.9-4-1.6 4.2-1.4 0.3 4.1-10.4q0-0.1 0.1-0.2 0 0 0.1-0.1 0.1 0 0.2-0.1 0.1 0 0.2 0c0.2 0 0.5 0.1 0.6 0.4l3.7 9.2q0 0 0.1 0.1zm-5.7-4.5l3.7 3-2.4-6.1z"/>
	</g>
</svg>